<?xml version="1.0" encoding="UTF-8"?><!DOCTYPE svg PUBLIC "-//W3C//DTD SVG 1.1//EN" "http://www.w3.org/Graphics/SVG/1.1/DTD/svg11.dtd"><svg xmlns="http://www.w3.org/2000/svg"><symbol id="down-arrow" viewBox="0 0 129 129"><path d="M121.3 34.6c-1.6-1.6-4.2-1.6-5.8 0l-51 51.1-51.1-51.1c-1.6-1.6-4.2-1.6-5.8 0-1.6 1.6-1.6 4.2 0 5.8l53.9 53.9c.8.8 1.8 1.2 2.9 1.2 1 0 2.1-.4 2.9-1.2l53.9-53.9c1.7-1.6 1.7-4.2.1-5.8z" fill="#acb0b2"/></symbol><symbol id="right-arrow" viewBox="0 0 129 129"><path d="M40.4 121.3c-.8.8-1.8 1.2-2.9 1.2s-2.1-.4-2.9-1.2c-1.6-1.6-1.6-4.2 0-5.8l51-51-51-51c-1.6-1.6-1.6-4.2 0-5.8 1.6-1.6 4.2-1.6 5.8 0l53.9 53.9c1.6 1.6 1.6 4.2 0 5.8l-53.9 53.9z" fill="#5c5c5d"/></symbol><symbol id="search--" viewBox="0 0 129 129"><path d="M51.6 96.7c11 0 21-3.9 28.8-10.5l35 35c.8.8 1.8 1.2 2.9 1.2s2.1-.4 2.9-1.2c1.6-1.6 1.6-4.2 0-5.8l-35-35c6.5-7.8 10.5-17.9 10.5-28.8 0-24.9-20.2-45.1-45.1-45.1-24.8 0-45.1 20.3-45.1 45.1 0 24.9 20.3 45.1 45.1 45.1zm0-82c20.4 0 36.9 16.6 36.9 36.9C88.5 72 72 88.5 51.6 88.5S14.7 71.9 14.7 51.6c0-20.3 16.6-36.9 36.9-36.9z" fill="#acb0b2"/></symbol><symbol id="search-white" viewBox="0 0 129 129"><path d="M51.6 96.7c11 0 21-3.9 28.8-10.5l35 35c.8.8 1.8 1.2 2.9 1.2s2.1-.4 2.9-1.2c1.6-1.6 1.6-4.2 0-5.8l-35-35c6.5-7.8 10.5-17.9 10.5-28.8 0-24.9-20.2-45.1-45.1-45.1-24.8 0-45.1 20.3-45.1 45.1 0 24.9 20.3 45.1 45.1 45.1zm0-82c20.4 0 36.9 16.6 36.9 36.9C88.5 72 72 88.5 51.6 88.5S14.7 71.9 14.7 51.6c0-20.3 16.6-36.9 36.9-36.9z" fill="#fff"/></symbol><symbol id="add" viewBox="1870 1042 267 267"><g fill-rule="evenodd" transform="translate(1870 1042)"><circle class="shape" cx="133.9" cy="133.2" r="133"/><path d="M199.6 146.1h-55.3c-1.1 0-1-.1-1 1v55.6c-.4 2.3-.9 4.6-2.6 6.4-.6.7-1.4 1.3-2.2 1.8-.1.1-.2.1-.3.2-.9.9-2 1-3.1 1.3-1.3.4-2.6.3-3.8.2-1.9-.1-3.6-.7-5.2-1.9-1.3-1.1-2.5-2.2-3.4-3.7-.6-.9-.8-1.9-1-3-.6-2.5-.2-5-.3-7.4-.1-1.5 0-3.1 0-4.6V146.7c0-.6-.2-.7-.7-.7H65.4c-2.2 0-4.3-.7-6.1-2.1-1.6-1.2-2.6-2.8-3.6-4.4-.3-.5-.3-1.1-.4-1.7-.4-1.6-.6-3.1-.1-4.8.3-1.2.5-2.4 1.2-3.5 1.2-1.7 2.3-3.5 4.4-4.3.8-.3 1.7-.5 2.5-.7.5-.1 1-.4 1.6-.4h55.8c.7 0 .8-.3.8-.8V69.9c0-1.6.1-3.2.5-4.8.3-1.1.8-2.2 1.4-3.1.3-.5.6-1.1 1.1-1.4.6-.4 1.1-.8 1.6-1.2 2-1.3 4.1-2.1 6.5-2.2.6.4 1.4.4 2.1.6.9.3 1.9.3 2.8.8 2.2 1.3 4.2 2.9 5.1 5.4.4 1.1.7 2.2.7 3.4V123.2c0 .6.2.8.8.8h54.6c2.2 0 4.2.4 6.1 1.5 1.3.7 2.1 1.8 3 2.9.5.7 1 1.3 1.4 2.1.2.4.2.9.3 1.3.5 1.8.7 3.5.2 5.4-.1.5-.3 1.1-.4 1.7-.1.5-.3 1.1-.7 1.5-.6.8-1.1 1.6-1.8 2.3-.9 1-2 1.8-3.4 2.2-1.2.6-2.5 1-3.8 1.2z" fill="#FFF"/></g></symbol><symbol id="arrow-bottom-fill-strong" viewBox="2857 2632 174 109"><path class="shape" d="M2944.2 2740.3l-86.8-86.2 22-22.1 64.8 64.4 64.7-64.4 22 22.1z"/></symbol><symbol id="arrow-bottom-fill" viewBox="3094 2424 182 105"><path class="shape" d="M3184.6 2528.2l90.6-90.1-13.8-14-76.8 76.3-76.7-76.3-13.9 14z"/></symbol><symbol id="arrow-left-fill-strong" viewBox="2720 2759 109 174"><path class="shape" d="M2720 2846.2l86.2-86.8 22.1 22-64.4 64.8 64.4 64.7-22.1 22z"/></symbol><symbol id="arrow-left-fill" viewBox="3132 2385 105 182"><path class="shape" d="M3132.55 2476.15l90.1 90.6 14-13.8-76.3-76.8 76.3-76.7-14-13.9z"/></symbol><symbol id="arrow-left" viewBox="2724 746 100 139"><path class="shape" fill-rule="evenodd" d="M2824 884.8l-99.3-68.9 99.3-69z"/></symbol><symbol id="arrow-right-fill-strong" viewBox="3030 2759 109 174"><path class="shape" d="M3138.3 2846.1l-86.2 86.8-22.1-22 64.4-64.8-64.4-64.7 22.1-22z"/></symbol><symbol id="arrow-right-fill" viewBox="3132 2385 105 182"><path class="shape" d="M3236.65 2476.15l-90.1 90.6-14-13.8 76.3-76.8-76.3-76.7 14-13.9z"/></symbol><symbol id="arrow-right" viewBox="2873 745 100 138"><path class="shape" fill-rule="evenodd" d="M2873.7 882.9l99.3-69-99.3-68.9z"/></symbol><symbol id="arrow-top-fill-strong" viewBox="2857 2422 174 109"><path class="shape" d="M2944.2 2422l-86.8 86.2 22 22.1 64.8-64.4 64.7 64.4 22-22.1z"/></symbol><symbol id="arrow-top-fill" viewBox="3094 2424 182 105"><path class="shape" d="M3184.6 2424.1l-90.6 90.1 13.8 14 76.8-76.3 76.7 76.3 13.9-14z"/></symbol><symbol id="attention" viewBox="539 284 348 317"><g fill-rule="evenodd"><path d="M611.1 574.9h-47c-4.3 0-8.4-.8-12.2-3-4.9-2.7-8.5-6.7-10.4-12-.9-2.5-1.6-5.2-1.7-7.9-.2-5 1.5-9.5 4.1-13.8 4.3-6.9 8.5-13.9 12.7-20.8 3-4.9 6.2-9.8 9.2-14.8 4.8-7.8 9.5-15.6 14.3-23.3 5.8-9.5 11.7-18.9 17.5-28.4 5-8.1 9.9-16.3 14.9-24.4 4.6-7.5 9.2-14.9 13.8-22.4 5-8.2 10.1-16.4 15.1-24.6l14.4-23.4c4-6.6 8.1-13.1 12.2-19.6 4-6.5 7.9-13 11.9-19.5 3-5 6.1-9.9 9.2-14.8 1.9-3.1 3.7-6.3 5.9-9.3 1.9-2.5 4.5-4.3 7.4-5.8 4.3-2.2 8.9-2.9 13.6-2.3 3.7.5 7.1 1.9 10.3 4 4.2 2.8 6.5 7 9 11 3.5 5.6 7 11.3 10.5 16.9 2.9 4.8 5.8 9.6 8.8 14.4 3.5 5.6 7 11.3 10.5 16.9 2.9 4.7 5.8 9.5 8.7 14.2 3.5 5.7 7.1 11.4 10.6 17.1 2.9 4.7 5.7 9.4 8.6 14.1 3.5 5.7 7.1 11.4 10.6 17.1l8.7 14.4c3.5 5.6 7 11.2 10.5 16.9 2.9 4.7 5.8 9.5 8.7 14.3 3.5 5.7 7.1 11.3 10.6 17 2.9 4.8 5.8 9.6 8.8 14.4 3.5 5.6 7 11.2 10.5 16.9 2.9 4.8 5.8 9.6 8.8 14.4 3.5 5.6 7 11.3 10.5 16.9 2.1 3.4 4.2 6.7 5 10.6.8 3.6.6 7.1-.3 10.7-1.4 5.4-4.4 9.5-8.6 12.9-2.2 1.7-4.6 2.8-7.3 3.6-3.7 1.1-7.4 1.1-11.1 1.1h-91.7c-3.1 0-3.7-.6-3.7-3.7V561c0-3 .6-3.7 3.6-3.7h95.7c2.2 0 4-.5 5.4-2.3 1.4-1.8 2-4.5-.3-8.1-4.5-7.1-8.8-14.3-13.2-21.5-4.8-7.8-9.6-15.6-14.4-23.5-4.8-7.8-9.6-15.7-14.4-23.5-3.5-5.6-7-11.1-10.5-16.7-4.6-7.4-9-14.9-13.6-22.3-3.4-5.6-7-11.1-10.4-16.7-2.9-4.7-5.8-9.5-8.7-14.2-3.1-5.1-6.2-10.1-9.3-15.2-3.3-5.4-6.7-10.9-10-16.3-3.5-5.6-7-11.2-10.5-16.9-2.9-4.8-5.8-9.6-8.8-14.4-3.1-5-6.2-10-9.3-15.1-3.3-5.4-6.7-10.9-10-16.3-2.1-3.4-4-6.9-6.2-10.1-2.8-4-7.8-4-10.5.3-2.8 4.3-5.3 8.8-8 13.2-3 4.9-6.2 9.8-9.2 14.8-4.8 7.8-9.6 15.6-14.4 23.5-4.8 7.8-9.5 15.6-14.3 23.4-4.8 7.8-9.6 15.6-14.4 23.5-4.8 7.8-9.6 15.6-14.4 23.5-4.8 7.8-9.6 15.6-14.4 23.5-4.8 7.9-9.7 15.7-14.5 23.6-4.8 7.9-9.7 15.7-14.6 23.5-4.8 7.8-9.6 15.6-14.4 23.5-4.8 7.8-9.6 15.6-14.4 23.5-.8 1.3-1.5 2.6-2.4 3.8-1.7 2.5-1.3 6.7 1.4 8.4.8.5 1.8.9 2.8 1.1.8.2 1.6.1 2.4.1h94.8c2.9 0 3.5.7 3.5 3.6v10.7c0 2.3-.8 3.1-3.1 3.1-16.4.1-32.7.1-48.9.1z" class="shape"/><path d="M721.9 558h-19.1V387.8h19.1V558zM702.9 579.8H722v20.3h-19.1v-20.3z" class="shape"/></g></symbol><symbol id="bell" viewBox="2531 283 315 320"><g fill-rule="evenodd"><path d="M2845.5 548h-314c0-.5-.1-.9-.1-1.3v-14.5c0-.6.2-1.4.5-1.8 15.1-19 26.6-40.1 36.7-62.1 8.3-18 14.3-36.8 19-56.1 3.5-14.3 7.8-28.3 14.1-41.7 5.9-12.5 13.6-23.8 24.3-32.7 7-5.9 14.9-10.3 23.5-13.5.6-.2 1.1-.5 1.4-.6-.2-14.7 5.4-26.4 17.7-34.3 12.7-8.1 26.2-8.4 39.2-.7 13.1 7.7 19 19.8 18.8 35.2 1.3.5 2.8 1.1 4.3 1.7 18.1 7.7 31 20.9 40.4 37.9 7 12.6 11.6 26.2 15.6 40 3.5 12.1 6.5 24.5 10.6 36.4 10.3 30.4 24.8 58.7 43.3 84.9.7 1 1.4 2.2 2.4 3 2.1 2 2.7 4.3 2.5 7.2-.2 4.1-.1 8.3-.1 12.5 0 .2 0 .3-.1.5zm-168-209.9c-.6.2-1.1.3-1.7.5-3.4.9-6.7 1.7-10.1 2.6-8.1 2-15.7 5-22.4 10.2-8 6.2-13.7 14.2-18.1 23.2-5.2 10.4-8.6 21.3-11.7 32.5-3.2 11.5-5.9 23.2-9.5 34.7-9.3 29.8-22.9 57.5-39.3 84-.3.5-.6 1-1 1.7h249.8v-.4c-.2-.4-.5-.8-.7-1.2-16.4-26.7-30.2-54.6-39.6-84.5-3.7-11.8-6.6-23.9-10-35.8-3.3-11.7-7.1-23.2-12.9-34-4.5-8.3-10.1-15.6-17.9-21.2-6.8-4.9-14.5-7.7-22.7-9.4-3.2-.7-6.4-1.5-9.6-2.2.3-1 .7-1.9.9-2.8 1.2-5 2.9-10 3.5-15.1.9-8.3-5.9-15.6-14.4-16.2-8.2-.6-15.7 5.9-16.4 14-.3 3.5.6 6.9 1.4 10.3.5 2.9 1.4 5.9 2.4 9.1zM2653.2 570.7h70.5c-.9 14.3-13.9 31.3-35.1 31.4-21.1.1-34.4-16.8-35.4-31.4z" class="shape"/></g></symbol><symbol id="book" viewBox="3317 291 414 303"><path d="M3318 428V304.8c0-3.5.6-6.7 3.2-9.3 2.2-2.2 4.9-3.5 8-3.5 7 0 14 0 20.9.1 6.2.1 12.4.4 18.6.7 4.2.2 8.4.4 12.6.8 6 .4 12 .9 17.9 1.5 4.8.4 9.7 1 14.5 1.5 4 .4 7.9.9 11.9 1.5 5.2.7 10.3 1.5 15.5 2.3 4.3.7 8.6 1.4 12.8 2.2 4.4.9 8.8 1.9 13.2 2.8 4 .8 8 1.5 12 2.4 3.5.8 7 1.8 10.5 2.7 3.2.8 6.4 1.6 9.6 2.5 3 .8 5.9 1.6 8.8 2.6 3.5 1.1 6.9 2.3 10.4 3.4.7.2 1.4.4 2.1.8 3.8 2.3 7.1 0 10.5-1.1 3.6-1.1 7.1-2.3 10.7-3.4 3-.9 6.1-1.9 9.2-2.7 2.2-.6 4.5-1.2 6.8-1.8 3.7-.9 7.4-1.9 11.1-2.8 2.7-.6 5.4-1.1 8.2-1.7 3.1-.7 6.1-1.4 9.2-2 1.5-.3 3-.7 4.6-.9 3.5-.6 7.1-1.1 10.7-1.7 5.4-.9 10.7-1.9 16.1-2.8 2.6-.4 5.2-.6 7.8-.9l15.9-2.1c2.6-.3 5.2-.6 7.8-.8l12.9-.9 15-.9c4.1-.2 8.2-.5 12.4-.7 9.9-.3 19.8-.5 29.7-.7 6.3-.2 11.8 5.7 11.8 11.8-.1 82.7-.1 165.5 0 248.2 0 6.1-5.7 11.9-11.8 11.7-5.9-.2-11.8-.1-17.7.1-7 .2-14 .5-21.1.8-3.9.2-7.9.4-11.8.7-6 .5-12.1 1-18.1 1.5-4.5.4-8.9.9-13.4 1.5-5.9.7-11.7 1.5-17.6 2.3-4.6.7-9.2 1.4-13.8 2.2-4.7.9-9.3 1.9-14 2.8-3 .6-6 1-8.9 1.7-3.8.9-7.7 1.9-11.5 2.8-3.5.8-7 1.6-10.4 2.5-3 .8-5.9 1.6-8.9 2.5-2.9.9-5.9 1.8-8.7 2.8-4.6 1.6-9.3 3.1-13.8 4.9-3.4 1.4-6.6 1.4-10 0-3.8-1.6-7.8-2.8-11.7-4.1-3.6-1.2-7.3-2.4-11-3.5-3.1-.9-6.3-1.7-9.5-2.5-3.5-.9-7-1.9-10.6-2.7-2.5-.6-5-1.2-7.6-1.7l-9.6-2.1c-1.5-.3-2.9-.6-4.4-.9-5-.8-9.9-1.6-14.9-2.4-4.9-.8-9.8-1.6-14.7-2.3-6-.8-12.1-1.6-18.2-2.3-5-.6-9.9-1.1-14.9-1.5-7.2-.6-14.3-1.1-21.5-1.5-5.7-.3-11.4-.6-17.1-.8-8.3-.3-16.6-.5-24.8-.6-5.3-.1-11.2-5-11.1-10.6V550c.2-40.7.2-81.3.2-122zm194.7-86c-2-.6-3.9-1.3-5.9-1.9-3.7-1.2-7.3-2.4-11-3.5-3.2-.9-6.4-1.6-9.7-2.5-3.5-.9-7-2-10.5-2.8-3.9-.9-7.9-1.6-11.8-2.4-4.3-.9-8.7-2-13-2.8-4.2-.8-8.4-1.6-12.6-2.2-5.1-.8-10.2-1.6-15.3-2.3-3.8-.5-7.6-1-11.5-1.5-4.8-.6-9.5-1.1-14.3-1.5-5.9-.5-11.8-1-17.8-1.5-4.2-.3-8.5-.6-12.8-.8-7.6-.3-15.2-.5-22.8-.8-2-.1-2.4.6-2.4 2.4V540.1c5 .3 9.8.6 14.5.8 6.2.3 12.4.5 18.6.8 3.4.2 6.9.4 10.3.7 6.2.5 12.3 1 18.5 1.6 4.3.4 8.7.9 13 1.5 5.9.7 11.7 1.5 17.6 2.3 4.1.5 8.1 1.1 12.2 1.7 1.5.2 3.1.5 4.6.8 3.6.7 7.3 1.4 10.9 2.1 2.9.6 5.7 1.1 8.6 1.7 3 .6 6 1.4 9 2.1 2.4.6 4.8 1.1 7.2 1.7 3.6.9 7.1 1.9 10.7 2.9 3 .8 6 1.8 9 2.7 2.2.6 4.3 1.3 6.6 2 .1-74.7.1-149 .1-223.5zm194.7-26.7c-3.8.3-7.2.6-10.7.7-5.9.3-11.8.5-17.7.8-4.8.2-9.5.5-14.3.8-2.4.2-4.7.4-7.1.7-5.5.5-10.9 1-16.4 1.6-3.9.4-7.8.9-11.7 1.4-5.4.7-10.8 1.5-16.2 2.3-3.8.5-7.6 1.1-11.4 1.7-1.6.2-3.2.6-4.8.9-3.3.7-6.5 1.4-9.8 2-2.8.6-5.7 1.1-8.5 1.7-2.7.6-5.4 1.4-8.1 2-3.4.8-6.9 1.5-10.3 2.5-4 1.1-7.9 2.3-11.8 3.5-4.2 1.3-8.4 2.6-12.5 3.8V565c.5 0 .8 0 1.2-.1 3.8-1.2 7.6-2.5 11.4-3.6 3.2-.9 6.4-1.6 9.7-2.4 3.6-.9 7.1-2 10.7-2.8 4-.9 8-1.6 12-2.5 4.4-.9 8.8-2 13.2-2.8 4.3-.8 8.5-1.6 12.8-2.2 5.2-.8 10.3-1.6 15.5-2.3l11.7-1.5c4.7-.5 9.4-1.1 14.1-1.5 6-.6 11.9-1.1 17.9-1.5 6.2-.4 12.4-.6 18.6-.9 7.3-.3 14.7-.5 22-.8.1 0 .2-.1.3-.2.2-74.6.2-149.4.2-224.6z" class="shape" fill-rule="evenodd"/></symbol><symbol id="bus" viewBox="0 0 388 318"><title>Group</title><g fill-rule="evenodd"><path d="M274.8 210.5c-29.3.3-53 24.3-53 53.8 0 29.8 24 53.8 53.7 53.7 29.8-.1 53.4-24 53.3-54-.2-29.8-24.3-53.7-54-53.5zm1.1 76.9c-12.3.4-23.1-9.9-23.5-22.4-.4-12.8 10-23.6 22.8-23.7 12.5-.1 23 10.1 23.2 22.7.2 12.3-10.1 23-22.5 23.4zm33.1 1.1v-.2.2z"/><path d="M239.6 182.3v-23h148.1v-8.4c0-1.2.1-2.4-.1-3.5-.6-2.5-1.4-4.9-2.1-7.4-.4-1.3-47.8-123.7-48.4-125.9-1-3.3-2.4-6.2-4.6-8.7-1.7-1.9-3.6-3.7-6.3-3.8-7.9-.4-15.9-.9-23.8-.9C253 .6 1.3.3.6.3v46.6h58.2c4.9 0 8.9 4 8.9 8.9v67.9c0 4.9-4 8.9-8.9 8.9H1.3c-.8.2-.8.7-.8 2.3v21.6c0 .5.1.9.1 1.4.5 0 .9.1 1.2.1 30.1.5 60.1-.3 90.2.7 30.3 1 60.6.3 90.9.3h2.1v23.3H.5V278.4h209c-1.4-5.4-2.1-11-2.1-16.8 0-37.3 30.2-67.5 67.5-67.5 33.9 0 62 25 66.8 57.6.2 1.4.4 2.8.5 4.2.2 1.9.2 3.8.2 5.8 0 4.7-.5 9.2-1.4 13.6-.2 1.5-.3 2.7-.4 3.3h2.7c7.3 0 14.5.1 21.8 0 2.6 0 5.2.4 7.8-.8 1.8-.8 3.8-1.3 5.5-2.5 1.4-1.1 2.9-2.3 3.9-3.7 1.5-2.1 2.9-4.3 4-6.7.8-1.6 1.3-3.5 1.3-5.3.2-5.5.1-10.9.1-16.4v-61h-1.1c-49 .1-97.9.1-147 .1zm6.7-121.2c0-4.2 2.2-7.4 5.7-9.9 3.4-2.4 7.2-2.9 11.2-2.9 16.8 0 33.7-.1 50.5.1 4.6 0 8.5 1.8 11.1 6 1.4 2.3 24.2 59.9 25.3 62.7 1.1 2.8-.2 7.7-2.5 9.8-2.6 2.3-5.5 3.2-8.9 3.2h-40c-13.6 0-27.3.1-40.9-.1-3.5 0-6.2-2-8.5-4.8-2.6-3.2-3.1-6.7-3.1-10.6 0-17.8-.1-35.7.1-53.5zm-63.4 62.7c0 4.9-4 8.9-8.9 8.9H88c-4.9 0-8.9-4-8.9-8.9V55.9c0-4.9 4-8.9 8.9-8.9h86.1c4.9 0 8.9 4 8.9 8.9v67.9h-.1z"/></g></symbol><symbol id="chair" viewBox="2179 1434 191 239"><path d="M2360.8 1574.2h-.1s-1-.3-2.6-.3c-.6-.1-1-.2-1.7-.2h-58.7s-.7 0-1.6.2h-1.8l-49 4.3-8.6-23.6h76s11.4 0 11.4-11.4v-.1s0-11.4-11.4-11.4h-84.4l-14.5-39.9s0-.1-.1-.1v-40.6s0-17.1-17.1-17.1c0 0-17.1 0-17.1 17.1v42.7s0 2.9 1.2 6.3c.2 1.1.5 2.2.9 3.4l39.7 109.2s1 2.7 3.3 5.5c2.4 3.5 6.6 6.6 13.8 6.6h36.4v29.3H2228s-8.6 0-8.6 8.6v1s0 8.6 8.6 8.6h116.3s8.6 0 8.6-8.6v-1s0-8.6-8.6-8.6h-46.9v-29.3H2349.8c3.4.2 9.4-.7 11.5-8.4l7.5-28c.1-.2 3-11.2-8-14.2" class="shape" fill-rule="evenodd"/></symbol><symbol id="check" viewBox="0 0 280 284"><title>Group</title><g fill-rule="evenodd"><path d="M220.3 260.8h-198v-198h98.1s16-16.4 22.4-22.8H20.1c-.9 0-1.7 0-2.5.1H.2v243.4h12c.5.1 1 .1 1.4.1H230c.5 0 1 0 1.4-.1h11.8v-17.8c.2-1.8.3-3.8.3-5.9V140.6c-9.2 9.2-14.1 14.5-23.3 23.7l.1 96.5z"/><path d="M164.5 173.4c-14 4.8-72.8 17.5-72.8 17.5s2.5-10.6 5.7-24c2.1-8.7 4.5-18.7 6.7-27.5 2.5-9.8 4.7-18.2 6.1-22.4.3-.9 12.2-13.6 29-31.1H45.3v153.5h153.5V138.8c-19.7 20.6-32.9 34.2-34.3 34.6z" fill="#ff6363"/><path d="M279.6 50.9c-.5-4.1-.5-8.5-1.7-12.5-5.7-17.8-19.2-31.7-37.5-36.7C236.8.8 231.8-.2 228 0c-3.1.1-6.7 1.5-9.5 4.3-23 23.4-55.9 57.2-79.3 81.7h59.6v52.9c20.4-21.2 47.7-49.6 76.1-78.3 2.8-2.8 3.9-6.1 4.7-9.7z"/><path d="M139.2 86c-16.7 17.4-28.7 30.2-29 31.1-1.4 4.1-3.6 12.6-6.1 22.4-2.2 8.8-4.6 18.7-6.7 27.5-3.2 13.3-5.7 24-5.7 24s58.8-12.7 72.8-17.5c1.4-.4 14.6-14 34.3-34.5V86h-59.6zm15.5 76.5c-3.6 1.2-9.7 2.6-16.5 4-9.5 2-20.5 4-28.1 5.9 1.8-5.5 4.2-17.6 6.5-28.3 1.5-6.7 2.9-12.9 4.2-16.5 3.9-1.2 7.6-1.4 10.5-.1 10.7 4 18.1 11.6 22.5 22 1.3 2.6 2.7 12.8.9 13z"/></g></symbol><symbol id="clock" viewBox="2159 283 316 316"><g fill-rule="evenodd"><path d="M2318.4 598.8c-43.1-.5-80-15.1-110.5-44.4-29.2-28.2-45.4-63.1-47.7-103.7-2.5-43.4 10.9-81.8 39.9-114.3 28.9-32.3 65.4-49.9 108.6-52.3 43.4-2.4 81.8 11.3 114 40.3 31.8 28.6 49.4 64.9 51.8 107.6 2.7 47.5-13.4 88.6-47.3 121.9-30.1 29.6-67.1 44.2-108.8 44.9zm99.5-249.1c-20.1-21.6-44-35.8-72.7-41.6-6.7-1.4-13.5-2.1-20.5-3.2v13.4h-9.6c-.8 0-.9-.5-.9-1.1v-10.4c0-.5-.1-1-.1-1.8-2 .2-3.9.3-5.8.5-3.3.3-6.7.6-10 1.1-4 .6-8 1.3-12 2.1-3.1.6-6.1 1.3-9.1 2.2-3.5 1.1-7.1 2.2-10.5 3.7-5.6 2.5-11.1 5-16.5 8-7.8 4.3-14.9 9.6-21.7 15.4-5.3 4.5-10 9.6-14.7 14.6-.6.6-.7 1.1 0 1.7 3.8 3.6 7.6 7.3 11.3 11 2.4 2.3 2.2 1.5.1 3.8 0 .1-.2 0-.4.1-4.4-4.3-8.9-8.8-13.5-13.2-10.3 12.6-18.2 26.5-23.3 41.9-5.2 15.7-7.4 31.9-6.8 48.6h12.5V457H2182c3.7 31.9 17.3 58.8 39.8 81.2l6-6c2.2-2.2 4.5-4.4 6.7-6.7.9-.9 1.2.1 1.6.4.4.4 1.1.8.3 1.5-.9.9-1.7 1.9-2.6 2.9-2.9 3-5.9 6-8.8 8.9-.7.8-.7 1.5.1 2.1 2.5 2.1 4.9 4.1 7.4 6.2 6.2 5.1 12.8 9.5 19.9 13.4 5.6 3.1 11.4 5.9 17.5 7.9 4.9 1.6 9.7 3.2 14.7 4.6 3.5 1 7.1 1.6 10.8 2.1 3.7.5 7.4.8 11.1 1.2.4 0 .9.1 1.3.1 2.7.2 5.4.3 8.4.5v-13.7h10.5v13.6c.7-.2 1.1-.3 1.6-.4 4.1-.5 8.3-1 12.4-1.6 3.3-.5 6.7-1.3 10-2.1 3.6-.9 7.1-2 10.7-3.1 5.7-1.8 11.1-4.2 16.4-6.8 9-4.5 17.3-10 25.2-16.4 1.2-1 1.2-1 .1-2.1-3.3-3.1-6.5-6.3-10-9.6.9-.8 1.5-1.4 2.2-2 .4.3.7.5.9.8 3.1 3 6.2 6 9.3 9.1.8.9 1.4.9 2.2.1 2.6-2.6 5.3-5.2 7.9-7.8 5.8-5.9 10.9-12.4 15.5-19.3 4.7-7.1 8.7-14.5 12-22.3 2.5-5.9 4.4-11.9 6.1-18.1 1-3.7 1.5-7.4 2.2-11.1.3-1.5.7-3 .9-4.6.3-1.8.4-3.6.6-5.6h-14.1v-10.5h14.9c-.3-5.6-.5-11-.8-16.4-.1-1.4-.3-2.9-.5-4.3-.4-2.7-.9-5.4-1.5-8-.5-2.8-1-5.6-1.7-8.3-1-3.8-2.2-7.5-3.5-11.2-1.7-4.5-3.4-9.1-5.5-13.4-5.1-10.5-11.5-20.1-19.2-28.9-1-1.2-1.1-1.2-2.2-.1-3.5 3.6-7.1 7.2-10.6 10.8-1 1-1.4.2-2.1-.4-.8-.7-.6-1.1 0-1.7l4.2-4.2c2.4-2.7 4.9-5.3 7.6-8z" class="shape"/><path d="M2293.6 463.3c-8.9 0-17.8-.1-26.6 0-14.2.1-28.3.3-42.5.5-2 0-3.9 0-5.9-.1-3.9-.3-8.2-3.1-9.4-7.3-1.9-6.2.7-11 5.9-13.6.9-.4 2-.6 3-.6 9.3-.1 18.7-.1 28-.1 21.1-.1 42.2-.3 63.4-.5 2.8 0 2.8 0 3.1-2.8 0-.5.1-1 .1-1.4 0-10.1 0-20.1-.1-30.2-.1-12-.2-24-.5-36.1-.1-3.9 1.7-6.7 4.9-8.6 6.1-3.7 12.1-1.6 15.6 4.4.7 1.1 1 2.6 1 3.9 0 3.6-.3 7.2-.3 10.9.1 21 .3 42 .5 63 0 2.6.4 5.2.3 7.8-.1 3-1.2 5.7-3.6 7.7-1.7 1.4-3.6 2.5-5.8 2.6-8 .2-16.1.3-24.1.5h-7z" class="shape"/></g></symbol><symbol id="close" viewBox="3364 2378 161 160"><path d="M3456.5 2458.2c.6.5 1 .8 1.4 1.3 21.2 21.2 42.4 42.4 63.7 63.6 3.7 3.7 3.8 8.9.2 12.4-3.1 3-7.9 3.3-11.3.6-.5-.4-1-1-1.5-1.5l-63.2-63.2c-.4-.4-.7-.8-1.5-1.7-.3.6-.5 1.2-.9 1.6-21.2 21.3-42.5 42.5-63.7 63.7-2.4 2.4-5.1 3.4-8.5 2.7-4.1-.8-6.6-5-6.5-8.1.1-2.8 1-5 2.9-6.9 21.2-21.1 42.3-42.3 63.5-63.4.4-.4.9-.7 1.4-1v-.6c-.5-.3-1-.6-1.4-1-21.1-21.1-42.2-42.3-63.4-63.4-1.9-1.9-3.1-4-3-6.8.1-3.6 1.7-6.1 4.8-7.6 3.2-1.5 6.3-1.1 9.1 1.2.5.4 1 .9 1.4 1.4l63.3 63.3c.3.3.6.7 1.4 1.6.4-.7.6-1.2.9-1.6 21.2-21.2 42.4-42.4 63.6-63.7 2.4-2.4 5.1-3.5 8.4-2.8 3.2.7 5.3 2.8 6.3 5.9.9 3.1.3 5.9-2 8.2-2.9 3-5.9 5.9-8.8 8.9-18.5 18.5-37 37.1-55.5 55.6-.3.5-.6.8-1.1 1.3z" class="shape"/></symbol><symbol id="contacts" viewBox="2944 290 275 301"><g fill-rule="evenodd"><path d="M2944.2 440.4V299c0-2.7.9-4.8 2.9-6.5 1.2-1 2.6-1.4 4.1-1.7.5-.1 1 0 1.5 0h226.9c2.5 0 5 .1 7.5.6 4.4.8 8.6 2.3 12.5 4.5 5.1 2.9 9.4 6.8 12.6 11.7 1.7 2.6 3 5.4 4.2 8.3 2.1 5 2.5 10.3 2.5 15.7v231.6c0 3.4-.5 6.7-1.6 9.8-1.9 5-5 9.1-9.4 12.2-3 2.1-6.2 3.5-9.7 4.3-1.7.4-3.5.6-5.2.6h-240.8c-3.4 0-5.8-1.6-7.3-4.5-.5-.9-.6-2-.6-3.1-.1-4.6 0-9.1 0-13.7-.1-42.8-.1-85.6-.1-128.4zm40 134.4h207.2c1.4 0 2.7-.2 4.1-.5 2.1-.4 3.8-1.6 5.2-3.1 1.9-2.2 2.8-4.9 2.8-7.9V330c0-3.5-.6-6.8-2-10-1.9-4.4-4.9-7.8-8.8-10.3-3.8-2.5-8.1-3.6-12.8-3.6h-195.8c.1 89.6.1 179.1.1 268.7zm-15.4 0V306.2h-9.2v268.6h9.2z" class="shape"/><path d="M3093.9 528.4h-67.4c-3.4 0-6-1.3-7.4-4.4-.5-.9-.8-2.1-.7-3.1.1-4.1.2-8.3.6-12.4.3-3.2.7-6.3 1.5-9.4 1-4.2 2-8.4 3.5-12.4 1.5-4.1 3.4-8 5.4-11.8 3.2-6.1 7.3-11.4 12.3-16.2 5.6-5.4 11.9-9.6 19-12.8 3.6-1.6 7.3-3.1 11.2-3.9 3.3-.7 6.6-1.4 9.9-2 5.8-1.1 11.8-1.1 17.7-.8 3.3.2 6.6.8 9.9 1.3 2.6.4 5.2.9 7.7 1.6 2.6.7 5.2 1.6 7.8 2.7 3 1.3 6 2.7 8.9 4.2 1.7.9 3.4 2 4.9 3.2 3.2 2.6 6.5 5.2 9.5 8.1 3.5 3.4 6.5 7.3 8.9 11.6 1.4 2.4 3 4.8 4.2 7.4 1.2 2.7 2.2 5.5 3.2 8.2.9 2.4 1.7 4.8 2.3 7.3.5 1.8.8 3.7 1.1 5.6.5 2.6.9 5.3 1.3 7.9 0 .2 0 .3.1.5.3 4 .7 8 .7 12 .1 3.3-1.7 6.3-5.4 7.3-.9.2-1.8.4-2.7.4-23-.1-45.5-.1-68-.1zm59.9-15.4c-.2-1.9-.4-3.6-.7-5.4-.5-2.8-.8-5.7-1.5-8.5-1-3.6-2.1-7.2-3.4-10.7-2.2-6-5.7-11.3-10-16-4.8-5.3-10.5-9.3-16.9-12.3-4-1.8-8-3.2-12.3-4.2-3.3-.8-6.7-1.4-10.1-1.4-4.9-.1-9.8.2-14.8.4-1.1 0-2.2.3-3.3.5-2.3.6-4.7 1.1-7 1.9-2.8 1-5.7 2-8.4 3.3-4 1.8-7.7 4.3-11.1 7.1-4.8 4-8.8 8.9-11.9 14.3-2.2 3.8-4 7.7-5.1 12-.9 3.3-1.7 6.6-2.4 10-.3 1.3-.4 2.7-.6 4l-.6 5.1c40.2-.1 80.1-.1 120.1-.1zM3132.4 391.2c-.2 21.3-17.2 38.4-38.6 38.4-21.3 0-38.5-17.2-38.4-38.7.1-21.2 17.2-38.4 38.7-38.3 21.2.1 38.2 17.1 38.3 38.6zm-15.3-.1c.1-12.8-10.5-23.2-23.1-23.3-12.8-.1-23.3 10.6-23.4 23.1-.1 12.8 10.5 23.4 23.2 23.4 12.8 0 23.3-10.5 23.3-23.2z" class="shape"/></g></symbol><symbol id="dashboard" viewBox="0 979 276 276"><g fill-rule="evenodd"><path d="M.7 1136.5h116.1c1.5 0 1.6.1 1.6 1.6v114.6c0 1.4-.2 1.5-1.9 1.5H1.6c-.6-.1-1.1-.4-1-1.1V1138.2c.1-.5.1-1 .1-1.7zM157.4 1195.2v-57.1c0-1.6 0-1.6 1.6-1.6h114.4c1.7 0 1.7 0 1.7 1.7v114.2c0 1.6-.2 1.7-1.8 1.7H159.2c-1.7 0-1.8-.1-1.8-1.8v-57.1zM157.4 979.9c.6 0 1-.1 1.5-.1h114.7c1.5 0 1.5 0 1.5 1.5v114.5c0 1.2-.3 1.5-1.5 1.5H158.8c-1.1 0-1.5-.3-1.5-1.5V981.3c.1-.4.1-.9.1-1.4zM.8 979.8h115.6c2 0 2 0 2 2v114.1c0 1.1-.3 1.4-1.4 1.4H1.9c-.4 0-.8 0-1.2-.1.1-39.1.1-78.2.1-117.4z" class="shape"/></g></symbol><symbol id="exclamation-poin" viewBox="0 0 237 237"><title>Shape</title><path d="M118.3.8c65.3 0 117.9 52.7 117.9 117.9 0 65.3-52.6 117.8-117.9 117.8C53.1 236.5.4 183.9.4 118.5.5 53.4 53.1.8 118.3.8zm16.2 143.4V41.6c0-.9-.2-1.2-1.2-1.2h-31.5V144c11 .2 21.8.2 32.7.2zm4 32.4c.2-11.4-9.1-20.1-20-20.2-11.1-.1-20.3 8.8-20.3 20.1 0 11.8 9.2 20.3 20.1 20.3 11 0 20.3-8.5 20.2-20.2z" fill-rule="evenodd"/></symbol><symbol id="exclamation-sign-nobgc" viewBox="0 0 116 333"><title>Group 3</title><g fill-rule="evenodd"><path d="M88.3 6.2C76.9 2.5 64.2.5 58 .5c-6.8 0-19.7 2.8-30.6 6.8C16 11.4.8 18.4.8 31.4v.8L26.3 203c.4 17.9 13.1 29.9 31.7 29.9 19.5 0 31.3-15 31.7-29.9l25.4-170 .1-.8v-.8c0-10.9-9.1-19.3-26.9-25.2zM57.9 251.4c-24.3 0-42 17.1-42 40.6s17.6 40.6 42 40.6 42-17.1 42-40.6-17.6-40.6-42-40.6z"/></g></symbol><symbol id="eye" viewBox="0 0 317 316"><title>Group</title><g fill-rule="evenodd"><path d="M.6 159.8c1.1 43 16.3 80.2 46.9 110.4 31.2 30.9 69.2 46.4 113.1 45.8 88.6-1.3 151.2-71.9 155.5-147.3 2.5-43.2-10.2-81.5-38.6-114.1-27.2-31.2-61.8-49.1-103.1-53.4-29.7-3.1-58.2 2-85.1 15.2-26.9 13.2-48.4 32.5-64.4 57.9C9 99.6 1 127.3.6 157.2v2.6zm50.3-8.7c7.1-8.6 14.5-16.8 22.9-24.1 6.5-5.7 13.1-11.2 20.1-16.3 11.8-8.5 24.6-15.3 38.7-19.5 8.6-2.6 17.4-4.1 26.3-4.1 10.3 0 20.4 1.9 30.2 5.2 7.6 2.6 14.9 5.8 21.8 9.9 6 3.6 12 7.4 17.6 11.6 5.9 4.4 11.5 9.1 16.9 14 8.1 7.3 15.6 15.3 22.4 23.9.7.9.7 1.5 0 2.4-6.4 8.1-13.4 15.9-21.1 22.7-6.4 5.6-12.9 11.2-19.6 16.4-7.6 5.9-15.9 10.7-24.6 14.9-7.2 3.5-14.6 6.2-22.4 8-6.8 1.6-13.7 2.5-20.8 2.6-10.9-.1-21.5-2.1-31.9-5.8-10-3.5-19.3-8.4-28.2-14.1-10.6-6.9-20.6-14.7-29.6-23.8-5.8-5.9-11.3-12.1-17-18.1-.7-.7-1.1-1.7-1.8-2.3-1.4-1.4-.9-2.3.1-3.5z"/><path d="M161.5 196.7c22.7-1.6 40.1-20.4 39.5-43.5-.7-25-21.2-42.2-43.4-41.5-24.1.3-43 21-41.7 44.8 1.2 22.9 20.7 41.9 45.6 40.2z"/></g></symbol><symbol id="flag" viewBox="1496 286 243 313"><path d="M1516.1 446v148.3c0 3-1.6 4.5-4.5 4.5-3.8-.1-7.6 0-11.5 0-.8 0-1.6-.2-2.3-.5-.9-.4-1.6-1.1-1.6-2.3 0-.6-.1-1.1-.1-1.7 0-100.9 0-201.9-.1-302.8 0-3.5 1.8-4.5 4.6-4.5h232.8c1.4 0 2.8.1 3.9 1.3 1.1 1.3 1.2 2.5.2 3.8-3.5 4.9-7.1 9.8-10.6 14.7-5.4 7.5-10.9 14.9-16.3 22.4-5.4 7.5-10.9 14.9-16.3 22.4-3.4 4.7-6.9 9.3-10.3 14-.5.7-.5 1.2 0 1.8 2.6 3.5 5.1 6.9 7.7 10.4 4.7 6.5 9.3 13 14 19.5 4 5.6 8.1 11.1 12.2 16.7 4.8 6.5 9.5 13.1 14.3 19.6l5.4 7.2c1.6 2.2 0 4.6-2.8 5-.5.1-1.1 0-1.7 0H1518c-.5.2-1.1.2-1.9.2zm186.6-139h-186.5v118.9h186.4c-.3-.4-.4-.8-.6-1.1-2.8-3.7-5.7-7.3-8.5-11-3.5-4.6-6.9-9.3-10.4-14-2.9-3.8-5.8-7.6-8.7-11.5-2.9-3.8-5.7-7.6-8.6-11.5-2.2-2.9-4.4-5.7-6.5-8.5-.8-1.1-.9-2.5 0-3.6 2.5-3.4 5-6.8 7.6-10.2 2.4-3.2 4.9-6.4 7.3-9.6 2.8-3.7 5.6-7.5 8.4-11.2 2.5-3.3 5-6.6 7.4-9.9 2.9-3.9 5.9-7.7 8.8-11.5 1.3-1.6 2.5-3.4 3.9-5.3z" class="shape" fill-rule="evenodd"/></symbol><symbol id="goforward" viewBox="2222 1043 267 267"><g fill-rule="evenodd" transform="translate(2222 1043)"><circle class="shape" cx="133.2" cy="133.2" r="133"/><path d="M246.2 135.2c-.2-.1-4.1-2.3-9.7-5.6-.3-.2-.5-.4-.8-.5-.2-.1-.5-.3-.7-.4-2.4-1.4-5-2.9-7.7-4.5-.2-.1-.4-.2-.6-.4-.2-.1-.3-.2-.5-.3-1.1-.6-2.3-1.3-3.4-2l-.9-.6c-.3-.2-.6-.3-.9-.5-6.6-3.8-13.5-7.8-19.4-11.2-.3-.2-.5-.3-.8-.5-.2-.1-.5-.3-.7-.4-3.4-2-6.5-3.7-8.9-5.1-.3-.2-.6-.4-.8-.5-.2-.1-.4-.2-.7-.3-2.7-1.6-4.4-2.5-4.5-2.6v27.3H76.5c-3.7-11.4-14.4-19.7-27.1-19.7-15.7 0-28.5 12.8-28.5 28.5s12.8 28.5 28.5 28.5c12.6 0 23.3-8.2 27.1-19.6H185V172c.5-.2 1-.4 1.3-.6.7-.4 1.4-.9 2.1-1.3.4-.3.8-.6 1.2-.8.7-.4 1.4-.7 2-1.1.4-.2.8-.4 1.1-.6.7-.4 1.4-.9 2.1-1.3.4-.2.8-.5 1.2-.7.7-.4 1.3-.8 2-1.1l1.2-.6c.7-.4 1.3-.8 2-1.3.5-.3.9-.5 1.4-.8.7-.4 1.5-.7 2.2-1.1.8-.4 1.5-.9 2.3-1.3.2-.1.4-.3.6-.4.9-.5 1.8-1 2.7-1.6.3-.2.7-.3 1-.5.5-.3.9-.6 1.4-.9.8-.5 1.7-1 2.5-1.4.6-.3 1.1-.6 1.7-.9.7-.4 1.5-.9 2.2-1.3.4-.2.8-.4 1.1-.6.3-.2.6-.4 1-.6 1.2-.7 2.3-1.3 3.4-2l1.2-.6c.7-.4 1.5-.9 2.2-1.3.4-.2.7-.4 1.1-.6.3-.2.5-.3.8-.5.6-.3 1.1-.6 1.7-1 .3-.1.5-.2.8-.4.2-.1.4-.3.6-.4 1.5-.8 2.8-1.6 4.1-2.4.3-.1.6-.3.9-.5.5-.3.9-.6 1.4-.8 1.4-.8 2.7-1.6 3.7-2.1.2-.1.3-.2.5-.3.8-.5 1.6-.9 2.4-1.4.3-.2.6-.4 1-.7v-.5c-.3 0-.6-.3-.9-.5z" fill="#FFF"/></g></symbol><symbol id="hands-care" viewBox="951 278 439 326"><g fill-rule="evenodd"><path d="M1389 456.2V312.9c0-4.8.3-9.6-1.4-14.2-.6-1.6-.9-3.4-1.7-4.9-1.2-2.2-2.7-4.2-4.4-6.1-1.5-1.7-3.4-3.2-5.2-4.7-.9-.8-2-1.4-3.1-1.9-1.6-.7-3.2-1.2-4.8-1.8-4.6-1.4-13.6-1.1-17.1-.1-2.2.6-4.1 1.6-6.1 2.5-1.6.7-3 1.9-4.4 3-1.4 1.2-2.8 2.5-3.9 3.9-1.3 1.7-2.2 3.6-3.2 5.5-.8 1.4-1.7 2.9-2 4.4-.5 2.4-1 4.8-1 7.3.1 20.1 0 40.2 0 60.3 0 .6-.1 1.1-.1 1.6-1-.2-1.8-.4-2.6-.6-1.7-.4-6.9-1.4-7.8-1.4-9.1-1.2-16.6 3.1-18.1 3.9-1.9 1.1-3.8 2.3-5.5 3.8-1.7 1.4-3.1 3.1-4.7 4.7-2.1 2.1-4.2 4.2-6.3 6.2-1.9 1.8-3.7 3.7-5.6 5.6-2.1 2.1-4.3 4.2-6.4 6.3l-5.6 5.6c-2.1 2.1-4.3 4.2-6.4 6.3-1.9 1.9-3.7 3.7-5.5 5.6-2.1 2.1-4.3 4.2-6.4 6.3-1.9 1.9-3.7 3.7-5.5 5.6l-5.6 5.6-6.4 6.4-5.6 5.6c-2.1 2.1-4.2 4.3-6.3 6.4l-5.6 5.6c-2.1 2.1-4.2 4.3-6.3 6.4l-5.6 5.6c-1.7 1.7-3.3 3.4-4.8 5.2-.9 1.1-1.7 2.4-2.4 3.6-.9 1.5-1.9 3-2.7 4.5-.6 1.3-1.1 2.8-1.5 4.2-.4 1.7-.8 3.4-.8 5.1-.1 34.6-.1 69.2 0 103.8 0 1.2.2 2.6.9 3.6 1.6 2.5 3.9 4.3 6.8 4.7 2.1.3 4.2-.2 6-1.5 2.7-2 4.1-4.7 4.1-8v-97.2c0-2.1-.4-4.2.6-6.3l1.5-3.3c.9-2.1 2.7-3.4 4.1-5 2.3-2.5 4.8-4.7 7.1-7 2.6-2.6 5.1-5.3 7.7-7.9 2.4-2.4 4.8-4.6 7.2-7 2.4-2.4 4.6-4.8 7-7.2 2.4-2.4 4.8-4.6 7.2-7 2.4-2.4 4.6-4.8 7-7.2l7.2-7.2c2.1-2.1 4.2-4.1 6.2-6.2 2.1-2.1 4.3-4.3 6.4-6.5l6.2-6.2 6.4-6.4c2.1-2.1 4.1-4.2 6.2-6.2 2.1-2.1 4.3-4.3 6.5-6.4 1.6-1.6 3-3.3 4.7-4.7 1.2-.9 6-3.6 7.1-3.7 3.4-.3 6.9-.5 10 1.4 1.4.8 2.9 1.7 4.1 2.8 1.3 1.4 2.5 2.9 3.3 4.7 1.1 2.3 1.9 4.5 1.8 6.9.1 3.8-2.1 7.4-3 8.5-1.8 2.2-3.9 4.2-5.9 6.2-2.6 2.6-5.3 5.1-7.9 7.7-2.4 2.4-4.6 4.8-7 7.2-2.6 2.6-5.3 5.1-7.9 7.7-2.1 2.1-4.2 4.3-6.3 6.5-.3.3-.7.5-1 .9l-7 7-.6.6-.9.9-13.2 13.2c-3.5 3.5-3.5 9.2 0 12.7 2.8 2.8 7 3.3 10.3 1.7.5-.1.9-.4 1.2-.7 1.6-1.4 3.1-2.8 4.6-4.3 1.9-1.9 3.7-3.8 5.6-5.7l7.8-7.8c1.8-1.7 3.5-3.4 5.3-5.1 3.1-3.1 6.1-6.3 9.2-9.4 3.1-3.1 6.3-6.1 9.4-9.2 3.3-3.3 6.6-6.8 9.9-10.2 3.1-3.2 6.6-5.9 9-9.7 1.4-2.2 2.8-4.3 3.5-6.8.3-.9.5-1.7.8-2.6.7-1.9 2-11.4.7-16.3-.5-1.4-2.4-7.2-2.4-8.7v-76.1c0-2.2 0-4.3 1.4-6.2 1.3-1.8 2.4-3.7 4.8-4.2.1 0 .3-.2.4-.2.9-.4 1.7-.9 2.6-1 2.5-.3 4.8-.2 7.1 1.2 1.9 1.1 3.5 2.5 4.4 4.2 1.1 1.8 1.7 4 1.7 6.4-.1 49.7 0 99.4 0 149.1 0 .8.1 1.7 0 2.5-.2 1.1-.5 2.2-.8 3.2-.2.6-.5 1.2-.9 1.6-1.4 1.6-2.9 3.1-4.4 4.6-2.9 2.8-5.8 5.6-8.7 8.5-3.1 3.1-6.1 6.3-9.2 9.4-2.6 2.6-5.3 5.1-8 7.7-3.1 3.1-6.1 6.3-9.2 9.4-2.9 2.9-5.8 5.6-8.7 8.5-2.9 2.9-5.6 5.8-8.5 8.7-2.9 2.9-5.8 5.6-8.7 8.5-2.9 2.9-5.6 5.8-8.5 8.7-2.9 2.9-5.8 5.6-8.7 8.5-2.9 2.9-5.6 5.8-8.5 8.7-2.5 2.6-5.6 4.8-7.5 8-.7 1.1-1.3 2.1-1.3 3.5v.2c-.2.7-.3 1.4-.3 2.2V594c0 5 4.1 9.1 9.1 9.1 4.7 0 8.6-3.6 9-8.2 0-.3.1-.6.1-.9v-20.9c.1-1.1.5-2.1 1.5-3 2.2-2 4.3-4.2 6.4-6.3l6.3-6.3 6.3-6.3 6.3-6.3 6.3-6.3 6.3-6.3c2.1-2.1 4.2-4.2 6.3-6.4 2.4-2.4 4.8-4.7 7.1-7.1 2.3-2.3 4.7-4.7 7-7.1l6.4-6.4c2.1-2.1 4.2-4.2 6.4-6.3l6.3-6.3 6.3-6.3c2.1-2.1 4.3-4.2 6.3-6.3 1.7-1.8 3.4-3.7 4.9-5.7 1-1.4 1.7-3 2.4-4.6.4-1 .5-2.2.9-3.3.9-1.9.9-4 1.3-6 1.4-1.8 1.2-3 1.2-4.3zM1150.3 578.7c0-29.6 0-59.2-.1-88.8 0-1.8-.5-3.5-.8-5.2-.2-.8-.4-1.7-.8-2.4-.6-1.4-1.3-2.8-2.1-4.2-1.1-1.9-2.1-3.8-3.4-5.5-1.7-2.2-3.7-4.1-5.7-6.1-3.1-3.1-6.3-6.1-9.4-9.2-3.1-3.1-6.1-6.3-9.2-9.4-2.9-2.9-5.8-5.6-8.7-8.5-3.1-3.1-6.1-6.3-9.2-9.4-2.9-2.9-5.8-5.6-8.7-8.5-3.1-3.1-6.1-6.3-9.2-9.4-2.9-2.9-5.8-5.6-8.7-8.5-3.3-3.3-6.6-6.8-9.9-10.1-3.8-3.8-7.8-7.6-11.6-11.4-3.2-3.2-6-6.7-9.7-9.3-.9-.6-1.9-1.2-2.8-1.9-.9-.8-4.9-2.5-5.8-2.9-.8-.3-5.6-1.8-7.1-1.9-8.9-1.3-15 1.2-17.1 1.6 0-.3-.1-.8-.1-1.3V302.8c0-.5-1.4-13.1-10.7-18.7-2.3-1.6-8.6-5.4-14.4-5.8-11.5-.8-14.8 2.1-16.3 2.6-3.9 1.3-10.3 8-11.9 10.4-4.8 7.5-4.8 16.2-4.8 17.2v147.1c0 2.3-.5 4.7.6 7 .5 1.1.3 2.4.7 3.6.7 1.9 1.4 3.8 2.3 5.6 1.3 2.5 3 4.6 5 6.6 2.1 2.1 4.2 4.3 6.3 6.4 2.1 2.1 4.3 4.2 6.4 6.3 2.1 2.1 4.2 4.2 6.3 6.4l6.3 6.3 6.3 6.3 6.3 6.3 6.3 6.3 6.3 6.3 6.3 6.3 6.4 6.4c2.3 2.4 4.7 4.7 7 7.1 2.3 2.4 4.7 4.7 7 7.1l6.4 6.4c2.4 2.3 4.7 4.7 7.1 7 1.2 1.2 2 2.3 1.9 4.1-.1 6.9-.1 13.7 0 20.6 0 1.1.3 2.4.9 3.4 0 .1.1.1.1.2.8 1.6 2.2 2.8 3.7 3.6.8.5 1.6.8 2.5.8h.3c.3 0 .6.1 1 .1h1.8c1.3-.1 2.5-.5 3.6-1.3 2.4-1.5 3.9-4.2 3.9-7.2v-6.8c0-2.8.1-5.9.1-8.7-.3-2.5.5-11.6-.9-13.9-.6-1-1.1-2.1-1.9-3-2-2.2-4.2-4.2-6.3-6.3-2.3-2.4-4.7-4.7-7-7.1l-7.2-7.2c-2.3-2.3-4.6-4.7-7-7-2.4-2.3-4.8-4.6-7.1-7l-7.2-7.2c-2.3-2.3-4.7-4.6-7-7l-7.2-7.2c-2.3-2.4-4.6-4.8-7-7.1-2.1-2.1-4.3-4.2-6.4-6.3-2.1-2.1-4.2-4.3-6.3-6.4-2.1-2.1-4.2-4.2-6.4-6.3-2.1-2.1-4.2-4.2-6.3-6.4-2.1-2.1-4.3-4.2-6.3-6.3-1.2-1.2-2.4-2.6-3.1-4.1-.6-1.4-.8-3-.9-4.6 0-49.6-.1-150.9 0-151.9.2-1.1.5-2.2.8-3.3.2-.6.5-1.1.9-1.6 5.3-7.7 13.6-4.6 14.8-4.2 4.6 1.8 5.5 6.9 5.8 8 .2.8.1 1.7.1 2.6v77.6c0 .3-.1.6-.2.8-.4 1.1-5 12.4-1.4 23.1.6 1.3.9 2.8 1.5 4.1.7 1.5 1.4 3.1 2.3 4.5 1 1.5 2.2 2.9 3.4 4.2 1.8 1.9 3.6 3.8 5.5 5.7l6.3 6.3c2.1 2.1 4.2 4.3 6.4 6.4l6.3 6.3 6.4 6.4 5.6 5.6c2.1 2.1 4.2 4.3 6.3 6.4l6.3 6.3c2.1 2.1 4.3 4.2 6.3 6.4 1.3 1.3 2.6 2.6 4.4 3.1 2.9.8 5.8.1 8.1-1.6 1.9-1.4 3.3-3.6 3.2-6.2 0-1.5.4-3.1-.7-4.5-.6-.7-.9-1.7-1.5-2.4-.7-.8-1.5-1.6-2.3-2.3l-9.9-10.2c-3.1-3.1-6.3-6.1-9.4-9.2-3.3-3.3-6.6-6.8-9.9-10.2-3.1-3.1-6.3-6.1-9.4-9.2-3.3-3.3-6.6-6.8-9.9-10.2-2.7-2.8-6-5-7.5-8.8-.5-1.4-1.3-2.6-1.3-4.1 0-2.6-.4-5.2.8-7.7.4-.9.7-1.9 1.3-2.6 1.1-1.5 2.3-3 3.8-4.2 2.1-1.8 4.5-2.8 7.1-3.1 2.3-.3 4.6-.6 6.9.4 1.2.5 2.6.8 3.8 1.6 1.1.9 2.3 1.7 3.3 2.7 1.9 1.8 3.8 3.6 5.7 5.5l6.3 6.3 5.6 5.6c2.1 2.1 4.2 4.3 6.4 6.4 1.9 1.9 3.7 3.7 5.6 5.5l5.6 5.6c2.1 2.1 4.3 4.2 6.4 6.4l6.3 6.3 6.4 6.4 5.6 5.6 6.3 6.3c2.1 2.2 4.3 4.3 6.4 6.5l6.2 6.2 6.4 6.4 6.2 6.2c2.2 2.2 4.7 4.2 5.8 7.3.6 1.7 1.4 3.2 1.4 5v99.2c0 1.3 0 2.6.5 3.9.6 1.6 1.3 2.9 2.4 4.2 1.3 1.5 3 2.2 4.7 2.5 2.6.5 5.1-.3 7.1-2.1s3.3-3.9 3.2-6.8c-.3-4.8-.2-9.6-.2-14.4z" class="shape"/></g></symbol><symbol id="helping-wheelchair" viewBox="0 0 315 394"><title>Group</title><g fill-rule="evenodd"><path d="M286.9 210.3c-2.7-5-6.2-7.1-11.9-7.1-22.6.2-45.2.1-67.8.1-10.2 0-13 2.7-13 12.8V250h-64.3v36.6c-1.1.1-1.9.3-2.7.3-16.3 0-32.7.1-49-.1-1.7 0-3.6-.7-5.2-1.5-12.8-6.8-25.5-13.7-38.2-20.6-.9-.5-1.7-1.2-2.9-2 1.7-.7 2.8-1.2 4-1.7 29.2-11.9 58.4-23.7 87.6-35.6 8.3-3.4 9.3-4.9 9.3-14v-10.2h39.5c5.8 0 9.2-3.1 9.5-8.7.3-6.7.4-13.4.1-20-.3-7.3-3.4-10-10.8-10H99.9c-11.5 0-23-.1-34.5 0-9.3.1-13.5 4.4-13.5 13.7 0 5 .3 9.9.3 14.9 0 3.7 1.6 6.6 4.8 7.9 3.1 1.3 6.5 2.1 9.8 2.2 7.9.3 15.9.1 23.9.1H116c1.2 7 1.2 7-4.4 9.3C77.5 224.4 43.4 238.3 9.3 252c-4.2 1.7-7.1 4.2-7.4 8.9-.3 4.8 2.1 8 6.4 10.1 4.4 2.2 8.8 4.7 13.1 7.1 4.9 2.7 9.8 5.3 14.7 8l-.3.9h-4.1c-7.2 0-14.5-.1-21.7 0-6.1.1-10 3.6-10 9.3-.1 18.6-.1 37.2 0 55.9 0 4.5 3 8.5 7.1 8.8 6.7.4 13.5.1 20.5.1.1-1.1.2-2.1.3-3.2 0-.5.1-.9.1-1.4.6-6.1 2.6-11.8 5.5-16.7 4.1-7.2 10-12.2 16.3-15.4 7.9-4.2 17.2-6 26.4-4.3 9.7 1.3 20 5.9 27 17.1 4.8 6.7 7.3 14.6 7.8 23.8h101.4c4.3-25.8 17.8-39.9 39.7-41.4 9.2-.6 17.8 1.8 25.4 7 12.1 8.2 17.9 20.1 18.8 34.5 7.2.4 14.2 1.7 18.3-6v-93.8c-9.3-17-18.6-33.9-27.7-51zm-92.7 74.9c0 .4-.2.8-.3 1.5h-45.6v-18h45.9v16.5zm101.8 1.5h-83V222h4.1c17 0 34.1.1 51.1-.1 2.8 0 4.3.8 5.6 3.3 6.8 12.8 13.8 25.5 20.6 38.2.9 1.7 1.4 3.7 1.5 5.6.2 5.8.1 11.6.1 17.7zM92.5 107.7H140c2.6 0 3.9.5 4.1 3.4.3 4.2 1.1 8.5 1.6 12.7 1.4 10.4 2.8 20.8 4.2 31.1h25.2c-.1-1-.1-1.7-.2-2.4-2.8-22.7-5.9-45.4-8.4-68.1-.5-4.4-2.1-5.2-6-5.1-11.6.2-23.3 0-35 .1-3.1 0-4.4-.7-4.9-4-1.6-11.2-3.7-22.4-5.6-33.7H83.3c3.1 22.1 6.2 44 9.2 66z"/><path d="M254.1 328.8c-17.7.2-32 14.7-32.1 32.5 0 18 14.5 32.6 32.5 32.5 18-.1 32.3-14.5 32.2-32.7-.1-18-14.7-32.5-32.6-32.3zm.6 46.5c-7.4.2-14-6-14.2-13.6-.3-7.7 6.1-14.3 13.8-14.4 7.6-.1 13.9 6.1 14 13.7.1 7.6-6 14.1-13.6 14.3zM87 153.5c18.3 4.7 38.5-1.9 49.3-16.4.6-.9 1.4-2.1 1.3-3-.6-4.1-1.6-8.1-2.6-13.1-.8 1.6-1.2 2.2-1.5 2.8-.3.6-.6 1.3-1 1.9-8.5 14.1-21 21.1-37.4 19.4-15.7-1.6-26.7-10.4-31.8-25.3-5.3-15.2-1.7-29.1 10.2-40 3.6-3.3 4.8-6.1 3.3-10.5-.3-.8-.3-1.7-.6-3.1-1.1.5-1.7.7-2.3 1.1-15.7 9.3-24.6 28.5-21.9 47.1 2.7 18.7 16.8 34.4 35 39.1zM95.9 31.8c8.9.1 15.9-7 15.9-15.9 0-8.7-7-15.6-15.7-15.6-8.9 0-16.1 7.1-16 15.9.1 8.5 7.1 15.5 15.8 15.6zM69.3 328.6c-18 0-32.5 14.6-32.5 32.5 0 3.3.5 6.4 1.4 9.4v.1c.1.3.2.7.3 1 .2.5.4 1.1.6 1.6 2.2 5.6 5.9 10.6 11 14.4 13.5 9.9 32.5 7.8 43.5-4.9.8-.9 1.5-1.9 2.2-2.8 3.7-5.3 5.9-11.8 5.9-18.7.1-18-14.4-32.6-32.4-32.6zM37 359.1v-.2.2zm0-.6v-.3.3zm.1-.7v-.3.3zm.1-.8v-.4.4zm.1-.8c0-.1 0-.2.1-.4-.1.1-.1.3-.1.4zm.2-.9c0-.1 0-.2.1-.4-.1.1-.1.3-.1.4zm.2-1c0-.1 0-.2.1-.3-.1.1-.1.2-.1.3zm-.1.2c.1-.5.2-1.1.4-1.6-.2.6-.3 1.1-.4 1.6zm-.5 3.1s0-.1 0 0c0-.1 0 0 0 0zm.2-1.5c0-.1.1-.3.1-.4-.1.1-.1.2-.1.4zm18.1 4.8v-.8c0-.2 0-.3.1-.5 0-.3.1-.6.1-.9 0-.2.1-.3.1-.5.1-.3.1-.5.2-.8.1-.2.1-.4.2-.6.1-.2.1-.4.2-.6.1-.3.2-.5.4-.8.1-.1.1-.3.2-.4.2-.3.3-.6.5-.9.1-.1.1-.2.2-.3l.6-.9c0-.1.1-.1.1-.2.2-.3.5-.6.7-.8.1-.1.1-.1.1-.2.2-.3.5-.5.8-.7l.2-.2c.2-.2.5-.4.8-.6.1-.1.2-.2.3-.2.2-.2.5-.3.7-.4.2-.1.3-.2.5-.3l.6-.3c.2-.1.4-.2.7-.3.2-.1.3-.1.5-.2.3-.1.5-.2.8-.3.1 0 .3-.1.4-.1.3-.1.6-.2.9-.2.1 0 .3-.1.4-.1.3-.1.6-.1.9-.1h2.6c7.2.6 12.8 6.6 12.8 13.9 0 7.6-6.1 13.8-13.7 13.9h-.2-.5c-.3 0-.7 0-1-.1h-.2c-.4 0-.8-.1-1.1-.2-6.2-1.2-10.9-6.6-11.2-13v-.6c.3-.4.3-.6.3-.7z"/></g></symbol><symbol id="home" viewBox="670 1888 314 313"><g fill-rule="evenodd"><path d="M983.3 2032.9c-52.3-48.5-104.2-96.6-156.2-144.8-52.1 48.3-104 96.4-156.3 144.8h40.7c2.3 0 2-.2 2 2v165.7h226.1v-167.7h43.7z" fill="#FFF"/><path d="M983.3 2032.9h-43.6v167.7H713.6v-165.7c0-2.2.2-2-2-2h-40.7c52.2-48.4 104.2-96.5 156.3-144.8 51.9 48.2 103.8 96.3 156.1 144.8zm-113.6 32.4h-85.4V2137.6c0 1.4.5 1.6 1.7 1.6h83.6c.1-24.7.1-49.2.1-73.9z" class="shape"/></g></symbol><symbol id="list" viewBox="1847 286 245 313"><g fill-rule="evenodd"><path d="M1847.2 442.5v-153c0-2.6.6-3.2 3.1-3.2h238.1c2 0 3.2.6 3.2 3.2v240.4c0 1.7-.6 2.9-1.7 4-6.7 6.6-13.3 13.2-20 19.8-14.8 14.7-29.6 29.3-44.4 43.9-.8.8-1.7 1.2-2.9 1.2h-172.3c-2.4 0-3-.6-3-3-.1-51.1-.1-102.2-.1-153.3zm16-140.1v280.3h149.5v-58.5c0-2.3.8-3.3 3.2-3.3h57.7c.6 0 1.2-.1 1.7-.1V302.4h-212.1zM2063.8 537h-34.7v34.4l34.7-34.4z" class="shape"/><path d="M1969.3 336.5h76.3c3.5 0 4 .5 4 4v8.8c0 .8 0 1.8-.4 2.3-.5.6-1.5.8-2.2 1.1-.3.1-.8 0-1.2 0h-152.7c-3.5 0-4-.5-4-4v-8.8c0-.8 0-1.8.4-2.3.5-.6 1.5-.8 2.2-1.1.4-.1.9 0 1.3 0h76.3zM1969.3 372.6h76.3c3.5 0 3.9.5 4 4v8.4c0 .9-.2 1.8-.4 2.6-.3 1.2-1.5.9-2.3 1.2-.4.1-.8 0-1.3 0H1893c-3.5 0-3.9-.5-4-4V376c0-.8 0-1.8.5-2.3.5-.6 1.5-.8 2.3-1.1.4-.1.9 0 1.3 0h76.2zM1969.3 408.6h76.3c3.5 0 3.9.5 4 4v8.4c0 .9-.2 1.8-.4 2.6-.3 1.2-1.5.9-2.3 1.2-.3.1-.8 0-1.2 0h-152.9c-.9 0-1.8-.1-2.6-.4-1.2-.3-1.2-1.6-1.2-2.4-.1-3.5-.1-7 0-10.6 0-2 .8-2.7 2.8-2.8h77.5zM1969.3 444.7h76.3c3.5 0 3.9.5 4 4v8.4c0 .9-.2 1.8-.4 2.6-.3 1.2-1.5.9-2.3 1.2-.3.1-.8 0-1.2 0h-152.6c-3.6 0-4.1-.5-4.1-4.1v-8.6c0-.8 0-1.8.5-2.3.5-.6 1.5-.8 2.3-1.1.4-.1.9 0 1.3 0 25.3-.1 50.8-.1 76.2-.1zM1969.4 480.8h76.2c3.4 0 3.9.5 4 4v8.4c0 .9-.2 1.8-.4 2.6-.3 1.2-1.5.9-2.3 1.2-.3.1-.8 0-1.2 0H1893c-3.4 0-3.9-.5-4-4v-8.4c0-.9.2-1.8.4-2.6.3-1.2 1.5-.9 2.3-1.2.4-.1.8 0 1.3 0h76.4z" class="shape"/></g></symbol><symbol id="message" viewBox="3041 750 216 132"><g fill-rule="evenodd"><path d="M3049.7 881.2c.3-.4.4-.6.5-.7 3.1-2.5 6.1-5 9.2-7.5 5.2-4.3 10.3-8.6 15.5-12.8 3.4-2.8 6.8-5.6 10.2-8.3 4.9-4 9.8-8.1 14.7-12.1 3.4-2.8 6.7-5.5 10.1-8.3 4.8-3.9 9.6-7.9 14.4-11.8.2-.2.8-.2 1-.1 3 1.9 6 3.9 9 5.9 3.6 2.4 7.2 4.8 10.8 7.1 2.8 1.8 5.8 1.5 8.5-.3 5.5-3.6 11-7.3 16.5-10.9.9-.6 1.7-1.2 2.6-1.7.3-.2.8-.1 1 0 2.9 2.3 5.7 4.6 8.6 7 3.8 3.1 7.6 6.2 11.4 9.4 2.6 2.1 5.1 4.3 7.7 6.4 5.2 4.3 10.5 8.5 15.7 12.8 5.2 4.3 10.4 8.5 15.6 12.8 3.4 2.8 6.8 5.6 10.3 8.4 1.6 1.3 3.3 2.6 4.9 4 .2.2.3.4.4.6-.2.1-.4.2-.7.2h-196.7c-.2-.1-.6-.1-1.2-.1zM3248 750.6c-2 1.4-3.9 2.7-5.8 3.9l-10.5 6.9c-5.5 3.6-10.9 7.2-16.3 10.8-5.3 3.5-10.6 7.1-15.9 10.6l-16.8 11.1c-6.6 4.4-13.2 8.8-19.8 13.1-4.3 2.9-8.7 5.7-13 8.6-.6.4-1.1.4-1.6 0-3.4-2.3-6.8-4.6-10.2-6.8-4.3-2.8-8.6-5.6-12.9-8.5-3.4-2.3-6.8-4.5-10.2-6.8-4.3-2.8-8.6-5.7-12.9-8.5-3.2-2.2-6.4-4.4-9.7-6.5-4.6-3-9.2-6-13.8-9.1-5.1-3.3-10.1-6.7-15.2-10.1-4.1-2.7-8.1-5.4-12.2-8.1-.2-.2-.5-.4-.9-.7 66 .1 131.8.1 197.7.1zM3041.3 763.8c23.2 15.4 46.4 30.7 69.6 46.1-23.2 19.1-46.4 38.1-69.6 57.2V763.8zM3257 763.8V867c-1.8-1.4-3.5-2.8-5.2-4.2-3.8-3.1-7.6-6.2-11.4-9.4-2.5-2.1-5.1-4.2-7.6-6.3-4.4-3.6-8.8-7.2-13.3-10.8-3.2-2.6-6.3-5.2-9.5-7.8l-11.4-9.3-7.2-6c-1-.9-2.1-1.7-3.1-2.5-.8-.6-.8-.8 0-1.4 3.6-2.4 7.2-4.7 10.7-7.1 5.5-3.6 10.9-7.2 16.4-10.8 4.5-3 9.1-6 13.6-9 5-3.3 10-6.6 15.1-10 4.2-2.8 8.5-5.6 12.9-8.6z" class="shape"/></g></symbol><symbol id="passenger-big-cancel" viewBox="1598 0 497 473"><g fill-rule="evenodd"><path d="M1801.2 472.6c-1.6 0-3.1 0-4.6-.1l.2-9.2h4.3c9.2 0 18.5-.7 27.6-2l1.3 9.1c-9.4 1.6-19.1 2.2-28.8 2.2zm-28.8-2c-11.1-1.6-22.1-4.1-32.7-7.5l2.8-8.7c10.2 3.2 20.7 5.6 31.2 7.1l-1.3 9.1zm81.5-4.9l-2.4-8.8c10.3-2.8 20.4-6.4 30.2-10.9l3.8 8.3c-10.2 4.7-20.8 8.5-31.6 11.4zm-136.8-11.3c-10.2-4.6-20-10.2-29.3-16.4l5.1-7.6c8.9 6 18.3 11.3 28 15.7l-3.8 8.3zm189.8-11.5l-4.8-7.8c9.1-5.6 17.8-11.9 25.9-18.9l6 6.9c-8.5 7.3-17.6 14-27.1 19.8zm-238.4-19.7c-8.5-7.3-16.4-15.4-23.5-24l7-5.8c6.8 8.2 14.4 15.9 22.4 22.9l-5.9 6.9zm282.8-17.1l-6.8-6.2c7.2-7.9 13.7-16.5 19.5-25.4l7.7 5c-6 9.4-12.9 18.4-20.4 26.6zm-320.6-26.4c-6.1-9.4-11.4-19.4-15.8-29.6l8.4-3.6c4.2 9.8 9.3 19.3 15.1 28.3l-7.7 4.9zm352.9-21.3l-8.2-4c4.7-9.6 8.6-19.7 11.6-29.9l8.8 2.6c-3.2 10.6-7.3 21.2-12.2 31.3zm-377-31.2c-3.2-10.7-5.4-21.8-6.8-32.9l9.1-1.1c1.3 10.6 3.4 21.2 6.5 31.4l-8.8 2.6zm394.6-23.8l-9-1.5c1.7-10.5 2.6-21.2 2.6-32v-.4h9.2v.4c-.1 11.2-1 22.5-2.8 33.5zm-393.6-33.3h-9.2v-.2c0-11.1.9-22.3 2.7-33.2l9 1.5c-1.7 10.4-2.6 21.1-2.6 31.7v.2h.1zm385.7-23.8c-1.3-10.6-3.5-21.2-6.5-31.4l8.8-2.6c3.2 10.7 5.5 21.8 6.8 32.9l-9.1 1.1zm-378-30.7l-8.8-2.6c3.1-10.7 7.2-21.3 12.1-31.4l8.2 4c-4.6 9.7-8.5 19.7-11.5 30zm22.9-50.2l-7.7-4.9c6-9.4 12.9-18.4 20.4-26.7l6.8 6.1c-7.2 8-13.8 16.6-19.5 25.5zm36-41.6l-6-6.9c8.4-7.3 17.5-14 27.1-19.9l4.8 7.8c-9.1 5.6-17.8 12-25.9 19zm46.3-29.9l-3.8-8.3c10.2-4.7 20.8-8.5 31.6-11.4l2.4 8.8c-10.4 2.8-20.5 6.4-30.2 10.9zm139.1-8.6c-10.2-3.2-20.7-5.6-31.3-7.1l1.3-9.1c11.1 1.6 22.1 4.1 32.7 7.4l-2.7 8.8zm-86.3-7l-1.3-9.1c11-1.6 22.3-2.3 33.5-2l-.2 9.2c-10.7-.3-21.5.4-32 1.9z" class="shape"/><g transform="translate(1662 9)" class="shape"><circle cx="139.2" cy="41.9" r="41.3"/><path d="M49 410.9c-8.2 11.3-5.6 27.1 5.7 35.3 4.5 3.2 9.6 4.8 14.8 4.8 7.8 0 15.6-3.6 20.5-10.5l44-60.9-31.2-43.1L49 410.9z"/><path d="M241.5 410.9l-94.8-131.3 10.6-67 35.1 47.3c4 5.6 10.3 8.5 16.7 8.5 4.2 0 8.5-1.3 12.1-3.9 9.2-6.7 11.3-19.6 4.6-28.9l-59.4-80.8c.1-1 .2-2.1.3-3.1 1.9-25.9-16.3-49.4-42.4-53.5-16.5-2.6-30.8 4.9-43.3 14l-59.6 43.3c-4.4 3.2-7.4 8.1-8.3 13.5L.9 246.1c-1.8 11.3 5.9 21.9 17.2 23.6 1.1.2 2.2.3 3.3.3 10 0 18.8-7.3 20.4-17.4L52.7 184l28.9-21-11.9 75.5c-2.1 13 .9 22.1 6.9 30.4l124 171.8c4.9 6.8 12.7 10.5 20.5 10.5 5.1 0 10.3-1.6 14.8-4.8 11.2-8.4 13.7-24.1 5.6-35.5z"/></g><path d="M1982.1 225c-62 0-112.4-50.4-112.4-112.4 0-62 50.4-112.4 112.4-112.4 62 0 112.4 50.4 112.4 112.4 0 62-50.4 112.4-112.4 112.4zm0-209.2c-53.4 0-96.8 43.4-96.8 96.8s43.4 96.8 96.8 96.8 96.8-43.4 96.8-96.8-43.4-96.8-96.8-96.8z" class="shape"/><path class="shape" d="M2050.2 156.3l-43.9-43.8 43-42.9-23.4-23.3-42.9 42.9-43.8-43.8-23.3 23.3 43.8 43.8-44.7 44.7 23.3 23.4 44.7-44.8 43.8 43.9z"/></g></symbol><symbol id="passenger-big-pause" viewBox="2159 0 497 473"><g fill-rule="evenodd"><g class="shape"><path d="M2543.4 225c-62 0-112.4-50.4-112.4-112.4 0-62 50.4-112.4 112.4-112.4 62 0 112.4 50.4 112.4 112.4 0 62-50.4 112.4-112.4 112.4zm0-209.2c-53.4 0-96.8 43.4-96.8 96.8s43.4 96.8 96.8 96.8 96.8-43.4 96.8-96.8-43.4-96.8-96.8-96.8z"/><path d="M2488.9 56.2h40.9V173h-40.9zM2556.2 56.2h40.9V173h-40.9z"/></g><path d="M2362.3 472.6c-.1 0-.1 0 0 0-1.6 0-3.1 0-4.6-.1l.2-9.2h4.3c9.2 0 18.5-.7 27.6-2l1.3 9.1c-9.4 1.6-19.2 2.2-28.8 2.2zm-28.8-2c-11.1-1.6-22.1-4.1-32.7-7.5l2.8-8.7c10.2 3.2 20.7 5.6 31.2 7.1l-1.3 9.1zm81.4-4.9l-2.4-8.8c10.3-2.8 20.4-6.4 30.2-10.9l3.8 8.3c-10.1 4.7-20.8 8.5-31.6 11.4zm-136.8-11.3c-10.2-4.6-20-10.2-29.3-16.4l5.1-7.6c8.9 6 18.3 11.3 28 15.7l-3.8 8.3zm189.8-11.5l-4.8-7.8c9.1-5.6 17.8-11.9 25.9-18.9l6 6.9c-8.4 7.3-17.5 14-27.1 19.8zm-238.3-19.7c-8.5-7.3-16.4-15.4-23.5-24l7-5.8c6.8 8.2 14.4 15.9 22.4 22.9l-5.9 6.9zm282.8-17.1l-6.8-6.2c7.2-7.9 13.7-16.5 19.5-25.4l7.7 5c-6 9.4-12.9 18.4-20.4 26.6zm-320.7-26.4c-6.1-9.4-11.4-19.4-15.8-29.6l8.4-3.6c4.2 9.8 9.3 19.3 15.1 28.3l-7.7 4.9zm353-21.3l-8.2-4c4.7-9.6 8.6-19.7 11.6-29.9l8.8 2.6c-3.2 10.6-7.3 21.2-12.2 31.3zm-377-31.2c-3.2-10.7-5.4-21.8-6.8-32.9l9.1-1.1c1.3 10.6 3.4 21.2 6.5 31.4l-8.8 2.6zm394.5-23.8l-9-1.5c1.7-10.5 2.6-21.2 2.6-32v-.4h9.2v.4c0 11.2-1 22.5-2.8 33.5zm-393.6-33.3h-9.2v-.2c0-11.1.9-22.3 2.7-33.2l9 1.5c-1.7 10.4-2.6 21.1-2.6 31.7v.2h.1zm385.8-23.8c-1.3-10.6-3.5-21.2-6.5-31.4l8.8-2.6c3.2 10.7 5.5 21.8 6.8 32.9l-9.1 1.1zm-378-30.7l-8.8-2.6c3.1-10.7 7.2-21.3 12.1-31.4l8.2 4c-4.7 9.7-8.5 19.7-11.5 30zm22.8-50.2l-7.7-4.9c6-9.4 12.9-18.4 20.4-26.7l6.8 6.1c-7.2 8-13.7 16.6-19.5 25.5zm36.1-41.6l-6-6.9c8.4-7.3 17.5-14 27.1-19.9l4.8 7.8c-9.2 5.6-17.9 12-25.9 19zm46.2-29.9l-3.8-8.3c10.2-4.7 20.8-8.5 31.6-11.4l2.4 8.8c-10.3 2.8-20.5 6.4-30.2 10.9zm139.2-8.6c-10.2-3.2-20.7-5.6-31.3-7.1l1.3-9.1c11.1 1.6 22.1 4.1 32.7 7.4l-2.7 8.8zm-86.4-7l-1.3-9.1c11-1.6 22.3-2.3 33.5-2l-.2 9.2c-10.6-.3-21.4.4-32 1.9z"/><g transform="translate(2223 9)" class="shape"><circle cx="139.2" cy="41.9" r="41.3"/><path d="M49.1 410.9c-8.2 11.3-5.6 27.1 5.7 35.3 4.5 3.2 9.6 4.8 14.8 4.8 7.8 0 15.6-3.6 20.5-10.5l44-60.9-31.2-43.1-53.8 74.4z"/><path d="M241.5 410.9l-94.8-131.3 10.6-67 35.1 47.3c4 5.6 10.3 8.5 16.7 8.5 4.2 0 8.5-1.3 12.1-3.9 9.2-6.7 11.3-19.6 4.6-28.9l-59.4-80.8c.1-1 .2-2.1.3-3.1 1.9-25.9-16.3-49.4-42.4-53.5-16.5-2.6-30.8 4.9-43.3 14l-59.6 43.3c-4.4 3.2-7.4 8.1-8.3 13.5L.9 246.1c-1.8 11.3 5.9 21.9 17.2 23.6 1.1.2 2.2.3 3.3.3 10 0 18.8-7.3 20.4-17.4L52.7 184l28.9-21-11.9 75.5c-2.1 13 .9 22.1 6.9 30.4l124 171.8c4.9 6.8 12.7 10.5 20.5 10.5 5.1 0 10.3-1.6 14.8-4.8 11.2-8.4 13.8-24.1 5.6-35.5z"/></g><path d="M2543.2 225c-62 0-112.4-50.4-112.4-112.4 0-62 50.4-112.4 112.4-112.4 62 0 112.4 50.4 112.4 112.4 0 62-50.5 112.4-112.4 112.4zm0-209.2c-53.4 0-96.8 43.4-96.8 96.8s43.4 96.8 96.8 96.8 96.8-43.4 96.8-96.8-43.5-96.8-96.8-96.8z" class="shape"/></g></symbol><symbol id="passenger-big" viewBox="2674 9 410 466"><g fill-rule="evenodd"><g transform="translate(2739 9)" class="shape"><circle cx="139.3" cy="41.9" r="41.3"/><path d="M49.1 410.9c-8.2 11.3-5.6 27.1 5.7 35.3 4.5 3.2 9.6 4.8 14.8 4.8 7.8 0 15.6-3.6 20.5-10.5l44-60.9-31.2-43.1-53.8 74.4z"/><path d="M241.6 410.9l-94.8-131.3 10.6-67 35.1 47.3c4 5.6 10.3 8.5 16.7 8.5 4.2 0 8.5-1.3 12.1-3.9 9.2-6.7 11.3-19.6 4.6-28.9l-59.4-80.8c.1-1 .2-2.1.3-3.1 1.9-25.9-16.3-49.4-42.4-53.5-16.5-2.6-30.8 4.9-43.3 14l-59.6 43.3c-4.4 3.2-7.4 8.1-8.3 13.5L1 246.1c-1.8 11.3 5.9 21.9 17.2 23.6 1.1.2 2.2.3 3.3.3 10 0 18.8-7.3 20.4-17.4L52.8 184l28.9-21-11.9 75.5c-2.1 13 .9 22.1 6.9 30.4l124 171.8c4.9 6.8 12.7 10.5 20.5 10.5 5.1 0 10.3-1.6 14.8-4.8 11.2-8.4 13.8-24.1 5.6-35.5z"/></g><path d="M2887.4 474.6l-.4-9c10.7-.4 21.4-1.8 31.8-3.9l1.8 8.8c-10.8 2.2-22 3.6-33.2 4.1zm-22.3-.3c-11.2-.7-22.3-2.4-33.2-5l2.1-8.8c10.4 2.4 21 4 31.7 4.7l-.6 9.1zm77.2-9.6l-2.8-8.6c10.1-3.3 20.1-7.5 29.6-12.4l4.2 8c-10 5.2-20.4 9.6-31 13zm-131.8-1.7c-10.5-3.7-20.8-8.4-30.6-13.8l4.4-7.9c9.3 5.2 19.2 9.6 29.2 13.2l-3 8.5zm182-22.6l-5-7.5c8.9-5.9 17.3-12.6 25.1-19.9l6.1 6.6c-8.1 7.6-16.9 14.6-26.2 20.8zm-231.6-3.1c-9.1-6.4-17.8-13.7-25.7-21.5l6.3-6.4c7.6 7.5 15.9 14.4 24.6 20.6l-5.2 7.3zm273.4-33.9l-6.8-5.9c7-8.1 13.3-16.8 18.9-25.9l7.7 4.7c-5.9 9.6-12.5 18.7-19.8 27.1zm-314.2-4.1c-7.1-8.7-13.5-17.9-19-27.6l7.8-4.5c5.3 9.2 11.4 18.1 18.2 26.4l-7 5.7zm344.5-42.7l-8.2-3.8c4.5-9.7 8.3-19.8 11.1-30.1l8.7 2.4c-3 10.8-6.9 21.4-11.6 31.5zm-373.5-4.9c-4.5-10.2-8.1-20.9-10.8-31.7l8.7-2.2c2.6 10.3 6.1 20.6 10.3 30.3l-8.2 3.6zm390-48.4l-8.9-1.5c1.7-10.5 2.6-21.2 2.6-32v-.4h9v.4c0 11.3-.9 22.5-2.7 33.5zM2676 298c-1.3-9.2-1.9-18.7-1.9-28.1 0-1.8 0-3.6.1-5.4l9 .2c0 1.7-.1 3.4-.1 5.1 0 9 .6 18 1.8 26.9l-8.9 1.3zm397.6-49.9c-1.2-10.6-3.2-21.2-6.1-31.5l8.7-2.4c3 10.7 5.2 21.8 6.4 32.9l-9 1zm-388.7-4.7l-8.9-1.2c1.5-11.1 3.9-22.1 7.2-32.7l8.6 2.7c-3.2 10.1-5.5 20.7-6.9 31.2zm375.6-47c-4-9.9-8.9-19.5-14.4-28.6l7.7-4.7c5.8 9.5 10.9 19.6 15.1 29.9l-8.4 3.4zm-361.3-4.3l-8.3-3.6c4.4-10.2 9.8-20.2 15.8-29.6l7.6 4.9c-5.8 9-10.9 18.5-15.1 28.3zm334.8-41.9c-6.5-8.4-13.8-16.4-21.6-23.7l6.1-6.6c8.2 7.6 15.8 15.9 22.6 24.8l-7.1 5.5zm-307.1-3.7l-7-5.7c7-8.7 14.8-16.8 23.2-24.2l6 6.7c-8 7.1-15.5 14.9-22.2 23.2zm269-33.7c-8.6-6.4-17.7-12.1-27.2-17l4.1-8c9.9 5.1 19.5 11.1 28.4 17.8l-5.3 7.2zm-230.1-2.8l-5.2-7.3c9.1-6.5 18.8-12.2 28.8-17.1l3.9 8.1c-9.5 4.7-18.8 10.2-27.5 16.3zm183.5-22.9c-10-3.8-20.3-6.9-30.8-9l1.8-8.8c10.9 2.2 21.8 5.4 32.2 9.4l-3.2 8.4zm-136.2-1.7l-3-8.5c10.5-3.8 21.4-6.7 32.4-8.6l1.6 8.9c-10.6 1.9-21 4.6-31 8.2zm84.2-10.5c-6.1-.6-12.2-.9-18.4-.9-4.5 0-9.1.2-13.6.5l-.6-9c4.7-.3 9.5-.5 14.3-.5 6.4 0 12.9.3 19.3.9l-1 9z" class="shape"/></g></symbol><symbol id="passenger-cancel" viewBox="832 150 303 323"><g fill-rule="evenodd"><g transform="translate(832 157)" class="shape"><circle cx="97.2" cy="29.2" r="28.9"/><path d="M34.1 287.5c-5.7 7.9-3.9 19 4 24.7 3.1 2.3 6.7 3.3 10.3 3.3 5.5 0 10.9-2.5 14.3-7.3l30.8-42.6-21.8-30.2-37.6 52.1z"/><path d="M168.9 287.5l-66.4-91.9 7.4-46.9 24.5 33.1c2.8 3.9 7.2 6 11.7 6 2.9 0 5.9-.9 8.5-2.8 6.5-4.7 7.9-13.7 3.2-20.2l-41.6-56.5c.1-.7.2-1.4.2-2.2C117.7 88 105 71.5 86.7 68.6c-11.5-1.8-21.6 3.4-30.3 9.8l-41.7 30.3c-3.1 2.3-5.2 5.7-5.8 9.4l-8.5 54c-1.2 7.9 4.1 15.3 12 16.5.8.1 1.5.2 2.3.2 7 0 13.1-5.1 14.3-12.2l7.6-48.1 20.2-14.7-8.3 52.8c-1.4 9.1.6 15.4 4.8 21.3l86.8 120.2c3.5 4.8 8.9 7.3 14.3 7.3 3.6 0 7.2-1.1 10.3-3.3 8.1-5.6 9.9-16.6 4.2-24.6z"/></g><path d="M1055.9 308.1c-43.4 0-78.7-35.3-78.7-78.7 0-43.4 35.3-78.7 78.7-78.7 43.4 0 78.7 35.3 78.7 78.7 0 43.4-35.3 78.7-78.7 78.7zm0-146.4c-37.4 0-67.7 30.4-67.7 67.7 0 37.3 30.4 67.7 67.7 67.7 37.3 0 67.7-30.4 67.7-67.7 0-37.3-30.3-67.7-67.7-67.7z" class="shape"/><path class="shape" d="M1103.6 260l-30.7-30.7 30-30-16.3-16.3-30.1 30-30.6-30.7-16.4 16.4 30.7 30.6-31.3 31.3 16.3 16.4 31.3-31.3 30.7 30.6z"/></g></symbol><symbol id="passenger-pause" viewBox="1184 150 302 323"><g fill-rule="evenodd"><g transform="translate(1184 157)" class="shape"><circle cx="97.3" cy="29.2" r="28.9"/><path d="M34.3 287.2c-5.7 7.9-3.9 18.9 4 24.6 3.1 2.3 6.7 3.3 10.3 3.3 5.5 0 10.9-2.5 14.3-7.3l30.7-42.6L71.8 235l-37.5 52.2z"/><path d="M168.9 287.2l-66.3-91.8 7.4-46.8 24.5 33.1c2.8 3.9 7.2 6 11.7 6 2.9 0 5.9-.9 8.5-2.8 6.5-4.7 7.9-13.7 3.2-20.2l-41.5-56.5c.1-.7.2-1.4.2-2.2 1.3-18.1-11.4-34.5-29.7-37.4-11.5-1.8-21.5 3.4-30.3 9.8L15 108.6c-3.1 2.3-5.2 5.6-5.8 9.4L.7 171.9c-1.2 7.9 4.1 15.3 12 16.5.8.1 1.5.2 2.3.2 7 0 13.1-5.1 14.2-12.2l7.6-48L57 113.7l-8.3 52.8c-1.4 9.1.6 15.4 4.8 21.2l86.7 120.1c3.5 4.8 8.9 7.3 14.3 7.3 3.6 0 7.2-1.1 10.3-3.3 8-5.6 9.8-16.7 4.1-24.6z"/></g><path d="M1407 307c-43.1 0-78.1-35.1-78.1-78.1 0-43.1 35.1-78.1 78.1-78.1 43 0 78.1 35.1 78.1 78.1 0 43.1-35 78.1-78.1 78.1zm0-145.4c-37.1 0-67.3 30.2-67.3 67.3 0 37.1 30.2 67.3 67.3 67.3 37.1 0 67.3-30.2 67.3-67.3 0-37.1-30.2-67.3-67.3-67.3z" class="shape"/><path class="shape" d="M1369.1 189.7h28.5v81.2h-28.5zM1415.9 189.7h28.5v81.2h-28.5z"/></g></symbol><symbol id="passenger" viewBox="553 155 173 318"><g fill-rule="evenodd" transform="translate(553 155)"><circle class="shape" cx="97.6" cy="30" r="29.1"/><path d="M34.2 289.5c-5.7 7.9-4 19 4 24.8 3.1 2.3 6.8 3.4 10.4 3.4 5.5 0 10.9-2.6 14.4-7.4l30.9-42.8L72 237.2l-37.8 52.3z" class="shape"/><path d="M169.5 289.5l-66.7-92.3 7.5-47.1 24.7 33.3c2.8 3.9 7.3 6 11.8 6 3 0 6-.9 8.5-2.8 6.5-4.7 7.9-13.8 3.2-20.3l-41.7-56.8c.1-.7.2-1.5.2-2.2 1.3-18.2-11.5-34.7-29.8-37.7-11.6-1.8-21.7 3.4-30.5 9.8l-41.9 30.4c-3.1 2.3-5.2 5.7-5.8 9.5L.4 173.5c-1.3 7.9 4.2 15.4 12.1 16.6.8.1 1.5.2 2.3.2 7 0 13.2-5.1 14.3-12.3l7.6-48.3L57 114.9 48.6 168c-1.4 9.1.6 15.5 4.9 21.4l87.2 120.8c3.5 4.8 8.9 7.4 14.4 7.4 3.6 0 7.2-1.1 10.4-3.4 8-5.7 9.8-16.8 4-24.7z" class="shape"/></g></symbol><symbol id="profile" viewBox="138 597 335 335"><g fill-rule="evenodd"><path d="M472.9 764.6c0 92.2-74.7 167-167.2 167-92.1-.1-166.9-74.7-166.8-167.1 0-92.2 74.8-167 167.2-166.9 92.2.1 166.8 74.7 166.8 167zM305.1 613.2c-41.9.8-78.6 15.9-108.3 46.7-28 29.1-42.1 64.2-42.1 104.5 0 42.6 15.5 79.2 46.1 108.8 29.1 28.2 64.5 42.5 105 42.5 42.8-.1 79.4-15.7 109.1-46.6 28-29.1 42.1-64.3 42.1-104.6 0-42.6-15.6-79.1-46.1-108.7-29.1-28.2-64.4-41.9-105.8-42.6z" class="shape"/><path d="M218.2 857.3c.2-2.8.3-5.7.7-8.5.9-5.4 2.7-10.5 5.7-15.1 4-6.3 9.2-11.2 15.7-14.7 3.1-1.6 6.4-2.9 9.9-3.7 4.5-1 9.1-1.2 13.7-1.2h84.9c3.1 0 6.3.3 9.4.9 9.3 2 17.1 6.6 23.3 13.9 3.3 3.9 5.9 8.2 7.3 13.1.8 2.7 1.5 5.5 1.8 8.3.4 3.5.4 7.1.5 10.6 0 .5-.3 1.1-.6 1.4-4.8 4.2-9.8 8.2-15.2 11.7-5.2 3.3-10.4 6.5-16 9-3.7 1.6-7.4 3.2-11.1 4.6-3.7 1.4-7.4 2.5-11.2 3.6-2.4.7-4.8 1.1-7.2 1.6l-10.2 1.8c-1.8.3-3.7.4-5.5.5-2.7.2-5.5.4-8.2.4-4.4 0-8.7-.2-13.1-.4-2.5-.1-5-.5-7.5-.9-3-.5-5.9-1.1-8.8-1.7-2.3-.5-4.6-1-6.8-1.6-2.7-.7-5.3-1.5-7.9-2.4-3.2-1.1-6.3-2.4-9.4-3.7-6.4-2.8-12.5-6.1-18.4-9.9-5.2-3.4-10.1-7.1-14.8-11-.6-.5-.8-1-.8-1.8v-4.9c-.1.1-.1.1-.2.1zM304.7 792.8c-3-.3-5.9-.3-8.9-.8-4.4-.7-8.6-2-12.7-3.8-7.9-3.5-14.8-8.6-20.6-15.1-4.2-4.8-7.7-10.1-10.2-16-1.6-3.6-2.8-7.2-3.6-11.1-.7-3.4-1.4-6.8-1.4-10.4 0-3.4-.2-6.9.2-10.3.5-4.2 1.6-8.2 3-12.2 3.3-8.9 8.7-16.4 15.9-22.5 4-3.4 8.3-6.2 13.1-8.3 3.3-1.4 6.8-2.6 10.3-3.5 2.9-.8 5.9-1.1 8.9-1.5 2.7-.3 5.4-.5 8-.4 3.6.2 7.1.8 10.6 1.3 4.7.7 9.2 2.4 13.4 4.5 7.5 3.6 14 8.6 19.2 15.1 3.7 4.6 6.7 9.7 8.7 15.3 1.3 3.6 2.4 7.2 2.8 10.9.3 2.9.8 5.9.7 8.8-.1 3.6-.7 7.1-1.2 10.6-.8 5.7-2.8 11-5.3 16-2.2 4.4-4.9 8.4-8 12.2-4.3 5.1-9.2 9.4-14.9 12.8-3.5 2.1-7.1 3.9-11 5.1-3.5 1.1-7 2.2-10.7 2.4-1.9.5-4.1.7-6.3.9z" class="shape"/></g></symbol><symbol id="protect-user" viewBox="1521 1043 267 267"><g fill-rule="evenodd" transform="translate(1521 1043)"><circle class="shape" cx="133.8" cy="133.2" r="133"/><path d="M133.8 47.7L195 67.5v83.8c0 11.8-3.4 23.1-9.5 32.8.3-1 .4-2.1.4-3.3 0-18.6-9.8-34.9-24.5-44.1 5.2-6.2 8.3-14.3 8.3-23 0-19.8-16.1-36-36-36s-36 16.1-36 36c0 8.7 3.1 16.7 8.3 23-14.7 9.2-24.5 25.6-24.5 44.1 0 1.1.1 2.2.4 3.3-6.1-9.6-9.5-20.9-9.5-32.8V67.5l61.4-19.8zM88.7 192.6c1.9 1.1 4.2 1.7 6.5 1.7h77.2c2.4 0 4.6-.6 6.5-1.7-3.6 3.9-7.7 7.3-12.2 10.3-.3.2-.5.4-.8.5l-32.1 19.3-32.1-19.3c-.3-.2-.5-.4-.8-.6-4.6-2.8-8.6-6.3-12.2-10.2zm45.1-159.1L59.1 57.7v93.6c0 26.4 13.8 49.7 34.5 62.9h-.1l40.3 24.3 40.3-24.3h-.1c20.7-13.3 34.5-36.5 34.5-62.9V57.7l-74.7-24.2zm0 102.7c-12.4 0-22.5-10.1-22.5-22.5s10.1-22.5 22.5-22.5 22.5 10.1 22.5 22.5-10 22.5-22.5 22.5zm-38.6 44.6c0-21.3 17.3-38.6 38.6-38.6s38.6 17.3 38.6 38.6H95.2z" fill="#FFF"/></g></symbol><symbol id="refresh" viewBox="0 0 187 195"><title>Shape</title><path d="M165.8 165.9c-27.8 29.5-81.1 40.6-123.9 10.5-44.3-31.1-54.3-92.5-22.2-136.3 34-46.4 101.1-53.4 143.5-14.2 7.7-7.8 15.5-15.5 23.5-23.5v65.8h-65.3c7.6-7.5 15.1-15.1 22.7-22.6-20.8-19.9-58.8-26.2-88.2-3.9-30.9 23.4-37.1 67.1-13.8 97.5 12.8 16.7 29.8 26.1 50.8 27.6 21 1.6 38.9-5.6 54-19.9 6.3 6.3 12.6 12.6 18.9 19z" fill-rule="evenodd"/></symbol><symbol id="search" viewBox="0 0 212 212"><title>Shape</title><path d="M148.8 132.6l63 63c-5.4 5.4-10.8 10.7-16.1 16l-62.9-62.9c-22.1 16-46.1 20.9-72.2 13.7-19.6-5.4-35-16.8-46.3-33.7C-8.5 94.4-2.9 49.3 27.6 21.8 57.8-5.5 103.1-6.6 135 19.2c32.4 26.1 41.6 76.2 13.8 113.4zM23.4 82.8c-.2 32.6 26.5 59.6 59.2 59.8 32.6.2 59.4-26.5 59.6-59.3.2-32.9-26.3-59.6-59.3-59.8-32.6-.3-59.4 26.3-59.5 59.3z" fill-rule="evenodd"/></symbol><symbol id="sofa" viewBox="2453 1470 341 198"><g fill-rule="evenodd"><path class="shape" d="M2506.1 1470.6H2616v84.3h-109.9z"/><path class="shape" d="M2758.2 1526.8v42.7h-269.3v-42.7h-35.7v42.7h-.2v55h.2v.5h35.7v42.5h11.9l29.3-43H2717l29.3 43h11.9V1625h35.7v-98.2z"/><path class="shape" d="M2630.3 1470.6h109.9v84.3h-109.9z"/></g></symbol><symbol id="support-all-time" viewBox="0 0 211 210"><title>Group 6</title><g fill="none" fill-rule="evenodd"><g fill="#E2E3E3"><path d="M135 201.6c.1-.9.4-1.9.6-2.8.1-.5.3-1 .4-1.5.1-.9.2-1.8.5-2.6v-.2c.1-1.7.4-3.3.3-5-.1-1.3 0-2.6 0-3.9 0-1.2-.3-2.4-.4-3.6-.1-.7-.3-1.4-.3-2.1-.1-.9-.2-1.7-.6-2.5-.2-.4-.2-.8-.3-1.1-.1-.7-.6-1.3-.6-2.1 0-.3-.2-.7-.3-1-.4-.7-.6-1.4-.9-2.1-.6-1.4-1.3-2.9-2-4.2-.6-1.1-1.3-2.1-2-3.1-.8-1.2-1.8-2.3-2.5-3.5 0-.1-.1-.1-.1-.1-1.2-1.1-2.1-2.6-3.3-3.6-1.3-1-2.4-2.3-3.7-3.2-1.4-.9-2.7-1.9-4.1-2.8-1.2-.7-2.4-1.3-3.6-2-1.2-.7-2.5-1.2-3.7-1.6-1.5-.5-3-1.1-4.5-1.4-.7-.1-1.4-.3-2.2-.5-1.1-.2-2.2-.4-3.4-.5-.7-.1-1.4-.1-2.1-.2-1.5-.3-3-.4-4.4-.2-1.2.1-2.4 0-3.5.3-1.1.2-2.3.1-3.4.5-.9.3-1.8.4-2.8.7-1 .3-1.9.5-2.9.8-1 .3-1.9.7-2.9 1-1.8.7-3.4 1.6-5.1 2.5-1.1.6-2.1 1.3-3.1 2-1.3.9-2.5 1.9-3.7 2.9-1.8 1.5-3.4 3.2-5 4.9-1.2 1.2-2.1 2.7-3.1 4-1.3 1.9-2.4 3.9-3.3 5.9-.7 1.5-1.2 3.1-1.8 4.6-.5 1.2-.7 2.4-1.1 3.6-.3.9-.4 1.9-.6 2.9-.3 1.6-.3 3.1-.5 4.7-.3 1.9-.2 3.7-.1 5.5.1 1 0 2.1.2 3.1l.6 3.3c.2.9.3 1.8.6 2.7.2.5.1 1.1.5 1.6H36.5c.1-.8-.2-1.6-.4-2.4-.2-.5-.2-1.2-.2-1.7 0-1-.2-2-.4-3-.2-1.2 0-2.5-.2-3.6-.3-1.4-.3-2.9-.1-4.3.1-1.1.1-2.2.2-3.3.2-1.3.3-2.6.5-3.9.1-1 .3-2.1.7-3.1.2-.4.2-1 .3-1.4.1-.8.5-1.5.6-2.3.1-.7.4-1.4.6-2.1.3-.8.7-1.6.9-2.5.2-.9.6-1.7 1-2.5.4-.9.8-1.9 1.3-2.7.7-1.4 1.4-2.8 2.2-4.1.9-1.4 1.7-2.8 2.7-4.1 1-1.3 2.1-2.6 3.1-4 .3-.4.7-.7 1-1.1.5-.6 1.1-1 1.5-1.7.2-.4.7-.7 1.1-1 .5-.4 1-.9 1.4-1.4 1.2-1.2 2.5-2.3 3.9-3.3 1.6-1.2 3.1-2.3 4.9-3.3 1.1-.6 2.1-1.3 3.3-1.9 1.3-.7 2.6-1.3 3.9-1.9 1-.4 2-.9 3-1.2 1-.3 1.8-.8 2.8-.9.6-.1 1.2-.4 1.8-.6.5-.1 1-.3 1.5-.4.6 0 1.1-.2 1.6-.4.1 0 .2-.1.2-.1.8.1 1.5-.2 2.3-.3.6-.1 1.3 0 1.9-.4h.2c1.1.1 2.1-.3 3.2-.3h8.6c1.1 0 2.2.3 3.2.3.9.1 1.9.3 2.9.5l3.9.9c1.5.4 3.1.8 4.6 1.4 1.2.4 2.5.9 3.7 1.4 1.4.6 2.8 1.3 4.2 2 1.7.9 3.3 1.9 4.9 2.9 1.3.9 2.6 1.9 3.9 2.7.5.3 1 .8 1.5 1.2 1.8 1.7 3.7 3.2 5.3 5 1 1.2 2.2 2.4 3.1 3.7 1.2 1.7 2.4 3.4 3.5 5.1 1.2 2.1 2.6 4.1 3.5 6.4.7 1.6 1.4 3.1 2 4.8.4 1.1.6 2.3 1.1 3.3.2.4.2.9.3 1.3.1.5.3 1 .5 1.4.2.4.1.9.2 1.4.1.6.2 1.2.4 1.8.2.7 0 1.5.4 2.1v.2c-.1 1.1.1 2.1.3 3.1.3 2.5.3 5.1.2 7.6 0 1.1-.1 2.2-.3 3.2-.1.7 0 1.5-.2 2.1-.3 1.1-.3 2.2-.7 3.3-.2.6-.1 1.2-.3 1.9-5.1.1-9.8.1-14.5.1z"/><path d="M158.1 201.6c-.2-.7-.2-1.4-.5-2.1-.2-.4-.1-.9-.2-1.3-.1-.6-.3-1.2-.4-1.8-.1-.6-.1-1.3-.4-1.9-.2-.4-.2-.9-.3-1.4-.1-1.1-.4-2.1-.6-3.2-.2-1.1-.3-2.2-.7-3.2-.4-1.3-.1-2.6-.3-3.9-.2-1.1-.1-2.2-.4-3.3-.2-.6-.3-1.3-.3-2-.1-.7-.2-1.5-.4-2.2-.2-.9-.5-1.8-.6-2.7-.1-.6-.3-1.2-.5-1.8-.3-.7-.4-1.4-.7-2.1l-.9-2.4c-.3-1.1-.8-2.2-1.3-3.2-.6-1.2-1.1-2.4-1.8-3.6-1-1.8-1.9-3.6-3-5.2-1-1.4-1.9-2.7-2.9-4.1-1.6-2.1-3.3-4.1-5.2-5.9-.1-.1-.3-.2-.2-.5.1-.2.3-.2.5-.2h25c.7 0 1.4.3 2.1.5 1.7.6 3.3 1.6 4.5 3 1 1.1 1.9 2.3 2.3 3.7.2.8.5 1.6.6 2.5.2 1 .3 2 .7 3 .2.4.2.9.2 1.4.1 1.1.4 2.1.6 3.2.2 1 .4 2.1.6 3.1.1.5.2 1.2.4 1.7.2.6.1 1.3.4 2 .2.4.2.9.3 1.2.1.7.4 1.3.3 2.1-.1.4.2.8.3 1.2.4 1.1.4 2.2.7 3.3.3 1 .4 2.1.6 3.2.1.9.4 1.9.6 2.8.2.6.1 1.3.3 1.9.2.6.2 1.3.4 1.9.2.6.1 1.2.3 1.9.2.6.2 1.3.5 1.9.1.1.1.3.1.5 0 .7.3 1.4.4 2.1.1.4.2.9.3 1.4.1 1.2.5 2.4.7 3.6.1.6.3 1.3.3 2 0 .5.2.9.3 1.4.2.6.1 1.1.2 1.7-7.6-.2-15.3-.2-22.9-.2zM143.1 135.5h-16.3c-.7 0-1.4-.2-2-.6-1.2-.8-2.5-1.4-3.8-2.2-.9-.5-1.8-.9-2.7-1.3-1.6-.7-3.2-1.5-4.9-2-1.1-.3-2.2-.9-3.3-1.1-.8-.2-1.5-.4-2.3-.6-1-.2-1.9-.4-2.9-.6-.5-.1-1.1-.3-1.6-.3-1-.1-2-.2-2.9-.5h-.2c-1.8-.3-3.6-.2-5.4-.3-1-.1-2-.4-3-.2-1.7.3-3.3 0-4.9.2-1.2.1-2.4.3-3.6.5-1 .2-2 .1-2.9.5-1.2.4-2.4.4-3.6.9-.5.3-.9 0-.8-.6.1-1.6-.3-3.1-.3-4.7 0-1 0-2.1-.2-3.1s0-2-.2-3c-.2-1.3-.1-2.5-.3-3.7-.2-.9 0-1.8-.2-2.7-.3-1.2 0-2.5-.3-3.6-.2-1.1 0-2.2-.2-3.2s0-2-.3-2.9c-.3-1.1 0-2.2-.2-3.3-.2-1.2 0-2.5-.3-3.7-.4-2-.2-3.9-.2-5.9 0-1 .3-2 .6-3 .4-1.3.9-2.6 1.6-3.8.4-.8 1-1.5 1.5-2.2.6-.9 1.5-1.7 2.3-2.5.9-.9 2-1.6 3.1-2.2 1.5-.9 3.1-1.4 4.6-1.9.5-.2 1.2-.4 1.8-.3 1.1.1 2.2-.5 3.2-.2 1 .2 2.1.2 3.1.4 1.7.4 3.3.9 4.8 1.7 1.4.8 2.7 1.6 3.8 2.8 1.4 1.5 2.8 3 3.7 4.9.4.7.6 1.5 1.1 2.2.2.3.2.8.3 1.2.2 1.1.4 2.2.6 3.4.1 1.1 0 2.1.2 3.1.2 1.1 0 2.2.3 3.3.2.8.1 1.5.2 2.3.2 1.5.2 3 .3 4.4.1.9 0 1.9.2 2.8.3 1.1 0 2.2.3 3.2.3 1.1 0 2.3.2 3.4.2 1.2.1 2.4.3 3.5.2.9 0 1.7.2 2.6.2.8.2 1.5.2 2.3 0 .3.3.5.6.5h46.5c1.3 0 2.5.4 3.5 1.1 1.1.8 2 1.7 2.8 2.9 1 1.6 1.1 3.4.9 5.2-.1 1.2-.7 2.3-1.4 3.4-.9 1.4-2.2 2.1-3.6 2.8-.5.2-1 .3-1.5.4-5.9.6-11.8.1-16.5.3zM91.3 24.5h1.8c.8 0 1.5.3 2.2.4.7.2 1.4.3 2.1.5 1.3.4 2.6 1 3.8 1.6.9.5 1.6 1.1 2.5 1.7 1.1.8 2 1.8 2.9 2.7.8.8 1.5 1.9 2.1 2.9.6.9 1 2 1.4 3 .4.9.7 1.9.9 2.9.6 2.3.5 4.6.4 6.9 0 .7-.2 1.4-.4 2.1-.2.7-.3 1.4-.5 2.1-.4 1.4-1.1 2.6-1.7 3.8-.5.9-1.1 1.7-1.7 2.5-.7 1-1.7 1.8-2.5 2.7-.7.7-1.6 1.3-2.5 1.9-.9.6-1.9 1.1-2.9 1.5-.9.4-1.8.8-2.8 1-.9.2-1.9.3-2.7.5-1.4.4-2.9.2-4.3.1-.6 0-1.3-.1-2-.4-.4-.2-1-.1-1.5-.3-1.1-.4-2.1-.6-3.2-1.1-.6-.3-1.3-.7-1.9-1-.8-.4-1.5-1-2.2-1.5-1.4-1.1-2.6-2.4-3.7-3.8-.8-1-1.4-2.1-2-3.2-.5-1-1-2-1.2-3.1-.2-.8-.3-1.7-.7-2.4v-.2c.1-1.4-.5-2.8-.2-4.2.3-1.6.4-3.3.9-4.9.3-1.1.8-2.1 1.2-3.2.2-.6.6-1.3 1-1.9 1-1.5 2-3 3.4-4.1 1.1-.9 2.1-1.8 3.3-2.5.8-.4 1.5-.9 2.4-1.3 1-.4 1.9-.8 2.9-1 .8-.1 1.7-.4 2.5-.6.6-.2 1.4-.1 2.1-.1h.8zM111.5 166.5H98.4c-.3 0-.6.1-.9-.2-.1-.1-.3-.1-.5 0-.8.3-1.5.3-2.3 0-.1-.1-.3 0-.4 0-1.3 0-2.6-.3-3.8-.7-1.3-.4-2.5-1-3.7-1.6-.8-.4-1.5-.9-2.2-1.5-.5-.5-1.1-.8-1.6-1.3-1.2-1.4-2.4-2.9-3.3-4.6-.6-1.1-.9-2.4-1.5-3.5-.2-.4 0-.9-.3-1.3-.1-.1.1-.3.2-.4.5-.3 1-.6 1.6-.7.7-.1 1.2-.5 1.9-.6.9-.2 1.8-.4 2.6-.7.7-.2 1.4 0 2.1-.4h.1c.8.1 1.6-.2 2.4-.3 1.8-.3 3.7-.3 5.5-.2 1 .1 2.1 0 3.1.4h.2c.9-.2 1.7.2 2.6.3.8.1 1.6.5 2.4.6.9.2 1.7.5 2.6.8 1.4.5 2.7 1 4.1 1.6.9.4 1.9.9 2.7 1.4 1.2.7 2.3 1.4 3.4 2.2.9.7 1.8 1.5 2.7 2.1.3.2.5.5.8.7 1 1 2 1.9 2.9 2.9 1 1.1 2 2.2 2.8 3.5.1.2.3.3.4.4.2.2.4.4.3.7-.1.3-.4.2-.6.2-4.3.2-8.8.2-13.2.2z"/></g><path d="M79 114.5l47.7.1c18 0 32.7-12.8 32.7-28.5s-14.7-28.5-32.7-28.5h-24.5V33.2L68.4 63.9l33.8 30.7V69.4h24.5c10.8 0 19.5 7.5 19.5 16.7s-8.8 16.7-19.5 16.7l-47.8-.1h-.1c-16.9 1.1-30.2 13.6-30.2 28.4 0 15.7 14.7 28.5 32.7 28.5h24.1V184l33.8-30.7-33.8-30.7v25.2H81.3c-10.8 0-19.5-7.5-19.5-16.7-.1-8.5 7.3-15.6 17.2-16.6z" fill="#1EDD85"/></g></symbol><symbol id="support-delete" viewBox="0 0 210 210"><title>Group 8</title><g transform="translate(4 4)" fill="none" fill-rule="evenodd"><g fill="#E2E3E3"><path d="M130.2 197.6c.1-.9.4-1.9.6-2.8.1-.5.3-1 .4-1.5.1-.9.2-1.8.5-2.6v-.2c.1-1.7.4-3.3.3-5-.1-1.3 0-2.6 0-3.9 0-1.2-.3-2.4-.4-3.6-.1-.7-.3-1.4-.3-2.1-.1-.9-.2-1.7-.6-2.5-.2-.4-.2-.8-.3-1.1-.1-.7-.6-1.3-.6-2.1 0-.3-.2-.7-.3-1-.4-.7-.6-1.4-.9-2.1-.6-1.4-1.3-2.9-2-4.2-.6-1.1-1.3-2.1-2-3.1-.8-1.2-1.8-2.3-2.5-3.5 0-.1-.1-.1-.1-.1-1.2-1.1-2.1-2.6-3.3-3.6-1.3-1-2.4-2.3-3.7-3.2-1.4-.9-2.7-1.9-4.1-2.8-1.2-.7-2.4-1.3-3.6-2-1.2-.7-2.5-1.2-3.7-1.6-1.5-.5-3-1.1-4.5-1.4-.7-.1-1.4-.3-2.2-.5-1.1-.2-2.2-.4-3.4-.5-.7-.1-1.4-.1-2.1-.2-1.5-.3-3-.4-4.4-.2-1.2.1-2.4 0-3.5.3-1.1.2-2.3.1-3.4.5-.9.3-1.8.4-2.8.7-1 .3-1.9.5-2.9.8-1 .3-1.9.7-2.9 1-1.8.7-3.4 1.6-5.1 2.5-1.1.6-2.1 1.3-3.1 2-1.3.9-2.5 1.9-3.7 2.9-1.8 1.5-3.4 3.2-5 4.9-1.2 1.2-2.1 2.7-3.1 4-1.3 1.9-2.4 3.9-3.3 5.9-.7 1.5-1.2 3.1-1.8 4.6-.5 1.2-.7 2.4-1.1 3.6-.3.9-.4 1.9-.6 2.9-.3 1.6-.3 3.1-.5 4.7-.3 1.9-.2 3.7-.1 5.5.1 1 0 2.1.2 3.1l.6 3.3c.2.9.3 1.8.6 2.7.2.5.1 1.1.5 1.6H31.7c.1-.8-.2-1.6-.4-2.4-.2-.5-.2-1.2-.2-1.7 0-1-.2-2-.4-3-.2-1.2 0-2.5-.2-3.6-.3-1.4-.3-2.9-.1-4.3.1-1.1.1-2.2.2-3.3.2-1.3.3-2.6.5-3.9.1-1 .3-2.1.7-3.1.2-.4.2-1 .3-1.4.1-.8.5-1.5.6-2.3.1-.7.4-1.4.6-2.1.3-.8.7-1.6.9-2.5.2-.9.6-1.7 1-2.5.4-.9.8-1.9 1.3-2.7.7-1.4 1.4-2.8 2.2-4.1.9-1.4 1.7-2.8 2.7-4.1 1-1.3 2.1-2.6 3.1-4 .3-.4.7-.7 1-1.1.5-.6 1.1-1 1.5-1.7.2-.4.7-.7 1.1-1 .5-.4 1-.9 1.4-1.4 1.2-1.2 2.5-2.3 3.9-3.3 1.6-1.2 3.1-2.3 4.9-3.3 1.1-.6 2.1-1.3 3.3-1.9 1.3-.7 2.6-1.3 3.9-1.9 1-.4 2-.9 3-1.2 1-.3 1.8-.8 2.8-.9.6-.1 1.2-.4 1.8-.6.5-.1 1-.3 1.5-.4.6 0 1.1-.2 1.6-.4.1 0 .2-.1.2-.1.8.1 1.5-.2 2.3-.3.6-.1 1.3 0 1.9-.4h.2c1.1.1 2.1-.3 3.2-.3h8.6c1.1 0 2.2.3 3.2.3.9.1 1.9.3 2.9.5l3.9.9c1.5.4 3.1.8 4.6 1.4 1.2.4 2.5.9 3.7 1.4 1.4.6 2.8 1.3 4.2 2 1.7.9 3.3 1.9 4.9 2.9 1.3.9 2.6 1.9 3.9 2.7.5.3 1 .8 1.5 1.2 1.8 1.7 3.7 3.2 5.3 5 1 1.2 2.2 2.4 3.1 3.7 1.2 1.7 2.4 3.4 3.5 5.1 1.2 2.1 2.6 4.1 3.5 6.4.7 1.6 1.4 3.1 2 4.8.4 1.1.6 2.3 1.1 3.3.2.4.2.9.3 1.3.1.5.3 1 .5 1.4.2.4.1.9.2 1.4.1.6.2 1.2.4 1.8.2.7 0 1.5.4 2.1v.2c-.1 1.1.1 2.1.3 3.1.3 2.5.3 5.1.2 7.6 0 1.1-.1 2.2-.3 3.2-.1.7 0 1.5-.2 2.1-.3 1.1-.3 2.2-.7 3.3-.2.6-.1 1.2-.3 1.9-5.2.1-9.8.1-14.5.1z"/><path d="M153.2 197.6c-.2-.7-.2-1.4-.5-2.1-.2-.4-.1-.9-.2-1.3-.1-.6-.3-1.2-.4-1.8-.1-.6-.1-1.3-.4-1.9-.2-.4-.2-.9-.3-1.4-.1-1.1-.4-2.1-.6-3.2-.2-1.1-.3-2.2-.7-3.2-.4-1.3-.1-2.6-.3-3.9-.2-1.1-.1-2.2-.4-3.3-.2-.6-.3-1.3-.3-2-.1-.7-.2-1.5-.4-2.2-.2-.9-.5-1.8-.6-2.7-.1-.6-.3-1.2-.5-1.8-.3-.7-.4-1.4-.7-2.1l-.9-2.4c-.3-1.1-.8-2.2-1.3-3.2-.6-1.2-1.1-2.4-1.8-3.6-1-1.8-1.9-3.6-3-5.2-.9-1.4-1.9-2.7-2.9-4.1-1.6-2.1-3.3-4.1-5.2-5.9-.1-.1-.3-.2-.2-.5.1-.2.3-.2.5-.2h25c.7 0 1.4.3 2.1.5 1.7.6 3.3 1.6 4.5 3 1 1.1 1.9 2.3 2.3 3.7.2.8.5 1.6.6 2.5.2 1 .3 2 .7 3 .2.4.2.9.2 1.4.1 1.1.4 2.1.6 3.2.2 1 .4 2.1.6 3.1.1.5.2 1.2.4 1.7.2.6.1 1.3.4 2 .2.4.2.9.3 1.2.1.7.4 1.3.3 2.1-.1.4.2.8.3 1.2.4 1.1.4 2.2.7 3.3.3 1 .4 2.1.6 3.2.1.9.4 1.9.6 2.8.2.6.1 1.3.3 1.9.2.6.2 1.3.4 1.9.2.6.1 1.2.3 1.9.2.6.2 1.3.5 1.9.1.1.1.3.1.5 0 .7.3 1.4.4 2.1.1.4.2.9.3 1.4.1 1.2.5 2.4.7 3.6.1.6.3 1.3.3 2 0 .5.2.9.3 1.4.2.6.1 1.1.2 1.7-7.5-.2-15.2-.2-22.9-.2zM138.3 131.5H122c-.7 0-1.4-.2-2-.6-1.2-.8-2.5-1.4-3.8-2.2-.9-.5-1.8-.9-2.7-1.3-1.6-.7-3.2-1.5-4.9-2-1.1-.3-2.2-.9-3.3-1.1-.8-.2-1.5-.4-2.3-.6-1-.2-1.9-.4-2.9-.6-.5-.1-1.1-.3-1.6-.3-1-.1-2-.2-2.9-.5h-.2c-1.8-.3-3.6-.2-5.4-.3-1-.1-2-.4-3-.2-1.7.3-3.3 0-4.9.2-1.2.1-2.4.3-3.6.5-1 .2-2 .1-2.9.5-1.2.4-2.4.4-3.6.9-.5.3-.9 0-.8-.6.1-1.6-.3-3.1-.3-4.7 0-1 0-2.1-.2-3.1s0-2-.2-3c-.2-1.3-.1-2.5-.3-3.7-.2-.9 0-1.8-.2-2.7-.3-1.2 0-2.5-.3-3.6-.2-1.1 0-2.2-.2-3.2s0-2-.3-2.9c-.3-1.1 0-2.2-.2-3.3-.2-1.2 0-2.5-.3-3.7-.4-2-.2-3.9-.2-5.9 0-1 .3-2 .6-3 .4-1.3.9-2.6 1.6-3.8.4-.8 1-1.5 1.5-2.2.6-.9 1.5-1.7 2.3-2.5.9-.9 2-1.6 3.1-2.2 1.5-.9 3.1-1.4 4.6-1.9.5-.2 1.2-.4 1.8-.3 1.1.1 2.2-.5 3.2-.2 1 .2 2.1.2 3.1.4 1.7.4 3.3.9 4.8 1.7 1.4.8 2.7 1.6 3.8 2.8 1.4 1.5 2.8 3 3.7 4.9.4.7.6 1.5 1.1 2.2.2.3.2.8.3 1.2.2 1.1.4 2.2.6 3.4.1 1.1 0 2.1.2 3.1.2 1.1 0 2.2.3 3.3.2.8.1 1.5.2 2.3.2 1.5.2 3 .3 4.4.1.9 0 1.9.2 2.8.2 1.1 0 2.2.3 3.2.3 1.1 0 2.3.2 3.4.2 1.2.1 2.4.3 3.5.2.9 0 1.7.2 2.6.2.8.2 1.5.2 2.3 0 .3.3.5.6.5h46.5c1.3 0 2.5.4 3.5 1.1 1.1.8 2 1.7 2.8 2.9 1 1.6 1.1 3.4.9 5.2-.1 1.2-.7 2.3-1.4 3.4-.9 1.4-2.2 2.1-3.6 2.8-.5.2-1 .3-1.5.4-6 .6-11.8.1-16.5.3zM86.5 20.5h1.8c.8 0 1.5.3 2.2.4.7.2 1.4.3 2.1.5 1.3.4 2.6 1 3.8 1.6.9.5 1.6 1.1 2.5 1.7 1.1.8 2 1.8 2.9 2.7.8.8 1.5 1.9 2.1 2.9.6.9 1 2 1.4 3 .4.9.7 1.9.9 2.9.6 2.3.5 4.6.4 6.9 0 .7-.2 1.4-.4 2.1-.2.7-.3 1.4-.5 2.1-.4 1.4-1.1 2.6-1.7 3.8-.5.9-1.1 1.7-1.7 2.5-.7 1-1.7 1.8-2.5 2.7-.7.7-1.6 1.3-2.5 1.9-.9.6-1.9 1.1-2.9 1.5-.9.4-1.8.8-2.8 1-.9.2-1.9.3-2.7.5-1.4.4-2.9.2-4.3.1-.6 0-1.3-.1-2-.4-.4-.2-1-.1-1.5-.3-1.1-.4-2.1-.6-3.2-1.1-.6-.3-1.3-.7-1.9-1-.8-.4-1.5-1-2.2-1.5-1.4-1.1-2.6-2.4-3.7-3.8-.8-1-1.4-2.1-2-3.2-.5-1-1-2-1.2-3.1-.2-.8-.3-1.7-.7-2.4v-.2c.1-1.4-.5-2.8-.2-4.2.3-1.6.4-3.3.9-4.9.3-1.1.8-2.1 1.2-3.2.2-.6.6-1.3 1-1.9 1-1.5 2-3 3.4-4.1 1.1-.9 2.1-1.8 3.3-2.5.8-.4 1.5-.9 2.4-1.3 1-.4 1.9-.8 2.9-1 .8-.1 1.7-.4 2.5-.6.6-.2 1.4-.1 2.1-.1h.8zM106.7 162.5H93.6c-.3 0-.6.1-.9-.2-.1-.1-.3-.1-.5 0-.8.3-1.5.3-2.3 0-.1-.1-.3 0-.4 0-1.3 0-2.6-.3-3.8-.7-1.3-.4-2.5-1-3.7-1.6-.8-.4-1.5-.9-2.2-1.5-.5-.5-1.1-.8-1.6-1.3-1.2-1.4-2.4-2.9-3.3-4.6-.6-1.1-.9-2.4-1.5-3.5-.2-.4 0-.9-.3-1.3-.1-.1.1-.3.2-.4.5-.3 1-.6 1.6-.7.7-.1 1.2-.5 1.9-.6.9-.2 1.8-.4 2.6-.7.7-.2 1.4 0 2.1-.4h.1c.8.1 1.6-.2 2.4-.3 1.8-.3 3.7-.3 5.5-.2 1 .1 2.1 0 3.1.4h.2c.9-.2 1.7.2 2.6.3.8.1 1.6.5 2.4.6.9.2 1.7.5 2.6.8 1.4.5 2.7 1 4.1 1.6.9.4 1.9.9 2.7 1.4 1.2.7 2.3 1.4 3.4 2.2.9.7 1.8 1.5 2.7 2.1.3.2.5.5.8.7 1 1 2 1.9 2.9 2.9 1 1.1 2 2.2 2.8 3.5.1.2.2.3.4.4.2.2.4.4.3.7-.1.3-.4.2-.6.2-4.3.2-8.8.2-13.2.2z"/></g><circle fill="#FC6262" cx="100.2" cy="103" r="76.8"/><path d="M139.5 132.1l-.2-.2-27.1-27.1-.1-.1 27.4-27.4c.6-.7 1-1.4 1.3-2.1l.2-.3c.5-.8.7-1.8.6-3 0-.5-.1-1-.2-1.5 0-.2-.1-.4-.1-.6-.1-.4-.2-.9-.5-1.3-.2-.3-.4-.7-.6-1-.6-1.1-1.5-1.9-2.9-2.7-.1 0-.2-.1-.2-.2-.2-.1-.4-.3-.6-.4-.6-.2-1.2-.3-1.8-.4-1.1-.1-2.1-.2-3.1.1-1.4.4-2.7 1.2-3.9 2.4l-11.5 11.5-15.5 15.5-6.1-6.1-21.4-21.4c-.7-.7-1.5-1.1-2.2-1.4-2-.9-4-.6-5.5-.2-.5.1-.9.4-1.3.7l-.6.3c-.2.1-.3.2-.5.3-.2.2-.5.3-.7.4h-.1l-.1.1c-1.1 1.3-1.9 2.8-2.3 4.5 0 .2-.1.5-.1.7 0 .2-.1.5-.1.7-.1.4 0 .8.1 1.2l.1.3c.1.8.4 1.5.9 2.4.5 1 1.3 1.8 2 2.6l18.3 18.3 8.2 8.2.1.1-22.5 22.5-4.8 4.8s-.1.1-.2.1l-.1.1c-.3.2-.5.5-.6.8 0 .1-.1.2-.2.3-.3.5-.7 1.1-.9 1.7-.7 1.6-.4 3.1-.1 4.6.2.8.5 1.4.9 2 .1.1.2.3.3.4.7 1.2 1.8 2 2.6 2.5.1.1.2.1.3.2.3.2.5.4.9.5l.4.1c.9.2 1.8.4 2.7.4.3 0 .6 0 .9-.1 1.7-.2 3.1-1 4.3-2.1 4.9-4.9 9.8-9.7 14.6-14.6l6.3-6.3 6.4-6.4c.3.3.6.7 1 1l18.1 18.1 2.3 2.3 1.7 1.7 1.6 1.6 1.2 1.2c.8.9 1.6 1.7 2.7 2.4l.3.2c.6.3 1.1.7 1.9.9 1.1.3 2.3.3 3.6.2 1.3-.1 2.6-.7 3.7-1.7.7-.6 1.4-1.2 1.9-2.1.1-.1.2-.3.2-.4.3-.6.7-1.2.7-2.1V139.5c.1-.6.2-1.2.1-1.8 0-1.8-1-3.3-2-4.7l-.1-.9z" fill="#FFF"/></g></symbol><symbol id="support-flight" viewBox="0 0 210 210"><title>Group 4</title><g fill="none" fill-rule="evenodd"><path d="M133 201.6H47.9c-.4-.4-.2-.9-.4-1.3-.3-.8-.6-1.7-.6-2.5 0-.5-.1-1.1-.3-1.6-.3-.8-.2-1.5-.4-2.3-.2-.8-.2-1.8-.2-2.6-.1-2-.3-4.1.1-6.1.2-1 .1-2.1.3-3.2.1-.7.3-1.3.4-2 .1-.5 0-1 .2-1.4.4-1 .6-2 .9-3 .4-1.2.7-2.3 1.2-3.5.5-1.2 1.1-2.4 1.6-3.6.6-1.2 1.2-2.5 2-3.6.6-1 1.3-1.9 2-2.8.8-1.1 1.6-2.2 2.5-3.1 1.8-1.9 3.7-3.8 5.8-5.5l2.1-1.5c.9-.6 1.9-1.2 2.8-1.8 1-.6 2.1-1.1 3.1-1.7.9-.5 1.8-.9 2.8-1.2.9-.3 1.9-.7 2.8-1 1-.4 2-.6 3-.9.9-.3 1.9-.4 2.8-.7 1.1-.3 2.2-.3 3.3-.5.9-.2 1.9-.1 2.8-.2 2.3-.3 4.6.2 6.9.2h.1c1.1.4 2.2.3 3.3.5 0 .1 0 .2-.1.3-.5.8-.9 1.7-1.4 2.5-.3.5-.4 1.1-.9 1.5-.3 0-.7.1-1 0-1.1-.5-2.2-.2-3.3-.4-1.9-.4-3.9.2-5.8.2h-.2c-.8.4-1.8.2-2.7.4-.9.2-1.9.5-2.8.6-.8.1-1.5.4-2.3.7-.8.2-1.5.5-2.2.8-.2.1-.5.3-.3.6.4.9.5 1.9.9 2.9.4 1.1 1 2.1 1.5 3 .5.8 1.1 1.5 1.7 2.3.9 1.2 2.1 2 3.2 2.9.5.4 1.1.7 1.7 1 .9.5 1.8 1.2 2.9 1.2-.2.4-.3.8-.5 1.2-.8 1.5-1.6 3.1-2.5 4.5-.1.1-.1.3 0 .4.1.1.2 0 .3 0 .2-.1.4-.1.5-.1l2.7-.6c1.3-.3 2.5-.6 3.8-.9 1-.2 1.6-.6 2.2-1.4.5-.7 1-1.4 1.7-1.9h27.3c.4 0 .5-.1.3-.5s-.6-.7-.8-1.1c-.7-1.2-1.6-2.2-2.5-3.2-2-2.1-4-4.1-6.4-5.7-1.5-1-3-2-4.5-2.8-.4-.2-1-.3-1.3-.8 0-.2 0-.3.1-.4 1-1 1.8-2.1 2.7-3.1.5 0 .9.4 1.3.7 1.7 1 3.4 2.1 5 3.2 1.4 1 2.6 2.2 3.9 3.2 1.4 1.1 2.4 2.7 3.7 3.9l.1.1c.8 1.2 1.8 2.3 2.6 3.5.7 1.1 1.4 2.1 2 3.2 1.1 1.9 1.9 4 2.8 6 .4.9.4 1.9 1 2.8v.2c.1.6.3 1.1.4 1.6.2.8.5 1.6.6 2.4l.3 2.1c.2 1.2.4 2.4.4 3.6v4.5c.1 1.6-.2 3.1-.3 4.7v.2c-.4.6-.3 1.4-.4 2-.1.6-.2 1.2-.4 1.8-.1.4-.1.8-.2 1.1-.4.8-.6 1.4-.6 2z" fill="#FEFEFE"/><path d="M98.5 144.4c-1.1-.2-2.2-.1-3.3-.5h-.1c-2.3-.1-4.6-.5-6.9-.2-.9.1-1.9.1-2.8.2-1.1.2-2.2.2-3.3.5-.9.3-1.9.4-2.8.7-1 .3-2.1.5-3 .9-.9.3-1.9.7-2.8 1-1 .4-1.9.8-2.8 1.2-1 .5-2.1 1-3.1 1.7-.9.6-1.9 1.2-2.8 1.8l-2.1 1.5c-2.1 1.7-3.9 3.6-5.8 5.5-.9 1-1.7 2.1-2.5 3.1-.7.9-1.3 1.9-2 2.8-.8 1.1-1.4 2.4-2 3.6-.6 1.2-1.2 2.3-1.6 3.6-.4 1.1-.8 2.3-1.2 3.5-.3 1-.5 2.1-.9 3-.2.4-.1 1-.2 1.4-.1.7-.3 1.3-.4 2-.2 1.1 0 2.2-.3 3.2-.4 2-.2 4.1-.1 6.1 0 .9 0 1.8.2 2.6s.1 1.5.4 2.3c.2.5.3 1.1.3 1.6 0 .9.3 1.7.6 2.5.2.4 0 1 .4 1.3H33.2c0-.9-.2-1.8-.5-2.7-.1-.4-.3-1-.2-1.4 0-1.1-.2-2.2-.4-3.3-.2-1.4 0-2.8-.3-4.1-.2-.9-.3-1.8-.2-2.6.2-1.3.1-2.7.2-4 .2-1.3.3-2.7.5-4 .2-1 .3-2.1.6-3.2.2-.5.4-1.1.3-1.7-.1-.4.2-.7.3-1.1.4-.9.6-2 .9-2.9.3-1.2.9-2.2 1.2-3.4.2-.8.7-1.5 1-2.3.6-1.6 1.4-3.1 2.3-4.6.6-1.1 1.3-2 1.9-3.1.6-1.2 1.6-2.2 2.2-3.4.2-.4.6-.8.9-1.2l1.8-2.1c1.7-2.1 3.7-3.9 5.6-5.8 1.1-1.1 2.3-2.1 3.6-3 .7-.5 1.4-1.1 2.2-1.6.7-.5 1.5-1 2.2-1.4 1.9-1.2 4-2.2 6-3.3 1.5-.7 3.1-1.3 4.6-1.9.8-.3 1.5-.5 2.3-.8.7-.3 1.4-.4 2.1-.6.9-.2 1.8-.5 2.7-.7.5-.1 1.1-.2 1.6-.4.8-.2 1.6-.1 2.3-.4.5-.2 1.1-.2 1.6-.3 2.1-.1 4.1-.4 6.2-.3 1.5.1 3 0 4.5 0s3 .3 4.5.5c.8.1 1.5.2 2.2.4.9.2 1.9.2 2.9.6.6.2 1.2.4 1.9.4-.2.4-.4.9-.7 1.3-.5 1-1.1 2.1-1.6 3.1l-1.5 2.7c-.7 1.3-1.3 2.6-2.1 3.9.3.7.2 1.4-.3 1.8zM156.1 201.6c-.2-.8-.3-1.5-.4-2.3-.1-.5-.3-1-.3-1.6-.1-.7-.2-1.4-.4-2.1-.2-.5-.1-1.1-.3-1.7-.3-1.1-.4-2.3-.7-3.4-.1-.6-.3-1.2-.3-1.8 0-.7-.3-1.4-.4-2-.1-.7-.4-1.4-.4-2.2 0-.6.1-1.3 0-1.9-.3-1.1-.1-2.2-.4-3.3-.2-.7-.3-1.4-.4-2.1-.1-1-.2-2-.6-3-.2-.4-.1-1-.3-1.4-.5-1.7-.9-3.3-1.5-4.9-.6-1.5-1.1-3-1.7-4.5-.8-1.9-1.7-3.7-2.7-5.5-1.1-2-2.3-3.9-3.6-5.7-.8-1-1.5-2-2.3-3.1-1.4-1.8-2.9-3.4-4.5-5-.2-.1-.4-.3-.3-.6.1-.2.4-.1.6-.1h24.9c.8 0 1.5.3 2.3.6 1.7.5 3.1 1.5 4.3 2.7 1.2 1.3 2.3 2.7 2.7 4.5.3 1.1.6 2.3.8 3.4.2.9.3 1.9.7 2.8.2.5.1 1.1.3 1.7.2 1.1.5 2.2.7 3.3.1.6.1 1.2.3 1.8.2.6.2 1.3.4 1.9.2.6 0 1.2.3 1.8.3.7.2 1.4.5 2.1.2.5.1 1 .3 1.6.4 1.2.5 2.4.7 3.6.2 1 .4 2.1.6 3.2.2 1 .3 2 .7 2.9.2.5.2 1 .2 1.5.1 1.1.5 2.1.6 3.2.1 1 .3 2 .7 2.9.2.5.2 1 .2 1.5.1 1.1.4 2.1.6 3.2.2 1 .4 1.9.6 2.9.2.6.4 1.3.3 2 0 .5.2.9.3 1.4.2.5.1 1.1.2 1.6-7.8.1-15.5.1-23.3.1z" fill="#E2E3E3"/><path d="M133 201.6c0-.6.2-1.2.4-1.8.1-.4.2-.8.2-1.1.1-.6.3-1.2.4-1.8.1-.7 0-1.4.4-2v-.2c.1-1.6.3-3.1.3-4.7-.1-1.5 0-3 0-4.5 0-1.2-.3-2.4-.4-3.6-.1-.7-.3-1.4-.3-2.1-.1-.8-.3-1.6-.6-2.4-.2-.5-.3-1.1-.4-1.6v-.2c-.5-.8-.6-1.9-1-2.8-.9-2-1.7-4.1-2.8-6-.6-1.1-1.4-2.1-2-3.2-.8-1.3-1.8-2.3-2.6-3.5 0-.1-.1-.1-.1-.1-1.3-1.2-2.3-2.8-3.7-3.9-1.3-1-2.5-2.3-3.9-3.2-1.6-1.1-3.2-2.2-5-3.2-.4-.2-.8-.6-1.3-.7.5-.6 1-1.1 1.5-1.7 1.2-1.4 2.3-2.7 3.5-4.1.8-1 1.6-2 2.4-2.9.7-.7 1.1-1.6 2-2.1.4.7 1.1.9 1.7 1.3.7.5 1.5.9 2.2 1.5.8.7 1.7 1.2 2.5 1.8l1.5 1.2c1.7 1.5 3.6 3 5 4.8 1.1 1.3 2.3 2.5 3.3 3.9.5.8 1.2 1.5 1.6 2.2.6.9 1.3 1.8 1.8 2.7.7 1.2 1.4 2.3 2 3.5.4.8.9 1.6 1.2 2.4.3.8.7 1.5 1 2.2.4 1.1 1 2.2 1.3 3.4.1.5.5 1 .6 1.5.1.8.5 1.4.7 2.2.2.8.3 1.6.7 2.3.2.4.3.9.3 1.4.1 1.2.5 2.4.6 3.6.1.7 0 1.4.2 2.1.3 1.1 0 2.1.3 3.1.4 1.9.2 3.9.2 5.8 0 1 0 2-.2 3-.2.8 0 1.6-.2 2.4-.3 1.1-.3 2.3-.7 3.5-.2.6-.4 1.2-.3 1.8-4.9-.2-9.6-.2-14.3-.2z" fill="#E2E3E3"/><path d="M119.9 137.9c-.8.6-1.3 1.4-2 2.1-.9.9-1.6 1.9-2.4 2.9-1.1 1.4-2.3 2.7-3.5 4.1-.5.6-1 1.1-1.5 1.7-.9 1-1.7 2.1-2.7 3.1-.1.1-.2.2-.1.4-.4.2-.7.7-1 1-1.2 1.4-2.3 2.8-3.6 4.2-.8.9-1.6 1.8-2.4 2.8-1.2 1.4-2.4 2.8-3.5 4.2-.5.7-1.2 1.3-1.6 2-.7.6-1.2 1.3-1.7 1.9-.6.8-1.3 1.2-2.2 1.4-1.3.3-2.5.6-3.8.9l-2.7.6c-.2 0-.4 0-.5.1-.1.1-.2.2-.3 0-.1-.1-.1-.3 0-.4.9-1.5 1.7-3 2.5-4.5.2-.4.4-.8.5-1.2h.2c.3-.8.7-1.5 1.1-2.2 1.4-2.4 2.6-4.9 4-7.4.8-1.5 1.7-3 2.5-4.6.3-.7.9-1.3 1.1-2.2.5-.4.6-1 .9-1.5.5-.8.9-1.7 1.4-2.5 0-.1 0-.2.1-.3.5-.4.7-1.1 1-1.6l2.1-3.9 1.5-2.7c.6-1 1.1-2.1 1.6-3.1.2-.4.4-.9.7-1.3.7-1.2 1.4-2.5 2-3.8 0 0 .1 0 .1-.1.5-1 1-2 1.6-3 .1-.2.2-.5-.3-.5-1.7 0-3.4 0-5.1-.2-1.3-.1-2.6-.1-3.9-.2-2.7-.2-5.4-.3-8.1-.6-.8-.1-1.7-.1-2.5-.2-2.1-.2-4.1-.4-6.2-.6-1.2-.1-2.3-.3-3.5-.4-.7-.1-1.5-.1-2.2-.2-1.4-.2-2.7-.5-4.1-.5-.2-.1-.3-.2-.5-.2-.9.1-1.9-.2-2.8-.3-.7-.1-1.5-.1-2.2-.4-.3-.1-.5.1-.6.3-1.3 1.3-2.5 2.7-3.8 4-2.7 2.8-5.3 5.7-8.2 8.4-.7.7-1.5 1.2-2.6 1-.6-.1-1.2 0-1.8 0-.4 0-.6-.2-.8-.6-.6-1.3.1-2.4.5-3.6.3-1.1.6-2.2 1.1-3.2.4-.9.6-1.8.9-2.6.3-.9.6-1.7.9-2.6.2-.8.6-1.6.8-2.4 0-.1.1-.2.1-.3.1-1.5.5-2.9.2-4.4-.2-1.5-.4-3.1-1.1-4.6-.4-.8-.6-1.8-.9-2.7-.3-1-.8-2.1-1.1-3.1-.3-1.2-.9-2.4-1.2-3.6-.1-.4-.2-.9-.4-1.3-.3-.6.1-1.3.3-1.9.1-.2.3-.3.6-.3h2.7c.7 0 1.1.5 1.6 1 1.9 1.6 3.5 3.4 5.3 5.2 1.5 1.6 3 3.2 4.5 4.9.8.8 1.5 1.7 2.3 2.5.2.2.4.3.7.2.6-.2 1.3-.2 1.9-.3.8-.1 1.6-.3 2.4-.3.4.1.8-.2 1.1-.2 1.3-.1 2.7-.3 4-.5 1.5-.2 2.9-.3 4.4-.5 1.7-.2 3.4-.3 5.1-.5 2-.2 4-.3 6-.5 1.2-.1 2.4-.1 3.6-.2 1.3-.2 2.5-.1 3.8-.2 1.6-.2 3.3-.1 4.9-.3 1.2-.1 2.4-.1 3.6-.1.5 0 .7-.3.4-.6-.5-.6-.8-1.4-1.2-2.1-1.1-2-2.2-4-3.2-6-.6-1-1.1-2.1-1.6-3.2-.5-.9-.9-1.7-1.4-2.6l-1.5-2.7c-.8-1.6-1.7-3.2-2.5-4.8-.8-1.5-1.7-3-2.5-4.6-.8-1.5-1.6-3-2.4-4.4l-2.4-4.5c-.3-.5-.4-1.1-.9-1.4 0-.8-.6-1.3-.9-1.9-.7-1.5-1.6-2.8-2.3-4.4h-.2c0-.2-.1-.4-.2-.5-.6-.9-1.1-1.9-1.6-2.8v-.3c.1-.1.2-.1.3 0 .6.2 1.3.3 1.9.5.8.2 1.6.4 2.5.6.9.2 1.9.4 2.8.7.7.2 1.3.3 1.7.8.3.3.4.8.8 1 .5.8 1.1 1.4 1.7 2.1 1.3 1.6 2.7 3.1 4 4.7 1.9 2.2 3.7 4.4 5.6 6.6 1.1 1.3 2.1 2.5 3.2 3.8 1.5 1.7 3 3.6 4.5 5.4 1.3 1.6 2.7 3.1 4.1 4.7 1.3 1.5 2.5 3 3.8 4.5 1.3 1.5 2.5 3 3.8 4.5l4.5 5.4c.2.3.5.5.7.8.2.4.6.6 1.1.6 2-.1 4 .2 6 .3 1.9.1 3.8.3 5.7.5 1.5.2 3.1.3 4.6.5 1.8.2 3.7.4 5.5.8 1.6.3 3.2.5 4.8.9 1.2.3 2.5.5 3.7.8 1.3.3 2.7.7 3.6 1.8 1.1 1.3 1.2 2.9.9 4.5-.2 1.4-1.2 2.5-2.5 3.1-.4.2-.8.3-1.2.4-.3 0-.5.2-.8.3h-.6c-1.7.6-3.4.8-5.1 1.2-1.5.3-3.1.5-4.7.8-1.2.2-2.5.4-3.8.5-1.5.2-3 .3-4.5.5-1.9.2-3.9.4-5.8.5-2 .1-3.9.4-5.9.3-.4 0-.6.1-.9.4-1.1 1.3-2.2 2.6-3.2 3.8-1.2 1.4-2.4 2.9-3.6 4.3-.3.4-.7.8-1 1.3-.8.6-1.4 1.5-2 2.2-.1.2-.6.4-.6.9z" fill="#010101"/><path d="M94.4 64.1c-.5-.2-.6-.6-.8-1-.5-.6-1.1-.7-1.7-.8-.9-.2-1.9-.4-2.8-.7-.8-.2-1.6-.4-2.5-.6-.6-.1-1.3-.3-1.9-.5-.1 0-.2-.1-.3 0 0 .1-.1.2 0 .3.5 1 1 1.9 1.6 2.8.1.2.2.3.2.5-.7-.1-1.4-.3-2.1-.4-1-.2-1.8-.6-2.8-.8-.4-.1-.6-.4-.9-.6-1.8-.8-3.4-2-4.9-3.2-.9-.8-1.6-1.7-2.4-2.5-1.2-1.4-2.1-3.1-2.8-4.9-.5-1-.6-2.1-1.1-3.1-.2-.4-.3-1-.3-1.4 0-1.4-.6-2.7-.3-4.1.3-1 .2-2.1.4-3.1.2-.9.5-1.7.6-2.6.1-.7.5-1.3.8-2 .6-1.4 1.3-2.8 2.3-4 .9-1 1.6-2.3 2.9-3 .6-.3 1.1-1 1.7-1.4 1.3-.9 2.7-1.8 4.3-2.3.4-.1.7-.4 1.1-.5 1.1-.2 2.3-.5 3.4-.8 1.8-.4 3.7-.3 5.5-.1 1.7.2 3.3.7 5 1.3 1.7.7 3.2 1.5 4.6 2.5 1.4.9 2.6 2.1 3.6 3.4.8 1 1.6 2.1 2.3 3.3.8 1.5 1.4 3.1 1.9 4.7.2.7.2 1.5.4 2.2.3 1.5.1 3.1.2 4.6 0 .9-.3 1.8-.4 2.8-.1.7-.3 1.3-.5 2-.4 1.4-1.1 2.6-1.7 3.9-.4.9-1.1 1.6-1.6 2.4-.7 1-1.6 1.8-2.5 2.7-.9.9-1.9 1.5-2.9 2.2-.9.6-1.8.9-2.8 1.4-.7.4-1.5.5-2.2.8-.4.4-.6.4-.6.6zM89.4 70.6c.6.3.6.9.9 1.4l2.4 4.5c.8 1.5 1.6 2.9 2.4 4.4.8 1.5 1.7 3 2.5 4.6.8 1.6 1.7 3.1 2.5 4.8.4.9 1 1.8 1.5 2.7.5.9 1 1.7 1.4 2.6.6 1 1.1 2.1 1.6 3.2 1.1 2 2.1 4 3.2 6 .4.7.6 1.5 1.2 2.1.3.3.1.6-.4.6-1.2 0-2.4-.1-3.6.1-1.6.2-3.3.1-4.9.3-1.3.2-2.6 0-3.8.2-1.2.2-2.4.1-3.6.2-2 .2-4 .3-6 .5-1.7.2-3.4.3-5.1.5-1.5.2-2.9.3-4.4.5-1.3.1-2.7.4-4 .5-.4 0-.7.3-1.1.2.3-.4.3-.8.1-1.3-.2-.4-.1-.9-.1-1.4.1-1.6-.3-3.3-.3-4.9 0-.9 0-1.9-.2-2.8-.3-1.2 0-2.5-.3-3.7-.3-1.1 0-2.3-.2-3.4-.4-1.9-.1-3.8-.2-5.7 0-.9.3-1.8.4-2.6.3-1.7 1-3.1 1.8-4.6.4-.7.9-1.5 1.4-2.2.7-.9 1.5-1.7 2.3-2.5.9-.9 2-1.5 3-2.2 1.4-.9 3-1.2 4.4-1.9.4-.2 1-.3 1.5-.3 1.3-.1 2.5-.5 3.7-.4zM122.6 134.6c.2-.5.6-.9 1-1.3 1.2-1.4 2.4-2.8 3.6-4.3 1.1-1.3 2.2-2.5 3.2-3.8.3-.3.5-.5.9-.4 2 0 4-.2 5.9-.3 1.9-.1 3.9-.3 5.8-.5 1.5-.1 3-.3 4.5-.5 1.3-.1 2.5-.3 3.8-.5 1.6-.2 3.1-.4 4.7-.8 1.7-.4 3.4-.6 5.1-1.2.2-.1.4 0 .6 0 .2.4.5.6.8.9.7.8 1.1 1.7 1.5 2.7.4 1.2.3 2.5.2 3.7-.1 1.1-.6 2.2-1.2 3.1-.4.5-.7 1.1-1.2 1.5-.9.7-1.9 1.4-3 1.7-1.3.3-2.7.5-4.1.5h-29.8c-.6 0-1.2 0-1.6-.4-.3-.1-.5-.1-.7-.1zM73 121.7c1.4 0 2.7.3 4.1.5.7.1 1.5.2 2.2.2 1.2.1 2.3.3 3.5.4 2.1.2 4.1.4 6.2.6.8.1 1.7.1 2.5.2 2.7.3 5.4.4 8.1.6 1.3.1 2.6.1 3.9.2 1.7.2 3.4.2 5.1.2.5 0 .4.3.3.5-.6.9-1.1 2-1.6 3 0 0-.1 0-.1.1-.2-.3-.5-.4-.8-.5-1-.3-1.9-.5-2.9-.7-.4-.1-.8-.1-1.3-.2-.6-.1-1.2-.3-1.8-.4-1-.2-2.1 0-3-.4h-.1c-1 .2-1.9-.3-2.8-.3h-8.7c-1 0-2.1.1-3.1.5h-.2c-1-.2-2 .3-3 .3-.5 0-1 .3-1.5.4-.5.1-1.1.2-1.6.3-.6.1-1.2.2-1.8.5-.7.3-1.1 0-1.2-.8 0-1.2-.3-2.3-.3-3.5.1-.7-.1-1.2-.1-1.7zM95.7 166.3c.4-.7 1.1-1.3 1.6-2 1.1-1.4 2.3-2.8 3.5-4.2.8-.9 1.6-1.8 2.4-2.8l3.6-4.2c.3-.4.6-.8 1-1 .3.5.8.6 1.3.8 1.6.8 3.1 1.8 4.5 2.8 2.4 1.7 4.4 3.6 6.4 5.7.9 1 1.8 2.1 2.5 3.2.2.4.6.7.8 1.1.2.4.1.5-.3.5h-.5c-9 .1-17.9.1-26.8.1zM96.2 148.7c-.1.8-.7 1.5-1.1 2.2-.7 1.6-1.6 3.1-2.5 4.6-1.4 2.4-2.6 4.9-4 7.4-.4.7-.8 1.4-1.1 2.2h-.2c-1.1-.1-2-.7-2.9-1.2-.6-.3-1.2-.6-1.7-1-1.1-.9-2.3-1.7-3.2-2.9-.5-.8-1.2-1.5-1.7-2.3-.6-1-1.1-2-1.5-3-.4-1-.5-2-.9-2.9-.1-.4.1-.6.3-.6.7-.3 1.5-.5 2.2-.8.7-.2 1.5-.6 2.3-.7 1-.1 1.9-.4 2.8-.6.9-.2 1.8 0 2.7-.4h.2c2 0 3.9-.6 5.8-.2 1.1.2 2.2-.1 3.3.4.5-.1.9-.2 1.2-.2z" fill="#E2E3E3"/></g></symbol><symbol id="support-lock" viewBox="0 0 210 210"><title>Group 7</title><g fill="none" fill-rule="evenodd"><g fill="#E2E3E3"><path d="M134.2 201.6c.1-.9.4-1.9.6-2.8.1-.5.3-1 .4-1.5.1-.9.2-1.8.5-2.6v-.2c.1-1.7.4-3.3.3-5-.1-1.3 0-2.6 0-3.9 0-1.2-.3-2.4-.4-3.6-.1-.7-.3-1.4-.3-2.1-.1-.9-.2-1.7-.6-2.5-.2-.4-.2-.8-.3-1.1-.1-.7-.6-1.3-.6-2.1 0-.3-.2-.7-.3-1-.4-.7-.6-1.4-.9-2.1-.6-1.4-1.3-2.9-2-4.2-.6-1.1-1.3-2.1-2-3.1-.8-1.2-1.8-2.3-2.5-3.5 0-.1-.1-.1-.1-.1-1.2-1.1-2.1-2.6-3.3-3.6-1.3-1-2.4-2.3-3.7-3.2-1.4-.9-2.7-1.9-4.1-2.8-1.2-.7-2.4-1.3-3.6-2-1.2-.7-2.5-1.2-3.7-1.6-1.5-.5-3-1.1-4.5-1.4-.7-.1-1.4-.3-2.2-.5-1.1-.2-2.2-.4-3.4-.5-.7-.1-1.4-.1-2.1-.2-1.5-.3-3-.4-4.4-.2-1.2.1-2.4 0-3.5.3-1.1.2-2.3.1-3.4.5-.9.3-1.8.4-2.8.7-1 .3-1.9.5-2.9.8-1 .3-1.9.7-2.9 1-1.8.7-3.4 1.6-5.1 2.5-1.1.6-2.1 1.3-3.1 2-1.3.9-2.5 1.9-3.7 2.9-1.8 1.5-3.4 3.2-5 4.9-1.2 1.2-2.1 2.7-3.1 4-1.3 1.9-2.4 3.9-3.3 5.9-.7 1.5-1.2 3.1-1.8 4.6-.5 1.2-.7 2.4-1.1 3.6-.3.9-.4 1.9-.6 2.9-.3 1.6-.3 3.1-.5 4.7-.3 1.9-.2 3.7-.1 5.5.1 1 0 2.1.2 3.1l.6 3.3c.2.9.3 1.8.6 2.7.2.5.1 1.1.5 1.6H35.7c.1-.8-.2-1.6-.4-2.4-.2-.5-.2-1.2-.2-1.7 0-1-.2-2-.4-3-.2-1.2 0-2.5-.2-3.6-.3-1.4-.3-2.9-.1-4.3.1-1.1.1-2.2.2-3.3.2-1.3.3-2.6.5-3.9.1-1 .3-2.1.7-3.1.2-.4.2-1 .3-1.4.1-.8.5-1.5.6-2.3.1-.7.4-1.4.6-2.1.3-.8.7-1.6.9-2.5.2-.9.6-1.7 1-2.5.4-.9.8-1.9 1.3-2.7.7-1.4 1.4-2.8 2.2-4.1.9-1.4 1.7-2.8 2.7-4.1 1-1.3 2.1-2.6 3.1-4 .3-.4.7-.7 1-1.1.5-.6 1.1-1 1.5-1.7.2-.4.7-.7 1.1-1 .5-.4 1-.9 1.4-1.4 1.2-1.2 2.5-2.3 3.9-3.3 1.6-1.2 3.1-2.3 4.9-3.3 1.1-.6 2.1-1.3 3.3-1.9 1.3-.7 2.6-1.3 3.9-1.9 1-.4 2-.9 3-1.2 1-.3 1.8-.8 2.8-.9.6-.1 1.2-.4 1.8-.6.5-.1 1-.3 1.5-.4.6 0 1.1-.2 1.6-.4.1 0 .2-.1.2-.1.8.1 1.5-.2 2.3-.3.6-.1 1.3 0 1.9-.4h.2c1.1.1 2.1-.3 3.2-.3h8.6c1.1 0 2.2.3 3.2.3.9.1 1.9.3 2.9.5l3.9.9c1.5.4 3.1.8 4.6 1.4 1.2.4 2.5.9 3.7 1.4 1.4.6 2.8 1.3 4.2 2 1.7.9 3.3 1.9 4.9 2.9 1.3.9 2.6 1.9 3.9 2.7.5.3 1 .8 1.5 1.2 1.8 1.7 3.7 3.2 5.3 5 1 1.2 2.2 2.4 3.1 3.7 1.2 1.7 2.4 3.4 3.5 5.1 1.2 2.1 2.6 4.1 3.5 6.4.7 1.6 1.4 3.1 2 4.8.4 1.1.6 2.3 1.1 3.3.2.4.2.9.3 1.3.1.5.3 1 .5 1.4.2.4.1.9.2 1.4.1.6.2 1.2.4 1.8.2.7 0 1.5.4 2.1v.2c-.1 1.1.1 2.1.3 3.1.3 2.5.3 5.1.2 7.6 0 1.1-.1 2.2-.3 3.2-.1.7 0 1.5-.2 2.1-.3 1.1-.3 2.2-.7 3.3-.2.6-.1 1.2-.3 1.9-5.2.1-9.8.1-14.5.1z"/><path d="M157.2 201.6c-.2-.7-.2-1.4-.5-2.1-.2-.4-.1-.9-.2-1.3-.1-.6-.3-1.2-.4-1.8-.1-.6-.1-1.3-.4-1.9-.2-.4-.2-.9-.3-1.4-.1-1.1-.4-2.1-.6-3.2-.2-1.1-.3-2.2-.7-3.2-.4-1.3-.1-2.6-.3-3.9-.2-1.1-.1-2.2-.4-3.3-.2-.6-.3-1.3-.3-2-.1-.7-.2-1.5-.4-2.2-.2-.9-.5-1.8-.6-2.7-.1-.6-.3-1.2-.5-1.8-.3-.7-.4-1.4-.7-2.1l-.9-2.4c-.3-1.1-.8-2.2-1.3-3.2-.6-1.2-1.1-2.4-1.8-3.6-1-1.8-1.9-3.6-3-5.2-1-1.4-1.9-2.7-2.9-4.1-1.6-2.1-3.3-4.1-5.2-5.9-.1-.1-.3-.2-.2-.5.1-.2.3-.2.5-.2h25c.7 0 1.4.3 2.1.5 1.7.6 3.3 1.6 4.5 3 1 1.1 1.9 2.3 2.3 3.7.2.8.5 1.6.6 2.5.2 1 .3 2 .7 3 .2.4.2.9.2 1.4.1 1.1.4 2.1.6 3.2.2 1 .4 2.1.6 3.1.1.5.2 1.2.4 1.7.2.6.1 1.3.4 2 .2.4.2.9.3 1.2.1.7.4 1.3.3 2.1-.1.4.2.8.3 1.2.4 1.1.4 2.2.7 3.3.3 1 .4 2.1.6 3.2.1.9.4 1.9.6 2.8.2.6.1 1.3.3 1.9.2.6.2 1.3.4 1.9.2.6.1 1.2.3 1.9.2.6.2 1.3.5 1.9.1.1.1.3.1.5 0 .7.3 1.4.4 2.1.1.4.2.9.3 1.4.1 1.2.5 2.4.7 3.6.1.6.3 1.3.3 2 0 .5.2.9.3 1.4.2.6.1 1.1.2 1.7-7.5-.2-15.2-.2-22.9-.2zM142.3 135.5H126c-.7 0-1.4-.2-2-.6-1.2-.8-2.5-1.4-3.8-2.2-.9-.5-1.8-.9-2.7-1.3-1.6-.7-3.2-1.5-4.9-2-1.1-.3-2.2-.9-3.3-1.1-.8-.2-1.5-.4-2.3-.6-1-.2-1.9-.4-2.9-.6-.5-.1-1.1-.3-1.6-.3-1-.1-2-.2-2.9-.5h-.2c-1.8-.3-3.6-.2-5.4-.3-1-.1-2-.4-3-.2-1.7.3-3.3 0-4.9.2-1.2.1-2.4.3-3.6.5-1 .2-2 .1-2.9.5-1.2.4-2.4.4-3.6.9-.5.3-.9 0-.8-.6.1-1.6-.3-3.1-.3-4.7 0-1 0-2.1-.2-3.1s0-2-.2-3c-.2-1.3-.1-2.5-.3-3.7-.2-.9 0-1.8-.2-2.7-.3-1.2 0-2.5-.3-3.6-.2-1.1 0-2.2-.2-3.2s0-2-.3-2.9c-.3-1.1 0-2.2-.2-3.3-.2-1.2 0-2.5-.3-3.7-.4-2-.2-3.9-.2-5.9 0-1 .3-2 .6-3 .4-1.3.9-2.6 1.6-3.8.4-.8 1-1.5 1.5-2.2.6-.9 1.5-1.7 2.3-2.5.9-.9 2-1.6 3.1-2.2 1.5-.9 3.1-1.4 4.6-1.9.5-.2 1.2-.4 1.8-.3 1.1.1 2.2-.5 3.2-.2 1 .2 2.1.2 3.1.4 1.7.4 3.3.9 4.8 1.7 1.4.8 2.7 1.6 3.8 2.8 1.4 1.5 2.8 3 3.7 4.9.4.7.6 1.5 1.1 2.2.2.3.2.8.3 1.2.2 1.1.4 2.2.6 3.4.1 1.1 0 2.1.2 3.1.2 1.1 0 2.2.3 3.3.2.8.1 1.5.2 2.3.2 1.5.2 3 .3 4.4.1.9 0 1.9.2 2.8.3 1.1 0 2.2.3 3.2.3 1.1 0 2.3.2 3.4.2 1.2.1 2.4.3 3.5.2.9 0 1.7.2 2.6.2.8.2 1.5.2 2.3 0 .3.3.5.6.5h46.5c1.3 0 2.5.4 3.5 1.1 1.1.8 2 1.7 2.8 2.9 1 1.6 1.1 3.4.9 5.2-.1 1.2-.7 2.3-1.4 3.4-.9 1.4-2.2 2.1-3.6 2.8-.5.2-1 .3-1.5.4-6 .6-11.8.1-16.5.3zM90.5 24.5h1.8c.8 0 1.5.3 2.2.4.7.2 1.4.3 2.1.5 1.3.4 2.6 1 3.8 1.6.9.5 1.6 1.1 2.5 1.7 1.1.8 2 1.8 2.9 2.7.8.8 1.5 1.9 2.1 2.9.6.9 1 2 1.4 3 .4.9.7 1.9.9 2.9.6 2.3.5 4.6.4 6.9 0 .7-.2 1.4-.4 2.1-.2.7-.3 1.4-.5 2.1-.4 1.4-1.1 2.6-1.7 3.8-.5.9-1.1 1.7-1.7 2.5-.7 1-1.7 1.8-2.5 2.7-.7.7-1.6 1.3-2.5 1.9-.9.6-1.9 1.1-2.9 1.5-.9.4-1.8.8-2.8 1-.9.2-1.9.3-2.7.5-1.4.4-2.9.2-4.3.1-.6 0-1.3-.1-2-.4-.4-.2-1-.1-1.5-.3-1.1-.4-2.1-.6-3.2-1.1-.6-.3-1.3-.7-1.9-1-.8-.4-1.5-1-2.2-1.5-1.4-1.1-2.6-2.4-3.7-3.8-.8-1-1.4-2.1-2-3.2-.5-1-1-2-1.2-3.1-.2-.8-.3-1.7-.7-2.4v-.2c.1-1.4-.5-2.8-.2-4.2.3-1.6.4-3.3.9-4.9.3-1.1.8-2.1 1.2-3.2.2-.6.6-1.3 1-1.9 1-1.5 2-3 3.4-4.1 1.1-.9 2.1-1.8 3.3-2.5.8-.4 1.5-.9 2.4-1.3 1-.4 1.9-.8 2.9-1 .8-.1 1.7-.4 2.5-.6.6-.2 1.4-.1 2.1-.1h.8zM110.7 166.5H97.6c-.3 0-.6.1-.9-.2-.1-.1-.3-.1-.5 0-.8.3-1.5.3-2.3 0-.1-.1-.3 0-.4 0-1.3 0-2.6-.3-3.8-.7-1.3-.4-2.5-1-3.7-1.6-.8-.4-1.5-.9-2.2-1.5-.5-.5-1.1-.8-1.6-1.3-1.2-1.4-2.4-2.9-3.3-4.6-.6-1.1-.9-2.4-1.5-3.5-.2-.4 0-.9-.3-1.3-.1-.1.1-.3.2-.4.5-.3 1-.6 1.6-.7.7-.1 1.2-.5 1.9-.6.9-.2 1.8-.4 2.6-.7.7-.2 1.4 0 2.1-.4h.1c.8.1 1.6-.2 2.4-.3 1.8-.3 3.7-.3 5.5-.2 1 .1 2.1 0 3.1.4h.2c.9-.2 1.7.2 2.6.3.8.1 1.6.5 2.4.6.9.2 1.7.5 2.6.8 1.4.5 2.7 1 4.1 1.6.9.4 1.9.9 2.7 1.4 1.2.7 2.3 1.4 3.4 2.2.9.7 1.8 1.5 2.7 2.1.3.2.5.5.8.7 1 1 2 1.9 2.9 2.9 1 1.1 2 2.2 2.8 3.5.1.2.3.3.4.4.2.2.4.4.3.7-.1.3-.4.2-.6.2-4.3.2-8.8.2-13.2.2z"/></g><g transform="translate(27 30)"><circle fill="#1F97F3" cx="77.2" cy="77" r="76.8"/><path d="M105.8 64.2h-2.7v-14c0-15.2-12-27.6-26.8-27.6S49.6 35 49.6 50.2v14h-1c-5.1 0-7.9 4.3-7.9 9.5v41.6c0 5.2 2.8 9.5 7.9 9.5h57.2c5.1 0 7.8-4.2 7.8-9.5V73.7c0-5.2-2.7-9.5-7.8-9.5zM76.3 32.8c9.3 0 16.9 7.8 16.9 17.4v14H59.4v-14c.1-9.5 7.6-17.4 16.9-17.4z" fill="#FFF"/></g></g></symbol><symbol id="support-mail" viewBox="0 0 210 210"><title>Group 5</title><g fill="none" fill-rule="evenodd"><path d="M132.8 201.6H47.7c-.4-.4-.2-.9-.4-1.3-.3-.8-.6-1.7-.6-2.5 0-.5-.1-1.1-.3-1.6-.3-.8-.2-1.5-.4-2.3-.2-.8-.2-1.8-.2-2.6-.1-2-.3-4.1.1-6.1.2-1 .1-2.1.3-3.2.1-.7.3-1.3.4-2 .1-.5 0-1 .2-1.4.4-1 .6-2 .9-3 .4-1.2.7-2.3 1.2-3.5.5-1.2 1.1-2.4 1.6-3.6.6-1.2 1.2-2.5 2-3.6.6-1 1.3-1.9 2-2.8.8-1.1 1.6-2.2 2.5-3.1 1.8-1.9 3.7-3.8 5.8-5.5l2.1-1.5c.9-.6 1.9-1.2 2.8-1.8 1-.6 2.1-1.1 3.1-1.7.9-.5 1.8-.9 2.8-1.2.9-.3 1.9-.7 2.8-1 1-.4 2-.6 3-.9.9-.3 1.9-.4 2.8-.7 1.1-.3 2.2-.3 3.3-.5.9-.2 1.9-.1 2.8-.2 2.3-.3 4.6.2 6.9.2h.1c1.1.4 2.2.3 3.3.5 0 .1 0 .2-.1.3-.5.8-.9 1.7-1.4 2.5-.3.5-.4 1.1-.9 1.5-.3 0-.7.1-1 0-1.1-.5-2.2-.2-3.3-.4-1.9-.4-3.9.2-5.8.2h-.2c-.8.4-1.8.2-2.7.4-.9.2-1.9.5-2.8.6-.8.1-1.5.4-2.3.7-.8.2-1.5.5-2.2.8-.2.1-.5.3-.3.6.4.9.5 1.9.9 2.9.4 1.1 1 2.1 1.5 3 .5.8 1.1 1.5 1.7 2.3.9 1.2 2.1 2 3.2 2.9.5.4 1.1.7 1.7 1 .9.5 1.8 1.2 2.9 1.2-.2.4-.3.8-.5 1.2-.8 1.5-1.6 3.1-2.5 4.5-.1.1-.1.3 0 .4.1.1.2 0 .3 0 .2-.1.4-.1.5-.1l2.7-.6c1.3-.3 2.5-.6 3.8-.9 1-.2 1.6-.6 2.2-1.4.5-.7 1-1.4 1.7-1.9H123c.4 0 .5-.1.3-.5s-.6-.7-.8-1.1c-.7-1.2-1.6-2.2-2.5-3.2-2-2.1-4-4.1-6.4-5.7-1.5-1-3-2-4.5-2.8-.4-.2-1-.3-1.3-.8 0-.2 0-.3.1-.4 1-1 1.8-2.1 2.7-3.1.5 0 .9.4 1.3.7 1.7 1 3.4 2.1 5 3.2 1.4 1 2.6 2.2 3.9 3.2 1.4 1.1 2.4 2.7 3.7 3.9l.1.1c.8 1.2 1.8 2.3 2.6 3.5.7 1.1 1.4 2.1 2 3.2 1.1 1.9 1.9 4 2.8 6 .4.9.4 1.9 1 2.8v.2c.1.6.3 1.1.4 1.6.2.8.5 1.6.6 2.4l.3 2.1c.2 1.2.4 2.4.4 3.6v4.5c.1 1.6-.2 3.1-.3 4.7v.2c-.4.6-.3 1.4-.4 2-.1.6-.2 1.2-.4 1.8-.1.4-.1.8-.2 1.1-.3.8-.6 1.4-.6 2z" fill="#FEFEFE"/><path d="M98.4 144.4c-1.1-.2-2.2-.1-3.3-.5H95c-2.3-.1-4.6-.5-6.9-.2-.9.1-1.9.1-2.8.2-1.1.2-2.2.2-3.3.5-.9.3-1.9.4-2.8.7-1 .3-2.1.5-3 .9-.9.3-1.9.7-2.8 1-1 .4-1.9.8-2.8 1.2-1 .5-2.1 1-3.1 1.7-.9.6-1.9 1.2-2.8 1.8l-2.1 1.5c-2.1 1.7-3.9 3.6-5.8 5.5-.9 1-1.7 2.1-2.5 3.1-.7.9-1.3 1.9-2 2.8-.8 1.1-1.4 2.4-2 3.6-.6 1.2-1.2 2.3-1.6 3.6-.4 1.1-.8 2.3-1.2 3.5-.3 1-.5 2.1-.9 3-.2.4-.1 1-.2 1.4-.1.7-.3 1.3-.4 2-.2 1.1 0 2.2-.3 3.2-.4 2-.2 4.1-.1 6.1 0 .9 0 1.8.2 2.6s.1 1.5.4 2.3c.2.5.3 1.1.3 1.6 0 .9.3 1.7.6 2.5.2.4 0 1 .4 1.3H33.1c0-.9-.2-1.8-.5-2.7-.1-.4-.3-1-.2-1.4 0-1.1-.2-2.2-.4-3.3-.2-1.4 0-2.8-.3-4.1-.2-.9-.3-1.8-.2-2.6.2-1.3.1-2.7.2-4 .2-1.3.3-2.7.5-4 .2-1 .3-2.1.6-3.2.2-.5.4-1.1.3-1.7-.1-.4.2-.7.3-1.1.4-.9.6-2 .9-2.9.3-1.2.9-2.2 1.2-3.4.2-.8.7-1.5 1-2.3.6-1.6 1.4-3.1 2.3-4.6.6-1.1 1.3-2 1.9-3.1.6-1.2 1.6-2.2 2.2-3.4.2-.4.6-.8.9-1.2l1.8-2.1c1.7-2.1 3.7-3.9 5.6-5.8 1.1-1.1 2.3-2.1 3.6-3 .7-.5 1.4-1.1 2.2-1.6.7-.5 1.5-1 2.2-1.4 1.9-1.2 4-2.2 6-3.3 1.5-.7 3.1-1.3 4.6-1.9.8-.3 1.5-.5 2.3-.8.7-.3 1.4-.4 2.1-.6.9-.2 1.8-.5 2.7-.7.5-.1 1.1-.2 1.6-.4.8-.2 1.6-.1 2.3-.4.5-.2 1.1-.2 1.6-.3 2.1-.1 4.1-.4 6.2-.3 1.5.1 3 0 4.5 0s3 .3 4.5.5c.8.1 1.5.2 2.2.4.9.2 1.9.2 2.9.6.6.2 1.2.4 1.9.4-.2.4-.4.9-.7 1.3-.5 1-1.1 2.1-1.6 3.1l-1.5 2.7c-.7 1.3-1.3 2.6-2.1 3.9.3.7.2 1.4-.3 1.8zM156 201.6c-.2-.8-.3-1.5-.4-2.3-.1-.5-.3-1-.3-1.6-.1-.7-.2-1.4-.4-2.1-.2-.5-.1-1.1-.3-1.7-.3-1.1-.4-2.3-.7-3.4-.1-.6-.3-1.2-.3-1.8 0-.7-.3-1.4-.4-2-.1-.7-.4-1.4-.4-2.2 0-.6.1-1.3 0-1.9-.3-1.1-.1-2.2-.4-3.3-.2-.7-.3-1.4-.4-2.1-.1-1-.2-2-.6-3-.2-.4-.1-1-.3-1.4-.5-1.7-.9-3.3-1.5-4.9-.6-1.5-1.1-3-1.7-4.5-.8-1.9-1.7-3.7-2.7-5.5-1.1-2-2.3-3.9-3.6-5.7-.8-1-1.5-2-2.3-3.1-1.4-1.8-2.9-3.4-4.5-5-.2-.1-.4-.3-.3-.6.1-.2.4-.1.6-.1H160c.8 0 1.5.3 2.3.6 1.7.5 3.1 1.5 4.3 2.7 1.2 1.3 2.3 2.7 2.7 4.5.3 1.1.6 2.3.8 3.4.2.9.3 1.9.7 2.8.2.5.1 1.1.3 1.7.2 1.1.5 2.2.7 3.3.1.6.1 1.2.3 1.8.2.6.2 1.3.4 1.9.2.6 0 1.2.3 1.8.3.7.2 1.4.5 2.1.2.5.1 1 .3 1.6.4 1.2.5 2.4.7 3.6.2 1 .4 2.1.6 3.2.2 1 .3 2 .7 2.9.2.5.2 1 .2 1.5.1 1.1.5 2.1.6 3.2.1 1 .3 2 .7 2.9.2.5.2 1 .2 1.5.1 1.1.4 2.1.6 3.2.2 1 .4 1.9.6 2.9.2.6.4 1.3.3 2 0 .5.2.9.3 1.4.2.5.1 1.1.2 1.6-7.8.1-15.6.1-23.3.1z" fill="#E2E3E3"/><path d="M132.8 201.6c0-.6.2-1.2.4-1.8.1-.4.2-.8.2-1.1.1-.6.3-1.2.4-1.8.1-.7 0-1.4.4-2v-.2c.1-1.6.3-3.1.3-4.7-.1-1.5 0-3 0-4.5 0-1.2-.3-2.4-.4-3.6-.1-.7-.3-1.4-.3-2.1-.1-.8-.3-1.6-.6-2.4-.2-.5-.3-1.1-.4-1.6v-.2c-.5-.8-.6-1.9-1-2.8-.9-2-1.7-4.1-2.8-6-.6-1.1-1.4-2.1-2-3.2-.8-1.3-1.8-2.3-2.6-3.5 0-.1-.1-.1-.1-.1-1.3-1.2-2.3-2.8-3.7-3.9-1.3-1-2.5-2.3-3.9-3.2-1.6-1.1-3.2-2.2-5-3.2-.4-.2-.8-.6-1.3-.7.5-.6 1-1.1 1.5-1.7 1.2-1.4 2.3-2.7 3.5-4.1.8-1 1.6-2 2.4-2.9.7-.7 1.1-1.6 2-2.1.4.7 1.1.9 1.7 1.3.7.5 1.5.9 2.2 1.5.8.7 1.7 1.2 2.5 1.8l1.5 1.2c1.7 1.5 3.6 3 5 4.8 1.1 1.3 2.3 2.5 3.3 3.9.5.8 1.2 1.5 1.6 2.2.6.9 1.3 1.8 1.8 2.7.7 1.2 1.4 2.3 2 3.5.4.8.9 1.6 1.2 2.4.3.8.7 1.5 1 2.2.4 1.1 1 2.2 1.3 3.4.1.5.5 1 .6 1.5.1.8.5 1.4.7 2.2.2.8.3 1.6.7 2.3.2.4.3.9.3 1.4.1 1.2.5 2.4.6 3.6.1.7 0 1.4.2 2.1.3 1.1 0 2.1.3 3.1.4 1.9.2 3.9.2 5.8 0 1 0 2-.2 3-.2.8 0 1.6-.2 2.4-.3 1.1-.3 2.3-.7 3.5-.2.6-.4 1.2-.3 1.8-4.8-.2-9.6-.2-14.3-.2zM94.3 64.1c-4.9.7-8.3 0-8.3.2-.7-.1-1.4-.3-2.1-.4-1-.2-1.8-.6-2.8-.8-.4-.1-.6-.4-.9-.6-1.8-.8-3.4-2-4.9-3.2-.9-.8-1.6-1.7-2.4-2.5-1.2-1.4-2.1-3.1-2.8-4.9-.5-1-.6-2.1-1.1-3.1-.2-.4-.3-1-.3-1.4 0-1.4-.6-2.7-.3-4.1.3-1 .2-2.1.4-3.1.2-.9.5-1.7.6-2.6.1-.7.5-1.3.8-2 .6-1.4 1.3-2.8 2.3-4 .9-1 1.6-2.3 2.9-3 .6-.3 1.1-1 1.7-1.4 1.3-.9 2.7-1.8 4.3-2.3.4-.1.7-.4 1.1-.5 1.1-.2 2.3-.5 3.4-.8 1.8-.4 3.7-.3 5.5-.1 1.7.2 3.3.7 5 1.3 1.7.7 3.2 1.5 4.6 2.5 1.4.9 2.6 2.1 3.6 3.4.8 1 1.6 2.1 2.3 3.3.8 1.5 1.4 3.1 1.9 4.7.2.7.2 1.5.4 2.2.3 1.5.1 3.1.2 4.6 0 .9-.3 1.8-.4 2.8-.1.7-.3 1.3-.5 2-.4 1.4-1.1 2.6-1.7 3.9-.4.9-1.1 1.6-1.6 2.4-.7 1-1.6 1.8-2.5 2.7-.9.9-1.9 1.5-2.9 2.2-.9.6-1.8.9-2.8 1.4-.7.4-1.5.5-2.2.8-.4.2-.5.2-.5.4zM89.3 70.6c.6.3.6.9.9 1.4l2.4 4.5c.8 1.5 1.6 2.9 2.4 4.4.8 1.5 1.7 3 2.4 4.6.8 1.6 1.7 3.1 2.5 4.8.4.9 1 1.8 1.5 2.7.5.9 1 1.7 1.4 2.6.6 1 1.1 2.1 1.6 3.2 1.1 2 2.1 4 3.2 6 .4.7.6 1.5 1.2 2.1.3.3.1.6-.4.6-1.2 0-2.4-.1-3.6.1-1.6.2-3.3.1-4.9.3-1.3.2-2.6 0-3.8.2-1.2.2-2.4.1-3.6.2-2 .2-4 .3-6 .5-1.7.2-3.4.3-5.1.5-1.5.2-2.9.3-4.4.5-1.3.1-2.7.4-4 .5-.4 0-.7.3-1.1.2.3-.4.3-.8.1-1.3-.2-.4-.1-.9-.1-1.4.1-1.6-.3-3.3-.3-4.9 0-.9 0-1.9-.2-2.8-.3-1.2 0-2.5-.3-3.7-.3-1.1 0-2.3-.2-3.4-.4-1.9-.1-3.8-.2-5.7 0-.9.3-1.8.4-2.6.3-1.7 1-3.1 1.8-4.6.4-.7.9-1.5 1.4-2.2.7-.9 1.5-1.7 2.3-2.5.9-.9 2-1.5 3-2.2 1.4-.9 3-1.2 4.4-1.9.4-.2 1-.3 1.5-.3 1.3-.1 2.6-.5 3.8-.4zM122.5 134.6c.2-.5.6-.9 1-1.3 1.2-1.4 2.4-2.8 3.6-4.3 1.1-1.3 2.2-2.5 3.2-3.8.3-.3.5-.5.9-.4 2 0 4-.2 5.9-.3 1.9-.1 3.9-.3 5.8-.5 1.5-.1 3-.3 4.5-.5 1.3-.1 2.5-.3 3.8-.5 1.6-.2 3.1-.4 4.7-.8 1.7-.4 3.4-.6 5.1-1.2.2-.1.4 0 .6 0 .2.4.5.6.8.9.7.8 1.1 1.7 1.5 2.7.4 1.2.3 2.5.2 3.7-.1 1.1-.6 2.2-1.2 3.1-.4.5-.7 1.1-1.2 1.5-.9.7-1.9 1.4-3 1.7-1.3.3-2.7.5-4.1.5h-29.8c-.6 0-1.2 0-1.6-.4-.4-.1-.5-.1-.7-.1zM72.9 121.7c1.4 0 2.7.3 4.1.5.7.1 1.5.2 2.2.2 1.2.1 2.3.3 3.5.4 2.1.2 4.1.4 6.2.6.8.1 1.7.1 2.5.2 2.7.3 5.4.4 8.1.6 1.3.1 2.6.1 3.9.2 1.7.2 3.4.2 5.1.2.5 0 .4.3.3.5-.6.9-1.1 2-1.6 3 0 0-.1 0-.1.1-.2-.3-.5-.4-.8-.5-1-.3-1.9-.5-2.9-.7-.4-.1-.8-.1-1.3-.2-.6-.1-1.2-.3-1.8-.4-1-.2-2.1 0-3-.4h-.1c-1 .2-1.9-.3-2.8-.3h-8.7c-1 0-2.1.1-3.1.5h-.2c-1-.2-2 .3-3 .3-.5 0-1 .3-1.5.4-.5.1-1.1.2-1.6.3-.6.1-1.2.2-1.8.5-.7.3-1.1 0-1.2-.8 0-1.2-.3-2.3-.3-3.5.1-.7-.1-1.2-.1-1.7z" fill="#E2E3E3"/><path d="M95.6 166.3c.4-.7 1.1-1.3 1.6-2 1.1-1.4 2.3-2.8 3.5-4.2.8-.9 1.6-1.8 2.4-2.8l3.6-4.2c.3-.4.6-.8 1-1 .3.5.8.6 1.3.8 1.6.8 3.1 1.8 4.5 2.8 2.4 1.7 4.4 3.6 6.4 5.7.9 1 1.8 2.1 2.5 3.2.2.4.6.7.8 1.1.2.4.1.5-.3.5h-.5c-9 .1-17.9.1-26.8.1zM96.1 148.7c-.1.8-.7 1.5-1.1 2.2-.7 1.6-1.6 3.1-2.5 4.6-1.4 2.4-2.6 4.9-4 7.4-.4.7-.8 1.4-1.1 2.2h-.2c-1.1-.1-2-.7-2.9-1.2-.6-.3-1.2-.6-1.7-1-1.1-.9-2.3-1.7-3.2-2.9-.5-.8-1.2-1.5-1.7-2.3-.6-1-1.1-2-1.5-3-.4-1-.5-2-.9-2.9-.1-.4.1-.6.3-.6.7-.3 1.5-.5 2.2-.8.7-.2 1.5-.6 2.3-.7 1-.1 1.9-.4 2.8-.6.9-.2 1.8 0 2.7-.4h.2c2 0 3.9-.6 5.8-.2 1.1.2 2.2-.1 3.3.4.5-.1.8-.2 1.2-.2z" fill="#E2E3E3"/><g fill="#000"><path d="M44.4 152.4c.2-.2.2-.3.3-.4 1.9-1.5 3.7-3 5.6-4.6 3.2-2.6 6.3-5.2 9.5-7.8 2.1-1.7 4.2-3.4 6.2-5.1 3-2.5 6-4.9 9-7.4 2.1-1.7 4.1-3.4 6.2-5.1 2.9-2.4 5.9-4.8 8.8-7.2.1-.1.5-.1.6-.1 1.8 1.2 3.6 2.4 5.5 3.6 2.2 1.5 4.4 2.9 6.6 4.3 1.7 1.1 3.5.9 5.2-.2 3.4-2.2 6.7-4.5 10.1-6.7.5-.4 1-.7 1.6-1.1.2-.1.5-.1.6 0 1.8 1.4 3.5 2.8 5.2 4.2 2.3 1.9 4.7 3.8 7 5.7 1.6 1.3 3.1 2.6 4.7 3.9l9.6 7.8c3.2 2.6 6.3 5.2 9.5 7.8l6.3 5.1 3 2.4c.1.1.2.3.3.4-.1 0-.3.1-.4.1h-120c-.4.4-.6.4-1 .4zM165.5 72.6c-1.2.8-2.4 1.6-3.5 2.4-2.1 1.4-4.3 2.8-6.4 4.2-3.3 2.2-6.7 4.4-10 6.6-3.2 2.2-6.5 4.3-9.7 6.5-3.4 2.3-6.8 4.5-10.2 6.8-4 2.7-8.1 5.4-12.1 8-2.6 1.7-5.3 3.5-7.9 5.2-.4.2-.7.2-1 0-2.1-1.4-4.2-2.8-6.2-4.2-2.6-1.7-5.2-3.4-7.9-5.2-2.1-1.4-4.2-2.8-6.2-4.1-2.6-1.7-5.3-3.5-7.9-5.2-2-1.3-3.9-2.7-5.9-4-2.8-1.9-5.6-3.7-8.4-5.5-3.1-2-6.2-4.1-9.3-6.1-2.5-1.7-5-3.3-7.4-5-.1-.1-.3-.2-.5-.4h120.5zM39.3 80.7c14.2 9.4 28.3 18.7 42.5 28.2-14.2 11.6-28.3 23.2-42.5 34.9V80.7zM171 80.7v63c-1.1-.9-2.1-1.7-3.1-2.5-2.3-1.9-4.7-3.8-7-5.7-1.5-1.3-3.1-2.6-4.6-3.8l-8.1-6.6c-1.9-1.6-3.8-3.2-5.8-4.8-2.3-1.9-4.6-3.8-7-5.7-1.5-1.2-2.9-2.4-4.4-3.7-.6-.5-1.3-1-1.9-1.5-.5-.4-.5-.5 0-.9 2.2-1.5 4.4-2.9 6.6-4.3 3.3-2.2 6.7-4.4 10-6.6 2.8-1.8 5.5-3.7 8.3-5.5 3.1-2 6.1-4.1 9.2-6.1 2.5-1.8 5.1-3.5 7.8-5.3z"/></g></g></symbol><symbol id="support-medical" viewBox="0 0 210 210"><title>Group</title><g fill="none" fill-rule="evenodd"><path d="M130.9 205.5H43.6c-.4-.4-.2-.9-.4-1.3-.3-.8-.5-1.7-.6-2.6-.1-.6-.2-1.2-.3-1.7-.2-.8-.2-1.6-.4-2.4-.2-.9-.2-1.8-.2-2.7-.1-2-.3-4.1.1-6.2.2-1.1 0-2.3.3-3.5.1-.7.3-1.3.4-2 .1-.4.1-.9.2-1.4.4-1.1.6-2.2.9-3.2.4-1.2.7-2.4 1.2-3.6.5-1.3 1.1-2.5 1.7-3.7.7-1.3 1.4-2.7 2.2-3.9.6-.9 1.2-1.8 1.9-2.7.7-1 1.5-2.1 2.3-3 1.1-1.2 2.4-2.3 3.5-3.6.8-.9 1.7-1.5 2.6-2.3 1.3-1 2.7-1.9 4-2.8 1.5-1 3-1.7 4.6-2.5 2.2-1.1 4.4-1.9 6.7-2.6 1.5-.5 3.1-.7 4.6-1.2 1.1-.4 2.3-.2 3.4-.5.9-.2 1.9-.2 2.8-.2 1.7-.1 3.4-.2 5.1.1 1.1.2 2.4.3 3.5.3.7 0 1.3.2 1.9.5v4.4c-.7 0-1.3 0-2-.2s-1.4-.1-2.1-.2c-1-.1-2.1-.2-3.2-.3-1.1-.1-2.2-.2-3.3.2-.9.3-1.8.1-2.7.2-1.2.2-2.5.3-3.7.6-.9.2-1.7.4-2.6.6-1 .3-2.1.6-3.1 1-.4.1-1 .2-.9.7.2.8.3 1.6.6 2.2.4.9.7 1.9 1.2 2.8 1 1.7 2.1 3.2 3.3 4.7.4.4.9.6 1.3 1 .8 1 2 1.5 3.1 2.2.8.5 1.6.8 2.5 1.2.4.1.8.1 1.1.3.8.5 1.7.6 2.5.6 2.3.2 4.6 0 6.9.3.4 0 .7 0 1 .3v4.1c.1 2.2-.3 4.4.3 6.5.2.9.4 1.8.9 2.6.8 1.3 1.8 2.3 3 3.2 1.4 1.1 2.9 1.5 4.5 1.7 1.1.1 2.2.1 3.4-.2 1-.3 2-.4 2.7-1.1.1-.1.2-.1.3-.2.7-.5 1.4-1 1.9-1.6 1.5-1.6 1.9-3.6 2.2-5.6.4-.1.2-.4.2-.7v-8.3c0-.5.1-.7.7-.7h5c.2 0 .5.1.6-.2.1-.3 0-.5-.2-.7-.2-.2-.4-.4-.5-.6-.5-1-1.3-1.9-2.1-2.7-.8-1-1.7-1.9-2.7-2.7-.6-.5-.8-1-.7-1.8.1-1.4 0-2.8 0-4.3 0-.2-.1-.4.1-.5.2-.1.3 0 .4.1.4.6 1.1.8 1.6 1.3 2.2 2.2 4.5 4.3 6.4 6.9.6.8 1.1 1.6 1.6 2.3.6.8 1 1.6 1.6 2.5.5.7.9 1.4 1.2 2.1.4.9.8 1.9 1.2 2.8.4.9.8 1.8 1.1 2.7.4 1.3 1 2.6 1.2 4 .2 1.1.6 2.2.8 3.4.1.6.1 1.3.2 1.9.3 1.2.4 2.3.5 3.5.1 1.9 0 3.9 0 5.8v.6c-.4.8-.2 1.8-.4 2.7-.2 1.1-.3 2.2-.5 3.3-.1.4-.3.7-.3 1.2-.1 1-.4 2-.8 2.8z" fill="#FFF"/><path d="M164.3 129.2h-48.6c-1 0-.9-.1-.9.9v48.8c-.4 2-.7 4.1-2.2 5.6-.6.6-1.3 1.1-1.9 1.6-.1.1-.2.1-.3.2-.8.8-1.8.9-2.7 1.1-1.1.3-2.3.3-3.4.2-1.6-.1-3.2-.6-4.5-1.7-1.2-.9-2.2-2-3-3.2-.5-.8-.7-1.7-.9-2.6-.5-2.2-.2-4.4-.3-6.5-.1-1.4 0-2.7 0-4.1v-39.8c0-.5-.2-.6-.6-.6H46.4c-2 0-3.8-.6-5.4-1.8-1.4-1-2.2-2.5-3.2-3.9-.3-.4-.3-1-.4-1.5-.3-1.4-.5-2.8-.1-4.2.3-1.1.5-2.1 1.1-3.1 1-1.5 2.1-3.1 3.9-3.8.7-.3 1.5-.5 2.2-.6.5-.1.9-.4 1.4-.3H95c.6 0 .7-.2.7-.7V62.3c0-1.4.1-2.8.5-4.2.3-1 .7-1.9 1.3-2.8.3-.4.6-.9 1-1.2.5-.3.9-.7 1.4-1 1.7-1.2 3.6-1.8 5.7-1.9.6.3 1.2.3 1.8.5.8.3 1.7.3 2.4.7 2 1.2 3.7 2.6 4.4 4.8.3.9.6 2 .6 3V109.3c0 .5.1.7.7.7h48c1.9 0 3.7.4 5.3 1.3 1.1.6 1.9 1.6 2.6 2.6.4.6.9 1.2 1.2 1.8.2.4.2.8.3 1.2.4 1.5.6 3.1.2 4.7l-.3 1.5c-.1.5-.3 1-.6 1.4-.5.7-1 1.4-1.6 2.1-.8.9-1.8 1.6-3 2-1 .1-2.1.5-3.3.6z" fill="#1EDD85"/><g fill="#E2E3E3"><path d="M155 205.5c-.2-.7-.2-1.5-.5-2.2-.2-.4-.1-.9-.2-1.4-.1-.6-.3-1.2-.4-1.9-.1-.6-.1-1.3-.4-2-.2-.4-.2-.9-.3-1.3 0-.7-.4-1.4-.3-2.1 0-.4-.2-.9-.3-1.3-.3-1.1-.4-2.3-.7-3.4-.3-1-.4-2.1-.3-3.2.1-1.2-.3-2.4-.3-3.6 0-1-.3-2.1-.5-3.1s-.4-2-.7-2.9c-.2-.8-.3-1.7-.6-2.6-.5-1.3-.8-2.6-1.2-3.8-.6-1.7-1.2-3.4-1.9-5.1-.5-1.3-1.2-2.5-1.8-3.7-.9-1.9-2-3.6-3.1-5.4-.9-1.4-1.8-2.7-2.8-4-.8-.9-1.5-1.8-2.2-2.8-1-1.3-2.2-2.3-3.3-3.5-.1-.2-.4-.3-.3-.5.1-.3.4-.2.6-.2h25.6c.8 0 1.6.3 2.3.6 1.8.6 3.3 1.6 4.6 3 1.2 1.3 2.2 2.7 2.6 4.5.3 1.2.5 2.3.8 3.5.2 1 .4 2 .7 2.9.2.6.2 1.2.3 1.8.2.7.3 1.3.5 2l.3 1.5c0 1.1.5 2.2.6 3.3.1 1.3.5 2.6.8 3.9.2 1.3.5 2.7.8 4 .2 1 .4 2 .7 3 .2.7.3 1.4.4 2.1 0 .6.1 1.2.4 1.8.2.5.2 1 .3 1.5.1 1.1.4 2.1.6 3.1.2 1.1.3 2.2.7 3.3.2.6.3 1.3.4 1.9 0 .7.3 1.3.4 2 .1.6.3 1.1.4 1.7 0 .7.3 1.4.4 2.1.1.6.3 1.1.4 1.7.1 1.1.3 2.2.7 3.2.2.5 0 1 .1 1.5-8.4.1-16.3.1-24.3.1zM95.7 147c-.6-.3-1.2-.5-1.9-.5-1.2 0-2.4-.1-3.5-.3-1.7-.3-3.4-.2-5.1-.1-.9 0-1.9 0-2.8.2-1.1.3-2.3.1-3.4.5-1.5.5-3.1.7-4.6 1.2-2.3.7-4.5 1.5-6.7 2.6-1.6.8-3.1 1.6-4.6 2.5-1.4.9-2.8 1.8-4 2.8-.9.7-1.8 1.4-2.6 2.3-1.1 1.2-2.4 2.3-3.5 3.6-.8.9-1.6 2-2.3 3-.6.9-1.3 1.8-1.9 2.7-.8 1.2-1.5 2.6-2.2 3.9-.6 1.2-1.2 2.4-1.7 3.7l-1.2 3.6c-.3 1.1-.5 2.2-.9 3.2-.2.4-.2.9-.2 1.4-.1.7-.3 1.3-.4 2-.2 1.2 0 2.4-.3 3.5-.4 2.1-.2 4.1-.1 6.2 0 .9 0 1.9.2 2.7.2.8.2 1.6.4 2.4.2.5.3 1.1.3 1.7.1.9.3 1.8.6 2.6.2.4 0 1 .4 1.3H28.9c0-.9-.2-1.7-.5-2.6-.2-.5-.2-1.1-.2-1.6 0-1.2-.2-2.3-.4-3.4-.2-1.4 0-2.8-.3-4.1-.2-1-.3-2-.2-3 .2-1.3.1-2.6.2-3.9.2-1.4.3-2.8.5-4.1.2-1.1.3-2.2.7-3.2.2-.5.2-1 .3-1.5.1-.9.5-1.8.7-2.7.2-1 .6-1.8.9-2.7.3-1 .7-1.9 1-2.9.9-2.3 1.9-4.5 3.1-6.6.6-1.1 1.4-2.1 1.9-3.2.6-1.2 1.6-2.3 2.3-3.5.2-.4.6-.8.9-1.2.6-.7 1.2-1.5 1.8-2.2 1.9-2.3 4.1-4.4 6.3-6.4 1-.9 2.1-1.8 3.2-2.6.8-.5 1.4-1.1 2.2-1.6.8-.5 1.5-1 2.3-1.5 1.8-1.2 3.8-2.2 5.7-3.1 1.7-.8 3.4-1.6 5.2-2.2l2.4-.9c.6-.3 1.4-.4 2-.6 1.3-.4 2.6-.6 3.9-1 .6-.2 1.4-.3 2.1-.3.8 0 1.6-.2 2.4-.5h.3c1.6.1 3.1-.4 4.7-.3 2.1.1 4.1.1 6.2 0 1.7 0 3.3.5 5 .3.2 4.6.2 9.5.2 14.4z"/><path d="M130.9 205.5c.4-.9.7-1.8.8-2.8 0-.4.2-.8.3-1.2.2-1.1.3-2.2.5-3.3.2-.9 0-1.8.4-2.7.1-.2 0-.4 0-.6v-5.8c0-1.2-.2-2.3-.5-3.5-.1-.6-.2-1.3-.2-1.9-.2-1.2-.6-2.3-.8-3.4-.2-1.4-.7-2.7-1.2-4-.3-.9-.7-1.8-1.1-2.7-.4-.9-.9-1.8-1.2-2.8-.3-.7-.7-1.5-1.2-2.1-.5-.8-1-1.7-1.6-2.5-.6-.8-1.1-1.6-1.6-2.3-1.9-2.5-4.2-4.6-6.4-6.9-.5-.5-1.2-.8-1.6-1.3-.1-.1-.2-.2-.4-.1s-.1.3-.1.5v4.3c0 .8.2 1.3.7 1.8.9.8 1.9 1.7 2.7 2.7.7.9 1.5 1.7 2.1 2.7.1.2.3.4.5.6.2.2.3.4.2.7-.1.3-.4.2-.6.2h-5c-.5 0-.7.2-.7.7v8.3c0 .2.1.5-.2.7V130c0-1-.1-.9.9-.9h48.6c0 .1-.1.2-.1.2-.9 0-.9.6-1 1.3-.2.8-.5 1.6-1 2.3-.4.5-.7 1.1-1.1 1.6-.8.8-1.7 1.4-2.7 1.9-.8.4-1.6.5-2.4.5h-32.6c-1.3 0-2.5-.1-3.6-.9-.9-.7-1.8-1.2-2.8-1.5-.6-.2-1.1-.6-1.7-.9-.2.1-.1.3-.1.5v4c0 .4.1.7.6.9 1.4.7 2.8 1.6 4.1 2.4 1.4.8 2.7 1.9 4.1 2.8.5.3.9.7 1.4 1.1 2.4 2 4.6 4.2 6.7 6.5 1.2 1.3 2.2 2.6 3.2 4 1.3 1.8 2.5 3.6 3.6 5.5.4.7 1 1.5 1.3 2.2.4.9 1 1.7 1.3 2.6.2.7.6 1.3.9 2 .5 1.1.8 2.3 1.3 3.4s.8 2.3 1.2 3.5c.3.8.5 1.7.6 2.6.1.5.3 1 .4 1.5.1.2.1.4.1.6 0 .8.2 1.5.5 2.2v.1c-.1.8.3 1.6.3 2.4 0 1.4.1 2.8.3 4.1.3 1.9.2 3.9.1 5.8-.1 1.1 0 2.3-.3 3.4-.1.7-.1 1.5-.2 2.1-.3 1.2-.3 2.4-.7 3.6-.2.6-.4 1.3-.3 2.1h-14.7zM105.5 51.2c-2.1.1-4 .8-5.7 1.9-.5.3-.9.7-1.4 1-.4.3-.7.8-1 1.2-.6.8-1 1.8-1.3 2.8-.4 1.4-.4 2.8-.5 4.2-.4-.1-.6.2-.9.3-1.1.5-2.3.9-3.4 1.2-1 .3-2 .3-3 .6-1.4.4-2.8.3-4.1.1-1.1-.1-2.3-.4-3.4-.6-1.4-.4-2.8-.9-4.1-1.5-1.1-.5-2.1-1.2-3.2-1.9-.8-.5-1.3-1.2-2.1-1.7-.8-.6-1.4-1.6-2.1-2.4-.9-1-1.5-2.2-2.2-3.4-.4-.7-.7-1.4-.9-2.1-.3-.8-.4-1.7-.7-2.5-.2-.4-.3-1-.3-1.5 0-1.4-.6-2.8-.3-4.2.3-1.1.2-2.1.4-3.2.2-.9.5-1.7.6-2.6.1-.7.5-1.4.8-2 .6-1.5 1.4-2.9 2.4-4.1.9-1.1 1.6-2.4 2.9-3.1.6-.4 1.1-1 1.7-1.4 1.4-1 2.8-1.7 4.4-2.4 1.3-.6 2.7-.7 4-1.2.7-.2 1.5-.4 2.4-.3 1 .1 2 0 3 0 .9 0 1.8.2 2.7.5.7.2 1.4.3 2.1.5 1.4.4 2.7 1.1 3.9 1.7.9.5 1.7 1.2 2.6 1.7 1 .7 1.7 1.5 2.5 2.4 1.1 1.2 2.1 2.5 2.9 3.9.9 1.6 1.5 3.3 2 5 .2.6.3 1.3.4 1.9.3 1.8.2 3.5.2 5.2 0 .9-.3 1.8-.4 2.7-.1.8-.4 1.5-.6 2.3-.1.4-.4.6-.3 1zM95.7 73.4v35.8c0 .5-.1.7-.7.7H45.9c.1-.4.5-.2.7-.2h21c.8 0 .8 0 .9-.8.1-1.7-.3-3.4-.3-5.2 0-.9 0-1.9-.2-2.8-.3-1.3 0-2.6-.3-3.8-.3-1.2 0-2.4-.3-3.5-.4-1.5-.1-3-.2-4.5-.1-1.2.2-2.4.5-3.6.4-1.8 1-3.4 1.9-5 .4-.7 1-1.4 1.5-2.1.7-1 1.5-1.8 2.4-2.6.9-.9 2-1.6 3.1-2.3 1.5-.9 3.1-1.3 4.7-2 .4-.2 1-.3 1.5-.3 1.4 0 2.8-.6 4.2-.3.9.3 1.9.2 2.8.4 1.1.2 2.1.6 3.1.9.8.2 1.6.7 2.4 1.1 0 .1.2.1.4.1zM95.7 151.4v18.1c-.3-.2-.7-.2-1-.3-2.3-.3-4.6-.1-6.9-.3-.8-.1-1.8-.2-2.5-.6-.3-.2-.7-.1-1.1-.3-.9-.3-1.7-.7-2.5-1.2-1.1-.7-2.3-1.2-3.1-2.2-.4-.4-.9-.6-1.3-1-1.3-1.5-2.4-3-3.3-4.7-.5-.9-.8-1.9-1.2-2.8-.3-.7-.4-1.5-.6-2.2-.1-.5.6-.6.9-.7 1-.4 2.1-.7 3.1-1 .8-.2 1.7-.4 2.6-.6 1.2-.2 2.5-.4 3.7-.6.9-.2 1.9 0 2.7-.2 1.1-.3 2.2-.2 3.3-.2 1.1.1 2.1.1 3.2.3.7.1 1.5 0 2.1.2.6.3 1.2.3 1.9.3z"/></g></g></symbol><symbol id="un-check" viewBox="0 0 280 284"><title>Group 2</title><g fill-rule="evenodd"><path d="M22.025 261.54V69.96h95.115s15.513-15.868 21.718-22.06H19.795c-.873 0-1.649 0-2.424.097H.5v235.506h11.635c.485.097.97.097 1.357.097h209.719c.485 0 .97 0 1.357-.097h11.441v-17.222a52.22 52.22 0 0 0 .291-5.71V145.239c-8.92 8.901-13.671 14.03-22.591 22.93l.29 93.371H22.026z"/><path d="M280 50.9c-.5-4.1-.5-8.5-1.7-12.5-5.7-17.8-19.2-31.7-37.5-36.7-3.6-.9-8.6-1.9-12.4-1.7-3.1.1-6.7 1.5-9.5 4.3-23 23.4-55.9 57.2-79.3 81.7h59.6v52.9c20.4-21.2 47.7-49.6 76.1-78.3 2.8-2.8 3.8-6.1 4.7-9.7z"/><path d="M139.6 86c-16.7 17.4-28.7 30.2-29 31.1-1.4 4.1-3.6 12.6-6.1 22.4-2.2 8.8-4.6 18.7-6.7 27.5-3.2 13.3-5.7 24-5.7 24s58.8-12.7 72.8-17.5c1.4-.4 14.6-14 34.3-34.5V86h-59.6zm15.5 76.5c-3.6 1.2-9.7 2.6-16.5 4-9.5 2-20.5 4-28.1 5.9 1.8-5.5 4.2-17.6 6.5-28.3 1.5-6.7 2.9-12.9 4.2-16.5 3.9-1.2 7.6-1.4 10.5-.1 10.7 4 18.1 11.6 22.5 22 1.2 2.6 2.6 12.8.9 13z"/></g></symbol></svg>