<?xml version="1.0" encoding="utf-8"?>
<!-- Generator: Adobe Illustrator 21.0.0, SVG Export Plug-In . SVG Version: 6.00 Build 0)  -->
<svg version="1.1" id="Calque_1" xmlns="http://www.w3.org/2000/svg" xmlns:xlink="http://www.w3.org/1999/xlink" x="0px" y="0px"
	 viewBox="0 0 287.3 288" style="enable-background:new 0 0 287.3 288;" xml:space="preserve">
<style type="text/css">
	.st0{fill:#FFFFFF;}
</style>
<g>
	<path class="st0" d="M284.8,134C237.4,90,190.2,46.3,143.1,2.6C95.8,46.4,48.7,90.1,1.3,134c1,0,1.5,0,2,0c11.6,0,23.3,0,34.9,0
		c2,0,1.8-0.2,1.8,1.8c0,49.5,0,99,0,148.5c0,0.6,0,1.2,0,1.8c68.4,0,136.7,0,205.1,0c0-50.7,0-101.4,0-152.1
		C258.4,134,271.4,134,284.8,134z"/>
	<path d="M284.8,134c-13.4,0-26.4,0-39.6,0c0,50.8,0,101.4,0,152.1c-68.4,0-136.7,0-205.1,0c0-0.6,0-1.2,0-1.8c0-49.5,0-99,0-148.5
		c0-2,0.2-1.8-1.8-1.8c-11.6,0-23.3,0-34.9,0c-0.5,0-1,0-2,0C48.7,90.1,95.8,46.4,143.1,2.6C190.2,46.3,237.4,90,284.8,134z
		 M181.8,163.4c-25.8,0-51.6,0-77.5,0c0,0.5,0,0.9,0,1.3c0,21.4,0,42.9,0,64.3c0,1.3,0.5,1.5,1.6,1.5c24.8,0,49.6,0,74.4,0
		c0.5,0,0.9,0,1.5,0C181.8,208,181.8,185.8,181.8,163.4z"/>
</g>
</svg>
