<svg width="267px" height="267px" viewBox="1870 1042 267 267" version="1.1" xmlns="http://www.w3.org/2000/svg" xmlns:xlink="http://www.w3.org/1999/xlink">
    <!-- Generator: Sketch 41.2 (35397) - http://www.bohemiancoding.com/sketch -->
    <desc>Created with Sketch.</desc>
    <defs></defs>
    <g id="Group-4" stroke="none" stroke-width="1" fill="none" fill-rule="evenodd" transform="translate(1870.000000, 1042.000000)">
        <circle id="Oval" class="shape" cx="133.9" cy="133.2" r="133"></circle>
        <path d="M199.6,146.1 L185.9,146.1 L144.3,146.1 C143.2,146.1 143.3,146 143.3,147.1 L143.3,202.1 L143.3,202.7 C142.9,205 142.4,207.3 140.7,209.1 C140.1,209.8 139.3,210.4 138.5,210.9 C138.4,211 138.3,211 138.2,211.1 C137.3,212 136.2,212.1 135.1,212.4 C133.8,212.8 132.5,212.7 131.3,212.6 C129.4,212.5 127.7,211.9 126.1,210.7 C124.8,209.6 123.6,208.5 122.7,207 C122.1,206.1 121.9,205.1 121.7,204 C121.1,201.5 121.5,199 121.4,196.6 C121.3,195.1 121.4,193.5 121.4,192 L121.4,185.4 L121.4,171.4 L121.4,166.4 L121.4,149.6 L121.4,146.7 C121.4,146.1 121.2,146 120.7,146 L104.4,146 L65.4,146 C63.2,146 61.1,145.3 59.3,143.9 C57.7,142.7 56.7,141.1 55.7,139.5 C55.4,139 55.4,138.4 55.3,137.8 C54.9,136.2 54.7,134.7 55.2,133 C55.5,131.8 55.7,130.6 56.4,129.5 C57.6,127.8 58.7,126 60.8,125.2 C61.6,124.9 62.5,124.7 63.3,124.5 C63.8,124.4 64.3,124.1 64.9,124.1 L65.4,124.1 L120.7,124.1 C121.4,124.1 121.5,123.8 121.5,123.3 L121.5,98.7 L121.5,82.6 L121.5,69.9 C121.5,68.3 121.6,66.7 122,65.1 C122.3,64 122.8,62.9 123.4,62 C123.7,61.5 124,60.9 124.5,60.6 C125.1,60.2 125.6,59.8 126.1,59.4 C128.1,58.1 130.2,57.3 132.6,57.2 C133.2,57.6 134,57.6 134.7,57.8 C135.6,58.1 136.6,58.1 137.5,58.6 C139.7,59.9 141.7,61.5 142.6,64 C143,65.1 143.3,66.2 143.3,67.4 L143.3,108.1 L143.3,123.2 C143.3,123.8 143.5,124 144.1,124 L198.7,124 C200.9,124 202.9,124.4 204.8,125.5 C206.1,126.2 206.9,127.3 207.8,128.4 C208.3,129.1 208.8,129.7 209.2,130.5 C209.4,130.9 209.4,131.4 209.5,131.8 C210,133.6 210.2,135.3 209.7,137.2 C209.6,137.7 209.4,138.3 209.3,138.9 C209.2,139.4 209,140 208.6,140.4 C208,141.2 207.5,142 206.8,142.7 C205.9,143.7 204.8,144.5 203.4,144.9 C202.2,145.5 200.9,145.9 199.6,146.1 Z" id="Shape" fill="#FFFFFF"></path>
    </g>
</svg>