<?xml version="1.0" encoding="utf-8"?>
<!-- Generator: Adobe Illustrator 21.0.0, SVG Export Plug-In . SVG Version: 6.00 Build 0)  -->
<svg version="1.1" id="Calque_1" xmlns="http://www.w3.org/2000/svg" xmlns:xlink="http://www.w3.org/1999/xlink" x="0px" y="0px"
	 viewBox="0 0 312.7 318.3" style="enable-background:new 0 0 312.7 318.3;" xml:space="preserve">
<style type="text/css">
	.st0{fill:none;}
</style>
<g>
	<path class="st0" d="M233.2,135.2c-1.2-4.4-2.4-8.9-3.6-13.3c-3.1-11-6.9-22.7-12.8-33.7c-4.8-9-10.6-15.7-17.5-20.7
		c-6.1-4.4-13.3-7.3-22.1-9.2c-2.2-0.5-4.4-1-6.6-1.5c-1-0.2-2-0.5-3.1-0.7l-1.6-0.4l0.5-1.5c0.1-0.3,0.2-0.7,0.3-1
		c0.2-0.6,0.4-1.2,0.5-1.7c0.4-1.5,0.8-3.1,1.2-4.5c0.9-3.4,1.9-6.9,2.3-10.3c0.4-3.3-0.7-6.7-2.9-9.4c-2.5-3-6.2-4.9-10.1-5.1
		c-7.4-0.5-14.2,5.3-14.8,12.7c-0.3,3.4,0.6,6.8,1.4,9.8c0.5,2.1,1.2,4.1,1.8,6.3c0.3,1,0.6,1.9,0.9,2.9l0.4,1.4l-2,0.6
		c-0.4,0.1-0.8,0.2-1.2,0.3l-2.5,0.6c-2.5,0.7-5.1,1.3-7.7,1.9c-8.8,2.2-15.9,5.4-21.8,9.9c-7,5.4-12.8,12.8-17.7,22.6
		c-5.4,10.8-8.9,22.3-11.6,32.2c-1.2,4.2-2.3,8.4-3.4,12.5c-1.9,7.3-3.9,14.8-6.2,22.2C64.8,185.9,52,213.3,34.3,242H279
		c-17.7-28.9-30.6-56.4-39.4-84.2C237.3,150.3,235.2,142.7,233.2,135.2z"/>
	<path d="M308,242.5l-0.3-0.5c-18.7-26.5-33.3-55.2-43.5-85.3c-2.7-8.1-5-16.5-7.3-24.6c-1.1-3.9-2.2-8-3.3-11.9
		c-3.5-12.1-8.1-26.2-15.5-39.7c-9.9-17.9-22.8-30.1-39.7-37.2c-1-0.4-2.1-0.8-3-1.2l-2.2-0.9l0-1c0.2-15.2-5.9-26.6-18.1-33.9
		c-12.4-7.3-25.4-7.1-37.6,0.7c-11.5,7.3-17.2,18.4-17,33l0,1l-1.2,0.5c-0.3,0.1-0.8,0.3-1.2,0.5c-8.5,3.1-16.3,7.6-23,13.2
		c-9.6,8-17.4,18.6-23.9,32.2c-5.5,11.6-10,24.8-14,41.4c-5.3,21.4-11.5,39.9-19.1,56.3C26.1,211,14.4,230.8,1.1,247.6
		c-0.1,0.1-0.2,0.5-0.2,0.9c0,4.2,0,8.5,0,12.6l0,1.7h311.3c0-0.9,0-1.8,0-2.8c0-2.9-0.1-5.8,0.1-8.7c0.2-2.7-0.5-4.5-2.1-6
		C309.3,244.4,308.7,243.4,308,242.5z M29,245l1.7-2.9c0.2-0.4,0.4-0.8,0.7-1.1c17.8-28.6,30.6-56,39.2-83.6
		c2.3-7.3,4.2-14.8,6.1-22c1.1-4.1,2.2-8.4,3.4-12.6c2.8-10,6.4-21.7,11.8-32.7c5.1-10.3,11.2-18,18.6-23.7
		c6.2-4.8,13.7-8.2,22.9-10.4c2.5-0.6,5.1-1.3,7.6-1.9l2.5-0.6c0.1,0,0.1,0,0.2,0c-0.1-0.5-0.3-1-0.4-1.5c-0.6-2.2-1.3-4.2-1.8-6.4
		c-0.8-3.2-1.8-6.9-1.5-10.8c0.7-9,9-16,18-15.4c4.7,0.3,9.2,2.6,12.2,6.2c2.8,3.3,4.1,7.5,3.6,11.6c-0.4,3.7-1.4,7.3-2.4,10.8
		c-0.4,1.5-0.8,3-1.2,4.5c-0.1,0.5-0.2,0.9-0.4,1.3c0.5,0.1,1,0.2,1.5,0.4c2.2,0.5,4.4,1,6.5,1.5c9.2,1.9,16.8,5.1,23.3,9.7
		c7.3,5.2,13.3,12.3,18.4,21.7c6.1,11.2,9.8,23.1,13,34.3c1.3,4.4,2.5,9,3.7,13.3c2,7.4,4,15,6.4,22.4c8.8,27.8,21.7,55.3,39.5,84.2
		c0.3,0.4,0.5,0.8,0.7,1.2c0.2,0.4,0.2,0.7,0.2,0.9l0,0.1l0.1,1.6H29z"/>
	<path d="M156.5,316.8c0.1,0,0.1,0,0.2,0c18.9-0.1,31.7-14.5,33.5-28.4H123C124.7,302.4,137.6,316.8,156.5,316.8z"/>
</g>
</svg>
