<?xml version="1.0" encoding="utf-8"?>
<!-- Generator: Adobe Illustrator 21.0.0, SVG Export Plug-In . SVG Version: 6.00 Build 0)  -->
<svg version="1.1" id="Calque_1" xmlns="http://www.w3.org/2000/svg" xmlns:xlink="http://www.w3.org/1999/xlink" x="0px" y="0px"
	 viewBox="0 0 278.8 302.3" style="enable-background:new 0 0 278.8 302.3;" xml:space="preserve">
<g>
	<path d="M2.5,151.7c0-47.1,0-94.3,0-141.4c0-2.7,0.9-4.8,2.9-6.5c1.2-1,2.6-1.4,4.1-1.7c0.5-0.1,1,0,1.5,0c75.6,0,151.2,0,226.9,0
		c2.5,0,5,0.1,7.5,0.6c4.4,0.8,8.6,2.3,12.5,4.5c5.1,2.9,9.4,6.8,12.6,11.7c1.7,2.6,3,5.4,4.2,8.3c2.1,5,2.5,10.3,2.5,15.7
		c0,77.2,0,154.4,0,231.6c0,3.4-0.5,6.7-1.6,9.8c-1.9,5-5,9.1-9.4,12.2c-3,2.1-6.2,3.5-9.7,4.3c-1.7,0.4-3.5,0.6-5.2,0.6
		c-80.3,0-160.6,0-240.8,0c-3.4,0-5.8-1.6-7.3-4.5c-0.5-0.9-0.6-2-0.6-3.1c-0.1-4.6,0-9.1,0-13.7C2.5,237.4,2.5,194.5,2.5,151.7z
		 M42.5,286.2c0.7,0,1.2,0,1.7,0c68.5,0,137,0,205.5,0c1.4,0,2.7-0.2,4.1-0.5c2.1-0.4,3.8-1.6,5.2-3.1c1.9-2.2,2.8-4.9,2.8-7.9
		c0-77.8,0-155.5,0-233.3c0-3.5-0.6-6.8-2-10C258,27,255,23.6,251.1,21c-3.8-2.5-8.1-3.6-12.8-3.6c-64.8,0-129.7,0-194.5,0
		c-0.4,0-0.9,0-1.3,0C42.5,107.1,42.5,196.6,42.5,286.2z M27.1,286.1c0-89.6,0-179.1,0-268.6c-3.1,0-6.2,0-9.2,0
		c0,89.6,0,179.1,0,268.6C20.9,286.1,24,286.1,27.1,286.1z"/>
	<path d="M152.2,239.7c-22.5,0-45,0-67.4,0c-3.4,0-6-1.3-7.4-4.4c-0.5-0.9-0.8-2.1-0.7-3.1c0.1-4.1,0.2-8.3,0.6-12.4
		c0.3-3.2,0.7-6.3,1.5-9.4c1-4.2,2-8.4,3.5-12.4c1.5-4.1,3.4-8,5.4-11.8c3.2-6.1,7.3-11.4,12.3-16.2c5.6-5.4,11.9-9.6,19-12.8
		c3.6-1.6,7.3-3.1,11.2-3.9c3.3-0.7,6.6-1.4,9.9-2c5.8-1.1,11.8-1.1,17.7-0.8c3.3,0.2,6.6,0.8,9.9,1.3c2.6,0.4,5.2,0.9,7.7,1.6
		c2.6,0.7,5.2,1.6,7.8,2.7c3,1.3,6,2.7,8.9,4.2c1.7,0.9,3.4,2,4.9,3.2c3.2,2.6,6.5,5.2,9.5,8.1c3.5,3.4,6.5,7.3,8.9,11.6
		c1.4,2.4,3,4.8,4.2,7.4c1.2,2.7,2.2,5.5,3.2,8.2c0.9,2.4,1.6,4.8,2.3,7.3c0.5,1.8,0.8,3.7,1.1,5.6c0.5,2.6,0.9,5.3,1.3,7.9
		c0,0.2,0,0.3,0.1,0.5c0.3,4,0.7,8,0.7,12c0.1,3.3-1.7,6.3-5.4,7.3c-0.9,0.2-1.8,0.4-2.7,0.4C197.2,239.7,174.7,239.7,152.2,239.7z
		 M212.1,224.3c-0.2-1.9-0.4-3.6-0.7-5.4c-0.5-2.8-0.8-5.7-1.5-8.5c-1-3.6-2.1-7.2-3.4-10.7c-2.2-6-5.7-11.3-10-16
		c-4.8-5.3-10.5-9.3-16.9-12.3c-4-1.8-8-3.2-12.3-4.2c-3.3-0.8-6.7-1.4-10.1-1.4c-4.9-0.1-9.8,0.2-14.8,0.4c-1.1,0-2.2,0.3-3.3,0.5
		c-2.3,0.6-4.7,1.1-7,1.9c-2.8,1-5.7,2-8.4,3.3c-4,1.8-7.7,4.3-11.1,7.1c-4.8,4-8.8,8.9-11.9,14.3c-2.2,3.8-4,7.7-5.1,12
		c-0.9,3.3-1.7,6.6-2.4,10c-0.3,1.3-0.4,2.7-0.6,4c-0.2,1.7-0.4,3.4-0.6,5.1C132.2,224.3,172.1,224.3,212.1,224.3z"/>
	<path d="M190.7,102.5c-0.2,21.3-17.2,38.4-38.6,38.4c-21.3,0-38.5-17.2-38.4-38.7c0.1-21.2,17.2-38.4,38.7-38.3
		C173.6,64,190.6,81.1,190.7,102.5z M175.4,102.5c0.1-12.8-10.5-23.2-23.1-23.3c-12.8-0.1-23.3,10.6-23.4,23.1
		c-0.1,12.8,10.5,23.4,23.2,23.4C164.9,125.7,175.4,115.1,175.4,102.5z"/>
</g>
</svg>
