<?xml version="1.0" encoding="utf-8"?>
<!-- Generator: Adobe Illustrator 21.0.0, SVG Export Plug-In . SVG Version: 6.00 Build 0)  -->
<svg version="1.1" id="Calque_1" xmlns="http://www.w3.org/2000/svg" xmlns:xlink="http://www.w3.org/1999/xlink" x="0px" y="0px"
	 viewBox="0 0 320 319.3" style="enable-background:new 0 0 320 319.3;" xml:space="preserve">
<g>
	<path d="M2,161.2c1.1,43,16.3,80.2,46.9,110.4C80,302.5,118,318,161.9,317.4c88.6-1.3,151.2-71.9,155.5-147.3
		c2.5-43.2-10.2-81.5-38.6-114.1C251.6,24.8,217,7,175.7,2.7c-29.7-3.1-58.2,2-85.1,15.2C63.8,31.1,42.3,50.4,26.3,75.8
		c-15.9,25.3-23.9,53-24.3,82.9 M52.3,152.5c7.1-8.6,14.5-16.8,22.9-24.1c6.5-5.7,13.1-11.2,20.1-16.3c11.8-8.5,24.6-15.3,38.7-19.5
		c8.6-2.6,17.4-4.1,26.3-4.1c10.3,0,20.4,1.9,30.2,5.2c7.6,2.6,14.9,5.8,21.8,9.9c6,3.6,12,7.4,17.6,11.6c5.9,4.4,11.5,9.1,16.9,14
		c8.1,7.3,15.6,15.3,22.4,23.9c0.7,0.9,0.7,1.5,0,2.4c-6.4,8.1-13.4,15.9-21.1,22.7c-6.4,5.6-12.9,11.2-19.6,16.4
		c-7.6,5.9-15.9,10.7-24.6,14.9c-7.2,3.5-14.6,6.2-22.4,8c-6.8,1.6-13.7,2.5-20.8,2.6c-10.9-0.1-21.5-2.1-31.9-5.8
		c-10-3.5-19.3-8.4-28.2-14.1C90,193.2,80,185.4,71.1,176.4c-5.8-5.9-11.3-12.1-17-18.1c-0.7-0.7-1.1-1.7-1.8-2.3
		C50.8,154.7,51.3,153.7,52.3,152.5z"/>
	<path d="M162.9,198.1c22.7-1.6,40.1-20.4,39.5-43.5c-0.7-25-21.2-42.2-43.4-41.5c-24.1,0.3-43,21-41.7,44.8
		C118.5,180.8,138,199.9,162.9,198.1z"/>
</g>
</svg>
