<?xml version="1.0" encoding="utf-8"?>
<!-- Generator: Adobe Illustrator 21.0.0, SVG Export Plug-In . SVG Version: 6.00 Build 0)  -->
<svg version="1.1" id="Calque_1" xmlns="http://www.w3.org/2000/svg" xmlns:xlink="http://www.w3.org/1999/xlink" x="0px" y="0px"
	 viewBox="0 0 296 295.3" style="enable-background:new 0 0 296 295.3;" xml:space="preserve">
<g>
	<path d="M177.1,199.6c5.2-5.2,10.2-10.3,15.3-15.4c13.2-13.1,30.9-13,44.1,0.1c12.9,12.9,25.7,25.7,38.6,38.6
		c12.7,12.8,12.5,30.6,0.1,43.7c-11.3,11.8-24.1,20.7-40,24.9c-14.8,3.9-29.4,2-43.9-1.4c-26.8-6.3-51-18.3-73.1-34.4
		C80.3,227.9,48.2,194.7,23,155.1c-10.7-16.9-18-35.2-20.4-55.2c-0.5-4.2-0.8-8.4-0.9-12.5c0-4.7,3.3-8.1,7.7-8.3
		c4.7-0.2,8.6,2.8,8.7,7.7c0.6,31.6,15,57.5,33.7,81.4c23,29.4,49,55.9,80,77.1c21.1,14.4,43.7,25.1,68.9,30.2
		c19,3.8,36.7,1.5,52.2-10.8c4.4-3.4,8.4-7.5,12.1-11.6c4.6-5.2,4.2-12.8-0.8-17.7c-13.5-13.6-27-27.1-40.6-40.5
		c-5.4-5.3-13.2-5.2-18.8,0.2c-6.6,6.4-13,13-19.6,19.5c-4.4,4.4-7.1,4.7-12.5,1.9c-23.2-12.3-44.5-27.2-62-47
		c-12.9-14.5-22.9-30.8-32.1-47.7c-2-3.7-1.3-7,1.8-10.2c6.3-6.4,12.7-12.7,19-19c7.4-7.4,7.3-14.4-0.1-21.8
		C86.9,57.8,74.2,45.1,61.5,32.4C55.1,26,47.2,26,41,32.6c-5.8,6.2-12,12-16,19.8c-2,3.9-6.9,4.9-10.7,3c-3.9-2-5.7-6.8-3.5-10.8
		c2.4-4.4,5.1-8.6,8.2-12.5c3.3-4.1,7-7.8,10.7-11.5C41.9,8.2,60.3,8.1,72.6,20.3C85.8,33.5,99,46.7,112.1,59.9
		c12.3,12.4,12.5,30.3,0.3,42.8c-4.8,4.9-9.7,9.8-14.6,14.6c-1.3,1.3-1.4,2.2-0.5,3.9c18.3,34.1,44.5,60.1,78.7,78
		C176.2,199.3,176.4,199.3,177.1,199.6z"/>
	<path d="M295.2,144.5c0,3,0,5.1,0,7.2c-0.1,5.1-3.4,8.7-8,8.8c-4.8,0.1-8-3.3-8.5-8.7c-1-10.2-1.5-20.5-3.7-30.4
		c-11.4-52-55.7-93.8-108.2-102.4c-7.7-1.3-15.5-1.5-23.3-2.1c-3.7-0.3-6.6-1.8-7.9-5.3c-1.2-3.2-0.9-6.5,1.9-8.6
		c1.8-1.4,4.4-2.4,6.6-2.5c72.5-0.1,136,53.3,148.6,124.8C293.8,132,294.4,138.7,295.2,144.5z"/>
	<path d="M241.7,141.3c0,1.9,0,3.2,0,4.5c-0.1,4.9-3.3,8.4-7.9,8.5c-4.7,0.1-8.4-3.3-8.4-8.3c-0.1-9.3-1.7-18.3-5-27
		c-11.1-28.9-38.4-48-69.5-48.8c-5.7-0.1-9-2.7-9.5-7.2c-0.5-5.4,3.1-9.2,8.9-9.1c19.7,0.1,37.6,5.9,53.4,17.7
		C227.3,89,239.7,112.7,241.7,141.3z"/>
</g>
</svg>
