<svg width="348px" height="317px" viewBox="539 284 348 317" version="1.1" xmlns="http://www.w3.org/2000/svg" xmlns:xlink="http://www.w3.org/1999/xlink">
    <!-- Generator: Sketch 39.1 (31720) - http://www.bohemiancoding.com/sketch -->
    <desc>Created with Sketch.</desc>
    <defs></defs>
    <g id="Group" stroke="none" stroke-width="1" fill="none" fill-rule="evenodd" transform="translate(539.000000, 284.000000)">
        <path d="M72.1,290.9 L25.1,290.9 C20.8,290.9 16.7,290.1 12.9,287.9 C8,285.2 4.4,281.2 2.5,275.9 C1.6,273.4 0.9,270.7 0.8,268 C0.6,263 2.3,258.5 4.9,254.2 C9.2,247.3 13.4,240.3 17.6,233.4 C20.6,228.5 23.8,223.6 26.8,218.6 C31.6,210.8 36.3,203 41.1,195.3 C46.9,185.8 52.8,176.4 58.6,166.9 C63.6,158.8 68.5,150.6 73.5,142.5 C78.1,135 82.7,127.6 87.3,120.1 C92.3,111.9 97.4,103.7 102.4,95.5 C107.2,87.7 112,79.9 116.8,72.1 C120.8,65.5 124.9,59 129,52.5 C133,46 136.9,39.5 140.9,33 C143.9,28 147,23.1 150.1,18.2 C152,15.1 153.8,11.9 156,8.9 C157.9,6.4 160.5,4.6 163.4,3.1 C167.7,0.9 172.3,0.2 177,0.8 C180.7,1.3 184.1,2.7 187.3,4.8 C191.5,7.6 193.8,11.8 196.3,15.8 C199.8,21.4 203.3,27.1 206.8,32.7 C209.7,37.5 212.6,42.3 215.6,47.1 C219.1,52.7 222.6,58.4 226.1,64 C229,68.7 231.9,73.5 234.8,78.2 C238.3,83.9 241.9,89.6 245.4,95.3 C248.3,100 251.1,104.7 254,109.4 C257.5,115.1 261.1,120.8 264.6,126.5 C267.5,131.3 270.4,136.1 273.3,140.9 C276.8,146.5 280.3,152.1 283.8,157.8 C286.7,162.5 289.6,167.3 292.5,172.1 C296,177.8 299.6,183.4 303.1,189.1 C306,193.9 308.9,198.7 311.9,203.5 C315.4,209.1 318.9,214.7 322.4,220.4 C325.3,225.2 328.2,230 331.2,234.8 C334.7,240.4 338.2,246.1 341.7,251.7 C343.8,255.1 345.9,258.4 346.7,262.3 C347.5,265.9 347.3,269.4 346.4,273 C345,278.4 342,282.5 337.8,285.9 C335.6,287.6 333.2,288.7 330.5,289.5 C326.8,290.6 323.1,290.6 319.4,290.6 L227.7,290.6 C224.6,290.6 224,290 224,286.9 L224,277 C224,274 224.6,273.3 227.6,273.3 L323.3,273.3 C325.5,273.3 327.3,272.8 328.7,271 C330.1,269.2 330.7,266.5 328.4,262.9 C323.9,255.8 319.6,248.6 315.2,241.4 C310.4,233.6 305.6,225.8 300.8,217.9 C296,210.1 291.2,202.2 286.4,194.4 C282.9,188.8 279.4,183.3 275.9,177.7 C271.3,170.3 266.9,162.8 262.3,155.4 C258.9,149.8 255.3,144.3 251.9,138.7 C249,134 246.1,129.2 243.2,124.5 C240.1,119.4 237,114.4 233.9,109.3 C230.6,103.9 227.2,98.4 223.9,93 C220.4,87.4 216.9,81.8 213.4,76.1 C210.5,71.3 207.6,66.5 204.6,61.7 C201.5,56.7 198.4,51.7 195.3,46.6 C192,41.2 188.6,35.7 185.3,30.3 C183.2,26.9 181.3,23.4 179.1,20.2 C176.3,16.2 171.3,16.2 168.6,20.5 C165.8,24.8 163.3,29.3 160.6,33.7 C157.6,38.6 154.4,43.5 151.4,48.5 C146.6,56.3 141.8,64.1 137,72 C132.2,79.8 127.5,87.6 122.7,95.4 C117.9,103.2 113.1,111 108.3,118.9 C103.5,126.7 98.7,134.5 93.9,142.4 C89.1,150.2 84.3,158 79.5,165.9 C74.7,173.8 69.8,181.6 65,189.5 C60.2,197.4 55.3,205.2 50.4,213 C45.6,220.8 40.8,228.6 36,236.5 C31.2,244.3 26.4,252.1 21.6,260 C20.8,261.3 20.1,262.6 19.2,263.8 C17.5,266.3 17.9,270.5 20.6,272.2 C21.4,272.7 22.4,273.1 23.4,273.3 C24.2,273.5 25,273.4 25.8,273.4 L120.6,273.4 C123.5,273.4 124.1,274.1 124.1,277 L124.1,287.7 C124.1,290 123.3,290.8 121,290.8 C104.6,290.9 88.3,290.9 72.1,290.9 L72.1,290.9 Z" id="Shape" class="shape" ></path>
        <path d="M182.9,274 L163.8,274 L163.8,103.8 L182.9,103.8 L182.9,274 L182.9,274 Z" id="Shape" class="shape"></path>
        <path d="M163.9,295.8 L183,295.8 L183,316.1 L163.9,316.1 L163.9,295.8 L163.9,295.8 Z" id="Shape" class="shape"></path>
    </g>
</svg>