<svg width="315px" height="320px" viewBox="2531 283 315 320" version="1.1" xmlns="http://www.w3.org/2000/svg" xmlns:xlink="http://www.w3.org/1999/xlink">
    <!-- Generator: Sketch 41.2 (35397) - http://www.bohemiancoding.com/sketch -->
    <desc>Created with Sketch.</desc>
    <defs></defs>
    <g id="Group" stroke="none" stroke-width="1" fill-rule="evenodd" transform="translate(2531.000000, 283.000000)">
        <path d="M314.5,265 L0.5,265 C0.5,264.5 0.4,264.1 0.4,263.7 L0.4,249.2 C0.4,248.6 0.6,247.8 0.9,247.4 C16,228.4 27.5,207.3 37.6,185.3 C45.9,167.3 51.9,148.5 56.6,129.2 C60.1,114.9 64.4,100.9 70.7,87.5 C76.6,75 84.3,63.7 95,54.8 C102,48.9 109.9,44.5 118.5,41.3 C119.1,41.1 119.6,40.8 119.9,40.7 C119.7,26 125.3,14.3 137.6,6.4 C150.3,-1.7 163.8,-2 176.8,5.7 C189.9,13.4 195.8,25.5 195.6,40.9 C196.9,41.4 198.4,42 199.9,42.6 C218,50.3 230.9,63.5 240.3,80.5 C247.3,93.1 251.9,106.7 255.9,120.5 C259.4,132.6 262.4,145 266.5,156.9 C276.8,187.3 291.3,215.6 309.8,241.8 C310.5,242.8 311.2,244 312.2,244.8 C314.3,246.8 314.9,249.1 314.7,252 C314.5,256.1 314.6,260.3 314.6,264.5 C314.6,264.7 314.6,264.8 314.5,265 Z M146.5,55.1 C145.9,55.3 145.4,55.4 144.8,55.6 C141.4,56.5 138.1,57.3 134.7,58.2 C126.6,60.2 119,63.2 112.3,68.4 C104.3,74.6 98.6,82.6 94.2,91.6 C89,102 85.6,112.9 82.5,124.1 C79.3,135.6 76.6,147.3 73,158.8 C63.7,188.6 50.1,216.3 33.7,242.8 C33.4,243.3 33.1,243.8 32.7,244.5 L282.5,244.5 L282.5,244.1 C282.3,243.7 282,243.3 281.8,242.9 C265.4,216.2 251.6,188.3 242.2,158.4 C238.5,146.6 235.6,134.5 232.2,122.6 C228.9,110.9 225.1,99.4 219.3,88.6 C214.8,80.3 209.2,73 201.4,67.4 C194.6,62.5 186.9,59.7 178.7,58 C175.5,57.3 172.3,56.5 169.1,55.8 C169.4,54.8 169.8,53.9 170,53 C171.2,48 172.9,43 173.5,37.9 C174.4,29.6 167.6,22.3 159.1,21.7 C150.9,21.1 143.4,27.6 142.7,35.7 C142.4,39.2 143.3,42.6 144.1,46 C144.6,48.9 145.5,51.9 146.5,55.1 Z" id="Shape" class="shape"></path>
        <path d="M122.2,287.7 L192.7,287.7 C191.8,302 178.8,319 157.6,319.1 C136.5,319.2 123.2,302.3 122.2,287.7 Z" id="Shape" class="shape"></path>
    </g>
</svg>