<svg width="414px" height="303px" viewBox="3317 291 414 303" version="1.1" xmlns="http://www.w3.org/2000/svg" xmlns:xlink="http://www.w3.org/1999/xlink">
    <!-- Generator: Sketch 41.2 (35397) - http://www.bohemiancoding.com/sketch -->
    <desc>Created with Sketch.</desc>
    <defs></defs>
    <path d="M3318,428 L3318,304.8 C3318,301.3 3318.6,298.1 3321.2,295.5 C3323.4,293.3 3326.1,292 3329.2,292 C3336.2,292 3343.2,292 3350.1,292.1 C3356.3,292.2 3362.5,292.5 3368.7,292.8 C3372.9,293 3377.1,293.2 3381.3,293.6 C3387.3,294 3393.3,294.5 3399.2,295.1 C3404,295.5 3408.9,296.1 3413.7,296.6 C3417.7,297 3421.6,297.5 3425.6,298.1 C3430.8,298.8 3435.9,299.6 3441.1,300.4 C3445.4,301.1 3449.7,301.8 3453.9,302.6 C3458.3,303.5 3462.7,304.5 3467.1,305.4 C3471.1,306.2 3475.1,306.9 3479.1,307.8 C3482.6,308.6 3486.1,309.6 3489.6,310.5 C3492.8,311.3 3496,312.1 3499.2,313 C3502.2,313.8 3505.1,314.6 3508,315.6 C3511.5,316.7 3514.9,317.9 3518.4,319 C3519.1,319.2 3519.8,319.4 3520.5,319.8 C3524.3,322.1 3527.6,319.8 3531,318.7 C3534.6,317.6 3538.1,316.4 3541.7,315.3 C3544.7,314.4 3547.8,313.4 3550.9,312.6 C3553.1,312 3555.4,311.4 3557.7,310.8 C3561.4,309.9 3565.1,308.9 3568.8,308 C3571.5,307.4 3574.2,306.9 3577,306.3 C3580.1,305.6 3583.1,304.9 3586.2,304.3 C3587.7,304 3589.2,303.6 3590.8,303.4 C3594.3,302.8 3597.9,302.3 3601.5,301.7 C3606.9,300.8 3612.2,299.8 3617.6,298.9 C3620.2,298.5 3622.8,298.3 3625.4,298 C3630.7,297.3 3636,296.6 3641.3,295.9 C3643.9,295.6 3646.5,295.3 3649.1,295.1 C3653.4,294.8 3657.7,294.5 3662,294.2 C3667,293.9 3672,293.6 3677,293.3 C3681.1,293.1 3685.2,292.8 3689.4,292.6 C3699.3,292.3 3709.2,292.1 3719.1,291.9 C3725.4,291.7 3730.9,297.6 3730.9,303.7 C3730.8,386.4 3730.8,469.2 3730.9,551.9 C3730.9,558 3725.2,563.8 3719.1,563.6 C3713.2,563.4 3707.3,563.5 3701.4,563.7 C3694.4,563.9 3687.4,564.2 3680.3,564.5 C3676.4,564.7 3672.4,564.9 3668.5,565.2 C3662.5,565.7 3656.4,566.2 3650.4,566.7 C3645.9,567.1 3641.5,567.6 3637,568.2 C3631.1,568.9 3625.3,569.7 3619.4,570.5 C3614.8,571.2 3610.2,571.9 3605.6,572.7 C3600.9,573.6 3596.3,574.6 3591.6,575.5 C3588.6,576.1 3585.6,576.5 3582.7,577.2 C3578.9,578.1 3575,579.1 3571.2,580 C3567.7,580.8 3564.2,581.6 3560.8,582.5 C3557.8,583.3 3554.9,584.1 3551.9,585 C3549,585.9 3546,586.8 3543.2,587.8 C3538.6,589.4 3533.9,590.9 3529.4,592.7 C3526,594.1 3522.8,594.1 3519.4,592.7 C3515.6,591.1 3511.6,589.9 3507.7,588.6 C3504.1,587.4 3500.4,586.2 3496.7,585.1 C3493.6,584.2 3490.4,583.4 3487.2,582.6 C3483.7,581.7 3480.2,580.7 3476.6,579.9 C3474.1,579.3 3471.6,578.7 3469,578.2 C3465.8,577.5 3462.6,576.8 3459.4,576.1 C3457.9,575.8 3456.5,575.5 3455,575.2 C3450,574.4 3445.1,573.6 3440.1,572.8 C3435.2,572 3430.3,571.2 3425.4,570.5 C3419.4,569.7 3413.3,568.9 3407.2,568.2 C3402.2,567.6 3397.3,567.1 3392.3,566.7 C3385.1,566.1 3378,565.6 3370.8,565.2 C3365.1,564.9 3359.4,564.6 3353.7,564.4 C3345.4,564.1 3337.1,563.9 3328.9,563.8 C3323.6,563.7 3317.7,558.8 3317.8,553.2 L3317.8,550 C3318,509.3 3318,468.7 3318,428 Z M3512.7,342 C3510.7,341.4 3508.8,340.7 3506.8,340.1 C3503.1,338.9 3499.5,337.7 3495.8,336.6 C3492.6,335.7 3489.4,335 3486.1,334.1 C3482.6,333.2 3479.1,332.1 3475.6,331.3 C3471.7,330.4 3467.7,329.7 3463.8,328.9 C3459.5,328 3455.1,326.9 3450.8,326.1 C3446.6,325.3 3442.4,324.5 3438.2,323.9 C3433.1,323.1 3428,322.3 3422.9,321.6 C3419.1,321.1 3415.3,320.6 3411.4,320.1 C3406.6,319.5 3401.9,319 3397.1,318.6 C3391.2,318.1 3385.3,317.6 3379.3,317.1 C3375.1,316.8 3370.8,316.5 3366.5,316.3 C3358.9,316 3351.3,315.8 3343.7,315.5 C3341.7,315.4 3341.3,316.1 3341.3,317.9 L3341.3,538.2 L3341.3,540.1 C3346.3,540.4 3351.1,540.7 3355.8,540.9 C3362,541.2 3368.2,541.4 3374.4,541.7 C3377.8,541.9 3381.3,542.1 3384.7,542.4 C3390.9,542.9 3397,543.4 3403.2,544 C3407.5,544.4 3411.9,544.9 3416.2,545.5 C3422.1,546.2 3427.9,547 3433.8,547.8 C3437.9,548.3 3441.9,548.9 3446,549.5 C3447.5,549.7 3449.1,550 3450.6,550.3 C3454.2,551 3457.9,551.7 3461.5,552.4 C3464.4,553 3467.2,553.5 3470.1,554.1 C3473.1,554.7 3476.1,555.5 3479.1,556.2 C3481.5,556.8 3483.9,557.3 3486.3,557.9 C3489.9,558.8 3493.4,559.8 3497,560.8 C3500,561.6 3503,562.6 3506,563.5 C3508.2,564.1 3510.3,564.8 3512.6,565.5 C3512.7,490.8 3512.7,416.5 3512.7,342 Z M3707.4,315.3 C3703.6,315.6 3700.2,315.9 3696.7,316 C3690.8,316.3 3684.9,316.5 3679,316.8 C3674.2,317 3669.5,317.3 3664.7,317.6 C3662.3,317.8 3660,318 3657.6,318.3 C3652.1,318.8 3646.7,319.3 3641.2,319.9 C3637.3,320.3 3633.4,320.8 3629.5,321.3 C3624.1,322 3618.7,322.8 3613.3,323.6 C3609.5,324.1 3605.7,324.7 3601.9,325.3 C3600.3,325.5 3598.7,325.9 3597.1,326.2 C3593.8,326.9 3590.6,327.6 3587.3,328.2 C3584.5,328.8 3581.6,329.3 3578.8,329.9 C3576.1,330.5 3573.4,331.3 3570.7,331.9 C3567.3,332.7 3563.8,333.4 3560.4,334.4 C3556.4,335.5 3552.5,336.7 3548.6,337.9 C3544.4,339.2 3540.2,340.5 3536.1,341.7 L3536.1,565 C3536.6,565 3536.9,565 3537.3,564.9 C3541.1,563.7 3544.9,562.4 3548.7,561.3 C3551.9,560.4 3555.1,559.7 3558.4,558.9 C3562,558 3565.5,556.9 3569.1,556.1 C3573.1,555.2 3577.1,554.5 3581.1,553.6 C3585.5,552.7 3589.9,551.6 3594.3,550.8 C3598.6,550 3602.8,549.2 3607.1,548.6 C3612.3,547.8 3617.4,547 3622.6,546.3 C3626.5,545.8 3630.4,545.3 3634.3,544.8 C3639,544.3 3643.7,543.7 3648.4,543.3 C3654.4,542.7 3660.3,542.2 3666.3,541.8 C3672.5,541.4 3678.7,541.2 3684.9,540.9 C3692.2,540.6 3699.6,540.4 3706.9,540.1 C3707,540.1 3707.1,540 3707.2,539.9 C3707.4,465.3 3707.4,390.5 3707.4,315.3 Z" id="Shape" stroke="none" class="shape" fill-rule="evenodd"></path>
</svg>