<?xml version="1.0" encoding="UTF-8"?>
<svg width="388px" height="318px" viewBox="0 0 388 318" version="1.1" xmlns="http://www.w3.org/2000/svg" xmlns:xlink="http://www.w3.org/1999/xlink">
    <!-- Generator: Sketch 40.3 (33839) - http://www.bohemiancoding.com/sketch -->
    <title>Group</title>
    <desc>Created with Sketch.</desc>
    <defs></defs>
    <g id="Page-1" stroke="none" stroke-width="1" fill-rule="evenodd">
        <g id="ICON_VECTOR" transform="translate(-972.000000, -1356.000000)" fill="#000000">
            <g id="Group" transform="translate(972.000000, 1356.000000)">
                <path d="M274.8,210.5 C245.5,210.8 221.8,234.8 221.8,264.3 C221.8,294.1 245.8,318.1 275.5,318 C305.3,317.9 328.9,294 328.8,264 C328.6,234.2 304.5,210.3 274.8,210.5 L274.8,210.5 Z M275.9,287.4 C263.6,287.8 252.8,277.5 252.4,265 C252,252.2 262.4,241.4 275.2,241.3 C287.7,241.2 298.2,251.4 298.4,264 C298.6,276.3 288.3,287 275.9,287.4 L275.9,287.4 Z M309,288.5 L309,288.5 L309,288.3 L309,288.5 L309,288.5 Z" id="Shape"></path>
                <path d="M239.6,182.3 L239.6,159.3 L386.7,159.3 L387.7,159.3 L387.7,150.9 C387.7,149.7 387.8,148.5 387.6,147.4 C387,144.9 386.2,142.5 385.5,140 C385.1,138.7 337.7,16.3 337.1,14.1 C336.1,10.8 334.7,7.9 332.5,5.4 C330.8,3.5 328.9,1.7 326.2,1.6 C318.3,1.2 310.3,0.7 302.4,0.7 C253,0.6 1.3,0.3 0.6,0.3 L0.6,46.9 L2.9,46.9 L8.1,46.9 L58.8,46.9 C63.7,46.9 67.7,50.9 67.7,55.8 L67.7,123.7 C67.7,128.6 63.7,132.6 58.8,132.6 L1.3,132.6 C0.5,132.8 0.5,133.3 0.5,134.9 L0.5,156.5 C0.5,157 0.6,157.4 0.6,157.9 C1.1,157.9 1.5,158 1.8,158 C31.9,158.5 61.9,157.7 92,158.7 C122.3,159.7 152.6,159 182.9,159 L185,159 L185,182.3 L6.5,182.3 L6.5,182.3 L0.5,182.3 L0.5,184.5 L0.5,184.5 L0.5,278.4 L209.5,278.4 C208.1,273 207.4,267.4 207.4,261.6 C207.4,224.3 237.6,194.1 274.9,194.1 C308.8,194.1 336.9,219.1 341.7,251.7 C341.9,253.1 342.1,254.5 342.2,255.9 L342.2,255.9 C342.4,257.8 342.4,259.7 342.4,261.7 C342.4,266.4 341.9,270.9 341,275.3 C340.8,276.8 340.7,278 340.6,278.6 L343.3,278.6 C350.6,278.6 357.8,278.7 365.1,278.6 C367.7,278.6 370.3,279 372.9,277.8 C374.7,277 376.7,276.5 378.4,275.3 C379.8,274.2 381.3,273 382.3,271.6 C383.8,269.5 385.2,267.3 386.3,264.9 C387.1,263.3 387.6,261.4 387.6,259.6 C387.8,254.1 387.7,248.7 387.7,243.2 L387.7,182.2 L386.6,182.2 C337.6,182.3 288.7,182.3 239.6,182.3 L239.6,182.3 Z M246.3,61.1 C246.3,56.9 248.5,53.7 252,51.2 C255.4,48.8 259.2,48.3 263.2,48.3 C280,48.3 296.9,48.2 313.7,48.4 C318.3,48.4 322.2,50.2 324.8,54.4 C326.2,56.7 349,114.3 350.1,117.1 C351.2,119.9 349.9,124.8 347.6,126.9 C345,129.2 342.1,130.1 338.7,130.1 L298.7,130.1 L298.7,130.1 C285.1,130.1 271.4,130.2 257.8,130 C254.3,130 251.6,128 249.3,125.2 C246.7,122 246.2,118.5 246.2,114.6 C246.2,96.8 246.1,78.9 246.3,61.1 L246.3,61.1 Z M182.9,123.8 C182.9,128.7 178.9,132.7 174,132.7 L88,132.7 C83.1,132.7 79.1,128.7 79.1,123.8 L79.1,55.9 C79.1,51 83.1,47 88,47 L174.1,47 C179,47 183,51 183,55.9 L183,123.8 L182.9,123.8 Z" id="Shape"></path>
            </g>
        </g>
    </g>
</svg>