<?xml version="1.0" encoding="UTF-8" standalone="no"?>
<!-- Created with Inkscape (http://www.inkscape.org/) -->

<svg
   xmlns:dc="http://purl.org/dc/elements/1.1/"
   xmlns:cc="http://creativecommons.org/ns#"
   xmlns:rdf="http://www.w3.org/1999/02/22-rdf-syntax-ns#"
   xmlns:svg="http://www.w3.org/2000/svg"
   xmlns="http://www.w3.org/2000/svg"
   xmlns:sodipodi="http://sodipodi.sourceforge.net/DTD/sodipodi-0.dtd"
   xmlns:inkscape="http://www.inkscape.org/namespaces/inkscape"
   width="112.60873mm"
   height="88.142319mm"
   viewBox="0 0 399.00733 312.3153"
   id="svg4641"
   version="1.1"
   inkscape:version="0.91 r13725"
   sodipodi:docname="car.svg">
  <defs
     id="defs4643" />
  <sodipodi:namedview
     id="base"
     pagecolor="#ffffff"
     bordercolor="#666666"
     borderopacity="1.0"
     inkscape:pageopacity="0.0"
     inkscape:pageshadow="2"
     inkscape:zoom="0.35"
     inkscape:cx="-188.35348"
     inkscape:cy="76.157655"
     inkscape:document-units="px"
     inkscape:current-layer="layer1"
     showgrid="false"
     fit-margin-top="0"
     fit-margin-left="0"
     fit-margin-right="0"
     fit-margin-bottom="0"
     inkscape:window-width="1535"
     inkscape:window-height="876"
     inkscape:window-x="1665"
     inkscape:window-y="24"
     inkscape:window-maximized="1" />
  <metadata
     id="metadata4646">
    <rdf:RDF>
      <cc:Work
         rdf:about="">
        <dc:format>image/svg+xml</dc:format>
        <dc:type
           rdf:resource="http://purl.org/dc/dcmitype/StillImage" />
        <dc:title></dc:title>
      </cc:Work>
    </rdf:RDF>
  </metadata>
  <g
     inkscape:label="Layer 1"
     inkscape:groupmode="layer"
     id="layer1"
     transform="translate(-563.35348,-296.20455)">
    <g
       transform="translate(-2312.7392,-653.23014)"
       id="g3798">
      <path
         inkscape:connector-curvature="0"
         d="m 3189.7,1214.5 c -38.2,3.9 -76.2,4.5 -114.1,4.5 -37.8,0 -75.6,-0.6 -113.8,-4.5 0,3.9 0,7.6 0,11.2 0,7.2 0.1,14.4 0,21.6 -0.1,8 -6,14.2 -13.8,14.3 -14.6,0.2 -29.1,0.2 -43.7,0 -8,-0.1 -13.7,-6.5 -13.8,-15.1 -0.1,-15.4 -0.1,-30.9 0,-46.3 0,-2.7 -0.8,-4.3 -3.1,-5.8 -7.6,-5 -11.5,-11.9 -11.3,-21.4 0.4,-16.2 0.1,-32.4 0.1,-48.6 0,-22 4.4,-32.8 20,-48.8 -0.9,-0.5 -1.7,-0.9 -2.6,-1.3 -12.7,-5.6 -19.6,-18.5 -16.9,-31.9 2.5,-13 13.9,-22.5 27.6,-22.9 5.3,-0.1 10.6,-0.2 15.9,0 2.6,0.1 3.8,-0.7 4.6,-3.2 2.8,-8.9 5.7,-17.8 8.9,-26.6 7.7,-21.3 22.8,-34.4 44.7,-39.7 1.6,-0.4 3.2,-0.5 4.9,-0.5 61.5,0 123,-0.2 184.6,0.1 12.9,0.1 23.7,6.5 33.2,14.9 8.5,7.5 13.8,17 17.3,27.7 2.7,8.2 5.5,16.3 8.1,24.5 0.7,2.2 1.7,2.9 4,2.9 6.3,-0.1 12.7,-0.4 19,0.3 13.3,1.4 23.4,11.4 25.1,23.7 1.9,13.6 -4.8,25.4 -17.4,30.9 -0.7,0.3 -1.3,0.6 -2.3,1.1 0.7,0.7 1.1,1.3 1.6,1.7 12.1,11.3 18.3,25.3 18.5,41.8 0.1,18.7 0,37.5 0.1,56.2 0,8.5 -4.3,14.4 -10.9,18.8 -2.7,1.8 -3.4,3.7 -3.4,6.8 0.2,14.8 0.1,29.6 0.1,44.4 0,10.7 -5.7,16.3 -16.4,16.3 -13.2,0 -26.3,0 -39.5,0 -9.5,0 -15.3,-5.9 -15.3,-15.4 0,-9.2 0,-18.5 0,-27.7 0,-1.2 0,-2.4 0,-4 z m -114,-138 c -47,0 -93.9,0 -140.9,0 -25.8,0 -44.3,18.6 -44.3,44.3 0,16.8 0.3,33.7 -0.2,50.5 -0.2,6.7 2.4,10.9 8,13.1 8.8,3.5 17.6,7.3 26.7,9.5 29.8,7.3 60.3,9 90.7,9.9 49.5,1.5 99,1.7 148.4,-1.4 22,-1.4 43.9,-3.3 65.2,-9.2 8.9,-2.5 17.5,-6.4 26,-10.2 3.9,-1.7 5.7,-5.1 5.6,-9.8 -0.2,-17.3 0,-34.7 -0.1,-52 0,-3.6 -0.3,-7.4 -1.1,-10.9 -4.5,-20.2 -21.5,-33.7 -42.5,-33.7 -47.1,-0.1 -94.3,-0.1 -141.5,-0.1 z m 150.8,-14.4 c -0.2,-1.1 -0.3,-1.9 -0.5,-2.6 -7.2,-21.6 -14.2,-43.2 -21.7,-64.7 -7,-20.2 -24.3,-32.3 -45.7,-32.3 -55.1,0 -110.1,0 -165.2,0 -22.2,0 -39.5,12.2 -46.6,33.3 -7.1,20.9 -14,42 -21,63 -0.3,1 -0.5,2.1 -0.8,3.4 100.6,-0.1 200.8,-0.1 301.5,-0.1 z m 19.9,185.2 c 0,-14.9 0,-29.3 0,-43.1 -13.5,2.7 -27,5.4 -40.4,8.3 -0.9,0.2 -2,2 -2,3.1 -0.2,8.2 -0.1,16.4 -0.1,24.6 0,2.3 0,4.7 0,7.1 14.6,0 28.4,0 42.5,0 z m -298.9,-0.1 c 0,-11.1 0.1,-21.7 -0.1,-32.3 0,-0.9 -1.3,-2.3 -2.2,-2.5 -5.2,-1.1 -10.5,-1.7 -15.6,-2.9 -8.2,-1.8 -16.3,-4 -24.5,-6 0,14.5 0,28.9 0,43.6 14.1,0.1 28,0.1 42.4,0.1 z M 2919,1033.8 c -5.1,0 -9.5,-0.1 -14,0 -8.7,0.1 -15.4,7.3 -14.5,15.5 1,8.5 8.9,14.5 17.4,12.9 0.8,-0.1 1.8,-1 2.1,-1.7 3.1,-8.7 6,-17.4 9,-26.7 z m 313.4,0.1 c 3.1,9.3 6,18 9,26.7 0.2,0.7 1.1,1.4 1.8,1.6 7.8,2 16.2,-3.8 17.6,-12.2 1.3,-7.8 -4.8,-15.6 -12.9,-16.1 -5,-0.3 -9.9,0 -15.5,0 z"
         id="path3800" />
      <path
         inkscape:connector-curvature="0"
         d="m 3075.8,1133.5 c -25.2,0 -50.3,0 -75.5,0 -1.3,0 -2.5,0.1 -3.8,-0.1 -3.5,-0.4 -6,-3.1 -6.2,-6.6 -0.2,-3.7 2.1,-6.7 5.8,-7.3 1.5,-0.2 3,-0.2 4.5,-0.2 50,0 99.9,0 149.9,0 1.4,0 2.8,-0.1 4.2,0.1 3.9,0.5 6.5,3.4 6.4,7.2 -0.1,3.8 -2.8,6.6 -6.7,6.8 -1.1,0.1 -2.3,0 -3.4,0 -25.1,0.1 -50.1,0.1 -75.2,0.1 z"
         id="path3802" />
      <path
         inkscape:connector-curvature="0"
         d="m 3076.1,1147.8 c 20.9,0 41.8,0 62.6,0 6,0 10,4.7 7.5,9.5 -1,2 -3.7,3.3 -5.9,4.6 -1,0.6 -2.5,0.2 -3.7,0.2 -40.6,0 -81.2,0 -121.8,0 -0.9,0 -1.8,0 -2.7,0 -4.5,-0.2 -7.7,-3.3 -7.6,-7.3 0.1,-4.1 3.2,-7 7.9,-7 21.2,0 42.5,0 63.7,0 z"
         id="path3804" />
      <path
         inkscape:connector-curvature="0"
         d="m 2904.8,1133.3 c 0.1,-15.7 12.9,-28.2 28.7,-28.2 15.8,0.1 28.3,12.9 28.2,28.7 -0.1,15.6 -13.1,28.4 -28.7,28.3 -15.6,-0.2 -28.3,-13.1 -28.2,-28.8 z m 42.7,0.2 c 0,-7.9 -6.3,-14.2 -14.2,-14.2 -7.9,0 -14.1,6.3 -14.1,14.2 0,7.9 6.3,14.2 14.2,14.2 7.8,0 14.1,-6.3 14.1,-14.2 z"
         id="path3806" />
      <path
         inkscape:connector-curvature="0"
         d="m 3218.1,1105.1 c 15.8,0 28.5,12.6 28.5,28.4 0,15.7 -12.9,28.5 -28.5,28.5 -15.6,0 -28.5,-12.9 -28.5,-28.5 0.1,-15.8 12.7,-28.4 28.5,-28.4 z m 14.2,28.6 c 0.1,-8 -6.1,-14.3 -14,-14.3 -7.9,-0.1 -14.2,6.1 -14.3,14.1 -0.1,8 6.1,14.3 14,14.4 7.9,-0.1 14.3,-6.3 14.3,-14.2 z"
         id="path3808" />
    </g>
  </g>
</svg>
