<?xml version="1.0" encoding="UTF-8" standalone="no"?>
<!-- Created with Inkscape (http://www.inkscape.org/) -->

<svg
   xmlns:dc="http://purl.org/dc/elements/1.1/"
   xmlns:cc="http://creativecommons.org/ns#"
   xmlns:rdf="http://www.w3.org/1999/02/22-rdf-syntax-ns#"
   xmlns:svg="http://www.w3.org/2000/svg"
   xmlns="http://www.w3.org/2000/svg"
   xmlns:sodipodi="http://sodipodi.sourceforge.net/DTD/sodipodi-0.dtd"
   xmlns:inkscape="http://www.inkscape.org/namespaces/inkscape"
   width="104.28139mm"
   height="104.14mm"
   viewBox="0 0 369.50101 369"
   id="svg4584"
   version="1.1"
   inkscape:version="0.91 r13725"
   sodipodi:docname="card.svg">
  <defs
     id="defs4586" />
  <sodipodi:namedview
     id="base"
     pagecolor="#ffffff"
     bordercolor="#666666"
     borderopacity="1.0"
     inkscape:pageopacity="0.0"
     inkscape:pageshadow="2"
     inkscape:zoom="0.35"
     inkscape:cx="-334.53522"
     inkscape:cy="238.78572"
     inkscape:document-units="px"
     inkscape:current-layer="layer1"
     showgrid="false"
     fit-margin-top="0"
     fit-margin-left="0"
     fit-margin-right="0"
     fit-margin-bottom="0"
     inkscape:window-width="1535"
     inkscape:window-height="876"
     inkscape:window-x="1665"
     inkscape:window-y="24"
     inkscape:window-maximized="1" />
  <metadata
     id="metadata4589">
    <rdf:RDF>
      <cc:Work
         rdf:about="">
        <dc:format>image/svg+xml</dc:format>
        <dc:type
           rdf:resource="http://purl.org/dc/dcmitype/StillImage" />
        <dc:title></dc:title>
      </cc:Work>
    </rdf:RDF>
  </metadata>
  <g
     inkscape:label="Layer 1"
     inkscape:groupmode="layer"
     id="layer1"
     transform="translate(-709.53522,-402.14792)">
    <g
       transform="translate(-1666.3643,-489.35208)"
       id="g3786">
      <path
         inkscape:connector-curvature="0"
         d="m 2522.3,987.4 c 0,-32.3 0,-64 0,-95.9 25.3,0 50.4,0 75.9,0 0,31.8 0,63.6 0,95.9 1.5,0 2.7,0 3.9,0 36.7,0 73.4,0.3 110.1,-0.1 19,-0.2 33.3,15.7 33.2,33.2 -0.4,69.1 -0.2,138.2 -0.2,207.3 0,18.6 -14.1,32.7 -32.6,32.7 -101.3,0 -202.6,0 -303.9,0 -18.6,0 -32.6,-14.1 -32.6,-32.7 0,-69 0.3,-138 -0.2,-207 -0.1,-18 15.3,-33.8 33.7,-33.5 36.2,0.5 72.4,0.1 108.6,0.1 1.3,0 2.5,0 4.1,0 z m -0.2,15.6 c -1,-0.1 -1.5,-0.1 -2.1,-0.1 -37.6,0 -75.3,0 -112.9,0 -10,0 -15.6,5.8 -15.6,15.8 0,70.2 0,140.5 0,210.7 0,10 5.6,15.7 15.6,15.8 102.4,0 204.8,0 307.3,0 9.8,0 15.5,-5.8 15.5,-15.6 0,-70.4 0,-140.9 0,-211.3 0,-9.9 -5.3,-15.3 -15.2,-15.4 -37.6,-0.1 -75.3,0 -112.9,-0.1 -2,0 -2.7,0.6 -2.7,2.6 0.1,4.6 -0.1,9.2 0.1,13.8 0.1,2.5 -0.8,3.1 -3.2,3.1 -23.7,-0.1 -47.4,-0.1 -71,0 -2.3,0 -3.1,-0.6 -3,-2.9 0.2,-5.4 0.1,-10.8 0.1,-16.4 z m 15.8,-96.1 c 0,33.3 0,66.3 0,99.4 15.1,0 29.9,0 44.8,0 0,-33.2 0,-66.3 0,-99.4 -14.9,0 -29.7,0 -44.8,0 z"
         id="path3788" />
      <path
         inkscape:connector-curvature="0"
         d="m 2573.8,1218.8 c -55.4,0 -110.7,0 -166.3,0 -0.4,-30 10.5,-54.8 34.5,-72.8 27.2,-20.4 56.7,-23 86.9,-6.9 29.6,15.8 46.2,47 44.9,79.7 z m -149.9,-15.5 c 44.8,0 89.2,0 133.6,0 -4,-32 -30.8,-60.7 -70.2,-58.8 -18.4,0.9 -34.1,8.1 -46.6,21.9 -9.4,10.4 -14.8,22.7 -16.8,36.9 z"
         id="path3790" />
      <path
         inkscape:connector-curvature="0"
         d="m 2490.9,1044.5 c 19.9,-0.1 38.2,18.2 38.3,38.2 0.1,20.1 -18.3,38.7 -38.5,38.7 -20,0 -38.3,-18.3 -38.3,-38.1 -0.1,-20.8 17.9,-38.8 38.5,-38.8 z m -23.2,38.4 c 0,13.8 9.2,23 22.9,23.1 13.7,0.1 23.2,-9.4 23.2,-23.2 0,-13.7 -9.3,-22.9 -23,-23 -13.9,0 -23.1,9.1 -23.1,23.1 z"
         id="path3792" />
      <path
         inkscape:connector-curvature="0"
         d="m 2604.7,1078.8 c 0,-5 0,-9.9 0,-15 28.1,0 56.1,0 84.3,0 0,4.9 0,9.9 0,15 -28.2,0 -56.2,0 -84.3,0 z"
         id="path3794" />
      <path
         inkscape:connector-curvature="0"
         d="m 2604.7,1106.8 c 28.1,0 56.1,0 84.2,0 0,5 0,9.9 0,15 -28,0 -56,0 -84.2,0 0,-4.8 0,-9.8 0,-15 z"
         id="path3796" />
    </g>
  </g>
</svg>
