<?xml version="1.0" encoding="utf-8"?>
<!-- Generator: Adobe Illustrator 21.0.0, SVG Export Plug-In . SVG Version: 6.00 Build 0)  -->
<svg version="1.1" id="Calque_1" xmlns="http://www.w3.org/2000/svg" xmlns:xlink="http://www.w3.org/1999/xlink" x="0px" y="0px"
	 viewBox="0 0 350.7 317.3" style="enable-background:new 0 0 350.7 317.3;" xml:space="preserve">
<g>
	<path d="M348.2,140.3c0,41.6,0,83.2,0,124.8c0,8-0.6,8.8-8.3,11.5c-34.6,12-69.1,23.9-103.7,36c-4,1.4-7.6,1.5-11.6,0.1
		c-33.8-11.8-67.7-23.6-101.6-35.1c-2.3-0.8-5.3-0.7-7.6,0.1c-33.9,11.6-67.8,23.4-101.6,35.1c-8.5,2.9-12.2,0.3-12.2-8.5
		c0-83.6,0-167.3,0-250.9c0-7.4,0.7-8.3,7.5-10.7c35-12.1,70-24.3,104.9-36.5c3.7-1.3,7-1.2,10.7,0.1
		c34.1,11.9,68.3,23.8,102.5,35.5c2,0.7,4.7,0.5,6.7-0.2c33.8-11.6,67.6-23.1,101.2-35.1c9.8-3.5,13.2,0.8,13.2,9.6
		C348,57.4,348.2,98.9,348.2,140.3z M15.4,297.3c1.4-0.4,2.6-0.6,3.7-1c29.7-10.3,59.3-20.7,89.1-30.8c3.7-1.3,4.5-3.1,4.5-6.7
		c-0.1-77.4-0.1-154.8-0.1-232.2c0-1.6,0-3.2,0-5.2c-1.9,0.6-3.3,1-4.6,1.5C78.6,33,49.3,43.2,20,53.1c-3.4,1.2-4.8,2.5-4.8,6.4
		c0.1,77.7,0.1,155.4,0.1,233.1C15.4,294.1,15.4,295.6,15.4,297.3z M237.3,110.1c0.8,0.2,1.1,0.3,1.4,0.3
		c30.6,4.4,52.5,20.5,62.2,50c9.8,29.7,1.7,55.8-20.6,77.5c-13.6,13.3-27.1,26.6-40.6,40c-1.1,1.1-2.2,2.6-2.3,4
		c-0.3,5-0.1,10-0.1,15.5c1.8-0.6,3.2-1,4.6-1.5c29.2-10.2,58.4-20.4,87.7-30.4c3.7-1.3,4.8-3,4.8-6.9
		c-0.1-77.4-0.1-154.7-0.1-232.1c0-1.6,0-3.2,0-5.3c-9.7,3.4-18.9,6.5-28.1,9.7c-21.8,7.5-43.7,15-65.5,22.6
		c-1.3,0.5-3.2,2.1-3.2,3.2C237.3,74.5,237.3,92.2,237.3,110.1z M223.4,297.5c0-4-0.3-7.2,0.1-10.4c0.7-5.1-1.4-8.5-5-11.9
		c-14.2-13.6-28.2-27.3-41.9-41.2c-30.8-31.3-26.5-83.3,8.8-109.3c11.2-8.3,23.9-12.8,37.6-14.5c0.2-0.7,0.4-1.1,0.4-1.5
		c0-17.1,0.1-34.2-0.1-51.2c0-1.3-1.9-3.2-3.3-3.7c-29.9-10.5-59.9-20.8-89.9-31.2c-1.1-0.4-2.2-0.5-3.6-0.8c-0.1,1.7-0.2,3-0.2,4.3
		c0,77.8,0,155.7-0.1,233.5c0,3.4,1.1,4.9,4.3,6c25.1,8.5,50.1,17.3,75.2,25.9C211.4,293.4,217.1,295.4,223.4,297.5z M231.3,268.9
		c15.2-15.8,30.2-30.8,44.6-46.4c12.1-13.2,17.1-29.2,14.5-46.9c-5.1-34.8-36.6-57.1-71.5-50.9c-44.4,7.8-64.8,61.4-35.6,95.7
		C197.5,237.1,214.2,251.8,231.3,268.9z"/>
	<path d="M263.2,183.4c0,17.7-14.6,32.1-32.4,32.2c-18.1,0-33.3-14.7-33.4-32.4c-0.1-17.7,15-32.6,32.7-32.5
		C248.6,150.9,263.2,165.4,263.2,183.4z M211.3,183c0,10.4,8.4,18.9,18.9,19c10.3,0.1,19.2-8.5,19.3-18.7
		c0.1-10.2-8.5-18.7-19.1-18.8C219.5,164.5,211.3,172.4,211.3,183z"/>
</g>
</svg>
