<svg width="191px" height="239px" viewBox="2179 1434 191 239" version="1.1" xmlns="http://www.w3.org/2000/svg" xmlns:xlink="http://www.w3.org/1999/xlink">
    <!-- Generator: Sketch 41.2 (35397) - http://www.bohemiancoding.com/sketch -->
    <desc>Created with Sketch.</desc>
    <defs></defs>
    <path d="M2360.8,1574.2 L2360.7,1574.2 C2360.7,1574.2 2359.7,1573.9 2358.1,1573.9 C2357.5,1573.8 2357.1,1573.7 2356.4,1573.7 L2297.7,1573.7 C2297.7,1573.7 2297,1573.7 2296.1,1573.9 L2294.3,1573.9 L2245.3,1578.2 L2236.7,1554.6 L2312.7,1554.6 C2312.7,1554.6 2324.1,1554.6 2324.1,1543.2 L2324.1,1543.1 C2324.1,1543.1 2324.1,1531.7 2312.7,1531.7 L2228.3,1531.7 L2213.8,1491.8 C2213.8,1491.8 2213.8,1491.7 2213.7,1491.7 L2213.7,1451.1 C2213.7,1451.1 2213.7,1434 2196.6,1434 C2196.6,1434 2179.5,1434 2179.5,1451.1 L2179.5,1493.8 C2179.5,1493.8 2179.5,1496.7 2180.7,1500.1 C2180.9,1501.2 2181.2,1502.3 2181.6,1503.5 L2221.3,1612.7 C2221.3,1612.7 2222.3,1615.4 2224.6,1618.2 C2227,1621.7 2231.2,1624.8 2238.4,1624.8 L2274.8,1624.8 L2274.8,1654.1 L2228,1654.1 C2228,1654.1 2219.4,1654.1 2219.4,1662.7 L2219.4,1663.7 C2219.4,1663.7 2219.4,1672.3 2228,1672.3 L2344.3,1672.3 C2344.3,1672.3 2352.9,1672.3 2352.9,1663.7 L2352.9,1662.7 C2352.9,1662.7 2352.9,1654.1 2344.3,1654.1 L2297.4,1654.1 L2297.4,1624.8 L2343.5,1624.8 L2343.7,1624.8 L2349.8,1624.8 C2353.2,1625 2359.2,1624.1 2361.3,1616.4 L2368.8,1588.4 C2368.9,1588.2 2371.8,1577.2 2360.8,1574.2" id="Shape" stroke="none" class="shape" fill-rule="evenodd"></path>
</svg>