<?xml version="1.0" encoding="UTF-8"?>
<svg width="280px" height="284px" viewBox="0 0 280 284" version="1.1" xmlns="http://www.w3.org/2000/svg" xmlns:xlink="http://www.w3.org/1999/xlink">
    <!-- Generator: Sketch 40.3 (33839) - http://www.bohemiancoding.com/sketch -->
    <title>Group</title>
    <desc>Created with Sketch.</desc>
    <defs></defs>
    <g id="Page-1" stroke="none" stroke-width="1" fill-rule="evenodd">
        <g id="ICON_VECTOR" transform="translate(-576.000000, -1853.000000)">
            <g id="Group" transform="translate(576.000000, 1852.000000)">
                <path d="M220.3,261.8 L22.3,261.8 L22.3,63.8 L120.4,63.8 C120.4,63.8 136.4,47.4 142.8,41 L135,41 L20.1,41 C19.2,41 18.4,41 17.6,41.1 L0.2,41.1 L0.2,54.5 L0.2,74.8 L0.2,250.8 L0.2,271.1 L0.2,284.5 L12.2,284.5 C12.7,284.6 13.2,284.6 13.6,284.6 L230,284.6 C230.5,284.6 231,284.6 231.4,284.5 L243.2,284.5 L243.2,266.7 C243.4,264.9 243.5,262.9 243.5,260.8 L243.5,159.7 L243.5,141.6 C234.3,150.8 229.4,156.1 220.2,165.3 L220.3,261.8 L220.3,261.8 Z" id="Shape" fill="#000000"></path>
                <g transform="translate(45.000000, 0.000000)" id="Shape">
                    <path d="M119.5,174.4 C105.5,179.2 46.7,191.9 46.7,191.9 C46.7,191.9 49.2,181.3 52.4,167.9 C54.5,159.2 56.9,149.2 59.1,140.4 C61.6,130.6 63.8,122.2 65.2,118 C65.5,117.1 77.4,104.4 94.2,86.9 L0.3,86.9 L0.3,240.4 L153.8,240.4 L153.8,139.8 C134.1,160.4 120.9,174 119.5,174.4 L119.5,174.4 Z" fill="#ff6363"></path>
                    <path d="M234.6,51.9 C234.1,47.8 234.1,43.4 232.9,39.4 C227.2,21.6 213.7,7.7 195.4,2.7 C191.8,1.8 186.8,0.8 183,1 C179.9,1.1 176.3,2.5 173.5,5.3 C150.5,28.7 117.6,62.5 94.2,87 L153.8,87 L153.8,139.9 C174.2,118.7 201.5,90.3 229.9,61.6 C232.7,58.8 233.8,55.5 234.6,51.9 L234.6,51.9 Z" fill="#000000"></path>
                    <path d="M94.2,87 C77.5,104.4 65.5,117.2 65.2,118.1 C63.8,122.2 61.6,130.7 59.1,140.5 C56.9,149.3 54.5,159.2 52.4,168 C49.2,181.3 46.7,192 46.7,192 C46.7,192 105.5,179.3 119.5,174.5 C120.9,174.1 134.1,160.5 153.8,140 L153.8,87 L94.2,87 L94.2,87 Z M109.7,163.5 C106.1,164.7 100,166.1 93.2,167.5 C83.7,169.5 72.7,171.5 65.1,173.4 C66.9,167.9 69.3,155.8 71.6,145.1 C73.1,138.4 74.5,132.2 75.8,128.6 C79.7,127.4 83.4,127.2 86.3,128.5 C97,132.5 104.4,140.1 108.8,150.5 C110.1,153.1 111.5,163.3 109.7,163.5 L109.7,163.5 Z" fill="#000000"></path>
                </g>
            </g>
        </g>
    </g>
</svg>