
<svg width="316px" height="316px" viewBox="2159 283 316 316" version="1.1" xmlns="http://www.w3.org/2000/svg" xmlns:xlink="http://www.w3.org/1999/xlink">
    <!-- Generator: Sketch 41.2 (35397) - http://www.bohemiancoding.com/sketch -->
    <desc>Created with Sketch.</desc>
    <defs></defs>
    <g id="Group" stroke="none" stroke-width="1" fill-rule="evenodd" transform="translate(2159.000000, 283.000000)">
        <path d="M159.4,315.8 C116.3,315.3 79.4,300.7 48.9,271.4 C19.7,243.2 3.5,208.3 1.2,167.7 C-1.3,124.3 12.1,85.9 41.1,53.4 C70,21.1 106.5,3.5 149.7,1.1 C193.1,-1.3 231.5,12.4 263.7,41.4 C295.5,70 313.1,106.3 315.5,149 C318.2,196.5 302.1,237.6 268.2,270.9 C238.1,300.5 201.1,315.1 159.4,315.8 Z M258.9,66.7 C238.8,45.1 214.9,30.9 186.2,25.1 C179.5,23.7 172.7,23 165.7,21.9 L165.7,35.3 L156.1,35.3 C155.3,35.3 155.2,34.8 155.2,34.2 L155.2,23.8 C155.2,23.3 155.1,22.8 155.1,22 C153.1,22.2 151.2,22.3 149.3,22.5 C146,22.8 142.6,23.1 139.3,23.6 C135.3,24.2 131.3,24.9 127.3,25.7 C124.2,26.3 121.2,27 118.2,27.9 C114.7,29 111.1,30.1 107.7,31.6 C102.1,34.1 96.6,36.6 91.2,39.6 C83.4,43.9 76.3,49.2 69.5,55 C64.2,59.5 59.5,64.6 54.8,69.6 C54.2,70.2 54.1,70.7 54.8,71.3 C58.6,74.9 62.4,78.6 66.1,82.3 C68.5,84.6 68.3,83.8 66.2,86.1 C66.2,86.2 66,86.1 65.8,86.2 C61.4,81.9 56.9,77.4 52.3,73 C42,85.6 34.1,99.5 29,114.9 C23.8,130.6 21.6,146.8 22.2,163.5 L34.7,163.5 L34.7,174 L23,174 C26.7,205.9 40.3,232.8 62.8,255.2 L68.8,249.2 C71,247 73.3,244.8 75.5,242.5 C76.4,241.6 76.7,242.6 77.1,242.9 C77.5,243.3 78.2,243.7 77.4,244.4 C76.5,245.3 75.7,246.3 74.8,247.3 C71.9,250.3 68.9,253.3 66,256.2 C65.3,257 65.3,257.7 66.1,258.3 C68.6,260.4 71,262.4 73.5,264.5 C79.7,269.6 86.3,274 93.4,277.9 C99,281 104.8,283.8 110.9,285.8 C115.8,287.4 120.6,289 125.6,290.4 C129.1,291.4 132.7,292 136.4,292.5 C140.1,293 143.8,293.3 147.5,293.7 C147.9,293.7 148.4,293.8 148.8,293.8 C151.5,294 154.2,294.1 157.2,294.3 L157.2,280.6 L167.7,280.6 L167.7,294.2 C168.4,294 168.8,293.9 169.3,293.8 C173.4,293.3 177.6,292.8 181.7,292.2 C185,291.7 188.4,290.9 191.7,290.1 C195.3,289.2 198.8,288.1 202.4,287 C208.1,285.2 213.5,282.8 218.8,280.2 C227.8,275.7 236.1,270.2 244,263.8 C245.2,262.8 245.2,262.8 244.1,261.7 C240.8,258.6 237.6,255.4 234.1,252.1 C235,251.3 235.6,250.7 236.3,250.1 C236.7,250.4 237,250.6 237.2,250.9 C240.3,253.9 243.4,256.9 246.5,260 C247.3,260.9 247.9,260.9 248.7,260.1 C251.3,257.5 254,254.9 256.6,252.3 C262.4,246.4 267.5,239.9 272.1,233 C276.8,225.9 280.8,218.5 284.1,210.7 C286.6,204.8 288.5,198.8 290.2,192.6 C291.2,188.9 291.7,185.2 292.4,181.5 C292.7,180 293.1,178.5 293.3,176.9 C293.6,175.1 293.7,173.3 293.9,171.3 L279.8,171.3 L279.8,160.8 L294.7,160.8 C294.4,155.2 294.2,149.8 293.9,144.4 C293.8,143 293.6,141.5 293.4,140.1 C293,137.4 292.5,134.7 291.9,132.1 C291.4,129.3 290.9,126.5 290.2,123.8 C289.2,120 288,116.3 286.7,112.6 C285,108.1 283.3,103.5 281.2,99.2 C276.1,88.7 269.7,79.1 262,70.3 C261,69.1 260.9,69.1 259.8,70.2 C256.3,73.8 252.7,77.4 249.2,81 C248.2,82 247.8,81.2 247.1,80.6 C246.3,79.9 246.5,79.5 247.1,78.9 C248.5,77.5 249.9,76.1 251.3,74.7 C253.7,72 256.2,69.4 258.9,66.7 Z" id="Shape" class="shape"></path>
        <path d="M134.6,180.3 C125.7,180.3 116.8,180.2 108,180.3 C93.8,180.4 79.7,180.6 65.5,180.8 C63.5,180.8 61.6,180.8 59.6,180.7 C55.7,180.4 51.4,177.6 50.2,173.4 C48.3,167.2 50.9,162.4 56.1,159.8 C57,159.4 58.1,159.2 59.1,159.2 C68.4,159.1 77.8,159.1 87.1,159.1 C108.2,159 129.3,158.8 150.5,158.6 C153.3,158.6 153.3,158.6 153.6,155.8 C153.6,155.3 153.7,154.8 153.7,154.4 C153.7,144.3 153.7,134.3 153.6,124.2 C153.5,112.2 153.4,100.2 153.1,88.1 C153,84.2 154.8,81.4 158,79.5 C164.1,75.8 170.1,77.9 173.6,83.9 C174.3,85 174.6,86.5 174.6,87.8 C174.6,91.4 174.3,95 174.3,98.7 C174.4,119.7 174.6,140.7 174.8,161.7 C174.8,164.3 175.2,166.9 175.1,169.5 C175,172.5 173.9,175.2 171.5,177.2 C169.8,178.6 167.9,179.7 165.7,179.8 C157.7,180 149.6,180.1 141.6,180.3 L134.6,180.3 L134.6,180.3 Z" id="Shape" class="shape"></path>
    </g>
</svg>