<svg width="161px" height="160px" viewBox="3364 2378 161 160" version="1.1" xmlns="http://www.w3.org/2000/svg" xmlns:xlink="http://www.w3.org/1999/xlink">
    <!-- Generator: Sketch 42 (36781) - http://www.bohemiancoding.com/sketch -->
    <desc>Created with Sketch.</desc>
    <defs></defs>
    <path d="M3456.5,2458.2 C3457.1,2458.7 3457.5,2459 3457.9,2459.5 C3479.1,2480.7 3500.3,2501.9 3521.6,2523.1 C3525.3,2526.8 3525.4,2532 3521.8,2535.5 C3518.7,2538.5 3513.9,2538.8 3510.5,2536.1 C3510,2535.7 3509.5,2535.1 3509,2534.6 L3445.8,2471.4 C3445.4,2471 3445.1,2470.6 3444.3,2469.7 C3444,2470.3 3443.8,2470.9 3443.4,2471.3 C3422.2,2492.6 3400.9,2513.8 3379.7,2535 C3377.3,2537.4 3374.6,2538.4 3371.2,2537.7 C3367.1,2536.9 3364.6,2532.7 3364.7,2529.6 C3364.8,2526.8 3365.7,2524.6 3367.6,2522.7 C3388.8,2501.6 3409.9,2480.4 3431.1,2459.3 C3431.5,2458.9 3432,2458.6 3432.5,2458.3 L3432.5,2457.7 C3432,2457.4 3431.5,2457.1 3431.1,2456.7 C3410,2435.6 3388.9,2414.4 3367.7,2393.3 C3365.8,2391.4 3364.6,2389.3 3364.7,2386.5 C3364.8,2382.9 3366.4,2380.4 3369.5,2378.9 C3372.7,2377.4 3375.8,2377.8 3378.6,2380.1 C3379.1,2380.5 3379.6,2381 3380,2381.5 C3401.1,2402.6 3422.2,2423.7 3443.3,2444.8 C3443.6,2445.1 3443.9,2445.5 3444.7,2446.4 C3445.1,2445.7 3445.3,2445.2 3445.6,2444.8 C3466.8,2423.6 3488,2402.4 3509.2,2381.1 C3511.6,2378.7 3514.3,2377.6 3517.6,2378.3 C3520.8,2379 3522.9,2381.1 3523.9,2384.2 C3524.8,2387.3 3524.2,2390.1 3521.9,2392.4 C3519,2395.4 3516,2398.3 3513.1,2401.3 C3494.6,2419.8 3476.1,2438.4 3457.6,2456.9 C3457.3,2457.4 3457,2457.7 3456.5,2458.2 Z" id="Shape" stroke="none" class="shape" fill-rule="nonzero"></path>
</svg>