<?xml version="1.0" encoding="utf-8"?>
<!-- Generator: Adobe Illustrator 21.0.0, SVG Export Plug-In . SVG Version: 6.00 Build 0)  -->
<svg version="1.1" id="Calque_1" xmlns="http://www.w3.org/2000/svg" xmlns:xlink="http://www.w3.org/1999/xlink" x="0px" y="0px"
	 viewBox="0 0 412 300" style="enable-background:new 0 0 412 300;" xml:space="preserve">
<style type="text/css">
	.st0{fill:none;}
</style>
<g>
	<path class="st0" d="M360.6,26.4c-4.3,0.2-8.8,0.5-14.2,0.8c-1.7,0.1-3.4,0.3-5,0.5c-0.7,0.1-1.3,0.1-2,0.2l-4.6,0.4
		c-3.9,0.4-7.8,0.7-11.8,1.2c-4.1,0.4-8.1,1-11.6,1.4c-4.3,0.6-8.5,1.2-12.8,1.8l-4.7,0.7c-3.4,0.5-6.8,1-10.2,1.5
		c-1.5,0.2-3,0.5-4.4,0.8l-0.2,0c-1.7,0.3-3.4,0.7-5.1,1.1c-1.6,0.3-3.1,0.7-4.7,1c-1,0.2-2.1,0.4-3.1,0.6c-1.8,0.3-3.6,0.7-5.4,1.1
		c-1.6,0.4-3.2,0.8-4.7,1.2c-1.1,0.3-2.2,0.6-3.3,0.8c-1.2,0.3-2.5,0.6-3.7,0.9c-2.1,0.5-4.3,1-6.5,1.6c-2.9,0.8-5.9,1.7-8.8,2.6
		c-1,0.3-2,0.6-2.9,0.9c-2.9,0.9-5.9,1.8-8.8,2.7l-2.2,0.7v219.4c0.9-0.3,1.7-0.6,2.6-0.8c2.4-0.8,4.9-1.6,7.4-2.3
		c2-0.6,4-1.1,6-1.5c1.2-0.3,2.5-0.6,3.7-0.9c1.3-0.3,2.7-0.7,4-1.1c2.2-0.6,4.5-1.2,6.8-1.8c2.5-0.6,5-1.1,7.5-1.5
		c1.5-0.3,3-0.6,4.6-0.9c1.7-0.4,3.5-0.7,5.2-1.1c2.6-0.6,5.4-1.2,8-1.7c3.8-0.7,7.9-1.5,12.9-2.3c4.5-0.7,9.3-1.4,15.5-2.3
		c3.9-0.5,7.8-1,11.7-1.5c4.2-0.5,9.2-1,14.2-1.5c6.4-0.6,12.1-1.1,18-1.5c6-0.4,12.1-0.6,18-0.9l0.7,0c4.7-0.2,9.5-0.4,14.2-0.5
		c2.1-0.1,4.2-0.1,6.2-0.2V25.1c-0.4,0-0.9,0.1-1.3,0.1c-2.5,0.2-4.9,0.4-7.3,0.5c-3,0.2-6,0.3-9.1,0.4
		C366.3,26.2,363.5,26.3,360.6,26.4z"/>
	<path class="st0" d="M184.6,48.6c-2.6-0.8-5.3-1.7-7.9-2.5c-1.9-0.6-3.9-1.1-5.9-1.5c-1.2-0.3-2.5-0.6-3.7-0.9
		c-1.3-0.3-2.6-0.7-3.9-1.1c-2.1-0.6-4.4-1.2-6.5-1.7c-2.4-0.6-4.8-1-7.2-1.5c-1.5-0.3-3-0.6-4.6-0.9c-1.7-0.4-3.5-0.8-5.2-1.1
		c-2.6-0.6-5.2-1.2-7.8-1.7c-3.8-0.7-7.8-1.5-12.5-2.2c-5.5-0.9-11.1-1.7-15.3-2.3c-4-0.6-7.8-1.1-11.4-1.5
		c-5.8-0.7-10.2-1.1-14.3-1.5c-5.6-0.5-11.4-1-17.7-1.5c-4.8-0.4-8.9-0.6-12.7-0.8c-3.1-0.1-6.2-0.2-9.3-0.3
		c-4.4-0.1-9-0.3-13.5-0.5c-0.1,0-0.2,0-0.3,0c0,0,0,0,0,0c0,0.1,0,0.3,0,0.4c0,63.6,0,127.1,0,190.7v29.6l2.8,0.2
		c3.3,0.2,6.6,0.4,9.9,0.5c2.9,0.1,5.8,0.3,8.7,0.4c3.3,0.1,6.6,0.3,9.9,0.5c3.7,0.2,7.3,0.5,10.4,0.7l0.4,0
		c5.9,0.5,12.1,1,18.1,1.5c4.8,0.4,9.5,1,13.1,1.5c4.9,0.6,9.7,1.3,14.6,1.9l3,0.4c4.1,0.5,8.1,1.1,12.2,1.7
		c1.6,0.2,3.1,0.5,4.7,0.8c2.5,0.5,5,1,7.5,1.5l3.4,0.7c0.9,0.2,1.8,0.3,2.7,0.5c1.9,0.4,4,0.8,5.9,1.2c2.1,0.5,4.2,1,6.3,1.4
		c0.9,0.2,1.8,0.4,2.7,0.6c0.7,0.2,1.5,0.3,2.2,0.5c1.6,0.4,3.3,0.8,5,1.2c3.8,1,7.3,1.9,10.7,2.9c2.1,0.6,4.1,1.2,6.1,1.8
		c1,0.3,1.9,0.6,2.9,0.9l4.1,1.2V51.1l-0.4-0.1c-1.4-0.4-2.7-0.9-4.1-1.3C186.7,49.3,185.6,49,184.6,48.6z"/>
	<path d="M407.4,4.5c-1.9-1.8-4.3-2.9-6.7-2.8c-4.3,0.1-8.7,0.2-13,0.3c-5.6,0.1-11.2,0.3-16.7,0.4c-2.9,0.1-5.9,0.3-8.8,0.4
		C361,2.9,359.8,3,358.6,3l-2.3,0.1c-4.2,0.2-8.5,0.5-12.7,0.7c-5,0.3-9.1,0.6-12.9,0.9c-2.7,0.2-5.3,0.5-7.7,0.8
		c-2.9,0.4-5.8,0.8-8.8,1.1c-2.4,0.3-4.8,0.6-7.2,0.9c-1.1,0.1-2.1,0.2-3.2,0.3c-1.6,0.2-3.1,0.3-4.6,0.6c-3.1,0.5-6.3,1.1-9.3,1.6
		c-2.3,0.4-4.5,0.8-6.8,1.2c-1.9,0.3-3.9,0.6-5.8,0.9c-1.6,0.2-3.2,0.5-4.8,0.8c-1.4,0.2-2.8,0.5-4.5,0.9c-1.5,0.3-3.1,0.7-4.6,1
		c-1.5,0.3-3.1,0.7-4.6,1c-1,0.2-2,0.4-3.1,0.6c-1.7,0.3-3.4,0.7-5,1.1c-2.7,0.6-5.4,1.3-8,2l-4.8,1.2c-1.6,0.4-3.3,0.8-4.9,1.3
		c-2.8,0.8-5.8,1.7-9.1,2.7c-2.6,0.8-5.3,1.7-7.9,2.5l-2.8,0.9c-0.6,0.2-1.3,0.5-2,0.7c-2.8,1.1-6.3,2.5-10.2,0.2
		c-0.3-0.2-0.7-0.3-1.1-0.4c-0.2-0.1-0.4-0.1-0.6-0.2l-2.7-0.9c-2.5-0.8-5.1-1.7-7.7-2.5c-2.6-0.8-5.4-1.6-8.8-2.5
		c-2-0.5-3.9-1-5.9-1.5c-1.2-0.3-2.5-0.6-3.7-1c-1.2-0.3-2.4-0.6-3.6-1c-2.2-0.6-4.6-1.2-6.9-1.8c-2.4-0.6-4.9-1-7.3-1.5
		c-1.6-0.3-3.1-0.6-4.7-0.9c-1.8-0.4-3.5-0.8-5.3-1.1c-2.6-0.6-5.3-1.2-7.9-1.7c-3.8-0.7-7.8-1.4-12.7-2.2
		c-4.5-0.7-9.5-1.4-15.5-2.3c-3.9-0.5-7.8-1-11.8-1.5c-4-0.4-9.2-1-14.5-1.5c-5.6-0.5-11.5-1-17.9-1.5C58.6,3,54.4,2.7,50.2,2.5
		l-1.6-0.1C43,2.2,37.3,1.9,31.6,1.8C26.4,1.7,21.2,1.7,16,1.7c-1.8,0-3.5,0-5.3,0c-2.4,0-4.6,1-6.6,3c-1.9,1.8-2.6,4.1-2.6,7.9
		c0,32.4,0,64.8,0,97.2l0,26l0,121.8c0,0.4,0,0.9,0,1.3c0,0.6,0,1.3,0,1.9c0,1.9,0.8,3.8,2.4,5.4c1.8,1.9,4.4,3.1,6.7,3.1
		c8.5,0.1,17,0.4,24.9,0.6c6.4,0.2,12,0.5,17.1,0.8c6.9,0.4,14.1,0.9,21.6,1.5c4.4,0.4,9.2,0.8,15,1.5c6.5,0.7,12.4,1.5,18.2,2.3
		c4.1,0.6,8.2,1.2,12.2,1.9l2.5,0.4c5,0.8,9.9,1.6,14.9,2.4c1.5,0.3,3.1,0.6,4.5,0.9c3.2,0.7,6.4,1.4,9.6,2.1l1.1,0.2
		c2.1,0.5,4.4,1,6.5,1.5c2.7,0.7,5.3,1.4,8,2.1l2.6,0.7c0.9,0.2,1.8,0.5,2.7,0.7c2.2,0.6,4.5,1.2,6.8,1.8c3.9,1.1,7.7,2.4,11.1,3.6
		l2.3,0.8c3.2,1,6.4,2.1,9.6,3.4c2.9,1.2,5.5,1.2,8.5,0c3.7-1.5,7.5-2.7,11.2-4l2.8-0.9c2.7-0.9,5.6-1.8,8.8-2.8
		c3.4-1,6.2-1.8,8.9-2.5c2.1-0.5,4.3-1,6.4-1.5c1.4-0.3,2.7-0.6,4.1-1c1.4-0.3,2.8-0.7,4.2-1c2.4-0.6,4.9-1.2,7.4-1.8
		c1.8-0.4,3.6-0.7,5.4-1c1.2-0.2,2.4-0.4,3.6-0.7c1.8-0.4,3.6-0.7,5.4-1.1c2.8-0.6,5.7-1.2,8.6-1.7c4.4-0.8,8.9-1.5,13.9-2.2
		c5.1-0.7,10.6-1.4,17.6-2.3c5-0.6,9.4-1.1,13.4-1.5c5.4-0.5,11.1-1,18.2-1.5c4.3-0.3,8.2-0.6,11.9-0.7c6.5-0.3,13.8-0.6,21.1-0.8
		c5.3-0.1,11.6-0.2,17.8-0.1c2.3,0.1,4.7-1,6.6-2.8c2-1.9,3.1-4.4,3.1-6.9c-0.1-83.3-0.1-166.8,0-248.2
		C410.5,8.9,409.3,6.4,407.4,4.5z M196.2,275.6l-9.2-2.7c-1-0.3-1.9-0.6-2.9-0.9c-2-0.6-4-1.2-6.1-1.8c-3.4-1-6.9-1.9-10.6-2.8
		c-1.6-0.4-3.3-0.8-4.9-1.2c-0.8-0.2-1.5-0.3-2.3-0.5c-0.9-0.2-1.8-0.4-2.8-0.7c-2.1-0.5-4.1-1-6.2-1.4c-1.9-0.4-3.9-0.8-5.8-1.2
		c-0.9-0.2-1.8-0.3-2.7-0.5l-3.4-0.7c-2.5-0.5-5-1-7.5-1.5c-1.5-0.3-3-0.6-4.5-0.8c-4.1-0.6-8.1-1.1-12.2-1.7l-3-0.4
		c-4.8-0.6-9.7-1.3-14.5-1.9c-3.5-0.4-8.2-1-12.9-1.5c-6-0.6-12.1-1.1-18-1.5l-0.4,0c-3-0.2-6.6-0.5-10.2-0.7
		c-3.3-0.2-6.6-0.3-9.8-0.5c-2.9-0.1-5.8-0.3-8.7-0.4c-3.3-0.2-6.5-0.4-9.9-0.5l-6.5-0.4v-33.4c0-63.6,0-127.1,0-190.7
		c0-1.2,0.1-2.5,1.1-3.5c1-1,2.4-1,3.4-1c4.5,0.2,9,0.4,13.4,0.5c3.1,0.1,6.2,0.2,9.3,0.3c3.9,0.2,7.9,0.4,12.8,0.8
		c6.3,0.5,12.1,1,17.8,1.5c4.1,0.4,8.6,0.9,14.4,1.5c3.7,0.4,7.4,0.9,11.5,1.5c4.2,0.6,9.8,1.4,15.3,2.3c4.8,0.8,8.9,1.5,12.7,2.2
		c2.6,0.5,5.3,1.1,7.9,1.7c1.7,0.4,3.4,0.8,5.2,1.1c1.5,0.3,3,0.6,4.5,0.9c2.4,0.5,4.9,1,7.3,1.5c2.3,0.5,4.5,1.2,6.7,1.8
		c1.3,0.4,2.6,0.7,3.9,1.1c1.2,0.3,2.4,0.6,3.7,0.9c2,0.5,4,1,6.1,1.6c2.7,0.8,5.4,1.7,8,2.5c1,0.3,2,0.7,3.1,1
		c1.4,0.4,2.7,0.9,4.1,1.3l3.2,1V275.6z M390.9,248.9l-1,0.6c-0.2,0.1-0.6,0.4-1.3,0.4c-2.6,0.1-5.2,0.2-7.8,0.3
		c-4.7,0.2-9.5,0.3-14.2,0.5l-0.7,0c-5.9,0.2-11.9,0.5-17.9,0.9c-5.8,0.4-11.5,0.9-17.9,1.5c-4.9,0.5-9.9,1-14.1,1.5
		c-3.9,0.4-7.8,0.9-11.6,1.5c-6.2,0.9-11,1.6-15.4,2.3c-4.9,0.8-9,1.5-12.7,2.2c-2.7,0.5-5.4,1.1-8,1.7c-1.8,0.4-3.5,0.8-5.3,1.1
		c-1.5,0.3-3.1,0.6-4.6,0.9c-2.4,0.5-4.9,1-7.3,1.5c-2.2,0.5-4.4,1.1-6.6,1.7c-1.3,0.4-2.7,0.7-4,1.1c-1.2,0.3-2.5,0.6-3.8,0.9
		c-1.9,0.5-3.9,0.9-5.8,1.5c-2.4,0.7-4.9,1.5-7.3,2.3c-1.4,0.4-2.7,0.9-4.1,1.3c-0.5,0.2-1,0.2-1.3,0.2c-0.1,0-0.2,0-0.3,0l-2.1,0.1
		V48l5.1-1.6c2.9-0.9,5.9-1.8,8.8-2.7c1-0.3,2-0.6,2.9-0.9c2.9-0.9,5.9-1.8,8.9-2.7c2.2-0.6,4.5-1.1,6.6-1.6
		c1.2-0.3,2.5-0.6,3.7-0.9c1.1-0.3,2.2-0.5,3.2-0.8c1.6-0.4,3.2-0.8,4.9-1.2c1.8-0.4,3.7-0.8,5.5-1.1c1-0.2,2.1-0.4,3.1-0.6
		c1.6-0.3,3.1-0.6,4.7-1c1.7-0.4,3.4-0.7,5.1-1.1l0.2-0.1c1.5-0.3,3-0.6,4.6-0.9c3.4-0.5,6.8-1,10.2-1.5l4.6-0.7
		c4.3-0.6,8.6-1.2,12.8-1.8c3.5-0.5,7.6-1,11.7-1.5c3.9-0.4,7.9-0.8,11.8-1.2l4.6-0.4c0.7-0.1,1.3-0.1,2-0.2
		c1.7-0.2,3.4-0.3,5.2-0.5c5.5-0.4,10-0.6,14.3-0.8c2.9-0.1,5.7-0.3,8.6-0.4c3-0.1,6-0.2,9-0.4c2.4-0.1,4.7-0.3,7.2-0.5
		c1.1-0.1,2.3-0.2,3.5-0.3l2.1-0.1V248.9z"/>
</g>
</svg>
