
<svg width="275px" height="301px" viewBox="2944 290 275 301" version="1.1" xmlns="http://www.w3.org/2000/svg" xmlns:xlink="http://www.w3.org/1999/xlink">
    <!-- Generator: Sketch 41.2 (35397) - http://www.bohemiancoding.com/sketch -->
    <desc>Created with Sketch.</desc>
    <defs></defs>
    <g id="Group" stroke="none" stroke-width="1" fill-rule="evenodd" transform="translate(2944.000000, 290.000000)">
        <path d="M0.2,150.4 L0.2,9 C0.2,6.3 1.1,4.2 3.1,2.5 C4.3,1.5 5.7,1.1 7.2,0.8 C7.7,0.7 8.2,0.8 8.7,0.8 L235.6,0.8 C238.1,0.8 240.6,0.9 243.1,1.4 C247.5,2.2 251.7,3.7 255.6,5.9 C260.7,8.8 265,12.7 268.2,17.6 C269.9,20.2 271.2,23 272.4,25.9 C274.5,30.9 274.9,36.2 274.9,41.6 L274.9,273.2 C274.9,276.6 274.4,279.9 273.3,283 C271.4,288 268.3,292.1 263.9,295.2 C260.9,297.3 257.7,298.7 254.2,299.5 C252.5,299.9 250.7,300.1 249,300.1 L8.2,300.1 C4.8,300.1 2.4,298.5 0.9,295.6 C0.4,294.7 0.3,293.6 0.3,292.5 C0.2,287.9 0.3,283.4 0.3,278.8 C0.2,236 0.2,193.2 0.2,150.4 Z M40.2,284.8 L41.9,284.8 L247.4,284.8 C248.8,284.8 250.1,284.6 251.5,284.3 C253.6,283.9 255.3,282.7 256.7,281.2 C258.6,279 259.5,276.3 259.5,273.3 L259.5,40 C259.5,36.5 258.9,33.2 257.5,30 C255.6,25.6 252.6,22.2 248.7,19.7 C244.9,17.2 240.6,16.1 235.9,16.1 L41.4,16.1 L40.1,16.1 C40.2,105.7 40.2,195.2 40.2,284.8 Z M24.8,284.8 L24.8,16.2 L15.6,16.2 L15.6,284.8 L24.8,284.8 Z" id="Shape" class="shape"></path>
        <path d="M149.9,238.4 L82.5,238.4 C79.1,238.4 76.5,237.1 75.1,234 C74.6,233.1 74.3,231.9 74.4,230.9 C74.5,226.8 74.6,222.6 75,218.5 C75.3,215.3 75.7,212.2 76.5,209.1 C77.5,204.9 78.5,200.7 80,196.7 C81.5,192.6 83.4,188.7 85.4,184.9 C88.6,178.8 92.7,173.5 97.7,168.7 C103.3,163.3 109.6,159.1 116.7,155.9 C120.3,154.3 124,152.8 127.9,152 C131.2,151.3 134.5,150.6 137.8,150 C143.6,148.9 149.6,148.9 155.5,149.2 C158.8,149.4 162.1,150 165.4,150.5 C168,150.9 170.6,151.4 173.1,152.1 C175.7,152.8 178.3,153.7 180.9,154.8 C183.9,156.1 186.9,157.5 189.8,159 C191.5,159.9 193.2,161 194.7,162.2 C197.9,164.8 201.2,167.4 204.2,170.3 C207.7,173.7 210.7,177.6 213.1,181.9 C214.5,184.3 216.1,186.7 217.3,189.3 C218.5,192 219.5,194.8 220.5,197.5 C221.4,199.9 222.2,202.3 222.8,204.8 C223.3,206.6 223.6,208.5 223.9,210.4 C224.4,213 224.8,215.7 225.2,218.3 C225.2,218.5 225.2,218.6 225.3,218.8 C225.6,222.8 226,226.8 226,230.8 C226.1,234.1 224.3,237.1 220.6,238.1 C219.7,238.3 218.8,238.5 217.9,238.5 C194.9,238.4 172.4,238.4 149.9,238.4 Z M209.8,223 C209.6,221.1 209.4,219.4 209.1,217.6 C208.6,214.8 208.3,211.9 207.6,209.1 C206.6,205.5 205.5,201.9 204.2,198.4 C202,192.4 198.5,187.1 194.2,182.4 C189.4,177.1 183.7,173.1 177.3,170.1 C173.3,168.3 169.3,166.9 165,165.9 C161.7,165.1 158.3,164.5 154.9,164.5 C150,164.4 145.1,164.7 140.1,164.9 C139,164.9 137.9,165.2 136.8,165.4 C134.5,166 132.1,166.5 129.8,167.3 C127,168.3 124.1,169.3 121.4,170.6 C117.4,172.4 113.7,174.9 110.3,177.7 C105.5,181.7 101.5,186.6 98.4,192 C96.2,195.8 94.4,199.7 93.3,204 C92.4,207.3 91.6,210.6 90.9,214 C90.6,215.3 90.5,216.7 90.3,218 C90.1,219.7 89.9,221.4 89.7,223.1 C129.9,223 169.8,223 209.8,223 Z" id="Shape" class="shape"></path>
        <path d="M188.4,101.2 C188.2,122.5 171.2,139.6 149.8,139.6 C128.5,139.6 111.3,122.4 111.4,100.9 C111.5,79.7 128.6,62.5 150.1,62.6 C171.3,62.7 188.3,79.7 188.4,101.2 Z M173.1,101.1 C173.2,88.3 162.6,77.9 150,77.8 C137.2,77.7 126.7,88.4 126.6,100.9 C126.5,113.7 137.1,124.3 149.8,124.3 C162.6,124.3 173.1,113.8 173.1,101.1 Z" id="Shape" class="shape"></path>
    </g>
</svg>