<?xml version="1.0" encoding="utf-8"?>
<!-- Generator: Adobe Illustrator 21.0.0, SVG Export Plug-In . SVG Version: 6.00 Build 0)  -->
<svg version="1.1" id="Calque_1" xmlns="http://www.w3.org/2000/svg" xmlns:xlink="http://www.w3.org/1999/xlink" x="0px" y="0px"
	 viewBox="0 0 418.7 269.3" style="enable-background:new 0 0 418.7 269.3;" xml:space="preserve">
<path d="M3.3,0.9c137.7,0,275.2,0,413,0c0,88.7,0,177.4,0,266.4c-137.6,0-275.2,0-413,0C3.3,178.5,3.3,89.8,3.3,0.9z M210.8,165.7
	C270.2,115.8,329.5,66.1,389.3,16c-119.5,0-238.2,0-357.6,0C91.7,66.1,151.2,115.8,210.8,165.7z M24.8,252.3
	c121.9,0,243.6,0,364.6,0c-39.1-39.1-78.5-78.5-117.9-117.9c-19.9,16.7-40.2,33.7-60.7,50.9c-21.7-18.2-43.3-36.2-64.8-54.2
	C105.4,171.7,65.2,211.9,24.8,252.3z M284.2,123.7c39.2,39.2,78.1,78.1,117.1,117.1c0-71.4,0-143,0-215.3
	C361.9,58.6,322.9,91.2,284.2,123.7z M18.4,235.8c38.4-38.4,76.7-76.7,115.1-115.1c-38-31.8-76.3-63.8-115.1-96.2
	C18.4,95.4,18.4,165.7,18.4,235.8z"/>
</svg>
