<?xml version="1.0" encoding="utf-8"?>
<!-- Generator: Adobe Illustrator 21.0.0, SVG Export Plug-In . SVG Version: 6.00 Build 0)  -->
<svg version="1.1" id="Calque_1" xmlns="http://www.w3.org/2000/svg" xmlns:xlink="http://www.w3.org/1999/xlink" x="0px" y="0px"
	 viewBox="0 0 375.3 329.3" style="enable-background:new 0 0 375.3 329.3;" xml:space="preserve">
<style type="text/css">
	.st0{fill:none;}
</style>
<g>
	<path class="st0" d="M343.7,16.1c-2.7,0.1-5.5,0.3-8.2,0.5c-1.4,0.1-2.7,0.2-4.1,0.4c-3.2,0.3-6.3,0.6-9.5,0.9
		c-2.2,0.2-4.5,0.5-6.7,0.8c-3.1,0.4-6.2,0.9-9.4,1.3c-2.2,0.3-4.4,0.6-6.6,1c-0.9,0.1-1.8,0.3-2.7,0.5c-1.9,0.4-3.8,0.8-5.6,1.2
		c-1.6,0.3-3.3,0.6-4.9,1c-1.6,0.4-3.1,0.8-4.6,1.2c-2,0.5-4,0.9-5.9,1.4c-2.3,0.6-4.5,1.4-6.8,2c-2.4,0.7-4.8,1.5-7.2,2.2
		c0,43,0,85.9,0,128.8c0.3,0,0.5,0,0.7,0c2.2-0.7,4.4-1.4,6.6-2.1c1.8-0.5,3.7-0.9,5.6-1.4c2.1-0.5,4.1-1.2,6.2-1.6
		c2.3-0.5,4.6-0.9,6.9-1.4c2.5-0.5,5.1-1.1,7.6-1.6c2.5-0.5,4.9-0.9,7.4-1.3c3-0.5,6-0.9,8.9-1.3c2.2-0.3,4.5-0.6,6.7-0.9
		c2.7-0.3,5.4-0.6,8.2-0.9c3.4-0.3,6.9-0.6,10.3-0.9c3.6-0.2,7.2-0.4,10.7-0.5c4.2-0.2,8.5-0.3,12.7-0.5c0.1,0,0.1-0.1,0.2-0.1
		c0-43.1,0-86.3,0-129.7c-2.2,0.1-4.2,0.3-6.2,0.4C350.5,15.8,347.1,15.9,343.7,16.1z"/>
	<path d="M373.7,8.6c0-3.5-3.2-6.9-6.8-6.8c-5.7,0.2-11.4,0.3-17.2,0.4c-2.4,0.1-4.8,0.2-7.1,0.4c-2.9,0.2-5.8,0.3-8.7,0.5
		c-2.5,0.2-5,0.3-7.5,0.5c-1.5,0.1-3,0.3-4.5,0.5c-3.1,0.4-6.1,0.8-9.2,1.2c-1.5,0.2-3,0.3-4.5,0.5c-3.1,0.5-6.2,1.1-9.3,1.6
		c-2,0.3-4.1,0.6-6.1,1c-0.9,0.1-1.8,0.3-2.6,0.5c-1.8,0.4-3.5,0.8-5.3,1.2c-1.6,0.3-3.1,0.6-4.7,1c-2.1,0.5-4.3,1.1-6.4,1.6
		c-1.3,0.3-2.6,0.7-3.9,1c-1.8,0.5-3.5,1-5.3,1.6c-2.1,0.6-4.1,1.3-6.2,2c-2,0.6-3.9,2-6.1,0.6c-0.4-0.2-0.8-0.3-1.2-0.4
		c-2-0.7-4-1.4-6-2c-1.7-0.5-3.4-1-5.1-1.5c-1.8-0.5-3.7-1-5.6-1.4c-2-0.5-4-1.1-6.1-1.6c-2.3-0.5-4.6-0.9-6.9-1.4
		c-2.5-0.5-5.1-1.1-7.6-1.6c-2.5-0.5-4.9-0.9-7.4-1.3c-3-0.5-6-0.9-8.9-1.3c-2.3-0.3-4.6-0.6-6.8-0.9c-2.8-0.3-5.6-0.6-8.4-0.9
		c-3.4-0.3-6.9-0.6-10.4-0.9c-2.4-0.2-4.8-0.3-7.2-0.4c-3.6-0.2-7.2-0.3-10.7-0.4c-4-0.1-8.1-0.1-12.1-0.1c-1.8,0-3.3,0.8-4.6,2
		c-1.5,1.5-1.9,3.3-1.9,5.4c0,18.2,0,28,0,46.2c4.4-1.5,8.9-2.6,13.5-3.2c0-14.7,0-20.8,0-35.5c0-1,0.2-1.5,1.4-1.4
		c4.4,0.2,8.8,0.3,13.1,0.5c2.5,0.1,4.9,0.3,7.4,0.4c3.4,0.3,6.8,0.5,10.2,0.9c2.8,0.3,5.5,0.6,8.3,0.9c2.2,0.3,4.4,0.5,6.6,0.9
		c2.9,0.4,5.9,0.8,8.8,1.3c2.4,0.4,4.9,0.8,7.3,1.3c2.5,0.5,5,1.1,7.5,1.6c2.3,0.5,4.6,0.9,6.8,1.4c2,0.5,4,1.1,6.1,1.6
		c1.9,0.5,3.7,0.9,5.6,1.4c2.1,0.6,4.3,1.3,6.4,2c1.1,0.4,2.3,0.7,3.4,1.1c0,43,0,85.9,0,128.9c-1.3-0.4-2.6-0.8-3.8-1.1
		c-1.7-0.5-3.5-1.1-5.2-1.5c-2-0.6-6.1-1.5-7.9-1.8c-1.6-0.4-3.3-0.7-4.9-1c-1.9-0.4-3.9-0.8-5.8-1.1c0.6,2.7,0.7,5.7,0.3,8.8
		c-0.2,1.7-0.4,3.3-0.6,5c0.8,0.1,1.6,0.3,2.5,0.4c0.8,0.1,1.7,0.3,2.5,0.5c1.8,0.4,3.7,0.8,5.5,1.2c1.5,0.3,2.9,0.6,4.4,1
		c2,0.5,4.1,1.1,6.1,1.6c1.8,0.5-4-1.1-2.2-0.5c2.1,0.6,4.2,1.3,6.3,2c2.3,0.8,4.6,1.5,6.8,2.4c2,0.8,3.8,0.8,5.8,0
		c2.6-1,5.3-1.9,8-2.8c1.7-0.6,3.4-1.1,5-1.6c1.7-0.5,3.4-1,5.1-1.4c2-0.5,4-0.9,6-1.4c2.2-0.5,4.4-1.1,6.6-1.6
		c1.7-0.4,3.4-0.6,5.2-1c2.7-0.5,5.4-1.1,8.1-1.6c2.6-0.5,5.3-0.9,7.9-1.3c3.4-0.5,6.8-0.9,10.1-1.3c2.6-0.3,5.1-0.6,7.7-0.8
		c3.5-0.3,7-0.6,10.5-0.9c2.3-0.2,4.5-0.3,6.8-0.4c4.1-0.2,8.1-0.4,12.2-0.4c3.4-0.1,6.8-0.1,10.2,0c3.5,0.1,6.8-3.3,6.8-6.8
		C373.7,104.1,373.7,56.3,373.7,8.6z M360.1,144.9c-0.1,0-0.1,0.1-0.2,0.1c-4.2,0.2-8.5,0.3-12.7,0.5c-3.6,0.1-7.2,0.3-10.7,0.5
		c-3.5,0.2-6.9,0.5-10.3,0.9c-2.7,0.3-5.4,0.6-8.2,0.9c-2.2,0.3-4.5,0.5-6.7,0.9c-3,0.4-6,0.8-8.9,1.3c-2.5,0.4-4.9,0.8-7.4,1.3
		c-2.6,0.5-5.1,1.1-7.6,1.6c-2.3,0.5-4.6,0.9-6.9,1.4c-2.1,0.5-4.1,1.1-6.2,1.6c-1.9,0.5-3.7,0.9-5.6,1.4c-2.2,0.6-4.4,1.4-6.6,2.1
		c-0.2,0.1-0.4,0-0.7,0c0-42.9,0-85.8,0-128.8c2.4-0.7,4.8-1.5,7.2-2.2c2.3-0.7,4.5-1.4,6.8-2c2-0.5,3.9-0.9,5.9-1.4
		c1.6-0.4,3.1-0.8,4.6-1.2c1.6-0.4,3.3-0.7,4.9-1c1.9-0.4,3.8-0.8,5.6-1.2c0.9-0.2,1.8-0.4,2.7-0.5c2.2-0.3,4.4-0.6,6.6-1
		c3.1-0.4,6.2-0.9,9.4-1.3c2.2-0.3,4.5-0.6,6.7-0.8c3.2-0.3,6.3-0.6,9.5-0.9c1.4-0.1,2.7-0.3,4.1-0.4c2.7-0.2,5.5-0.4,8.2-0.5
		c3.4-0.2,6.8-0.3,10.2-0.4c2-0.1,4-0.3,6.2-0.4C360.1,58.6,360.1,101.8,360.1,144.9z"/>
	<path d="M223.6,257.6c-11.5-3.3-23.2-6.5-35-8.8c-6.7-1.3-10-4.1-10.5-10.8c-0.1-1.5,0-2.5,1-3.7c9.6-10.5,15.6-22.9,18.7-36.7
		c0.2-1.1,1.1-2.4,2.1-2.9c5.8-3.1,9.3-7.9,10.2-14.4c0.8-5.2,1.4-10.5,2.1-15.7c0.2-1.7,0.4-3.3,0.6-5c0.4-3.2,0.3-6.1-0.3-8.8
		c-1.1-4.7-3.9-8.7-8.6-11.9c-0.7-0.4-1.1-1.7-1.1-2.5c0-3.6,0.5-7.2,0.4-10.8c-0.1-3,0.9-5.1,3.1-7.3c6-5.9,9.3-13.2,7.9-21.6
		c-2.5-15-10.9-25.7-24.7-32c-10-4.6-20.8-5.3-31.6-4.8c-3,0.1-6,0.4-9,0.8c-4.6,0.7-9.1,1.7-13.5,3.2c-4.3,1.5-8.4,3.4-12.4,5.8
		c-1.1,0.7-2.6,0.9-3.9,1.1c-7.6,1.2-15.3,1.7-22.7,3.5C78.2,78.9,67.8,91.8,67,110.5c-0.3,7.9,0.5,15.9,1,23.9
		c0.1,2.2,0.1,3.8-2.2,5.2c-6.1,3.9-9.1,9.9-8.5,17c0.6,8,1.8,16,3,24c1,6.7,4.7,11.6,10.9,14.4c1.8,0.8,2.6,1.9,3,3.8
		c2.3,10.8,6.3,20.9,13.4,29.3c4.5,5.3,5.6,10.2,3,16.4c-0.6,1.6-1.2,2.3-2.9,2.7c-12.4,3-24.8,6.2-37.1,9.2
		c-28.4,7-48.7,32-49.3,60.6c-0.1,7.5,3,10.7,10.5,10.7c41.1,0,82.2,0,123.3,0c0,0,0,0,0,0c41.3,0,82.6,0,123.9,0
		c6.9,0,10.2-3.3,10.1-10.3C268.8,290.2,249.9,265.1,223.6,257.6z M19.3,310.3c1.2-7.1,4-13.4,8.2-19c7.2-9.8,16.9-15.8,28.8-18.6
		c13.7-3.3,27.3-6.9,41-10.1c4.8-1.1,7.6-3.7,8.6-8.6c1.4-6.3,3-12.6,4.6-18.9c1-3.7,0.2-6.7-2.5-9.4c-10.6-10.5-16.8-23.1-18.2-38
		c-0.5-4.8-3.7-8-8.7-8c-3.1,0-3.9-1.3-4.2-4.1c-0.6-6.3-1.5-12.5-2.3-18.8c-0.3-2.4,0.5-3.4,3-3.5c6.3-0.4,9.4-4.6,8.7-10.9
		c-1-9.8-2.1-19.6-2.2-29.4c-0.2-13.6,6.7-20.3,20.3-23c5.8-1.2,11.8-1.5,17.7-1.9c3.1-0.2,5.9-0.9,8.6-2.6c1.6-1.1,3.2-2,4.8-2.8
		c4.4-2.2,8.9-3.6,13.5-4.5c6.9-1.3,14-1.3,21.2-0.7c7.1,0.5,13.7,2.5,19.1,7.4c3.8,3.4,6.5,7.6,7.7,12.6c0.7,2.8,0.2,5.4-1.8,7.5
		c-1.9,2.1-4.2,4-5.9,6.3c-1.2,1.6-2.5,3.7-2.6,5.6c-0.7,9.2-1.2,18.3-1.5,27.5c0,1,0.1,2,0.3,2.9c0.9,3.3,3.6,5.6,7.4,6
		c2.5,0.3,3.1,1.4,2.8,3.7c-0.2,1.7-0.4,3.4-0.6,5.2c-0.6,4.9-1.2,9.8-1.8,14.7c-0.2,1.7-1,2.6-2.8,2.9c-6.1,0.9-8.2,3.4-8.9,9.4
		c-1.6,14.1-7.5,26.3-17.8,36.2c-3.8,3.6-5.1,7.3-3.5,12.4c1.8,5.8,3.1,11.8,4.5,17.8c0.9,3.6,3.1,5.7,6.7,6.6
		c15.4,3.8,30.8,7.3,46.1,11.7c17.3,5,28.1,16.8,33,34.1c0.2,0.7,0.2,1.5,0.3,2.4C173.6,310.3,96.6,310.3,19.3,310.3z"/>
</g>
</svg>
