<?xml version="1.0" encoding="utf-8"?>
<!-- Generator: Adobe Illustrator 21.0.0, SVG Export Plug-In . SVG Version: 6.00 Build 0)  -->
<svg version="1.1" id="Calque_1" xmlns="http://www.w3.org/2000/svg" xmlns:xlink="http://www.w3.org/1999/xlink" x="0px" y="0px"
	 viewBox="0 0 287.3 288" style="enable-background:new 0 0 287.3 288;" xml:space="preserve">
<g>
	<path d="M6.4,163.6c0.6,0,1.1,0,1.5,0c38.2,0,76.4,0,114.6,0c1.5,0,1.6,0.1,1.6,1.6c0,38.2,0,76.4,0,114.6c0,1.4-0.2,1.5-1.9,1.5
		c-28.4,0-56.8,0-85.3,0c-9.5,0-18.9,0-28.4,0c-0.4,0-0.8,0-1.2,0c-0.6-0.1-1.1-0.4-1-1.1c0-0.2,0-0.4,0-0.6c0-38.1,0-76.2,0-114.3
		C6.4,164.8,6.4,164.3,6.4,163.6z"/>
	<path d="M163.1,222.3c0-19,0-38,0-57.1c0-1.6,0-1.6,1.6-1.6c38.1,0,76.2,0,114.4,0c1.7,0,1.7,0,1.7,1.7c0,38.1,0,76.2,0,114.2
		c0,1.6-0.2,1.7-1.8,1.7c-38,0-76.1,0-114.1,0c-1.7,0-1.8-0.1-1.8-1.8C163.1,260.4,163.1,241.3,163.1,222.3z"/>
	<path d="M163.1,7c0.6,0,1-0.1,1.5-0.1c38.2,0,76.5,0,114.7,0c1.5,0,1.5,0,1.5,1.5c0,38.2,0,76.3,0,114.5c0,1.2-0.3,1.5-1.5,1.5
		c-38.3,0-76.5,0-114.8,0c-1.1,0-1.5-0.3-1.5-1.5c0-38.2,0-76.3,0-114.5C163.1,8,163.1,7.5,163.1,7z"/>
	<path d="M6.5,6.9c0.6,0,1.1,0,1.6,0c38,0,76,0,114,0c2,0,2,0,2,2c0,34.3,0,68.7,0,103c0,3.7,0,7.4,0,11.1c0,1.1-0.3,1.4-1.4,1.4
		c-38.4,0-76.7,0-115.1,0c-0.4,0-0.8,0-1.2-0.1C6.5,85.2,6.5,46.2,6.5,6.9z"/>
</g>
</svg>
