<svg width="276px" height="276px" viewBox="0 979 276 276" version="1.1" xmlns="http://www.w3.org/2000/svg" xmlns:xlink="http://www.w3.org/1999/xlink">
    <!-- Generator: Sketch 41.2 (35397) - http://www.bohemiancoding.com/sketch -->
    <desc>Created with Sketch.</desc>
    <defs></defs>
    <g id="Group-2" stroke="none" stroke-width="1" fill="none" fill-rule="evenodd" transform="translate(0.000000, 979.000000)">
        <path d="M0.7,157.5 L2.2,157.5 L116.8,157.5 C118.3,157.5 118.4,157.6 118.4,159.1 L118.4,273.7 C118.4,275.1 118.2,275.2 116.5,275.2 L31.2,275.2 L2.8,275.2 L1.6,275.2 C1,275.1 0.5,274.8 0.6,274.1 L0.6,273.5 L0.6,159.2 C0.7,158.7 0.7,158.2 0.7,157.5 Z" id="Shape" class="shape"></path>
        <path d="M157.4,216.2 L157.4,159.1 C157.4,157.5 157.4,157.5 159,157.5 L273.4,157.5 C275.1,157.5 275.1,157.5 275.1,159.2 L275.1,273.4 C275.1,275 274.9,275.1 273.3,275.1 L159.2,275.1 C157.5,275.1 157.4,275 157.4,273.3 C157.4,254.3 157.4,235.2 157.4,216.2 Z" id="Shape" class="shape"></path>
        <path d="M157.4,0.9 C158,0.9 158.4,0.8 158.9,0.8 L273.6,0.8 C275.1,0.8 275.1,0.8 275.1,2.3 L275.1,116.8 C275.1,118 274.8,118.3 273.6,118.3 L158.8,118.3 C157.7,118.3 157.3,118 157.3,116.8 L157.3,2.3 C157.4,1.9 157.4,1.4 157.4,0.9 Z" id="Shape" class="shape"></path>
        <path d="M0.8,0.8 L2.4,0.8 L116.4,0.8 C118.4,0.8 118.4,0.8 118.4,2.8 L118.4,105.8 L118.4,116.9 C118.4,118 118.1,118.3 117,118.3 L1.9,118.3 C1.5,118.3 1.1,118.3 0.7,118.2 C0.8,79.1 0.8,40 0.8,0.8 Z" id="Shape" class="shape"></path>
    </g>
</svg>