<?xml version="1.0" encoding="UTF-8" standalone="no"?>
<!-- Created with Inkscape (http://www.inkscape.org/) -->

<svg
   xmlns:dc="http://purl.org/dc/elements/1.1/"
   xmlns:cc="http://creativecommons.org/ns#"
   xmlns:rdf="http://www.w3.org/1999/02/22-rdf-syntax-ns#"
   xmlns:svg="http://www.w3.org/2000/svg"
   xmlns="http://www.w3.org/2000/svg"
   xmlns:sodipodi="http://sodipodi.sourceforge.net/DTD/sodipodi-0.dtd"
   xmlns:inkscape="http://www.inkscape.org/namespaces/inkscape"
   width="95.291306mm"
   height="95.271706mm"
   viewBox="0 0 337.64636 337.57691"
   id="svg4097"
   version="1.1"
   inkscape:version="0.91 r13725"
   sodipodi:docname="demandesclients.svg">
  <defs
     id="defs4099" />
  <sodipodi:namedview
     id="base"
     pagecolor="#ffffff"
     bordercolor="#666666"
     borderopacity="1.0"
     inkscape:pageopacity="0.0"
     inkscape:pageshadow="2"
     inkscape:zoom="0.35"
     inkscape:cx="860.966"
     inkscape:cy="45.931305"
     inkscape:document-units="px"
     inkscape:current-layer="layer1"
     showgrid="false"
     fit-margin-top="0"
     fit-margin-left="0"
     fit-margin-right="0"
     fit-margin-bottom="0"
     inkscape:window-width="1535"
     inkscape:window-height="876"
     inkscape:window-x="1665"
     inkscape:window-y="24"
     inkscape:window-maximized="1" />
  <metadata
     id="metadata4102">
    <rdf:RDF>
      <cc:Work
         rdf:about="">
        <dc:format>image/svg+xml</dc:format>
        <dc:type
           rdf:resource="http://purl.org/dc/dcmitype/StillImage" />
        <dc:title></dc:title>
      </cc:Work>
    </rdf:RDF>
  </metadata>
  <g
     inkscape:label="Layer 1"
     inkscape:groupmode="layer"
     id="layer1"
     transform="translate(485.966,559.28339)">
    <g
       transform="translate(-1440.5572,-865.60649)"
       id="g3750">
      <path
         inkscape:connector-curvature="0"
         d="m 1088.4,643.9 c -41.1,0 -82.2,0 -123.3,0 -7.5,0 -10.7,-3.2 -10.5,-10.7 0.6,-28.6 20.9,-53.6 49.3,-60.6 12.4,-3.1 24.7,-6.2 37.1,-9.2 1.7,-0.4 2.2,-1.2 2.9,-2.7 2.6,-6.2 1.5,-11 -3,-16.4 -7.1,-8.4 -11.1,-18.5 -13.4,-29.3 -0.4,-1.9 -1.1,-2.9 -3,-3.8 -6.2,-2.8 -9.9,-7.7 -10.9,-14.4 -1.2,-8 -2.4,-16 -3,-24 -0.5,-7.2 2.4,-13.1 8.5,-17 2.3,-1.5 2.3,-3 2.2,-5.2 -0.5,-7.9 -1.3,-15.9 -1,-23.9 0.8,-18.7 11.3,-31.6 29.4,-36.1 7.4,-1.8 15.2,-2.4 22.7,-3.5 1.3,-0.2 2.8,-0.4 3.9,-1.1 10.7,-6.5 22.5,-9.3 34.9,-9.9 10.8,-0.5 21.6,0.2 31.6,4.8 13.8,6.3 22.2,17.1 24.7,32 1.4,8.4 -1.9,15.7 -7.9,21.6 -2.1,2.1 -3.2,4.2 -3.1,7.3 0.1,3.6 -0.4,7.2 -0.4,10.8 0,0.9 0.4,2.1 1.1,2.5 7.4,5.1 10,12 8.8,20.7 -0.9,6.9 -1.7,13.8 -2.7,20.7 -1,6.5 -4.4,11.2 -10.2,14.4 -0.9,0.5 -1.8,1.8 -2.1,2.9 -3.1,13.8 -9.1,26.2 -18.7,36.7 -1,1.1 -1.1,2.1 -1,3.7 0.5,6.7 3.8,9.5 10.5,10.8 11.8,2.3 23.4,5.4 35,8.8 26.3,7.6 45.1,32.7 45.5,59.8 0.1,7 -3.2,10.3 -10.1,10.3 -41.2,-0.1 -82.5,-0.1 -123.8,0 0,-0.1 0,0 0,0 z m 115.8,-17.4 c -0.1,-0.9 -0.2,-1.7 -0.3,-2.4 -4.8,-17.3 -15.6,-29.2 -32.9,-34.1 -15.2,-4.4 -30.7,-7.9 -46.1,-11.7 -3.6,-0.9 -5.8,-3.1 -6.7,-6.6 -1.5,-5.9 -2.7,-11.9 -4.5,-17.8 -1.6,-5.1 -0.3,-8.8 3.5,-12.4 10.3,-9.8 16.1,-22 17.8,-36.2 0.7,-6.1 2.8,-8.6 8.9,-9.4 1.8,-0.3 2.6,-1.2 2.8,-2.9 0.8,-6.6 1.6,-13.3 2.4,-19.9 0.3,-2.3 -0.3,-3.4 -2.8,-3.7 -4.8,-0.6 -7.9,-4.1 -7.8,-8.9 0.4,-9.2 0.8,-18.4 1.5,-27.5 0.2,-1.9 1.4,-4 2.6,-5.6 1.7,-2.3 4,-4.1 5.9,-6.3 2,-2.2 2.4,-4.7 1.8,-7.5 -1.2,-5 -3.9,-9.2 -7.7,-12.6 -5.4,-4.9 -12,-6.9 -19.1,-7.4 -13.9,-1.1 -27.5,0 -39.5,8.1 -2.7,1.8 -5.5,2.4 -8.6,2.6 -5.9,0.4 -11.9,0.7 -17.7,1.9 -13.6,2.8 -20.4,9.5 -20.3,23 0.1,9.8 1.2,19.6 2.2,29.4 0.6,6.4 -2.4,10.6 -8.7,10.9 -2.4,0.2 -3.3,1.1 -3,3.5 0.8,6.3 1.7,12.5 2.3,18.8 0.3,2.8 1.1,4.1 4.2,4.1 5,0 8.2,3.2 8.7,8 1.5,14.9 7.6,27.5 18.2,38 2.7,2.7 3.5,5.7 2.5,9.4 -1.7,6.3 -3.3,12.6 -4.6,18.9 -1,4.8 -3.8,7.4 -8.6,8.6 -13.7,3.2 -27.3,6.8 -41,10.1 -11.8,2.8 -21.5,8.8 -28.8,18.6 -4.2,5.6 -7,11.9 -8.2,19 77.3,0 154.3,0 231.6,0 z"
         id="path3752" />
      <path
         inkscape:connector-curvature="0"
         d="m 1186.9,469.6 c 4.3,-4.8 8.3,-9.3 12.3,-13.8 7.2,-8.1 14.3,-16.3 21.7,-24.3 1.4,-1.5 3.6,-2.7 5.6,-3.2 12.8,-3.3 25,-7.8 34.6,-17.4 11.7,-11.7 16,-25.9 12.4,-42 -2.4,-10.8 -9.7,-18.6 -18.2,-25.2 -13.4,-10.2 -28.7,-15.6 -45.1,-18.3 -23.3,-3.8 -46.2,-2.2 -68.5,6 -12.7,4.7 -24.2,11.3 -33.1,21.7 -2.1,2.5 -3.9,5.4 -5.7,8.2 -2.8,4.2 -7.8,5.6 -11.8,3.2 -4,-2.3 -5.3,-7.3 -3,-11.7 6.2,-11.6 15.5,-20.3 26.6,-27.1 25.4,-15.5 53.3,-20.7 82.6,-19.1 19.5,1.1 38.1,5.6 55.4,14.8 14.1,7.5 26,17.4 33.4,32 8.4,16.6 7.7,33.5 0.8,50.3 -7.6,18.2 -22.1,29 -39.8,36.2 -3,1.2 -6,2.5 -9.2,3.1 -4.2,0.8 -7,3.2 -9.7,6.3 -15.3,17.3 -30.6,34.6 -46,51.9 -3,3.4 -6.8,4.3 -10.5,2.7 -3.7,-1.6 -5.4,-4.7 -5,-9.3 1.5,-14.6 3.2,-29.1 4.8,-43.7 0.3,-2.3 0.5,-4.2 -1.9,-6 -3.2,-2.3 -3.7,-6.5 -1.9,-10.1 1.6,-3.4 5.1,-5.1 9,-4.6 1.8,0.3 3.7,0.5 5.5,0.8 5.4,0.8 8.4,4.9 7.7,10.2 -1.1,8.9 -2,17.9 -3,26.8 -0.1,0.4 0,0.7 0,1.6 z"
         id="path3754" />
    </g>
  </g>
</svg>
