<?xml version="1.0" encoding="utf-8"?>
<!-- Generator: Adobe Illustrator 21.0.0, SVG Export Plug-In . SVG Version: 6.00 Build 0)  -->
<svg version="1.1" id="Calque_1" xmlns="http://www.w3.org/2000/svg" xmlns:xlink="http://www.w3.org/1999/xlink" x="0px" y="0px"
	 viewBox="0 0 339.9 340.6" style="enable-background:new 0 0 339.9 340.6;" xml:space="preserve">
<g>
	<path d="M134.7,339.1c-41.1,0-82.2,0-123.3,0c-7.5,0-10.7-3.2-10.5-10.7c0.6-28.6,20.9-53.6,49.3-60.6c12.4-3.1,24.7-6.2,37.1-9.2
		c1.7-0.4,2.2-1.1,2.9-2.7c2.6-6.2,1.5-11-3-16.4c-7.1-8.4-11.1-18.5-13.4-29.3c-0.4-1.9-1.1-2.9-3-3.8c-6.2-2.8-9.9-7.7-10.9-14.4
		c-1.2-8-2.4-16-3-24c-0.5-7.2,2.4-13.1,8.5-17c2.3-1.5,2.3-3,2.2-5.2c-0.5-7.9-1.3-15.9-1-23.9c0.8-18.7,11.3-31.6,29.4-36.1
		c7.4-1.8,15.2-2.4,22.7-3.5c1.3-0.2,2.8-0.4,3.9-1.1c10.7-6.5,22.5-9.3,34.9-9.9c10.8-0.5,21.6,0.2,31.6,4.8
		c13.8,6.3,22.2,17.1,24.7,32c1.4,8.4-1.9,15.7-7.9,21.6c-2.1,2.1-3.2,4.2-3.1,7.3c0.1,3.6-0.4,7.2-0.4,10.8c0,0.9,0.4,2.1,1.1,2.5
		c7.4,5.1,10,12,8.8,20.7c-0.9,6.9-1.7,13.8-2.7,20.7c-1,6.5-4.4,11.2-10.2,14.4c-0.9,0.5-1.8,1.8-2.1,2.9
		c-3.1,13.8-9.1,26.2-18.7,36.7c-1,1.1-1.1,2.1-1,3.7c0.5,6.7,3.8,9.5,10.5,10.8c11.8,2.3,23.4,5.4,35,8.8
		c26.3,7.6,45.1,32.7,45.5,59.8c0.1,7-3.2,10.3-10.1,10.3C217.3,339,176,339,134.7,339.1C134.7,339,134.7,339.1,134.7,339.1z
		 M250.5,321.7c-0.1-0.9-0.2-1.7-0.3-2.4c-4.8-17.3-15.6-29.2-32.9-34.1c-15.2-4.4-30.7-7.9-46.1-11.7c-3.6-0.9-5.8-3.1-6.7-6.6
		c-1.5-5.9-2.7-11.9-4.5-17.8c-1.6-5.1-0.3-8.8,3.5-12.4c10.3-9.8,16.1-22,17.8-36.2c0.7-6.1,2.8-8.6,8.9-9.4
		c1.8-0.3,2.6-1.2,2.8-2.9c0.8-6.6,1.6-13.3,2.4-19.9c0.3-2.3-0.3-3.4-2.8-3.7c-4.8-0.6-7.9-4.1-7.8-8.9c0.4-9.2,0.8-18.4,1.5-27.5
		c0.2-1.9,1.4-4,2.6-5.6c1.7-2.3,4-4.1,5.9-6.3c2-2.2,2.4-4.7,1.8-7.5c-1.2-5-3.9-9.2-7.7-12.6c-5.4-4.9-12-6.9-19.1-7.4
		c-13.9-1.1-27.5,0-39.5,8.1c-2.7,1.8-5.5,2.4-8.6,2.6c-5.9,0.4-11.9,0.7-17.7,1.9c-13.6,2.8-20.4,9.5-20.3,23
		c0.1,9.8,1.2,19.6,2.2,29.4c0.6,6.4-2.4,10.6-8.7,10.9c-2.4,0.2-3.3,1.1-3,3.5c0.8,6.3,1.7,12.5,2.3,18.8c0.3,2.8,1.1,4.1,4.2,4.1
		c5,0,8.2,3.2,8.7,8c1.5,14.9,7.6,27.5,18.2,38c2.7,2.7,3.5,5.7,2.5,9.4c-1.7,6.3-3.3,12.6-4.6,18.9c-1,4.8-3.8,7.4-8.6,8.6
		c-13.7,3.2-27.3,6.8-41,10.1c-11.8,2.8-21.5,8.8-28.8,18.6c-4.2,5.6-7,11.9-8.2,19C96.2,321.7,173.2,321.7,250.5,321.7z"/>
	<path d="M233.2,164.8c4.3-4.8,8.3-9.3,12.3-13.8c7.2-8.1,14.3-16.3,21.7-24.3c1.4-1.5,3.6-2.7,5.6-3.2c12.8-3.3,25-7.8,34.6-17.4
		c11.7-11.7,16-25.9,12.4-42c-2.4-10.8-9.7-18.6-18.2-25.2c-13.4-10.2-28.7-15.6-45.1-18.3c-23.3-3.8-46.2-2.2-68.5,6
		c-12.7,4.7-24.2,11.3-33.1,21.7c-2.1,2.5-3.9,5.4-5.7,8.2c-2.8,4.2-7.8,5.6-11.8,3.2c-4-2.3-5.3-7.3-3-11.7
		c6.2-11.6,15.5-20.3,26.6-27.1c25.4-15.5,53.3-20.7,82.6-19.1C263,3,281.6,7.4,298.9,16.7c14.1,7.5,26,17.4,33.4,32
		c8.4,16.6,7.7,33.5,0.8,50.3c-7.6,18.2-22.1,29-39.8,36.2c-3,1.2-6,2.5-9.2,3.1c-4.2,0.8-7,3.2-9.7,6.3
		c-15.3,17.3-30.6,34.6-46,51.9c-3,3.4-6.8,4.3-10.5,2.7c-3.7-1.6-5.4-4.7-5-9.3c1.5-14.6,3.2-29.1,4.8-43.7c0.3-2.3,0.5-4.2-1.9-6
		c-3.2-2.3-3.7-6.5-1.9-10.1c1.6-3.4,5.1-5.1,9-4.6c1.8,0.3,3.7,0.5,5.5,0.8c5.4,0.8,8.4,4.9,7.7,10.2c-1.1,8.9-2,17.9-3,26.8
		C233.1,163.6,233.2,163.9,233.2,164.8z"/>
</g>
</svg>
