<?xml version="1.0" encoding="utf-8"?>
<!-- Generator: Adobe Illustrator 21.0.0, SVG Export Plug-In . SVG Version: 6.00 Build 0)  -->
<svg version="1.1" id="Calque_1" xmlns="http://www.w3.org/2000/svg" xmlns:xlink="http://www.w3.org/1999/xlink" x="0px" y="0px"
	 viewBox="0 0 249 315.4" style="enable-background:new 0 0 249 315.4;" xml:space="preserve">
<g>
	<path d="M2.3,157.2c0-51,0-102,0-153C2.3,1.6,2.9,1,5.5,1c79.4,0,158.7,0,238.1,0c2,0,3.2,0.6,3.2,3.2c0,80.1,0,160.3,0,240.4
		c0,1.7-0.6,2.9-1.7,4c-6.7,6.6-13.3,13.2-20,19.8c-14.8,14.7-29.6,29.3-44.4,43.9c-0.8,0.8-1.7,1.2-2.9,1.2
		c-57.4,0-114.9,0-172.3,0c-2.4,0-3-0.6-3-3C2.3,259.4,2.3,208.3,2.3,157.2z M18.4,17.1c0,93.5,0,186.9,0,280.3
		c49.8,0,99.6,0,149.5,0c0-0.6,0-1.1,0-1.7c0-18.9,0-37.9,0-56.8c0-2.3,0.8-3.3,3.2-3.3c19.2,0,38.5,0,57.7,0c0.6,0,1.2-0.1,1.7-0.1
		c0-72.9,0-145.6,0-218.4C159.9,17.1,89.2,17.1,18.4,17.1z M219,251.7c-11.8,0-23.3,0-34.7,0c0,11.4,0,22.7,0,34.4
		C196,274.5,207.4,263.2,219,251.7z"/>
	<path d="M124.5,51.2c25.4,0,50.9,0,76.3,0c3.5,0,4,0.5,4,4c0,2.9,0,5.8,0,8.8c0,0.8,0,1.8-0.4,2.3c-0.5,0.6-1.5,0.8-2.2,1.1
		c-0.3,0.1-0.8,0-1.2,0c-50.9,0-101.8,0-152.7,0c-3.5,0-4-0.5-4-4c0-2.9,0-5.8,0-8.8c0-0.8,0-1.8,0.4-2.3c0.5-0.6,1.5-0.8,2.2-1.1
		c0.4-0.1,0.9,0,1.3,0C73.6,51.2,99.1,51.2,124.5,51.2z"/>
	<path d="M124.5,87.3c25.4,0,50.9,0,76.3,0c3.5,0,3.9,0.5,4,4c0,2.8,0,5.6,0,8.4c0,0.9-0.2,1.8-0.4,2.6c-0.3,1.2-1.5,0.9-2.3,1.2
		c-0.4,0.1-0.8,0-1.3,0c-50.9,0-101.7,0-152.6,0c-3.5,0-3.9-0.5-4-4c0-2.9,0-5.8,0-8.8c0-0.8,0-1.8,0.5-2.3c0.5-0.6,1.5-0.8,2.3-1.1
		c0.4-0.1,0.9,0,1.3,0C73.6,87.3,99.1,87.3,124.5,87.3z"/>
	<path d="M124.5,123.4c25.4,0,50.9,0,76.3,0c3.5,0,3.9,0.5,4,4c0,2.8,0,5.6,0,8.4c0,0.9-0.2,1.8-0.4,2.6c-0.3,1.2-1.5,0.9-2.3,1.2
		c-0.3,0.1-0.8,0-1.2,0c-51,0-101.9,0-152.9,0c-0.9,0-1.8-0.1-2.6-0.4c-1.2-0.3-1.2-1.6-1.2-2.4c-0.1-3.5-0.1-7,0-10.6
		c0-2,0.8-2.7,2.8-2.8c0.4,0,0.9,0,1.3,0C73.7,123.4,99.1,123.4,124.5,123.4z"/>
	<path d="M124.5,159.4c25.4,0,50.9,0,76.3,0c3.5,0,3.9,0.5,4,4c0,2.8,0,5.6,0,8.4c0,0.9-0.2,1.8-0.4,2.6c-0.3,1.2-1.5,0.9-2.3,1.2
		c-0.3,0.1-0.8,0-1.2,0c-50.9,0-101.7,0-152.6,0c-3.6,0-4.1-0.5-4.1-4.1c0-2.9,0-5.8,0-8.6c0-0.8,0-1.8,0.5-2.3
		c0.5-0.6,1.5-0.8,2.3-1.1c0.4-0.1,0.9,0,1.3,0C73.6,159.4,99.1,159.4,124.5,159.4z"/>
	<path d="M124.6,195.5c25.4,0,50.8,0,76.2,0c3.4,0,3.9,0.5,4,4c0,2.8,0,5.6,0,8.4c0,0.9-0.2,1.8-0.4,2.6c-0.3,1.2-1.5,0.9-2.3,1.2
		c-0.3,0.1-0.8,0-1.2,0c-50.9,0-101.8,0-152.7,0c-3.4,0-3.9-0.5-4-4c0-2.8,0-5.6,0-8.4c0-0.9,0.2-1.8,0.4-2.6
		c0.3-1.2,1.5-0.9,2.3-1.2c0.4-0.1,0.9,0,1.3,0C73.7,195.5,99.2,195.5,124.6,195.5z"/>
</g>
</svg>
