<?xml version="1.0" encoding="utf-8"?>
<!-- Generator: Adobe Illustrator 21.0.0, SVG Export Plug-In . SVG Version: 6.00 Build 0)  -->
<svg version="1.1" id="Calque_1" xmlns="http://www.w3.org/2000/svg" xmlns:xlink="http://www.w3.org/1999/xlink" x="0px" y="0px"
	 viewBox="0 0 300.7 309.3" style="enable-background:new 0 0 300.7 309.3;" xml:space="preserve">
<g>
	<path d="M96.4,202.6c6.6,0,12.7,0,19.3,0c0,1.1,0,2.2,0,3.3c0,23,0,46,0,69c0,9.4,4.9,14.5,14.3,14.5c45.1,0,90.2,0,135.3,0
		c9.1,0,14.2-5.1,14.2-14.3c0-80.7,0-161.4,0-242.1c0-9.2-5-14.2-14.2-14.2c-45.1,0-90.2,0-135.3,0c-9.2,0-14.2,5-14.2,14.2
		c0,22.8,0,45.7,0,68.5c0,1.1,0,2.2,0,3.5c-6.5,0-12.7,0-19.4,0c0-1,0-2,0-3c0-28.9,0-57.8,0-86.7c0-9,5.3-14.3,14.3-14.3
		c57.9,0,115.7,0,173.6,0c9.2,0,14.5,5.2,14.5,14.4c0,92.5,0,185.1,0,277.6c0,9.4-5.2,14.6-14.6,14.6c-57.7,0-115.4,0-173,0
		c-9.6,0-14.7-5.2-14.7-14.7c0-29,0-58,0-86.9C96.4,204.9,96.4,203.9,96.4,202.6z"/>
	<path d="M178.2,145.2c-1-1.1-1.6-1.8-2.2-2.5c-11.1-11.4-22.2-22.8-33.4-34.1c-2.6-2.6-3.7-5.7-2.6-9.3c1-3.4,3.4-5.4,6.8-6.1
		c3.6-0.7,6.4,0.9,8.8,3.4c15.8,16.2,31.6,32.4,47.5,48.6c3.3,3.4,6.9,6.4,10.5,9.7c-1,1.1-1.4,1.6-1.9,2.1
		c-19,18.5-37.9,37.1-56.9,55.6c-5.5,5.4-13.4,3.8-15.4-3.2c-1.1-3.8,0.3-6.8,3-9.5c11.3-11,22.6-22.1,34-33.1
		c1.1-1.1,2.4-2.1,3.6-3.2c-0.1-0.3-0.2-0.5-0.3-0.8c-1.1,0-2.1,0-3.2,0c-54.8,0-109.7,0-164.5,0c-1.4,0-2.9,0.1-4.2-0.2
		c-4.3-1-7.2-5.1-6.7-9.5c0.4-4.2,4-7.6,8.3-7.9c1-0.1,2.1,0,3.1,0c54,0,108,0,162,0C175.5,145.2,176.6,145.2,178.2,145.2z"/>
</g>
</svg>
