<?xml version="1.0" encoding="UTF-8" standalone="no"?>
<!-- Created with Inkscape (http://www.inkscape.org/) -->

<svg
   xmlns:dc="http://purl.org/dc/elements/1.1/"
   xmlns:cc="http://creativecommons.org/ns#"
   xmlns:rdf="http://www.w3.org/1999/02/22-rdf-syntax-ns#"
   xmlns:svg="http://www.w3.org/2000/svg"
   xmlns="http://www.w3.org/2000/svg"
   xmlns:sodipodi="http://sodipodi.sourceforge.net/DTD/sodipodi-0.dtd"
   xmlns:inkscape="http://www.inkscape.org/namespaces/inkscape"
   width="80.345261mm"
   height="82.682976mm"
   viewBox="0 0 284.68793 292.97117"
   id="svg3940"
   version="1.1"
   inkscape:version="0.91 r13725"
   sodipodi:docname="entree-sorties.svg">
  <defs
     id="defs3942" />
  <sodipodi:namedview
     id="base"
     pagecolor="#ffffff"
     bordercolor="#666666"
     borderopacity="1.0"
     inkscape:pageopacity="0.0"
     inkscape:pageshadow="2"
     inkscape:zoom="0.35"
     inkscape:cx="765.91538"
     inkscape:cy="-750.65727"
     inkscape:document-units="px"
     inkscape:current-layer="layer1"
     showgrid="false"
     fit-margin-top="0"
     fit-margin-left="0"
     fit-margin-right="0"
     fit-margin-bottom="0"
     inkscape:window-width="1535"
     inkscape:window-height="876"
     inkscape:window-x="1665"
     inkscape:window-y="24"
     inkscape:window-maximized="1" />
  <metadata
     id="metadata3945">
    <rdf:RDF>
      <cc:Work
         rdf:about="">
        <dc:format>image/svg+xml</dc:format>
        <dc:type
           rdf:resource="http://purl.org/dc/dcmitype/StillImage" />
        <dc:title></dc:title>
      </cc:Work>
    </rdf:RDF>
  </metadata>
  <g
     inkscape:label="Layer 1"
     inkscape:groupmode="layer"
     id="layer1"
     transform="translate(390.91538,511.26624)">
    <g
       transform="translate(-3470.9028,-859.65179)"
       id="g3756">
      <path
         inkscape:connector-curvature="0"
         d="m 3323.3,410.4 c -0.8,-0.6 -1.7,-1.1 -2.4,-1.8 -13.3,-13.2 -26.5,-26.5 -39.7,-39.7 -4.3,-4.3 -4.9,-10.5 -1.7,-15.3 3.1,-4.6 9.2,-6.5 14.3,-4.3 1.5,0.7 3,1.7 4.2,2.9 20.9,20.7 41.8,41.5 62.6,62.2 5.5,5.5 5.4,12.4 -0.1,17.9 -20.7,20.7 -41.3,41.4 -62,62 -5.3,5.3 -12.6,5.5 -17.6,0.6 -4.9,-4.9 -4.6,-12.2 0.7,-17.6 13.1,-13.1 26.2,-26.2 39.4,-39.3 0.7,-0.7 1.6,-1.2 2.5,-1.7 -0.2,-0.3 -0.3,-0.7 -0.5,-1 -1,0 -2.1,0 -3.1,0 -75.5,0 -151,0 -226.4,0 -6.8,0 -11.2,-3.1 -12.8,-8.9 -1.9,-6.9 2.4,-13.8 9.5,-14.9 1.5,-0.2 3.1,-0.3 4.6,-0.3 74.8,0 149.7,0 224.5,0 1.2,0 2.3,0 3.5,0 0.2,-0.2 0.3,-0.5 0.5,-0.8 z"
         id="path3758" />
      <path
         inkscape:connector-curvature="0"
         d="m 3121.4,554.2 c 1.1,0 2.1,0 3.2,0 75.5,0 151,0 226.5,0 7.8,0 13.4,5.3 13.3,12.5 -0.1,5.3 -4,10.1 -9.2,11.1 -1.7,0.3 -3.5,0.4 -5.2,0.4 -74.8,0 -149.7,0 -224.5,0 -1.2,0 -2.4,0 -4.3,0 1,1.1 1.6,1.8 2.3,2.5 13.3,13.3 26.6,26.6 39.9,39.9 3.5,3.5 4.6,7.6 3.2,12.3 -1.4,4.7 -4.8,7.5 -9.6,8.3 -4.3,0.7 -7.8,-1 -10.8,-4 -11.6,-11.6 -23.1,-23.1 -34.7,-34.7 -9.1,-9.1 -18.2,-18.2 -27.3,-27.3 -5.6,-5.6 -5.6,-12.3 -0.1,-17.9 20.7,-20.8 41.5,-41.5 62.2,-62.2 5.1,-5.1 12.4,-5.2 17.2,-0.5 4.9,4.8 4.7,12.2 -0.5,17.4 -13.2,13.2 -26.4,26.4 -39.6,39.5 -0.7,0.7 -1.6,1.2 -2.4,1.8 0.1,0.2 0.3,0.6 0.4,0.9 z"
         id="path3760" />
    </g>
  </g>
</svg>
