<?xml version="1.0" encoding="utf-8"?>
<!-- Generator: Adobe Illustrator 21.0.0, SVG Export Plug-In . SVG Version: 6.00 Build 0)  -->
<svg version="1.1" id="Calque_1" xmlns="http://www.w3.org/2000/svg" xmlns:xlink="http://www.w3.org/1999/xlink" x="0px" y="0px"
	 viewBox="0 0 246 314.7" style="enable-background:new 0 0 246 314.7;" xml:space="preserve">
<path d="M22.1,160c0,0.7,0,1.3,0,1.9c0,48.8,0,97.6,0,146.4c0,3-1.6,4.5-4.5,4.5c-3.8-0.1-7.6,0-11.5,0c-0.8,0-1.6-0.2-2.3-0.5
	c-0.9-0.4-1.6-1.1-1.6-2.3c0-0.6-0.1-1.1-0.1-1.7c0-100.9,0-201.9-0.1-302.8C2.1,2,4,1,6.7,1c77.6,0,155.2,0,232.8,0
	c1.4,0,2.8,0.1,3.9,1.3c1.1,1.3,1.2,2.5,0.2,3.8c-3.5,4.9-7.1,9.8-10.6,14.7c-5.4,7.5-10.9,14.9-16.3,22.4
	c-5.4,7.5-10.9,14.9-16.3,22.4c-3.4,4.7-6.9,9.3-10.3,14c-0.5,0.7-0.5,1.2,0,1.8c2.6,3.5,5.1,6.9,7.7,10.4c4.7,6.5,9.3,13,14,19.5
	c4,5.6,8.1,11.1,12.2,16.7c4.8,6.5,9.5,13.1,14.3,19.6c1.8,2.4,3.6,4.8,5.4,7.2c1.6,2.2,0,4.6-2.8,5c-0.5,0.1-1.1,0-1.7,0
	c-71.7,0-143.4,0-215.1,0C23.5,160,22.9,160,22.1,160z M208.7,21c-62.3,0-124.3,0-186.5,0c0,39.7,0,79.3,0,118.9
	c62.2,0,124.2,0,186.4,0c-0.3-0.4-0.4-0.8-0.6-1.1c-2.8-3.7-5.7-7.3-8.5-11c-3.5-4.6-6.9-9.3-10.4-14c-2.9-3.8-5.8-7.6-8.7-11.5
	c-2.9-3.8-5.7-7.6-8.6-11.5c-2.2-2.9-4.4-5.7-6.5-8.5c-0.8-1.1-0.9-2.5,0-3.6c2.5-3.4,5-6.8,7.6-10.2c2.4-3.2,4.9-6.4,7.3-9.6
	c2.8-3.7,5.6-7.5,8.4-11.2c2.5-3.3,5-6.6,7.4-9.9c2.9-3.9,5.9-7.7,8.8-11.5C206.1,24.7,207.3,22.9,208.7,21z"/>
</svg>
