<?xml version="1.0" encoding="UTF-8"?>
<svg width="116px" height="333px" viewBox="0 0 116 333" version="1.1" xmlns="http://www.w3.org/2000/svg" xmlns:xlink="http://www.w3.org/1999/xlink">
    <!-- Generator: Sketch 40.3 (33839) - http://www.bohemiancoding.com/sketch -->
    <title>Group 3</title>
    <desc>Created with Sketch.</desc>
    <defs></defs>
    <g id="Page-1" stroke="none" stroke-width="1" fill-rule="evenodd">
        <g id="ICON_VECTOR" transform="translate(-1330.000000, -1804.000000)" fill="#000000">
            <g id="Group-3" transform="translate(1330.000000, 1804.000000)">
                <path d="M88.3,6.2 C76.9,2.5 64.2,0.5 58,0.5 C51.2,0.5 38.3,3.3 27.4,7.3 C16,11.4 0.8,18.4 0.8,31.4 L0.8,32.2 L26.3,203 C26.7,220.9 39.4,232.9 58,232.9 C77.5,232.9 89.3,217.9 89.7,203 L115.1,33 L115.2,32.2 L115.2,31.4 C115.2,20.5 106.1,12.1 88.3,6.2 L88.3,6.2 Z" id="Shape"></path>
                <path d="M57.9,251.4 C33.6,251.4 15.9,268.5 15.9,292 C15.9,315.5 33.5,332.6 57.9,332.6 C82.3,332.6 99.9,315.5 99.9,292 C99.9,268.5 82.3,251.4 57.9,251.4 L57.9,251.4 Z" id="Shape"></path>
            </g>
        </g>
    </g>
</svg>