<?xml version="1.0" encoding="UTF-8"?>
<svg width="237px" height="237px" viewBox="0 0 237 237" version="1.1" xmlns="http://www.w3.org/2000/svg" xmlns:xlink="http://www.w3.org/1999/xlink">
    <!-- Generator: Sketch 40.3 (33839) - http://www.bohemiancoding.com/sketch -->
    <title>Shape</title>
    <desc>Created with Sketch.</desc>
    <defs></defs>
    <g id="Page-1" stroke="none" stroke-width="1" fill-rule="evenodd">
        <g id="ICON_VECTOR" transform="translate(-1862.000000, -1433.000000)" fill="#000000">
            <path d="M1980.3,1433.8 C2045.6,1433.8 2098.2,1486.5 2098.2,1551.7 C2098.2,1617 2045.6,1669.5 1980.3,1669.5 C1915.1,1669.5 1862.4,1616.9 1862.4,1551.5 C1862.5,1486.4 1915.1,1433.8 1980.3,1433.8 L1980.3,1433.8 Z M1996.5,1577.2 L1996.5,1576.3 L1996.5,1474.6 C1996.5,1473.7 1996.3,1473.4 1995.3,1473.4 L1964.8,1473.4 L1963.8,1473.4 L1963.8,1577 C1974.8,1577.2 1985.6,1577.2 1996.5,1577.2 L1996.5,1577.2 Z M2000.5,1609.6 C2000.7,1598.2 1991.4,1589.5 1980.5,1589.4 C1969.4,1589.3 1960.2,1598.2 1960.2,1609.5 C1960.2,1621.3 1969.4,1629.8 1980.3,1629.8 C1991.3,1629.8 2000.6,1621.3 2000.5,1609.6 L2000.5,1609.6 Z" id="Shape"></path>
        </g>
    </g>
</svg>