<?xml version="1.0" encoding="UTF-8"?>
<svg width="317px" height="316px" viewBox="0 0 317 316" version="1.1" xmlns="http://www.w3.org/2000/svg" xmlns:xlink="http://www.w3.org/1999/xlink">
    <!-- Generator: Sketch 40.3 (33839) - http://www.bohemiancoding.com/sketch -->
    <title>Group</title>
    <desc>Created with Sketch.</desc>
    <defs></defs>
    <g id="Page-1" stroke="none" stroke-width="1" fill-rule="evenodd">
        <g id="ICON_VECTOR" transform="translate(-1460.000000, -1357.000000)" fill="#000000">
            <g id="Group" transform="translate(1460.000000, 1357.000000)">
                <path d="M0.6,159.8 C1.7,202.8 16.9,240 47.5,270.2 C78.7,301.1 116.7,316.6 160.6,316 C249.2,314.7 311.8,244.1 316.1,168.7 C318.6,125.5 305.9,87.2 277.5,54.6 C250.3,23.4 215.7,5.5 174.4,1.2 C144.7,-1.9 116.2,3.2 89.3,16.4 C62.4,29.6 40.9,48.9 24.9,74.3 C9,99.6 1,127.3 0.6,157.2 L0.6,159.8 Z M50.9,151.1 C58,142.5 65.4,134.3 73.8,127 C80.3,121.3 86.9,115.8 93.9,110.7 C105.7,102.2 118.5,95.4 132.6,91.2 C141.2,88.6 150,87.1 158.9,87.1 C169.2,87.1 179.3,89 189.1,92.3 C196.7,94.9 204,98.1 210.9,102.2 C216.9,105.8 222.9,109.6 228.5,113.8 C234.4,118.2 240,122.9 245.4,127.8 C253.5,135.1 261,143.1 267.8,151.7 C268.5,152.6 268.5,153.2 267.8,154.1 C261.4,162.2 254.4,170 246.7,176.8 C240.3,182.4 233.8,188 227.1,193.2 C219.5,199.1 211.2,203.9 202.5,208.1 C195.3,211.6 187.9,214.3 180.1,216.1 C173.3,217.7 166.4,218.6 159.3,218.7 C148.4,218.6 137.8,216.6 127.4,212.9 C117.4,209.4 108.1,204.5 99.2,198.8 C88.6,191.9 78.6,184.1 69.6,175 C63.8,169.1 58.3,162.9 52.6,156.9 C51.9,156.2 51.5,155.2 50.8,154.6 C49.4,153.2 49.9,152.3 50.9,151.1 L50.9,151.1 Z" id="Shape"></path>
                <path d="M161.5,196.7 C184.2,195.1 201.6,176.3 201,153.2 C200.3,128.2 179.8,111 157.6,111.7 C133.5,112 114.6,132.7 115.9,156.5 C117.1,179.4 136.6,198.4 161.5,196.7 L161.5,196.7 Z" id="Shape"></path>
            </g>
        </g>
    </g>
</svg>