<svg width="243px" height="313px" viewBox="1496 286 243 313" version="1.1" xmlns="http://www.w3.org/2000/svg" xmlns:xlink="http://www.w3.org/1999/xlink">
    <!-- Generator: Sketch 39.1 (31720) - http://www.bohemiancoding.com/sketch -->
    <desc>Created with Sketch.</desc>
    <defs></defs>
    <path d="M1516.1,446 L1516.1,447.9 L1516.1,594.3 C1516.1,597.3 1514.5,598.8 1511.6,598.8 C1507.8,598.7 1504,598.8 1500.1,598.8 C1499.3,598.8 1498.5,598.6 1497.8,598.3 C1496.9,597.9 1496.2,597.2 1496.2,596 C1496.2,595.4 1496.1,594.9 1496.1,594.3 C1496.1,493.4 1496.1,392.4 1496,291.5 C1496,288 1497.8,287 1500.6,287 L1733.4,287 C1734.8,287 1736.2,287.1 1737.3,288.3 C1738.4,289.6 1738.5,290.8 1737.5,292.1 C1734,297 1730.4,301.9 1726.9,306.8 C1721.5,314.3 1716,321.7 1710.6,329.2 C1705.2,336.7 1699.7,344.1 1694.3,351.6 C1690.9,356.3 1687.4,360.9 1684,365.6 C1683.5,366.3 1683.5,366.8 1684,367.4 C1686.6,370.9 1689.1,374.3 1691.7,377.8 C1696.4,384.3 1701,390.8 1705.7,397.3 C1709.7,402.9 1713.8,408.4 1717.9,414 C1722.7,420.5 1727.4,427.1 1732.2,433.6 C1734,436 1735.8,438.4 1737.6,440.8 C1739.2,443 1737.6,445.4 1734.8,445.8 C1734.3,445.9 1733.7,445.8 1733.1,445.8 L1518,445.8 C1517.5,446 1516.9,446 1516.1,446 L1516.1,446 Z M1702.7,307 L1516.2,307 L1516.2,425.9 L1702.6,425.9 C1702.3,425.5 1702.2,425.1 1702,424.8 C1699.2,421.1 1696.3,417.5 1693.5,413.8 C1690,409.2 1686.6,404.5 1683.1,399.8 C1680.2,396 1677.3,392.2 1674.4,388.3 C1671.5,384.5 1668.7,380.7 1665.8,376.8 C1663.6,373.9 1661.4,371.1 1659.3,368.3 C1658.5,367.2 1658.4,365.8 1659.3,364.7 C1661.8,361.3 1664.3,357.9 1666.9,354.5 C1669.3,351.3 1671.8,348.1 1674.2,344.9 C1677,341.2 1679.8,337.4 1682.6,333.7 C1685.1,330.4 1687.6,327.1 1690,323.8 C1692.9,319.9 1695.9,316.1 1698.8,312.3 C1700.1,310.7 1701.3,308.9 1702.7,307 L1702.7,307 Z" id="Shape" stroke="none" class="shape" fill-rule="evenodd"></path>
</svg>