<?xml version="1.0" encoding="utf-8"?>
<!-- Generator: Adobe Illustrator 21.0.0, SVG Export Plug-In . SVG Version: 6.00 Build 0)  -->
<svg version="1.1" id="Calque_1" xmlns="http://www.w3.org/2000/svg" xmlns:xlink="http://www.w3.org/1999/xlink" x="0px" y="0px"
	 viewBox="0 0 290.7 317.3" style="enable-background:new 0 0 290.7 317.3;" xml:space="preserve">
<g>
	<path d="M95.5,213.4c13.8-8,27.3-15.7,40.7-23.6c0.8-0.5,1.6-1.6,1.6-2.4c0-16.4-0.1-32.8-0.2-49.2c0-0.1-0.1-0.2-0.3-0.8
		c-1.1,0-2.3,0-3.6,0c-9.1,0-18.2,0.1-27.3,0c-12.2-0.1-19.5-6.7-19.8-18.8c-0.3-10.5-0.3-21.1,1-31.5c1.5-11.6,8.5-20.4,18-26.9
		c3.5-2.4,7.8-1.7,10.2,1.5c2.4,3.2,2,7.8-1.6,10.2c-10.1,7-13.8,16.6-13.2,28.5c0.3,5.7,0,11.5,0.1,17.2c0,3.9,1.3,5.1,5.2,5.2
		c25.9,0,51.7,0,77.6,0c3.1,0,5.2-1,5.2-4.4c0-8.5,0.2-17-0.3-25.5c-0.5-8.5-4.9-15-11.6-20.2c-1.7-1.3-3.4-3.2-4.1-5.1
		c-1.1-2.9,0-5.7,2.6-7.6c2.8-2,5.8-2.1,8.7-0.1c11.9,8.2,18.8,19.3,19.3,33.9c0.3,8.7,0.2,17.5,0.1,26.2
		c-0.2,9.1-7.9,16.9-17.5,17.2c-9.6,0.4-19.2,0.1-28.7,0.2c-1.4,0-2.8,0-4.5,0c-0.1,1.1-0.3,2-0.3,2.9c0,15.3-0.1,30.7,0.1,46
		c0,1.3,0.9,3.1,1.9,3.7c12.8,7.5,25.6,14.9,38.5,22.3c0.5,0.3,1.1,0.4,1.8,0.7c1.8-13,8.2-22.8,19.9-28.6c22-11,48.7,3.8,51.5,28.1
		c1.8,15.7-7.9,32.8-24.2,38.2c-16.3,5.3-34.2-1.6-42.7-16.4c-0.6-1.1-1.5-2.2-2.5-2.8c-16.2-9.4-32.6-18.7-48.8-28.2
		c-2-1.2-3.4-1.2-5.5,0c-16.6,9.6-33.2,19.1-49.8,28.6c-0.9,0.5-1.6,1.7-2.2,2.7c-7.8,13.2-21.8,20-36.5,17.5
		c-15.2-2.5-26.3-13.1-29.6-28.1c-4.1-19,8.2-38.2,27.1-42.3c19.6-4.2,38.8,7.9,42.9,27.1C94.9,210.1,95.1,211.5,95.5,213.4z
		 M38.5,216.6c0,11.8,9.4,21.2,21.2,21.2c11.9,0,21-9.4,21-21.7c0-11.2-9.5-20.6-20.9-20.7C48,195.4,38.5,204.8,38.5,216.6z
		 M209.6,216.6c0,11.8,9.4,21.2,21.2,21.2c11.7,0,21-9.4,21-21.3c0-11.6-9.4-21-20.9-21C219.1,195.4,209.6,204.8,209.6,216.6z"/>
	<path d="M59.7,316.2c-12.8,0-25.6,0-38.4,0c-12.4,0-19.8-6.5-20.2-18.8c-0.3-10.5-0.3-21.1,1-31.5c1.4-11.6,8.5-20.4,18-27
		c3.6-2.5,8.1-1.7,10.5,1.7c2.3,3.2,1.6,7.7-1.9,10.2c-9.5,6.6-13.4,15.8-13,27.2c0.2,6.1,0,12.2,0,18.3c0,4,1.2,5.3,5.1,5.3
		c26,0,52,0,77.9,0c2.9,0,5-1.1,5-4.3c0-8.4,0.2-16.8-0.2-25.1c-0.4-8.8-4.9-15.5-11.9-20.8c-1.7-1.3-3.3-3.2-4-5.2
		c-1-2.9,0.2-5.7,2.9-7.5c2.8-1.9,5.6-1.9,8.4,0c11.8,8.1,18.8,19,19.4,33.5c0.4,9,0.3,18,0.1,26.9c-0.2,9.4-8.6,17.1-18.7,17.2
		C86.2,316.3,73,316.2,59.7,316.2C59.7,316.2,59.7,316.2,59.7,316.2z"/>
	<path d="M230.5,316.2c-12.8,0-25.6,0-38.4,0c-12.1,0-19.6-6.7-20-18.7c-0.3-10.4-0.3-20.9,0.9-31.2c1.4-11.8,8.4-20.6,18-27.4
		c3.6-2.5,8.1-1.8,10.5,1.6c2.4,3.3,1.6,7.8-2.1,10.4c-6.7,4.7-11.5,10.8-12.2,19c-0.7,9.3-0.5,18.6-0.5,28c0,2.4,1.9,3.5,4.2,3.6
		c2.8,0.1,5.5,0,8.3,0c22.9,0,45.7,0,68.6,0c6.2,0,6.9-0.7,6.9-7.1c0-6.2,0.1-12.5,0.1-18.7c-0.1-10.4-4-18.8-12.8-24.7
		c-2.8-1.9-4.2-4.6-3.6-8c0.6-3.1,2.8-5.2,5.8-5.5c1.9-0.2,4.4,0.4,6,1.5c11.9,8.2,18.6,19.4,19,34c0.2,8,0.1,16,0.1,24.1
		c0,11-7.9,19-19,19.1C257.1,316.3,243.8,316.2,230.5,316.2z"/>
	<path d="M145.2,2c19.7,0.1,36.1,16.4,36,35.9c-0.1,19.5-16.4,35.7-35.7,35.8c-20.2,0-36.1-15.8-36-35.9
		C109.5,17.7,125.3,1.9,145.2,2z M145.2,58.9c12,0,21-9.3,21-21.6c0-11.2-9.5-20.6-21-20.7c-11.6-0.1-21.2,9.4-21.2,21.2
		C124,49.6,133.4,58.9,145.2,58.9z"/>
</g>
</svg>
