<?xml version="1.0" encoding="utf-8"?>
<!-- Generator: Adobe Illustrator 21.0.0, SVG Export Plug-In . SVG Version: 6.00 Build 0)  -->
<svg version="1.1" id="Calque_1" xmlns="http://www.w3.org/2000/svg" xmlns:xlink="http://www.w3.org/1999/xlink" x="0px" y="0px"
	 viewBox="0 0 316 317.3" style="enable-background:new 0 0 316 317.3;" xml:space="preserve">
<g>
	<path d="M130.3,145c-2.8-2.7-5.2-5.4-7.9-7.7c-4.1-3.6-7.2-8-8.9-13c-1.7-5.1-2.2-10.5-0.9-16.2c1.7-7.2,6.4-12,11.3-16.9
		c8-7.9,16-15.9,23.9-23.9c6.2-6.2,12.3-12.6,18.5-18.9c5.8-5.8,11.7-11.4,17.5-17.1c4.7-4.7,9.2-9.6,14-14.3c4.6-4.5,9-9.3,15.2-12
		c4.5-2,9.2-2.9,13.8-2.5C232,3,237.2,4.7,241,8.4c22.4,22.2,44.9,44.5,67,67c5.5,5.6,7.6,13.1,6.3,20.8
		c-1.4,8.4-5.9,15.2-12.4,20.9c-4.8,4.1-8.9,9-13.3,13.5c-5.9,6-11.9,12-17.9,18c-6.8,6.8-13.7,13.6-20.5,20.4
		c-7.9,7.9-15.7,15.8-23.7,23.7c-2.4,2.4-4.8,5-7.6,7c-7.3,5.3-15.3,7-24.1,4.3c-5-1.5-9.4-3.9-13.1-7.7c-5-5.1-10.1-10.1-15.1-15.2
		c-3.2-3.3-3.3-8-0.3-11.1c2.6-2.8,7.6-3.2,11.1,0.4c4.5,4.6,8.9,9.3,13.7,13.6c2.4,2.1,5.2,3.9,8.1,5.1c4.7,1.9,8.7-0.3,12-3.5
		c4-3.8,7.8-7.7,11.7-11.7c4.6-4.7,9.1-9.5,13.7-14.1c3.5-3.6,7.3-6.9,10.8-10.5c6.9-7,13.7-14.1,20.7-21
		c5.8-5.8,11.8-11.5,17.6-17.3c3.2-3.2,6.6-6.3,9.6-9.7c5.1-5.8,5.1-12.5-0.8-18.4c-6.8-6.9-13.6-13.6-20.4-20.5
		c-13.3-13.3-26.6-26.6-40-39.9c-4.7-4.7-11.4-5.9-16.2-2.4c-3.5,2.6-6.6,5.9-9.7,8.9c-2.8,2.7-5.4,5.4-8.1,8.1
		c-2.6,2.6-5.2,5.3-7.7,7.9c-2.3,2.4-4.6,4.7-6.9,7c-3.7,3.6-7.4,7.2-11,10.8c-6.2,6.1-12.5,12.3-18.7,18.4
		c-7.2,7.1-14.3,14.3-21.4,21.4c-2.6,2.6-5.1,5.1-6.5,8.8c-1.1,3-0.7,5.6,0.5,8.1c1,2.1,2.5,4.1,4.1,5.8c4.4,4.6,8.9,9,13.4,13.5
		c4.4,4.4,4.3,8.5-0.1,12.9c-24.5,24.5-48.9,48.9-73.4,73.4c-2.2,2.2-4.3,4-7.7,3.4c-3.2-0.6-5.3-2.4-6.3-5.4
		c-1-2.9-0.2-5.7,1.9-7.9c4.9-5.1,10-10,15-15c5.7-5.8,11.3-11.7,17-17.4c6.4-6.4,13-12.7,19.5-19.1c5-4.9,10-9.9,14.9-14.9
		C127.8,147.9,128.9,146.6,130.3,145z"/>
	<path d="M148.6,198.3c0.3-4.1,0.4-7.2,0.9-10.2c0.6-3.3,4-5.1,7.3-4.8c6.1,0.6,7.2,3.8,7.6,8.9c0.4,4.4,0.1,8.9,0.1,13.3
		c0,4.9-3.4,8.2-8.4,8.3c-2,0-4,0.3-5.9,0c-3.8-0.6-6.4,0.9-9,3.6c-6.7,7.1-13.8,13.9-20.7,20.8c-1.3,1.2-1.7,2.3-1.6,4.3
		c0.2,4-0.3,8-0.9,11.9c-0.6,3.5-3.7,4.5-6.6,4.7c-5.1,0.3-10.2,0.2-15.3,0.1c-7-0.2-9-6.8-6.9-12.1c0.9-2.3,5.5-4,8.3-3.7
		c1.9,0.2,3.9,0.2,6.1,0.3c0-1.6,0.2-3.2,0-4.6c-1-5.5,2.2-8.9,5.7-12.3c3.8-3.7,7.4-7.5,11.2-11.2c3.6-3.6,7.3-7.1,11-10.7
		c1.6-1.5,2.8-3.5,4.5-4.7c1.4-1,3.3-1.7,5-1.9C143.4,198,146.1,198.3,148.6,198.3z"/>
	<path d="M255.6,115.8c-12.8,0.6-24-10-24-23.3c0.1-11.9,8.7-22.7,22.6-22.6c13.6,0.1,22.2,9.7,23.2,21.6
		C278.5,104.9,267.6,115.6,255.6,115.8z M261.9,92.6c0-3.8-3.3-7.1-7.3-7.2c-4.3-0.1-7.5,3.5-7.6,8.7c-0.1,3.2,3.9,6.2,7.9,6.2
		C258,100.2,261.9,95.9,261.9,92.6z"/>
	<path d="M67.1,274.1c-3.5-1.3-6.3,1.1-9,3.6c-4,3.8-7.9,7.8-11.8,11.7c-2.4,2.4-4.8,4.9-7,7.5c-2.1,2.4-4.6,3.6-7.7,3.6
		c-3.6,0-7.3-0.6-10.8-0.1c-4.3,0.6-4.7-0.9-4.3-4.6c0.5-4.4,0.1-8.9,0.1-13.3c0-0.7,0.5-1.5,1.1-2c4.7-4.7,9.5-9.4,14.2-14.2
		c3-3,6.1-6,8.7-9.3c1.5-2,2.1-4.6,2.9-6.4c1.4,1.4-5.8-8.2-4.5-5.9c-2.8-1.5-5.8-1.8-8.6,0.6c-2.4,2.2-4.8,4.4-7.1,6.7
		c-6.6,6.7-13.3,13.3-19.7,20.2c-1.4,1.5-2.4,3.9-2.4,5.9c-0.2,9.6-0.1,19.2-0.1,28.9c0,5.9,3,9.1,9,9.1c9.7,0.1,19.3,0.1,29-0.2
		c2.1-0.1,4.7-1.2,6.3-2.7c8.2-7.9,16.1-16.2,24.3-24.1c3.6-3.5,3.9-7.2,2.3-11.7C74,278.5,65.6,272.6,67.1,274.1z"/>
	<path d="M294.1,154.6c-1.5,0-3,0.4-4.2,1.2c-2.3,1.4-3.8,3.9-3.8,6.7c0,56.2-36.3,104.1-86.6,121.5c-13.1,4.6-27.3,7-41.9,7
		c-13.9,0-27.2-2.2-39.7-6.3c-5.1-1.7-10.1-3.7-14.9-5.9c-43.6-20.6-73.9-65-73.9-116.3c0-7.1,0.6-14.1,1.7-21
		c0.8-5.1,2-10.2,3.4-15.1c0.9-3,1.9-6,2.9-8.9c1.7-4.5,3.6-8.9,5.8-13.2c2.7-5.2,5.7-10.2,9-15c1.6-2.4,3.4-4.7,5.1-6.9
		c2.3-2.9,4.8-5.7,7.3-8.4c23-24.2,55.3-39.5,91.1-40.1c0.7,0,1.4,0,2.2,0c2,0,4.1,0.1,6.3,0.2c4.4,0.2,8.1-3.2,8.3-7.6
		c0.2-4.4-3.2-8.1-7.6-8.3c-2.4-0.1-4.7-0.2-7-0.2C118,18.1,82.1,34.1,56,60c-3,3-5.9,6.1-8.6,9.3c-6.6,7.8-12.4,16.3-17.3,25.4
		c-1.9,3.6-3.7,7.4-5.4,11.2c-0.1,0.2-0.2,0.3-0.2,0.5c-0.3,0.8-0.7,1.6-1,2.4c-0.3,0.8-0.6,1.5-0.9,2.3c-0.2,0.4-0.3,0.8-0.5,1.2
		c-4.4,11.9-7.3,24.5-8.4,37.6c-0.4,4.2-0.6,8.4-0.6,12.6c0,6.1,0.4,12.1,1.1,18c0.1,0.5,0.1,0.9,0.2,1.4c0,0.3,0.1,0.6,0.1,0.9
		c0.6,4.2,1.4,8.3,2.3,12.4c2.6,11.2,6.5,21.8,11.5,31.9c2.2,4.4,4.6,8.6,7.2,12.7c3.8,6,8.1,11.7,12.7,17.1
		c4.6,5.3,9.6,10.3,14.9,14.9c4.7,4.1,9.7,7.8,14.9,11.3c22.8,15.1,50.1,23.9,79.5,23.9c79.6,0,144.4-64.8,144.4-144.4
		C302.1,158.2,298.5,154.6,294.1,154.6z"/>
	<path d="M29.8,231.3"/>
</g>
</svg>
