<svg width="267px" height="267px" viewBox="2222 1043 267 267" version="1.1" xmlns="http://www.w3.org/2000/svg" xmlns:xlink="http://www.w3.org/1999/xlink">
    <!-- Generator: Sketch 41.2 (35397) - http://www.bohemiancoding.com/sketch -->
    <desc>Created with Sketch.</desc>
    <defs></defs>
    <g id="Group-5" stroke="none" stroke-width="1" fill-rule="evenodd" transform="translate(2222.000000, 1043.000000)">
        <circle id="Oval" class="shape" cx="133.2" cy="133.2" r="133"></circle>
        <path d="M246.2,135.2 C246,135.1 242.1,132.9 236.5,129.6 C236.2,129.4 236,129.2 235.7,129.1 C235.5,129 235.2,128.8 235,128.7 C232.6,127.3 230,125.8 227.3,124.2 C227.1,124.1 226.9,124 226.7,123.8 C226.5,123.7 226.4,123.6 226.2,123.5 C225.1,122.9 223.9,122.2 222.8,121.5 C222.5,121.3 222.2,121.1 221.9,120.9 C221.6,120.7 221.3,120.6 221,120.4 C214.4,116.6 207.5,112.6 201.6,109.2 C201.3,109 201.1,108.9 200.8,108.7 C200.6,108.6 200.3,108.4 200.1,108.3 C196.7,106.3 193.6,104.6 191.2,103.2 C190.9,103 190.6,102.8 190.4,102.7 C190.2,102.6 190,102.5 189.7,102.4 C187,100.8 185.3,99.9 185.2,99.8 L185.2,101.1 L185.2,126.6 L185.2,127.1 L76.5,127.1 C72.8,115.7 62.1,107.4 49.4,107.4 C33.7,107.4 20.9,120.2 20.9,135.9 C20.9,151.6 33.7,164.4 49.4,164.4 C62,164.4 72.7,156.2 76.5,144.8 L185,144.8 L185,145.2 L185,170.9 L185,172 C185.5,171.8 186,171.6 186.3,171.4 C187,171 187.7,170.5 188.4,170.1 C188.8,169.8 189.2,169.5 189.6,169.3 C190.3,168.9 191,168.6 191.6,168.2 C192,168 192.4,167.8 192.7,167.6 C193.4,167.2 194.1,166.7 194.8,166.3 C195.2,166.1 195.6,165.8 196,165.6 C196.7,165.2 197.3,164.8 198,164.5 C198.4,164.3 198.8,164.1 199.2,163.9 C199.9,163.5 200.5,163.1 201.2,162.6 C201.7,162.3 202.1,162.1 202.6,161.8 C203.3,161.4 204.1,161.1 204.8,160.7 C205.6,160.3 206.3,159.8 207.1,159.4 C207.3,159.3 207.5,159.1 207.7,159 C208.6,158.5 209.5,158 210.4,157.4 C210.7,157.2 211.1,157.1 211.4,156.9 C211.9,156.6 212.3,156.3 212.8,156 C213.6,155.5 214.5,155 215.3,154.6 C215.9,154.3 216.4,154 217,153.7 C217.7,153.3 218.5,152.8 219.2,152.4 C219.6,152.2 220,152 220.3,151.8 C220.6,151.6 220.9,151.4 221.3,151.2 C222.5,150.5 223.6,149.9 224.7,149.2 C225.1,149 225.5,148.8 225.9,148.6 C226.6,148.2 227.4,147.7 228.1,147.3 C228.5,147.1 228.8,146.9 229.2,146.7 C229.5,146.5 229.7,146.4 230,146.2 C230.6,145.9 231.1,145.6 231.7,145.2 C232,145.1 232.2,145 232.5,144.8 C232.7,144.7 232.9,144.5 233.1,144.4 C234.6,143.6 235.9,142.8 237.2,142 C237.5,141.9 237.8,141.7 238.1,141.5 C238.6,141.2 239,140.9 239.5,140.7 C240.9,139.9 242.2,139.1 243.2,138.6 C243.4,138.5 243.5,138.4 243.7,138.3 C244.5,137.8 245.3,137.4 246.1,136.9 C246.4,136.7 246.7,136.5 247.1,136.2 L247.1,135.7 C246.8,135.7 246.5,135.4 246.2,135.2 Z" id="Shape" fill="#FFFFFF"></path>
    </g>
</svg>