
<svg width="439px" height="326px" viewBox="951 278 439 326" version="1.1" xmlns="http://www.w3.org/2000/svg" xmlns:xlink="http://www.w3.org/1999/xlink">
    <!-- Generator: Sketch 39.1 (31720) - http://www.bohemiancoding.com/sketch -->
    <desc>Created with Sketch.</desc>
    <defs></defs>
    <g id="Group" stroke="none" stroke-width="1" fill-rule="evenodd" transform="translate(951.000000, 278.000000)">
        <path d="M438,178.2 L438,34.9 C438,30.1 438.3,25.3 436.6,20.7 C436,19.1 435.7,17.3 434.9,15.8 C433.7,13.6 432.2,11.6 430.5,9.7 C429,8 427.1,6.5 425.3,5 C424.4,4.2 423.3,3.6 422.2,3.1 C420.6,2.4 419,1.9 417.4,1.3 C412.8,-0.1 403.8,0.2 400.3,1.2 C398.1,1.8 396.2,2.8 394.2,3.7 C392.6,4.4 391.2,5.6 389.8,6.7 C388.4,7.9 387,9.2 385.9,10.6 C384.6,12.3 383.7,14.2 382.7,16.1 C381.9,17.5 381,19 380.7,20.5 C380.2,22.9 379.7,25.3 379.7,27.8 C379.8,47.9 379.7,68 379.7,88.1 C379.7,88.7 379.6,89.2 379.6,89.7 C378.6,89.5 377.8,89.3 377,89.1 C375.3,88.7 370.1,87.7 369.2,87.7 C360.1,86.5 352.6,90.8 351.1,91.6 C349.2,92.7 347.3,93.9 345.6,95.4 C343.9,96.8 342.5,98.5 340.9,100.1 C338.8,102.2 336.7,104.3 334.6,106.3 C332.7,108.1 330.9,110 329,111.9 C326.9,114 324.7,116.1 322.6,118.2 C320.7,120.1 318.9,121.9 317,123.8 C314.9,125.9 312.7,128 310.6,130.1 C308.7,132 306.9,133.8 305.1,135.7 C303,137.8 300.8,139.9 298.7,142 C296.8,143.9 295,145.7 293.2,147.6 C291.3,149.5 289.5,151.3 287.6,153.2 C285.5,155.3 283.4,157.4 281.2,159.6 C279.3,161.5 277.5,163.3 275.6,165.2 C273.5,167.3 271.4,169.5 269.3,171.6 C267.4,173.5 265.6,175.3 263.7,177.2 C261.6,179.3 259.5,181.5 257.4,183.6 C255.5,185.5 253.7,187.3 251.8,189.2 C250.1,190.9 248.5,192.6 247,194.4 C246.1,195.5 245.3,196.8 244.6,198 C243.7,199.5 242.7,201 241.9,202.5 C241.3,203.8 240.8,205.3 240.4,206.7 C240,208.4 239.6,210.1 239.6,211.8 C239.5,246.4 239.5,281 239.6,315.6 C239.6,316.8 239.8,318.2 240.5,319.2 C242.1,321.7 244.4,323.5 247.3,323.9 C249.4,324.2 251.5,323.7 253.3,322.4 C256,320.4 257.4,317.7 257.4,314.4 L257.4,217.2 C257.4,215.1 257,213 258,210.9 C258.5,209.8 259,208.7 259.5,207.6 C260.4,205.5 262.2,204.2 263.6,202.6 C265.9,200.1 268.4,197.9 270.7,195.6 C273.3,193 275.8,190.3 278.4,187.7 C280.8,185.3 283.2,183.1 285.6,180.7 C288,178.3 290.2,175.9 292.6,173.5 C295,171.1 297.4,168.9 299.8,166.5 C302.2,164.1 304.4,161.7 306.8,159.3 C309.2,156.9 311.6,154.5 314,152.1 C316.1,150 318.2,148 320.2,145.9 C322.3,143.8 324.5,141.6 326.6,139.4 C328.7,137.3 330.7,135.3 332.8,133.2 C334.9,131.1 337.1,128.9 339.2,126.8 C341.3,124.7 343.3,122.6 345.4,120.6 C347.5,118.5 349.7,116.3 351.9,114.2 C353.5,112.6 354.9,110.9 356.6,109.5 C357.8,108.6 362.6,105.9 363.7,105.8 C367.1,105.5 370.6,105.3 373.7,107.2 C375.1,108 376.6,108.9 377.8,110 C379.1,111.4 380.3,112.9 381.1,114.7 C382.2,117 383,119.2 382.9,121.6 C383,125.4 380.8,129 379.9,130.1 C378.1,132.3 376,134.3 374,136.3 C371.4,138.9 368.7,141.4 366.1,144 C363.7,146.4 361.5,148.8 359.1,151.2 C356.5,153.8 353.8,156.3 351.2,158.9 C349.1,161 347,163.2 344.9,165.4 C344.6,165.7 344.2,165.9 343.9,166.3 L336.9,173.3 C336.7,173.5 336.5,173.7 336.3,173.9 C336,174.2 335.7,174.5 335.4,174.8 L322.2,188 C318.7,191.5 318.7,197.2 322.2,200.7 L322.2,200.7 C325,203.5 329.2,204 332.5,202.4 C333,202.3 333.4,202 333.7,201.7 C335.3,200.3 336.8,198.9 338.3,197.4 C340.2,195.5 342,193.6 343.9,191.7 L351.7,183.9 C353.5,182.2 355.2,180.5 357,178.8 C360.1,175.7 363.1,172.5 366.2,169.4 C369.3,166.3 372.5,163.3 375.6,160.2 C378.9,156.9 382.2,153.4 385.5,150 C388.6,146.8 392.1,144.1 394.5,140.3 C395.9,138.1 397.3,136 398,133.5 C398.3,132.6 398.5,131.8 398.8,130.9 C399.5,129 400.8,119.5 399.5,114.6 C399,113.2 397.1,107.4 397.1,105.9 L397.1,29.8 C397.1,27.6 397.1,25.5 398.5,23.6 C399.8,21.8 400.9,19.9 403.3,19.4 C403.4,19.4 403.6,19.2 403.7,19.2 C404.6,18.8 405.4,18.3 406.3,18.2 C408.8,17.9 411.1,18 413.4,19.4 C415.3,20.5 416.9,21.9 417.8,23.6 C418.9,25.4 419.5,27.6 419.5,30 C419.4,79.7 419.5,129.4 419.5,179.1 C419.5,179.9 419.6,180.8 419.5,181.6 C419.3,182.7 419,183.8 418.7,184.8 C418.5,185.4 418.2,186 417.8,186.4 C416.4,188 414.9,189.5 413.4,191 C410.5,193.8 407.6,196.6 404.7,199.5 C401.6,202.6 398.6,205.8 395.5,208.9 C392.9,211.5 390.2,214 387.5,216.6 C384.4,219.7 381.4,222.9 378.3,226 C375.4,228.9 372.5,231.6 369.6,234.5 C366.7,237.4 364,240.3 361.1,243.2 C358.2,246.1 355.3,248.8 352.4,251.7 C349.5,254.6 346.8,257.5 343.9,260.4 C341,263.3 338.1,266 335.2,268.9 C332.3,271.8 329.6,274.7 326.7,277.6 C324.2,280.2 321.1,282.4 319.2,285.6 C318.5,286.7 317.9,287.7 317.9,289.1 L317.9,289.3 C317.7,290 317.6,290.7 317.6,291.5 L317.6,307.1 L317.6,313.5 L317.6,316 C317.6,321 321.7,325.1 326.7,325.1 L326.7,325.1 C331.4,325.1 335.3,321.5 335.7,316.9 C335.7,316.6 335.8,316.3 335.8,316 L335.8,305.8 L335.8,295.1 C335.9,294 336.3,293 337.3,292.1 C339.5,290.1 341.6,287.9 343.7,285.8 C345.8,283.7 347.9,281.6 350,279.5 C352.1,277.4 354.2,275.3 356.3,273.2 C358.4,271.1 360.5,269 362.6,266.9 C364.7,264.8 366.8,262.7 368.9,260.6 C371,258.5 373.1,256.4 375.2,254.3 C377.3,252.2 379.4,250.1 381.5,247.9 C383.9,245.5 386.3,243.2 388.6,240.8 C390.9,238.5 393.3,236.1 395.6,233.7 C397.7,231.6 399.9,229.4 402,227.3 C404.1,225.2 406.2,223.1 408.4,221 C410.5,218.9 412.6,216.8 414.7,214.7 C416.8,212.6 418.9,210.5 421,208.4 C423.1,206.3 425.3,204.2 427.3,202.1 C429,200.3 430.7,198.4 432.2,196.4 C433.2,195 433.9,193.4 434.6,191.8 C435,190.8 435.1,189.6 435.5,188.5 C436.4,186.6 436.4,184.5 436.8,182.5 C438.2,180.7 438,179.5 438,178.2 L438,178.2 Z" id="Shape" class="shape"></path>
        <path d="M199.3,300.7 C199.3,271.1 199.3,241.5 199.2,211.9 C199.2,210.1 198.7,208.4 198.4,206.7 C198.2,205.9 198,205 197.6,204.3 C197,202.9 196.3,201.5 195.5,200.1 C194.4,198.2 193.4,196.3 192.1,194.6 C190.4,192.4 188.4,190.5 186.4,188.5 C183.3,185.4 180.1,182.4 177,179.3 C173.9,176.2 170.9,173 167.8,169.9 C164.9,167 162,164.3 159.1,161.4 C156,158.3 153,155.1 149.9,152 C147,149.1 144.1,146.4 141.2,143.5 C138.1,140.4 135.1,137.2 132,134.1 C129.1,131.2 126.2,128.5 123.3,125.6 C120,122.3 116.7,118.8 113.4,115.5 C109.6,111.7 105.6,107.9 101.8,104.1 C98.6,100.9 95.8,97.4 92.1,94.8 C91.2,94.2 90.2,93.6 89.3,92.9 C88.4,92.1 84.4,90.4 83.5,90 C82.7,89.7 77.9,88.2 76.4,88.1 C67.5,86.8 61.4,89.3 59.3,89.7 C59.3,89.4 59.2,88.9 59.2,88.4 L59.2,40.6 L59.2,24.8 C59.2,24.3 57.8,11.7 48.5,6.1 C46.2,4.5 39.9,0.7 34.1,0.3 C22.6,-0.5 19.3,2.4 17.8,2.9 C13.9,4.2 7.5,10.9 5.9,13.3 C1.1,20.8 1.1,29.5 1.1,30.5 L1.1,177.6 C1.1,179.9 0.6,182.3 1.7,184.6 C2.2,185.7 2,187 2.4,188.2 C3.1,190.1 3.8,192 4.7,193.8 C6,196.3 7.7,198.4 9.7,200.4 C11.8,202.5 13.9,204.7 16,206.8 C18.1,208.9 20.3,211 22.4,213.1 C24.5,215.2 26.6,217.3 28.7,219.5 C30.8,221.6 32.9,223.7 35,225.8 C37.1,227.9 39.2,230 41.3,232.1 C43.4,234.2 45.5,236.3 47.6,238.4 C49.7,240.5 51.8,242.6 53.9,244.7 C56,246.8 58.1,248.9 60.2,251 C62.3,253.1 64.4,255.2 66.5,257.3 L72.9,263.7 C75.2,266.1 77.6,268.4 79.9,270.8 C82.2,273.2 84.6,275.5 86.9,277.9 C89,280 91.2,282.2 93.3,284.3 C95.7,286.6 98,289 100.4,291.3 C101.6,292.5 102.4,293.6 102.3,295.4 C102.2,302.3 102.2,309.1 102.3,316 C102.3,317.1 102.6,318.4 103.2,319.4 C103.2,319.5 103.3,319.5 103.3,319.6 C104.1,321.2 105.5,322.4 107,323.2 C107.8,323.7 108.6,324 109.5,324 L109.8,324 C110.1,324 110.4,324.1 110.8,324.1 L111.5,324.1 L112.2,324.1 L112.3,324.1 L112.6,324.1 C113.9,324 115.1,323.6 116.2,322.8 C118.6,321.3 120.1,318.6 120.1,315.6 L120.1,308.8 C120.1,306 120.2,302.9 120.2,300.1 C119.9,297.6 120.7,288.5 119.3,286.2 C118.7,285.2 118.2,284.1 117.4,283.2 C115.4,281 113.2,279 111.1,276.9 C108.8,274.5 106.4,272.2 104.1,269.8 C101.7,267.4 99.3,265 96.9,262.6 C94.6,260.3 92.3,257.9 89.9,255.6 C87.5,253.3 85.1,251 82.8,248.6 C80.4,246.2 78,243.8 75.6,241.4 C73.3,239.1 70.9,236.8 68.6,234.4 C66.2,232 63.8,229.6 61.4,227.2 C59.1,224.8 56.8,222.4 54.4,220.1 C52.3,218 50.1,215.9 48,213.8 C45.9,211.7 43.8,209.5 41.7,207.4 C39.6,205.3 37.5,203.2 35.3,201.1 C33.2,199 31.1,196.9 29,194.7 C26.9,192.6 24.7,190.5 22.7,188.4 C21.5,187.2 20.3,185.8 19.6,184.3 C19,182.9 18.8,181.3 18.7,179.7 C18.7,130.1 18.6,28.8 18.7,27.8 C18.9,26.7 19.2,25.6 19.5,24.5 C19.7,23.9 20,23.4 20.4,22.9 C25.7,15.2 34,18.3 35.2,18.7 C39.8,20.5 40.7,25.6 41,26.7 C41.2,27.5 41.1,28.4 41.1,29.3 L41.1,104.4 L41.1,106.9 C41.1,107.2 41,107.5 40.9,107.7 C40.5,108.8 35.9,120.1 39.5,130.8 C40.1,132.1 40.4,133.6 41,134.9 C41.7,136.4 42.4,138 43.3,139.4 C44.3,140.9 45.5,142.3 46.7,143.6 C48.5,145.5 50.3,147.4 52.2,149.3 C54.3,151.4 56.4,153.5 58.5,155.6 C60.6,157.7 62.7,159.9 64.9,162 C67,164.1 69.1,166.2 71.2,168.3 C73.3,170.4 75.4,172.5 77.6,174.7 C79.5,176.6 81.3,178.4 83.2,180.3 C85.3,182.4 87.4,184.6 89.5,186.7 C91.6,188.8 93.7,190.9 95.8,193 C97.9,195.1 100.1,197.2 102.1,199.4 C103.4,200.7 104.7,202 106.5,202.5 C109.4,203.3 112.3,202.6 114.6,200.9 C116.5,199.5 117.9,197.3 117.8,194.7 C117.8,193.2 118.2,191.6 117.1,190.2 C116.5,189.5 116.2,188.5 115.6,187.8 C114.9,187 114.1,186.2 113.3,185.5 C110,182.1 106.7,178.7 103.4,175.3 C100.3,172.2 97.1,169.2 94,166.1 C90.7,162.8 87.4,159.3 84.1,155.9 C81,152.8 77.8,149.8 74.7,146.7 C71.4,143.4 68.1,139.9 64.8,136.5 C62.1,133.7 58.8,131.5 57.3,127.7 C56.8,126.3 56,125.1 56,123.6 C56,121 55.6,118.4 56.8,115.9 C57.2,115 57.5,114 58.1,113.3 C59.2,111.8 60.4,110.3 61.9,109.1 C64,107.3 66.4,106.3 69,106 C71.3,105.7 73.6,105.4 75.9,106.4 C77.1,106.9 78.5,107.2 79.7,108 C80.8,108.9 82,109.7 83,110.7 C84.9,112.5 86.8,114.3 88.7,116.2 C90.8,118.3 92.9,120.4 95,122.5 C96.9,124.4 98.7,126.2 100.6,128.1 C102.7,130.2 104.8,132.4 107,134.5 C108.9,136.4 110.7,138.2 112.6,140 C114.5,141.9 116.3,143.7 118.2,145.6 C120.3,147.7 122.5,149.8 124.6,152 C126.7,154.1 128.8,156.2 130.9,158.3 C133,160.4 135.1,162.5 137.3,164.7 C139.2,166.6 141,168.4 142.9,170.3 C145,172.4 147.1,174.5 149.2,176.6 C151.3,178.8 153.5,180.9 155.6,183.1 C157.7,185.2 159.7,187.2 161.8,189.3 C163.9,191.4 166.1,193.6 168.2,195.7 C170.3,197.8 172.3,199.8 174.4,201.9 C176.6,204.1 179.1,206.1 180.2,209.2 C180.8,210.9 181.6,212.4 181.6,214.2 L181.6,216.7 L181.6,313.4 C181.6,314.7 181.6,316 182.1,317.3 C182.7,318.9 183.4,320.2 184.5,321.5 C185.8,323 187.5,323.7 189.2,324 C191.8,324.5 194.3,323.7 196.3,321.9 C198.3,320.1 199.6,318 199.5,315.1 C199.2,310.3 199.3,305.5 199.3,300.7 L199.3,300.7 Z" id="Shape" class="shape"></path>
    </g>
</svg>