<?xml version="1.0" encoding="UTF-8"?>
<svg width="315px" height="394px" viewBox="0 0 315 394" version="1.1" xmlns="http://www.w3.org/2000/svg" xmlns:xlink="http://www.w3.org/1999/xlink">
    <!-- Generator: Sketch 40.3 (33839) - http://www.bohemiancoding.com/sketch -->
    <title>Group</title>
    <desc>Created with Sketch.</desc>
    <defs></defs>
    <g id="Page-1" stroke="none" stroke-width="1" fill-rule="evenodd">
        <g id="ICON_VECTOR" transform="translate(-562.000000, -1279.000000)" fill="#000000">
            <g id="Group" transform="translate(561.000000, 1279.000000)">
                <path d="M287.9,210.3 C285.2,205.3 281.7,203.2 276,203.2 C253.4,203.4 230.8,203.3 208.2,203.3 C198,203.3 195.2,206 195.2,216.1 L195.2,250 L130.9,250 L130.9,286.6 C129.8,286.7 129,286.9 128.2,286.9 C111.9,286.9 95.5,287 79.2,286.8 C77.5,286.8 75.6,286.1 74,285.3 C61.2,278.5 48.5,271.6 35.8,264.7 C34.9,264.2 34.1,263.5 32.9,262.7 C34.6,262 35.7,261.5 36.9,261 C66.1,249.1 95.3,237.3 124.5,225.4 C132.8,222 133.8,220.5 133.8,211.4 L133.8,201.2 L173.3,201.2 C179.1,201.2 182.5,198.1 182.8,192.5 C183.1,185.8 183.2,179.1 182.9,172.5 C182.6,165.2 179.5,162.5 172.1,162.5 L100.9,162.5 C89.4,162.5 77.9,162.4 66.4,162.5 C57.1,162.6 52.9,166.9 52.9,176.2 C52.9,181.2 53.2,186.1 53.2,191.1 C53.2,194.8 54.8,197.7 58,199 C61.1,200.3 64.5,201.1 67.8,201.2 C75.7,201.5 83.7,201.3 91.7,201.3 L117,201.3 C118.2,208.3 118.2,208.3 112.6,210.6 C78.5,224.4 44.4,238.3 10.3,252 C6.1,253.7 3.2,256.2 2.9,260.9 C2.6,265.7 5,268.9 9.3,271 C13.7,273.2 18.1,275.7 22.4,278.1 C27.3,280.8 32.2,283.4 37.1,286.1 C37,286.4 36.9,286.7 36.8,287 L32.7,287 C25.5,287 18.2,286.9 11,287 C4.9,287.1 1,290.6 1,296.3 C0.9,314.9 0.9,333.5 1,352.2 C1,356.7 4,360.7 8.1,361 C14.8,361.4 21.6,361.1 28.6,361.1 C28.7,360 28.8,359 28.9,357.9 C28.9,357.4 29,357 29,356.5 C29.6,350.4 31.6,344.7 34.5,339.8 C38.6,332.6 44.5,327.6 50.8,324.4 C58.7,320.2 68,318.4 77.2,320.1 C86.9,321.4 97.2,326 104.2,337.2 C109,343.9 111.5,351.8 112,361 L213.4,361 C217.7,335.2 231.2,321.1 253.1,319.6 C262.3,319 270.9,321.4 278.5,326.6 C290.6,334.8 296.4,346.7 297.3,361.1 C304.5,361.5 311.5,362.8 315.6,355.1 L315.6,261.3 C306.3,244.3 297,227.4 287.9,210.3 L287.9,210.3 Z M195.2,285.2 C195.2,285.6 195,286 194.9,286.7 L149.3,286.7 L149.3,268.7 L195.2,268.7 L195.2,285.2 L195.2,285.2 Z M297,286.7 L214,286.7 L214,222 L218.1,222 C235.1,222 252.2,222.1 269.2,221.9 C272,221.9 273.5,222.7 274.8,225.2 C281.6,238 288.6,250.7 295.4,263.4 C296.3,265.1 296.8,267.1 296.9,269 C297.1,274.8 297,280.6 297,286.7 L297,286.7 Z" id="Shape"></path>
                <path d="M93.5,107.7 L141,107.7 C143.6,107.7 144.9,108.2 145.1,111.1 C145.4,115.3 146.2,119.6 146.7,123.8 C148.1,134.2 149.5,144.6 150.9,154.9 L176.1,154.9 C176,153.9 176,153.2 175.9,152.5 C173.1,129.8 170,107.1 167.5,84.4 C167,80 165.4,79.2 161.5,79.3 C149.9,79.5 138.2,79.3 126.5,79.4 C123.4,79.4 122.1,78.7 121.6,75.4 C120,64.2 117.9,53 116,41.7 L84.3,41.7 C87.4,63.8 90.5,85.7 93.5,107.7 L93.5,107.7 Z" id="Shape"></path>
                <path d="M255.1,328.8 C237.4,329 223.1,343.5 223,361.3 C223,379.3 237.5,393.9 255.5,393.8 C273.5,393.7 287.8,379.3 287.7,361.1 C287.6,343.1 273,328.6 255.1,328.8 L255.1,328.8 Z M255.7,375.3 C248.3,375.5 241.7,369.3 241.5,361.7 C241.2,354 247.6,347.4 255.3,347.3 C262.9,347.2 269.2,353.4 269.3,361 C269.4,368.6 263.3,375.1 255.7,375.3 L255.7,375.3 Z" id="Shape"></path>
                <path d="M88,153.5 C106.3,158.2 126.5,151.6 137.3,137.1 C137.9,136.2 138.7,135 138.6,134.1 C138,130 137,126 136,121 C135.2,122.6 134.8,123.2 134.5,123.8 C134.2,124.4 133.9,125.1 133.5,125.7 C125,139.8 112.5,146.8 96.1,145.1 C80.4,143.5 69.4,134.7 64.3,119.8 C59,104.6 62.6,90.7 74.5,79.8 C78.1,76.5 79.3,73.7 77.8,69.3 C77.5,68.5 77.5,67.6 77.2,66.2 C76.1,66.7 75.5,66.9 74.9,67.3 C59.2,76.6 50.3,95.8 53,114.4 C55.7,133.1 69.8,148.8 88,153.5 L88,153.5 Z" id="Shape"></path>
                <path d="M96.9,31.8 C105.8,31.9 112.8,24.8 112.8,15.9 C112.8,7.2 105.8,0.3 97.1,0.3 C88.2,0.3 81,7.4 81.1,16.2 C81.2,24.7 88.2,31.7 96.9,31.8 L96.9,31.8 Z" id="Shape"></path>
                <path d="M70.3,328.6 C52.3,328.6 37.8,343.2 37.8,361.1 C37.8,364.4 38.3,367.5 39.2,370.5 C39.2,370.5 39.2,370.5 39.2,370.6 C39.3,370.9 39.4,371.3 39.5,371.6 C39.7,372.1 39.9,372.7 40.1,373.2 C42.3,378.8 46,383.8 51.1,387.6 C64.6,397.5 83.6,395.4 94.6,382.7 C95.4,381.8 96.1,380.8 96.8,379.9 C100.5,374.6 102.7,368.1 102.7,361.2 C102.8,343.2 88.3,328.6 70.3,328.6 L70.3,328.6 Z M38,359.1 L38,358.9 L38,359.1 L38,359.1 L38,359.1 Z M38,358.5 L38,358.2 L38,358.5 L38,358.5 Z M38.1,357.8 L38.1,357.5 L38.1,357.8 L38.1,357.8 Z M38.2,357 L38.2,356.6 L38.2,357 L38.2,357 Z M38.3,356.2 C38.3,356.1 38.3,356 38.4,355.8 C38.3,355.9 38.3,356.1 38.3,356.2 L38.3,356.2 Z M38.5,355.3 C38.5,355.2 38.5,355.1 38.6,354.9 C38.5,355 38.5,355.2 38.5,355.3 L38.5,355.3 Z M38.7,354.3 C38.7,354.2 38.7,354.1 38.8,354 C38.7,354.1 38.7,354.2 38.7,354.3 L38.7,354.3 Z M38.6,354.5 C38.7,354 38.8,353.4 39,352.9 C38.8,353.5 38.7,354 38.6,354.5 L38.6,354.5 Z M38.1,357.6 C38.1,357.6 38.1,357.5 38.1,357.6 C38.1,357.5 38.1,357.6 38.1,357.6 L38.1,357.6 Z M38.3,356.1 C38.3,356 38.4,355.8 38.4,355.7 C38.3,355.8 38.3,355.9 38.3,356.1 L38.3,356.1 Z M56.4,360.9 L56.4,360.1 C56.4,359.9 56.4,359.8 56.5,359.6 C56.5,359.3 56.6,359 56.6,358.7 C56.6,358.5 56.7,358.4 56.7,358.2 C56.8,357.9 56.8,357.7 56.9,357.4 C57,357.2 57,357 57.1,356.8 C57.2,356.6 57.2,356.4 57.3,356.2 C57.4,355.9 57.5,355.7 57.7,355.4 C57.8,355.3 57.8,355.1 57.9,355 C58.1,354.7 58.2,354.4 58.4,354.1 C58.5,354 58.5,353.9 58.6,353.8 C58.8,353.5 59,353.2 59.2,352.9 C59.2,352.8 59.3,352.8 59.3,352.7 C59.5,352.4 59.8,352.1 60,351.9 C60.1,351.8 60.1,351.8 60.1,351.7 C60.3,351.4 60.6,351.2 60.9,351 C61,350.9 61,350.9 61.1,350.8 C61.3,350.6 61.6,350.4 61.9,350.2 C62,350.1 62.1,350 62.2,350 C62.4,349.8 62.7,349.7 62.9,349.6 C63.1,349.5 63.2,349.4 63.4,349.3 C63.6,349.2 63.8,349.1 64,349 C64.2,348.9 64.4,348.8 64.7,348.7 C64.9,348.6 65,348.6 65.2,348.5 C65.5,348.4 65.7,348.3 66,348.2 C66.1,348.2 66.3,348.1 66.4,348.1 C66.7,348 67,347.9 67.3,347.9 C67.4,347.9 67.6,347.8 67.7,347.8 C68,347.7 68.3,347.7 68.6,347.7 L69.1,347.7 L69.9,347.7 L70.1,347.7 L70.7,347.7 L71.2,347.7 C78.4,348.3 84,354.3 84,361.6 C84,369.2 77.9,375.4 70.3,375.5 L70.1,375.5 C70.1,375.5 70.1,375.5 70,375.5 L69.6,375.5 C69.3,375.5 68.9,375.5 68.6,375.4 L68.4,375.4 C68,375.4 67.6,375.3 67.3,375.2 C61.1,374 56.4,368.6 56.1,362.2 L56.1,361.7 L56.1,361.6 C56.4,361.2 56.4,361 56.4,360.9 L56.4,360.9 Z" id="Shape"></path>
            </g>
        </g>
    </g>
</svg>