<svg width="314px" height="313px" viewBox="670 1888 314 313" version="1.1" xmlns="http://www.w3.org/2000/svg" xmlns:xlink="http://www.w3.org/1999/xlink">
    <!-- Generator: Sketch 41.2 (35397) - http://www.bohemiancoding.com/sketch -->
    <desc>Created with Sketch.</desc>
    <defs></defs>
    <g id="Group" stroke="none" stroke-width="1" fill="none" fill-rule="evenodd" transform="translate(670.000000, 1888.000000)">
        <path d="M313.3,144.9 C261,96.4 209.1,48.3 157.1,0.1 C105,48.4 53.1,96.5 0.8,144.9 L3,144.9 L41.5,144.9 C43.8,144.9 43.5,144.7 43.5,146.9 L43.5,310.6 L43.5,312.6 L269.6,312.6 L269.6,144.9 L313.3,144.9 Z" id="Shape" fill="#FFFFFF"></path>
        <path d="M313.3,144.9 L269.7,144.9 L269.7,312.6 L43.6,312.6 L43.6,310.6 L43.6,146.9 C43.6,144.7 43.8,144.9 41.6,144.9 L3.1,144.9 L0.9,144.9 C53.1,96.5 105.1,48.4 157.2,0.1 C209.1,48.3 261,96.4 313.3,144.9 Z M199.7,177.3 L114.3,177.3 L114.3,178.7 L114.3,249.6 C114.3,251 114.8,251.2 116,251.2 L198,251.2 L199.6,251.2 C199.7,226.5 199.7,202 199.7,177.3 Z" id="Shape" class="shape"></path>
    </g>
</svg>