<?xml version="1.0" encoding="UTF-8" standalone="no"?>
<!-- Created with Inkscape (http://www.inkscape.org/) -->

<svg
   xmlns:dc="http://purl.org/dc/elements/1.1/"
   xmlns:cc="http://creativecommons.org/ns#"
   xmlns:rdf="http://www.w3.org/1999/02/22-rdf-syntax-ns#"
   xmlns:svg="http://www.w3.org/2000/svg"
   xmlns="http://www.w3.org/2000/svg"
   xmlns:sodipodi="http://sodipodi.sourceforge.net/DTD/sodipodi-0.dtd"
   xmlns:inkscape="http://www.inkscape.org/namespaces/inkscape"
   width="116.55778mm"
   height="75.183998mm"
   viewBox="0 0 413 266.39999"
   id="svg4464"
   version="1.1"
   inkscape:version="0.91 r13725"
   sodipodi:docname="letter.svg">
  <defs
     id="defs4466" />
  <sodipodi:namedview
     id="base"
     pagecolor="#ffffff"
     bordercolor="#666666"
     borderopacity="1.0"
     inkscape:pageopacity="0.0"
     inkscape:pageshadow="2"
     inkscape:zoom="0.35"
     inkscape:cx="350.07143"
     inkscape:cy="44.628575"
     inkscape:document-units="px"
     inkscape:current-layer="layer1"
     showgrid="false"
     fit-margin-top="0"
     fit-margin-left="0"
     fit-margin-right="0"
     fit-margin-bottom="0"
     inkscape:window-width="1535"
     inkscape:window-height="876"
     inkscape:window-x="1665"
     inkscape:window-y="24"
     inkscape:window-maximized="1" />
  <metadata
     id="metadata4469">
    <rdf:RDF>
      <cc:Work
         rdf:about="">
        <dc:format>image/svg+xml</dc:format>
        <dc:type
           rdf:resource="http://purl.org/dc/dcmitype/StillImage" />
        <dc:title></dc:title>
      </cc:Work>
    </rdf:RDF>
  </metadata>
  <g
     inkscape:label="Layer 1"
     inkscape:groupmode="layer"
     id="layer1"
     transform="translate(-24.928571,-310.59078)">
    <path
       inkscape:connector-curvature="0"
       d="m 24.928571,310.59078 c 137.699999,0 275.199999,0 412.999999,0 0,88.7 0,177.4 0,266.4 -137.6,0 -275.2,0 -412.999999,0 0,-88.9 0,-177.6 0,-266.4 z m 207.399999,164.7 c 59.4,-49.8 118.7,-99.6 178.5,-149.7 -119.5,0 -238.2,0 -357.599999,0 59.999999,50.2 119.499999,99.9 179.099999,149.7 z m -185.999999,86.6 c 121.899999,0 243.599999,0 364.599999,0 -39.1,-39.1 -78.5,-78.5 -117.9,-117.9 -19.9,16.7 -40.2,33.7 -60.7,50.9 -21.7,-18.2 -43.3,-36.2 -64.8,-54.2 -40.5,40.6 -80.699999,80.8 -121.199999,121.2 z m 259.399999,-128.6 c 39.2,39.2 78.1,78.1 117.1,117.1 0,-71.4 0,-143 0,-215.3 -39.4,33.1 -78.3,65.8 -117.1,98.2 z m -265.799999,112.1 c 38.4,-38.4 76.699999,-76.7 115.099999,-115.1 -38,-31.8 -76.299999,-63.8 -115.099999,-96.2 0,70.9 0,141.3 0,211.3 z"
       id="path3778" />
  </g>
</svg>
