
<svg width="245px" height="313px" viewBox="1847 286 245 313" version="1.1" xmlns="http://www.w3.org/2000/svg" xmlns:xlink="http://www.w3.org/1999/xlink">
    <!-- Generator: Sketch 41.2 (35397) - http://www.bohemiancoding.com/sketch -->
    <desc>Created with Sketch.</desc>
    <defs></defs>
    <g id="Group" stroke="none" stroke-width="1" fill="none" fill-rule="evenodd" transform="translate(1847.000000, 286.000000)">
        <path d="M0.2,156.5 L0.2,3.5 C0.2,0.9 0.8,0.3 3.3,0.3 L241.4,0.3 C243.4,0.3 244.6,0.9 244.6,3.5 L244.6,243.9 C244.6,245.6 244,246.8 242.9,247.9 C236.2,254.5 229.6,261.1 222.9,267.7 C208.1,282.4 193.3,297 178.5,311.6 C177.7,312.4 176.8,312.8 175.6,312.8 L3.3,312.8 C0.9,312.8 0.3,312.2 0.3,309.8 C0.2,258.7 0.2,207.6 0.2,156.5 Z M16.2,16.4 L16.2,296.7 L165.7,296.7 L165.7,295 L165.7,238.2 C165.7,235.9 166.5,234.9 168.9,234.9 L226.6,234.9 C227.2,234.9 227.8,234.8 228.3,234.8 L228.3,16.4 C157.7,16.4 87,16.4 16.2,16.4 Z M216.8,251 L182.1,251 L182.1,285.4 C193.8,273.8 205.2,262.5 216.8,251 Z" id="Shape" class="shape"></path>
        <path d="M122.3,50.5 L198.6,50.5 C202.1,50.5 202.6,51 202.6,54.5 L202.6,63.3 C202.6,64.1 202.6,65.1 202.2,65.6 C201.7,66.2 200.7,66.4 200,66.7 C199.7,66.8 199.2,66.7 198.8,66.7 L46.1,66.7 C42.6,66.7 42.1,66.2 42.1,62.7 L42.1,53.9 C42.1,53.1 42.1,52.1 42.5,51.6 C43,51 44,50.8 44.7,50.5 C45.1,50.4 45.6,50.5 46,50.5 L122.3,50.5 Z" id="Shape" class="shape"></path>
        <path d="M122.3,86.6 L198.6,86.6 C202.1,86.6 202.5,87.1 202.6,90.6 L202.6,99 C202.6,99.9 202.4,100.8 202.2,101.6 C201.9,102.8 200.7,102.5 199.9,102.8 C199.5,102.9 199.1,102.8 198.6,102.8 L46,102.8 C42.5,102.8 42.1,102.3 42,98.8 L42,90 C42,89.2 42,88.2 42.5,87.7 C43,87.1 44,86.9 44.8,86.6 C45.2,86.5 45.7,86.6 46.1,86.6 C71.4,86.6 96.9,86.6 122.3,86.6 Z" id="Shape" class="shape"></path>
        <path d="M122.3,122.6 L198.6,122.6 C202.1,122.6 202.5,123.1 202.6,126.6 L202.6,135 C202.6,135.9 202.4,136.8 202.2,137.6 C201.9,138.8 200.7,138.5 199.9,138.8 C199.6,138.9 199.1,138.8 198.7,138.8 L45.8,138.8 C44.9,138.8 44,138.7 43.2,138.4 C42,138.1 42,136.8 42,136 C41.9,132.5 41.9,129 42,125.4 C42,123.4 42.8,122.7 44.8,122.6 L46.1,122.6 L122.3,122.6 Z" id="Shape" class="shape"></path>
        <path d="M122.3,158.7 L198.6,158.7 C202.1,158.7 202.5,159.2 202.6,162.7 L202.6,171.1 C202.6,172 202.4,172.9 202.2,173.7 C201.9,174.9 200.7,174.6 199.9,174.9 C199.6,175 199.1,174.9 198.7,174.9 L46.1,174.9 C42.5,174.9 42,174.4 42,170.8 L42,162.2 C42,161.4 42,160.4 42.5,159.9 C43,159.3 44,159.1 44.8,158.8 C45.2,158.7 45.7,158.8 46.1,158.8 C71.4,158.7 96.9,158.7 122.3,158.7 Z" id="Shape" class="shape"></path>
        <path d="M122.4,194.8 L198.6,194.8 C202,194.8 202.5,195.3 202.6,198.8 L202.6,207.2 C202.6,208.1 202.4,209 202.2,209.8 C201.9,211 200.7,210.7 199.9,211 C199.6,211.1 199.1,211 198.7,211 L46,211 C42.6,211 42.1,210.5 42,207 L42,198.6 C42,197.7 42.2,196.8 42.4,196 C42.7,194.8 43.9,195.1 44.7,194.8 C45.1,194.7 45.5,194.8 46,194.8 L122.4,194.8 Z" id="Shape" class="shape"></path>
    </g>
</svg>