<?xml version="1.0" encoding="utf-8"?>
<!-- Generator: Adobe Illustrator 21.0.0, SVG Export Plug-In . SVG Version: 6.00 Build 0)  -->
<svg version="1.1" id="Calque_1" xmlns="http://www.w3.org/2000/svg" xmlns:xlink="http://www.w3.org/1999/xlink" x="0px" y="0px"
	 viewBox="0 0 496.7 317.3" style="enable-background:new 0 0 496.7 317.3;" xml:space="preserve">
<g>
	<path d="M67.9,252.8c11.3,0,22,0,33.1,0c2.4-15,9.4-27.1,22.1-35.6c8.8-5.8,18.5-8.5,29-8.1c12.2,0.5,22.8,5,31.7,13.3
		c8.8,8.2,13.8,18.4,15.4,30.3c47.9,0,95.3,0,143.1,0c2.2-14.6,9-26.4,21.1-34.9c8.9-6.2,18.8-9,29.7-8.8
		c23.4,0.6,39.5,15.2,47.7,43.8c5.3,0,10.7,0,16.1,0c5.3,0,10.6,0,16.4,0c0.1-1.4,0.3-2.7,0.3-4c0-29.5-0.1-59.1,0.1-88.6
		c0-3.2-1.1-4.4-3.9-5.4c-24.8-9.2-49.6-18.4-74.2-28c-3.5-1.4-7.2-4.2-9.3-7.4c-17.9-27.2-35.6-54.6-53.1-82
		c-1.9-2.9-3.8-3.9-7.3-3.9c-88.2,0.1-176.3,0.1-264.5,0.1c-1.5,0-3,0.1-4.6,0c-6.1-0.3-10.7-4.9-10.8-10.8
		c-0.1-6.1,4.6-10.8,11-11.1c1.1,0,2.1,0,3.2,0c91.1,0,182.1,0,273.2-0.1c6.5,0,10.8,2.2,14.3,7.7c17.9,28.1,36.1,56,54.3,83.9
		c1.4,2.2,4,4.2,6.4,5.2c25.8,9.9,51.8,19.5,77.7,29.3c7.5,2.8,9.5,5.6,9.5,13.6c0,36.7,0,73.4,0,110.1c0,9.6-4,13.5-13.6,13.5
		c-13.4,0-26.8,0.1-40.2-0.1c-2.9,0-4.2,0.9-5.4,3.5c-9,18.9-24.1,29.4-45.1,29.3c-20.8-0.1-35.7-10.5-44.7-29.2
		c-1.2-2.5-2.4-3.6-5.4-3.6c-46.9,0.1-93.8,0.1-140.7,0c-2.9,0-4.1,1-5.4,3.6c-9.1,18.9-24.2,29.3-45.2,29.2
		c-20.8-0.1-35.7-10.6-44.7-29.3c-1.2-2.6-2.5-3.5-5.4-3.5c-13.7,0.2-27.4,0.1-41.1,0.1c-8.5,0-12.7-4.2-12.7-12.6
		c0-21.5,0-42.9,0-64.4c0-7.6,4.3-12.5,10.9-12.6c6.6,0,11,4.9,11,12.4c0,16.6,0,33.2,0,49.8C67.9,249.1,67.9,250.7,67.9,252.8z
		 M177.5,258.5c0.1-15.2-11.9-27.4-27-27.6c-15.4-0.2-27.7,11.9-27.8,27.2c-0.1,15.4,12.1,27.6,27.4,27.6
		C165.3,285.8,177.4,273.7,177.5,258.5z M391.5,231c-15.2-0.1-27.4,11.9-27.6,27c-0.2,15.4,11.9,27.7,27.2,27.8
		c15.2,0.1,27.4-11.9,27.6-27C418.9,243.4,406.8,231,391.5,231z"/>
	<path d="M89.7,77.5c-25.3,0-50.5,0-75.8,0c-9,0-14.6-8.5-10.6-16c2.3-4.3,6.1-6,11-6c18.6,0.1,37.1,0,55.7,0c31.8,0,63.6,0,95.4,0
		c8.8,0,14.3,7.4,11.2,14.9c-1.9,4.7-5.6,7-11.6,7C139.9,77.5,114.8,77.5,89.7,77.5z"/>
	<path d="M95.5,99.4c23.4,0,46.9,0,70.3,0c6.2,0,10.8,3.9,11.6,9.5c0.8,5.4-2.8,10.7-8.2,12.1c-1.5,0.4-3,0.4-4.5,0.4
		c-46.3,0-92.5,0-138.8,0c-7.8,0-12.9-4.4-12.8-11.1c0.1-6.7,5.1-10.8,13.1-10.8C49.2,99.4,72.4,99.4,95.5,99.4z"/>
	<path d="M106,165.2c-19.8,0-39.6,0.1-59.4,0c-8.6,0-14.1-7.8-10.8-15.2c1.9-4.3,5.3-6.7,10-6.7c40.2,0,80.4-0.1,120.5,0
		c6.4,0,11.1,4.9,11,11c0,6.2-4.9,10.9-11.6,10.9C145.9,165.2,126,165.2,106,165.2z"/>
</g>
</svg>
