<?xml version="1.0" encoding="utf-8"?>
<!-- Generator: Adobe Illustrator 21.0.0, SVG Export Plug-In . SVG Version: 6.00 Build 0)  -->
<svg version="1.1" id="Calque_1" xmlns="http://www.w3.org/2000/svg" xmlns:xlink="http://www.w3.org/1999/xlink" x="0px" y="0px"
	 viewBox="0 0 287.3 288" style="enable-background:new 0 0 287.3 288;" xml:space="preserve">
<style type="text/css">
	.st0{fill:#1E1E1C;}
</style>
<g>
	<path class="st0" d="M281.1,21.5L266.2,6.6c-3.6-3.6-9.3-4.4-13.7-1.9l-25.2,14c-2.3,1.3-4.2,3.4-5.1,5.9l-18.8,37.1l-93.6,92.9
		l-12.1-12.1c-1.9-1.9-4.4-2.9-7.1-2.9c-4.1,0-7.7,2.4-9.2,6.2c-2.5,6.1-2.4,14.1-1.6,19.5l-21.3,21.3c-4.3,4.3-6.9,5.2-8.4,5.2
		c-0.7,0-1.4-0.2-2.2-0.4c-1-0.3-2.2-0.6-3.6-0.6c-2.8,0-4.6,1.3-5.7,2.3l-25.9,25.9c-2.2,1.8-9.1,8-9.9,18.3
		c-0.8,9.3,3.6,18.8,13,28.2l6.7,6.7c8.7,8.7,17.5,13.1,26.1,13.1c11.4,0,18.4-7.5,20.4-10l25.9-25.9c3.4-3.4,2.2-7.7,1.7-9.3
		c-0.6-2-1.3-4.6,4.8-10.6l20.9-21.1c1.9,0.2,4.4,0.5,7.1,0.5c5,0,9.3-0.7,12.7-2.1c3.1-1.2,5.3-3.9,6-7.2c0.7-3.3-0.4-6.7-2.7-9.1
		L133.2,178L226,84.4l37.1-18.8c2.5-1,4.6-2.8,5.9-5.1l14-25.2C285.5,30.7,284.7,25.1,281.1,21.5z M92.8,164.6
		c-0.2-1.6-0.6-5.2-0.4-8.7l39.3,39.3c-3.1,0.2-6.6,0-8.6-0.3c-3.4-0.5-6.7,0.6-9.1,3.1L92,219.9c-10.3,10.3-9.4,18.2-8.5,21.9
		L59.3,266l-0.7,0.8c0,0.1-3.9,5-10,5c-5.1,0-10.7-3.1-16.8-9.2l-6.7-6.7c-6.5-6.5-9.6-12.4-9.2-17.7c0.4-5.6,5-9.1,5-9.2l24.9-24.8
		c1.2,0.3,2.6,0.5,4.2,0.5c5.9,0,11.7-2.9,17.7-9l21.9-21.9C92.1,171.4,93.3,168,92.8,164.6z M119,163.9l95.1-94.3l20-39.4l0.1-0.2
		l23.7-13L270.8,30l-13.2,23.6l-39.5,20l-94.3,95.1L119,163.9z"/>
	<path class="st0" d="M61.4,113.4c5.9,0,11.6-0.9,17.1-2.7l25.6,25.6c1.2,1.2,2.9,1.9,4.7,1.9c1.6,0,3.2-0.6,4.4-1.6l27.1-23.8
		c1.4-1.2,2.2-2.9,2.2-4.7c0.1-1.8-0.6-3.6-1.9-4.9l-27.3-27.3c6.5-19.7,1.5-41-13.3-55.7c-9.8-9.8-22.3-15-36.1-15
		c-7.5,0-15.1,1.6-22.5,4.7c-2,0.8-3.5,2.6-3.9,4.8c-0.4,2.2,0.2,4.4,1.8,5.9L64.8,46L48.7,62.2L23.6,37.1c-1.6-1.6-3.8-2.2-5.9-1.8
		c-2.2,0.4-4,1.9-4.8,3.9C4,60.6,7.7,82.3,22.8,97.4C33.1,107.7,46.8,113.4,61.4,113.4z M78.8,50.7c1.2-1.2,1.9-2.9,1.9-4.7
		s-0.7-3.4-1.9-4.7L56.4,19c2.5-0.5,5-0.7,7.5-0.7c10.2,0,19.5,3.9,26.7,11.1c12,12,15.5,29.9,8.8,45.5c-1.1,2.5-0.5,5.3,1.4,7.2
		l25.3,25.3l-17.2,15.1L84.8,98.4c-1.2-1.2-2.9-1.9-4.7-1.9c-0.9,0-1.8,0.2-2.6,0.5c-5.1,2.2-10.6,3.3-16.2,3.3
		c-11.1,0-21.5-4.3-29.3-12.1c-9-9-12.6-21-10.1-33.9l22,22c1.2,1.2,2.9,1.9,4.7,1.9c1.8,0,3.5-0.7,4.7-1.9L78.8,50.7z"/>
	<path class="st0" d="M227.3,169.6c-5.9,0-11.8,1-17.4,2.9l-27-27c-1.2-1.2-2.9-1.9-4.7-1.9c0,0,0,0,0,0c-1.8,0-3.5,0.7-4.7,1.9
		l-25.5,25.5c-1.2,1.2-1.9,2.9-1.9,4.7c0,1.8,0.7,3.4,1.9,4.7l27,27c-6.6,19.6-1.8,40.7,12.9,55.4c9.6,9.6,21.8,14.7,35.3,14.7
		c7.6,0,15.3-1.6,22.9-4.8c2-0.9,3.5-2.7,3.9-4.8c0.4-2.2-0.2-4.4-1.8-5.9l-24.6-24.6l16.2-16.2l25.1,25.1c1.6,1.6,3.8,2.2,5.9,1.8
		c2.2-0.4,4-1.9,4.8-3.9c8.9-21.3,5-43.2-10.3-58.6C255.1,175.2,241.6,169.6,227.3,169.6z M209.6,232.5c-1.2,1.2-1.9,2.9-1.9,4.7
		c0,1.8,0.7,3.4,1.9,4.7l21.6,21.6c-12.8,2.4-25-1.2-33.9-10.1c-11.9-11.9-15.2-29.6-8.5-45.1c1.1-2.5,0.5-5.4-1.4-7.3L162,175.6
		l16.2-16.2l25.4,25.4c1.9,1.9,4.8,2.5,7.3,1.4c5.2-2.3,10.8-3.4,16.4-3.4c10.8,0,21,4.2,28.7,11.9c9,9,12.8,21.4,10.5,34.3
		L244.4,207c-1.2-1.2-2.9-1.9-4.7-1.9s-3.5,0.7-4.7,1.9L209.6,232.5z"/>
</g>
</svg>
