<svg width="216px" height="132px" viewBox="3041 750 216 132" version="1.1" xmlns="http://www.w3.org/2000/svg" xmlns:xlink="http://www.w3.org/1999/xlink">
    <!-- Generator: Sketch 41.2 (35397) - http://www.bohemiancoding.com/sketch -->
    <desc>Created with Sketch.</desc>
    <defs></defs>
    <g id="Group" stroke="none" stroke-width="1" fill="none" fill-rule="evenodd" transform="translate(3041.000000, 750.000000)">
        <path d="M8.7,131.2 C9,130.8 9.1,130.6 9.2,130.5 C12.3,128 15.3,125.5 18.4,123 C23.6,118.7 28.7,114.4 33.9,110.2 C37.3,107.4 40.7,104.6 44.1,101.9 C49,97.9 53.9,93.8 58.8,89.8 C62.2,87 65.5,84.3 68.9,81.5 C73.7,77.6 78.5,73.6 83.3,69.7 C83.5,69.5 84.1,69.5 84.3,69.6 C87.3,71.5 90.3,73.5 93.3,75.5 C96.9,77.9 100.5,80.3 104.1,82.6 C106.9,84.4 109.9,84.1 112.6,82.3 C118.1,78.7 123.6,75 129.1,71.4 C130,70.8 130.8,70.2 131.7,69.7 C132,69.5 132.5,69.6 132.7,69.7 C135.6,72 138.4,74.3 141.3,76.7 C145.1,79.8 148.9,82.9 152.7,86.1 C155.3,88.2 157.8,90.4 160.4,92.5 C165.6,96.8 170.9,101 176.1,105.3 C181.3,109.6 186.5,113.8 191.7,118.1 C195.1,120.9 198.5,123.7 202,126.5 C203.6,127.8 205.3,129.1 206.9,130.5 C207.1,130.7 207.2,130.9 207.3,131.1 C207.1,131.2 206.9,131.3 206.6,131.3 L206,131.3 L9.9,131.3 C9.7,131.2 9.3,131.2 8.7,131.2 Z" id="Shape" class="shape"></path>
        <path d="M207,0.6 C205,2 203.1,3.3 201.2,4.5 C197.7,6.8 194.2,9.1 190.7,11.4 C185.2,15 179.8,18.6 174.4,22.2 C169.1,25.7 163.8,29.3 158.5,32.8 C152.9,36.5 147.3,40.2 141.7,43.9 C135.1,48.3 128.5,52.7 121.9,57 C117.6,59.9 113.2,62.7 108.9,65.6 C108.3,66 107.8,66 107.3,65.6 C103.9,63.3 100.5,61 97.1,58.8 C92.8,56 88.5,53.2 84.2,50.3 C80.8,48 77.4,45.8 74,43.5 C69.7,40.7 65.4,37.8 61.1,35 C57.9,32.8 54.7,30.6 51.4,28.5 C46.8,25.5 42.2,22.5 37.6,19.4 C32.5,16.1 27.5,12.7 22.4,9.3 C18.3,6.6 14.3,3.9 10.2,1.2 C10,1 9.7,0.8 9.3,0.5 C75.3,0.6 141.1,0.6 207,0.6 Z" id="Shape" class="shape"></path>
        <path d="M0.3,13.8 C23.5,29.2 46.7,44.5 69.9,59.9 C46.7,79 23.5,98 0.3,117.1 L0.3,13.8 Z" id="Shape" class="shape"></path>
        <path d="M216,13.8 L216,117 C214.2,115.6 212.5,114.2 210.8,112.8 C207,109.7 203.2,106.6 199.4,103.4 C196.9,101.3 194.3,99.2 191.8,97.1 C187.4,93.5 183,89.9 178.5,86.3 C175.3,83.7 172.2,81.1 169,78.5 C165.2,75.4 161.4,72.3 157.6,69.2 C155.2,67.2 152.8,65.2 150.4,63.2 C149.4,62.3 148.3,61.5 147.3,60.7 C146.5,60.1 146.5,59.9 147.3,59.3 C150.9,56.9 154.5,54.6 158,52.2 C163.5,48.6 168.9,45 174.4,41.4 C178.9,38.4 183.5,35.4 188,32.4 C193,29.1 198,25.8 203.1,22.4 C207.3,19.6 211.6,16.8 216,13.8 Z" id="Shape" class="shape"></path>
    </g>
</svg>