<?xml version="1.0" encoding="utf-8"?>
<!-- Generator: Adobe Illustrator 21.0.0, SVG Export Plug-In . SVG Version: 6.00 Build 0)  -->
<svg version="1.1" id="Calque_1" xmlns="http://www.w3.org/2000/svg" xmlns:xlink="http://www.w3.org/1999/xlink" x="0px" y="0px"
	 viewBox="0 0 287.3 288" style="enable-background:new 0 0 287.3 288;" xml:space="preserve">
<style type="text/css">
	.st0{fill:#428FCD;}
	.st1{fill:#FFFFFF;}
</style>
<g>
	<circle class="st0" cx="142.9" cy="144.2" r="133"/>
	<path class="st1" d="M208.6,156.1c-4.6,0-9.1,0-13.7,0c-13.9,0-27.7,0-41.6,0c-1.1,0-1-0.1-1,1c0,18.3,0,36.7,0,55
		c0,0.2,0,0.4,0,0.6c-0.4,2.3-0.9,4.6-2.6,6.4c-0.6,0.7-1.4,1.3-2.2,1.8c-0.1,0.1-0.2,0.1-0.3,0.2c-0.9,0.9-2,1-3.1,1.3
		c-1.3,0.4-2.6,0.3-3.8,0.2c-1.9-0.1-3.6-0.7-5.2-1.9c-1.3-1.1-2.5-2.2-3.4-3.7c-0.6-0.9-0.8-1.9-1-3c-0.6-2.5-0.2-5-0.3-7.4
		c-0.1-1.5,0-3.1,0-4.6c0-2.2,0-4.4,0-6.6c0-4.7,0-9.4,0-14c0-1.7,0-3.3,0-5c0-5.6,0-11.2,0-16.8c0-1,0-1.9,0-2.9
		c0-0.6-0.2-0.7-0.7-0.7c-5.4,0-10.8,0-16.3,0c-13,0-26,0-39,0c-2.2,0-4.3-0.7-6.1-2.1c-1.6-1.2-2.6-2.8-3.6-4.4
		c-0.3-0.5-0.3-1.1-0.4-1.7c-0.4-1.6-0.6-3.1-0.1-4.8c0.3-1.2,0.5-2.4,1.2-3.5c1.2-1.7,2.3-3.5,4.4-4.3c0.8-0.3,1.7-0.5,2.5-0.7
		c0.5-0.1,1-0.4,1.6-0.4c0.2,0,0.3,0,0.5,0c18.4,0,36.9,0,55.3,0c0.7,0,0.8-0.3,0.8-0.8c0-8.2,0-16.4,0-24.6c0-5.4,0-10.7,0-16.1
		c0-4.2,0-8.4,0-12.7c0-1.6,0.1-3.2,0.5-4.8c0.3-1.1,0.8-2.2,1.4-3.1c0.3-0.5,0.6-1.1,1.1-1.4c0.6-0.4,1.1-0.8,1.6-1.2
		c2-1.3,4.1-2.1,6.5-2.2c0.6,0.4,1.4,0.4,2.1,0.6c0.9,0.3,1.9,0.3,2.8,0.8c2.2,1.3,4.2,2.9,5.1,5.4c0.4,1.1,0.7,2.2,0.7,3.4
		c0,13.6,0,27.1,0,40.7c0,5,0,10.1,0,15.1c0,0.6,0.2,0.8,0.8,0.8c18.2,0,36.4,0,54.6,0c2.2,0,4.2,0.4,6.1,1.5c1.3,0.7,2.1,1.8,3,2.9
		c0.5,0.7,1,1.3,1.4,2.1c0.2,0.4,0.2,0.9,0.3,1.3c0.5,1.8,0.7,3.5,0.2,5.4c-0.1,0.5-0.3,1.1-0.4,1.7c-0.1,0.5-0.3,1.1-0.7,1.5
		c-0.6,0.8-1.1,1.6-1.8,2.3c-0.9,1-2,1.8-3.4,2.2C211.2,155.6,209.9,156,208.6,156.1z"/>
</g>
</svg>
