<svg width="302px" height="323px" viewBox="1184 150 302 323" version="1.1" xmlns="http://www.w3.org/2000/svg" xmlns:xlink="http://www.w3.org/1999/xlink">
    <!-- Generator: Sketch 41.2 (35397) - http://www.bohemiancoding.com/sketch -->
    <desc>Created with Sketch.</desc>
    <defs></defs>
    <g id="Group" stroke="none" stroke-width="1" fill="none" fill-rule="evenodd" transform="translate(1184.000000, 150.000000)">
        <g transform="translate(0.000000, 7.000000)" class="shape">
            <circle id="Oval" cx="97.3" cy="29.2" r="28.9"></circle>
            <path d="M34.3,287.2 C28.6,295.1 30.4,306.1 38.3,311.8 C41.4,314.1 45,315.1 48.6,315.1 C54.1,315.1 59.5,312.6 62.9,307.8 L93.6,265.2 L71.8,235 L34.3,287.2 Z" id="Shape"></path>
            <path d="M168.9,287.2 L102.6,195.4 L110,148.6 L134.5,181.7 C137.3,185.6 141.7,187.7 146.2,187.7 C149.1,187.7 152.1,186.8 154.7,184.9 C161.2,180.2 162.6,171.2 157.9,164.7 L116.4,108.2 C116.5,107.5 116.6,106.8 116.6,106 C117.9,87.9 105.2,71.5 86.9,68.6 C75.4,66.8 65.4,72 56.6,78.4 L15,108.6 C11.9,110.9 9.8,114.2 9.2,118 L0.7,171.9 C-0.5,179.8 4.8,187.2 12.7,188.4 C13.5,188.5 14.2,188.6 15,188.6 C22,188.6 28.1,183.5 29.2,176.4 L36.8,128.4 L57,113.7 L48.7,166.5 C47.3,175.6 49.3,181.9 53.5,187.7 L140.2,307.8 C143.7,312.6 149.1,315.1 154.5,315.1 C158.1,315.1 161.7,314 164.8,311.8 C172.8,306.2 174.6,295.1 168.9,287.2 Z" id="Shape"></path>
        </g>
        <path d="M223,157 C179.9,157 144.9,121.9 144.9,78.9 C144.9,35.8 180,0.8 223,0.8 C266,0.8 301.1,35.9 301.1,78.9 C301.1,122 266.1,157 223,157 Z M223,11.6 C185.9,11.6 155.7,41.8 155.7,78.9 C155.7,116 185.9,146.2 223,146.2 C260.1,146.2 290.3,116 290.3,78.9 C290.3,41.8 260.1,11.6 223,11.6 Z" id="Shape" class="shape"></path>
        <rect id="Rectangle-path" class="shape" x="185.1" y="39.7" width="28.5" height="81.2"></rect>
        <rect id="Rectangle-path" class="shape" x="231.9" y="39.7" width="28.5" height="81.2"></rect>
    </g>
</svg>