<svg width="303px" height="323px" viewBox="832 150 303 323" version="1.1" xmlns="http://www.w3.org/2000/svg" xmlns:xlink="http://www.w3.org/1999/xlink">
    <!-- Generator: Sketch 41.2 (35397) - http://www.bohemiancoding.com/sketch -->
    <desc>Created with Sketch.</desc>
    <defs></defs>
    <g id="Group" stroke="none" stroke-width="1" fill="none" fill-rule="evenodd" transform="translate(832.000000, 150.000000)">
        <g transform="translate(0.000000, 7.000000)" class="shape">
            <circle id="Oval" cx="97.2" cy="29.2" r="28.9"></circle>
            <path d="M34.1,287.5 C28.4,295.4 30.2,306.5 38.1,312.2 C41.2,314.5 44.8,315.5 48.4,315.5 C53.9,315.5 59.3,313 62.7,308.2 L93.5,265.6 L71.7,235.4 L34.1,287.5 Z" id="Shape"></path>
            <path d="M168.9,287.5 L102.5,195.6 L109.9,148.7 L134.4,181.8 C137.2,185.7 141.6,187.8 146.1,187.8 C149,187.8 152,186.9 154.6,185 C161.1,180.3 162.5,171.3 157.8,164.8 L116.2,108.3 C116.3,107.6 116.4,106.9 116.4,106.1 C117.7,88 105,71.5 86.7,68.6 C75.2,66.8 65.1,72 56.4,78.4 L14.7,108.7 C11.6,111 9.5,114.4 8.9,118.1 L0.4,172.1 C-0.8,180 4.5,187.4 12.4,188.6 C13.2,188.7 13.9,188.8 14.7,188.8 C21.7,188.8 27.8,183.7 29,176.6 L36.6,128.5 L56.8,113.8 L48.5,166.6 C47.1,175.7 49.1,182 53.3,187.9 L140.1,308.1 C143.6,312.9 149,315.4 154.4,315.4 C158,315.4 161.6,314.3 164.7,312.1 C172.8,306.5 174.6,295.5 168.9,287.5 Z" id="Shape"></path>
        </g>
        <path d="M223.9,158.1 C180.5,158.1 145.2,122.8 145.2,79.4 C145.2,36 180.5,0.7 223.9,0.7 C267.3,0.7 302.6,36 302.6,79.4 C302.6,122.8 267.3,158.1 223.9,158.1 Z M223.9,11.7 C186.5,11.7 156.2,42.1 156.2,79.4 C156.2,116.7 186.6,147.1 223.9,147.1 C261.2,147.1 291.6,116.7 291.6,79.4 C291.6,42.1 261.3,11.7 223.9,11.7 Z" id="Shape" class="shape"></path>
        <polygon id="Shape" class="shape" points="271.6 110 240.9 79.3 270.9 49.3 254.6 33 224.5 63 193.9 32.3 177.5 48.7 208.2 79.3 176.9 110.6 193.2 127 224.5 95.7 255.2 126.3"></polygon>
    </g>
</svg>