<svg width="410px" height="466px" viewBox="2674 9 410 466" version="1.1" xmlns="http://www.w3.org/2000/svg" xmlns:xlink="http://www.w3.org/1999/xlink">
    <!-- Generator: Sketch 41.2 (35397) - http://www.bohemiancoding.com/sketch -->
    <desc>Created with Sketch.</desc>
    <defs></defs>
    <g id="Group" stroke="none" stroke-width="1" fill="none" fill-rule="evenodd" transform="translate(2674.000000, 9.000000)">
        <g transform="translate(65.000000, 0.000000)" class="shape">
            <circle id="Oval" cx="139.3" cy="41.9" r="41.3"></circle>
            <path d="M49.1,410.9 C40.9,422.2 43.5,438 54.8,446.2 C59.3,449.4 64.4,451 69.6,451 C77.4,451 85.2,447.4 90.1,440.5 L134.1,379.6 L102.9,336.5 L49.1,410.9 Z" id="Shape"></path>
            <path d="M241.6,410.9 L146.8,279.6 L157.4,212.6 L192.5,259.9 C196.5,265.5 202.8,268.4 209.2,268.4 C213.4,268.4 217.7,267.1 221.3,264.5 C230.5,257.8 232.6,244.9 225.9,235.6 L166.5,154.8 C166.6,153.8 166.7,152.7 166.8,151.7 C168.7,125.8 150.5,102.3 124.4,98.2 C107.9,95.6 93.6,103.1 81.1,112.2 L21.5,155.5 C17.1,158.7 14.1,163.6 13.2,169 L1,246.1 C-0.8,257.4 6.9,268 18.2,269.7 C19.3,269.9 20.4,270 21.5,270 C31.5,270 40.3,262.7 41.9,252.6 L52.8,184 L81.7,163 L69.8,238.5 C67.7,251.5 70.7,260.6 76.7,268.9 L200.7,440.7 C205.6,447.5 213.4,451.2 221.2,451.2 C226.3,451.2 231.5,449.6 236,446.4 C247.2,438 249.8,422.3 241.6,410.9 Z" id="Shape"></path>
        </g>
        <path d="M213.4,465.6 L213,456.6 C223.7,456.2 234.4,454.8 244.8,452.7 L246.6,461.5 C235.8,463.7 224.6,465.1 213.4,465.6 Z M191.1,465.3 C179.9,464.6 168.8,462.9 157.9,460.3 L160,451.5 C170.4,453.9 181,455.5 191.7,456.2 L191.1,465.3 Z M268.3,455.7 L265.5,447.1 C275.6,443.8 285.6,439.6 295.1,434.7 L299.3,442.7 C289.3,447.9 278.9,452.3 268.3,455.7 Z M136.5,454 C126,450.3 115.7,445.6 105.9,440.2 L110.3,432.3 C119.6,437.5 129.5,441.9 139.5,445.5 L136.5,454 Z M318.5,431.4 L313.5,423.9 C322.4,418 330.8,411.3 338.6,404 L344.7,410.6 C336.6,418.2 327.8,425.2 318.5,431.4 Z M86.9,428.3 C77.8,421.9 69.1,414.6 61.2,406.8 L67.5,400.4 C75.1,407.9 83.4,414.8 92.1,421 L86.9,428.3 Z M360.3,394.4 L353.5,388.5 C360.5,380.4 366.8,371.7 372.4,362.6 L380.1,367.3 C374.2,376.9 367.6,386 360.3,394.4 Z M46.1,390.3 C39,381.6 32.6,372.4 27.1,362.7 L34.9,358.2 C40.2,367.4 46.3,376.3 53.1,384.6 L46.1,390.3 Z M390.6,347.6 L382.4,343.8 C386.9,334.1 390.7,324 393.5,313.7 L402.2,316.1 C399.2,326.9 395.3,337.5 390.6,347.6 Z M17.1,342.7 C12.6,332.5 9,321.8 6.3,311 L15,308.8 C17.6,319.1 21.1,329.4 25.3,339.1 L17.1,342.7 Z M407.1,294.3 L398.2,292.8 C399.9,282.3 400.8,271.6 400.8,260.8 L400.8,260.4 L409.8,260.4 L409.8,260.8 C409.8,272.1 408.9,283.3 407.1,294.3 Z M2,289 C0.7,279.8 0.1,270.3 0.1,260.9 C0.1,259.1 0.1,257.3 0.2,255.5 L9.2,255.7 C9.2,257.4 9.1,259.1 9.1,260.8 C9.1,269.8 9.7,278.8 10.9,287.7 L2,289 Z M399.6,239.1 C398.4,228.5 396.4,217.9 393.5,207.6 L402.2,205.2 C405.2,215.9 407.4,227 408.6,238.1 L399.6,239.1 Z M10.9,234.4 L2,233.2 C3.5,222.1 5.9,211.1 9.2,200.5 L17.8,203.2 C14.6,213.3 12.3,223.9 10.9,234.4 Z M386.5,187.4 C382.5,177.5 377.6,167.9 372.1,158.8 L379.8,154.1 C385.6,163.6 390.7,173.7 394.9,184 L386.5,187.4 Z M25.2,183.1 L16.9,179.5 C21.3,169.3 26.7,159.3 32.7,149.9 L40.3,154.8 C34.5,163.8 29.4,173.3 25.2,183.1 Z M360,141.2 C353.5,132.8 346.2,124.8 338.4,117.5 L344.5,110.9 C352.7,118.5 360.3,126.8 367.1,135.7 L360,141.2 Z M52.9,137.5 L45.9,131.8 C52.9,123.1 60.7,115 69.1,107.6 L75.1,114.3 C67.1,121.4 59.6,129.2 52.9,137.5 Z M321.9,103.8 C313.3,97.4 304.2,91.7 294.7,86.8 L298.8,78.8 C308.7,83.9 318.3,89.9 327.2,96.6 L321.9,103.8 Z M91.8,101 L86.6,93.7 C95.7,87.2 105.4,81.5 115.4,76.6 L119.3,84.7 C109.8,89.4 100.5,94.9 91.8,101 Z M275.3,78.1 C265.3,74.3 255,71.2 244.5,69.1 L246.3,60.3 C257.2,62.5 268.1,65.7 278.5,69.7 L275.3,78.1 Z M139.1,76.4 L136.1,67.9 C146.6,64.1 157.5,61.2 168.5,59.3 L170.1,68.2 C159.5,70.1 149.1,72.8 139.1,76.4 Z M223.3,65.9 C217.2,65.3 211.1,65 204.9,65 L204.9,65 C200.4,65 195.8,65.2 191.3,65.5 L190.7,56.5 C195.4,56.2 200.2,56 205,56 C211.4,56 217.9,56.3 224.3,56.9 L223.3,65.9 Z" id="Shape" class="shape"></path>
    </g>
</svg>