<svg width="173px" height="318px" viewBox="553 155 173 318" version="1.1" xmlns="http://www.w3.org/2000/svg" xmlns:xlink="http://www.w3.org/1999/xlink">
    <!-- Generator: Sketch 41.2 (35397) - http://www.bohemiancoding.com/sketch -->
    <desc>Created with Sketch.</desc>
    <defs></defs>
    <g id="Group" stroke="none" stroke-width="1" fill="none" fill-rule="evenodd" transform="translate(553.000000, 155.000000)">
        <circle id="Oval" class="shape" cx="97.6" cy="30" r="29.1"></circle>
        <path d="M34.2,289.5 C28.5,297.4 30.2,308.5 38.2,314.3 C41.3,316.6 45,317.7 48.6,317.7 C54.1,317.7 59.5,315.1 63,310.3 L93.9,267.5 L72,237.2 L34.2,289.5 Z" id="Shape" class="shape"></path>
        <path d="M169.5,289.5 L102.8,197.2 L110.3,150.1 L135,183.4 C137.8,187.3 142.3,189.4 146.8,189.4 C149.8,189.4 152.8,188.5 155.3,186.6 C161.8,181.9 163.2,172.8 158.5,166.3 L116.8,109.5 C116.9,108.8 117,108 117,107.3 C118.3,89.1 105.5,72.6 87.2,69.6 C75.6,67.8 65.5,73 56.7,79.4 L14.8,109.8 C11.7,112.1 9.6,115.5 9,119.3 L0.4,173.5 C-0.9,181.4 4.6,188.9 12.5,190.1 C13.3,190.2 14,190.3 14.8,190.3 C21.8,190.3 28,185.2 29.1,178 L36.7,129.7 L57,114.9 L48.6,168 C47.2,177.1 49.2,183.5 53.5,189.4 L140.7,310.2 C144.2,315 149.6,317.6 155.1,317.6 C158.7,317.6 162.3,316.5 165.5,314.2 C173.5,308.5 175.3,297.4 169.5,289.5 Z" id="Shape" class="shape"></path>
    </g>
</svg>