<svg width="497px" height="473px" viewBox="1598 0 497 473" version="1.1" xmlns="http://www.w3.org/2000/svg" xmlns:xlink="http://www.w3.org/1999/xlink">
    <!-- Generator: Sketch 41.2 (35397) - http://www.bohemiancoding.com/sketch -->
    <desc>Created with Sketch.</desc>
    <defs></defs>
    <g id="Group" stroke="none" stroke-width="1" fill="none" fill-rule="evenodd" transform="translate(1598.000000, 0.000000)">
        <path d="M203.2,472.6 L203.2,472.6 C201.6,472.6 200.1,472.6 198.6,472.5 L198.8,463.3 L203.1,463.3 L203.1,463.3 C212.3,463.3 221.6,462.6 230.7,461.3 L232,470.4 C222.6,472 212.9,472.6 203.2,472.6 Z M174.4,470.6 C163.3,469 152.3,466.5 141.7,463.1 L144.5,454.4 C154.7,457.6 165.2,460 175.7,461.5 L174.4,470.6 Z M255.9,465.7 L253.5,456.9 C263.8,454.1 273.9,450.5 283.7,446 L287.5,454.3 C277.3,459 266.7,462.8 255.9,465.7 Z M119.1,454.4 C108.9,449.8 99.1,444.2 89.8,438 L94.9,430.4 C103.8,436.4 113.2,441.7 122.9,446.1 L119.1,454.4 Z M308.9,442.9 L304.1,435.1 C313.2,429.5 321.9,423.2 330,416.2 L336,423.1 C327.5,430.4 318.4,437.1 308.9,442.9 Z M70.5,423.2 C62,415.9 54.1,407.8 47,399.2 L54,393.4 C60.8,401.6 68.4,409.3 76.4,416.3 L70.5,423.2 Z M353.3,406.1 L346.5,399.9 C353.7,392 360.2,383.4 366,374.5 L373.7,379.5 C367.7,388.9 360.8,397.9 353.3,406.1 Z M32.7,379.7 C26.6,370.3 21.3,360.3 16.9,350.1 L25.3,346.5 C29.5,356.3 34.6,365.8 40.4,374.8 L32.7,379.7 Z M385.6,358.4 L377.4,354.4 C382.1,344.8 386,334.7 389,324.5 L397.8,327.1 C394.6,337.7 390.5,348.3 385.6,358.4 Z M8.6,327.2 C5.4,316.5 3.2,305.4 1.8,294.3 L10.9,293.2 C12.2,303.8 14.3,314.4 17.4,324.6 L8.6,327.2 Z M403.2,303.4 L394.2,301.9 C395.9,291.4 396.8,280.7 396.8,269.9 L396.8,269.5 L406,269.5 L406,269.9 C405.9,281.1 405,292.4 403.2,303.4 Z M9.6,270.1 L0.4,270.1 L0.4,269.9 C0.4,258.8 1.3,247.6 3.1,236.7 L12.1,238.2 C10.4,248.6 9.5,259.3 9.5,269.9 L9.5,270.1 L9.6,270.1 Z M395.3,246.3 C394,235.7 391.8,225.1 388.8,214.9 L397.6,212.3 C400.8,223 403.1,234.1 404.4,245.2 L395.3,246.3 Z M17.3,215.6 L8.5,213 C11.6,202.3 15.7,191.7 20.6,181.6 L28.8,185.6 C24.2,195.3 20.3,205.3 17.3,215.6 Z M40.2,165.4 L32.5,160.5 C38.5,151.1 45.4,142.1 52.9,133.8 L59.7,139.9 C52.5,147.9 45.9,156.5 40.2,165.4 Z M76.2,123.8 L70.2,116.9 C78.6,109.6 87.7,102.9 97.3,97 L102.1,104.8 C93,110.4 84.3,116.8 76.2,123.8 Z M122.5,93.9 L118.7,85.6 C128.9,80.9 139.5,77.1 150.3,74.2 L152.7,83 C142.3,85.8 132.2,89.4 122.5,93.9 Z M261.6,85.3 C251.4,82.1 240.9,79.7 230.3,78.2 L231.6,69.1 C242.7,70.7 253.7,73.2 264.3,76.5 L261.6,85.3 Z M175.3,78.3 L174,69.2 C185,67.6 196.3,66.9 207.5,67.2 L207.3,76.4 C196.6,76.1 185.8,76.8 175.3,78.3 Z" id="Shape" class="shape"></path>
        <g transform="translate(64.000000, 0.000000)">
            <g transform="translate(0.000000, 9.000000)" class="shape">
                <circle id="Oval" cx="139.2" cy="41.9" r="41.3"></circle>
                <path d="M49,410.9 C40.8,422.2 43.4,438 54.7,446.2 C59.2,449.4 64.3,451 69.5,451 C77.3,451 85.1,447.4 90,440.5 L134,379.6 L102.8,336.5 L49,410.9 Z" id="Shape"></path>
                <path d="M241.5,410.9 L146.7,279.6 L157.3,212.6 L192.4,259.9 C196.4,265.5 202.7,268.4 209.1,268.4 C213.3,268.4 217.6,267.1 221.2,264.5 C230.4,257.8 232.5,244.9 225.8,235.6 L166.4,154.8 C166.5,153.8 166.6,152.7 166.7,151.7 C168.6,125.8 150.4,102.3 124.3,98.2 C107.8,95.6 93.5,103.1 81,112.2 L21.4,155.5 C17,158.7 14,163.6 13.1,169 L0.9,246.1 C-0.9,257.4 6.8,268 18.1,269.7 C19.2,269.9 20.3,270 21.4,270 C31.4,270 40.2,262.7 41.8,252.6 L52.7,184 L81.6,163 L69.7,238.5 C67.6,251.5 70.6,260.6 76.6,268.9 L200.6,440.7 C205.5,447.5 213.3,451.2 221.1,451.2 C226.2,451.2 231.4,449.6 235.9,446.4 C247.1,438 249.6,422.3 241.5,410.9 Z" id="Shape"></path>
            </g>
            <path d="M320.1,225 C258.1,225 207.7,174.6 207.7,112.6 C207.7,50.6 258.1,0.2 320.1,0.2 C382.1,0.2 432.5,50.6 432.5,112.6 C432.5,174.6 382.1,225 320.1,225 Z M320.1,15.8 C266.7,15.8 223.3,59.2 223.3,112.6 C223.3,166 266.7,209.4 320.1,209.4 C373.5,209.4 416.9,166 416.9,112.6 C416.9,59.2 373.5,15.8 320.1,15.8 Z" id="Shape" class="shape"></path>
            <polygon id="Shape" class="shape" points="388.2 156.3 344.3 112.5 387.3 69.6 363.9 46.3 321 89.2 277.2 45.4 253.9 68.7 297.7 112.5 253 157.2 276.3 180.6 321 135.8 364.8 179.7"></polygon>
        </g>
    </g>
</svg>