<svg width="497px" height="473px" viewBox="2159 0 497 473" version="1.1" xmlns="http://www.w3.org/2000/svg" xmlns:xlink="http://www.w3.org/1999/xlink">
    <!-- Generator: Sketch 41.2 (35397) - http://www.bohemiancoding.com/sketch -->
    <desc>Created with Sketch.</desc>
    <defs></defs>
    <g id="Group" stroke="none" stroke-width="1" fill-rule="evenodd" transform="translate(2159.000000, 0.000000)">
        <g transform="translate(272.000000, 0.000000)" class="shape">
            <path d="M112.4,225 C50.4,225 0,174.6 0,112.6 C0,50.6 50.4,0.2 112.4,0.2 C174.4,0.2 224.8,50.6 224.8,112.6 C224.8,174.6 174.4,225 112.4,225 Z M112.4,15.8 C59,15.8 15.6,59.2 15.6,112.6 C15.6,166 59,209.4 112.4,209.4 C165.8,209.4 209.2,166 209.2,112.6 C209.2,59.2 165.8,15.8 112.4,15.8 Z" id="Shape"></path>
            <rect id="Rectangle-path" x="57.9" y="56.2" width="40.9" height="116.8"></rect>
            <rect id="Rectangle-path" x="125.2" y="56.2" width="40.9" height="116.8"></rect>
        </g>
        <path d="M203.3,472.6 C203.2,472.6 203.2,472.6 203.3,472.6 C201.7,472.6 200.2,472.6 198.7,472.5 L198.9,463.3 L203.2,463.3 L203.2,463.3 C212.4,463.3 221.7,462.6 230.8,461.3 L232.1,470.4 C222.7,472 212.9,472.6 203.3,472.6 Z M174.5,470.6 C163.4,469 152.4,466.5 141.8,463.1 L144.6,454.4 C154.8,457.6 165.3,460 175.8,461.5 L174.5,470.6 Z M255.9,465.7 L253.5,456.9 C263.8,454.1 273.9,450.5 283.7,446 L287.5,454.3 C277.4,459 266.7,462.8 255.9,465.7 Z M119.1,454.4 C108.9,449.8 99.1,444.2 89.8,438 L94.9,430.4 C103.8,436.4 113.2,441.7 122.9,446.1 L119.1,454.4 Z M308.9,442.9 L304.1,435.1 C313.2,429.5 321.9,423.2 330,416.2 L336,423.1 C327.6,430.4 318.5,437.1 308.9,442.9 Z M70.6,423.2 C62.1,415.9 54.2,407.8 47.1,399.2 L54.1,393.4 C60.9,401.6 68.5,409.3 76.5,416.3 L70.6,423.2 Z M353.4,406.1 L346.6,399.9 C353.8,392 360.3,383.4 366.1,374.5 L373.8,379.5 C367.8,388.9 360.9,397.9 353.4,406.1 Z M32.7,379.7 C26.6,370.3 21.3,360.3 16.9,350.1 L25.3,346.5 C29.5,356.3 34.6,365.8 40.4,374.8 L32.7,379.7 Z M385.7,358.4 L377.5,354.4 C382.2,344.8 386.1,334.7 389.1,324.5 L397.9,327.1 C394.7,337.7 390.6,348.3 385.7,358.4 Z M8.7,327.2 C5.5,316.5 3.3,305.4 1.9,294.3 L11,293.2 C12.3,303.8 14.4,314.4 17.5,324.6 L8.7,327.2 Z M403.2,303.4 L394.2,301.9 C395.9,291.4 396.8,280.7 396.8,269.9 L396.8,269.5 L406,269.5 L406,269.9 C406,281.1 405,292.4 403.2,303.4 Z M9.6,270.1 L0.4,270.1 L0.4,269.9 C0.4,258.8 1.3,247.6 3.1,236.7 L12.1,238.2 C10.4,248.6 9.5,259.3 9.5,269.9 L9.5,270.1 L9.6,270.1 Z M395.4,246.3 C394.1,235.7 391.9,225.1 388.9,214.9 L397.7,212.3 C400.9,223 403.2,234.1 404.5,245.2 L395.4,246.3 Z M17.4,215.6 L8.6,213 C11.7,202.3 15.8,191.7 20.7,181.6 L28.9,185.6 C24.2,195.3 20.4,205.3 17.4,215.6 Z M40.2,165.4 L32.5,160.5 C38.5,151.1 45.4,142.1 52.9,133.8 L59.7,139.9 C52.5,147.9 46,156.5 40.2,165.4 Z M76.3,123.8 L70.3,116.9 C78.7,109.6 87.8,102.9 97.4,97 L102.2,104.8 C93,110.4 84.3,116.8 76.3,123.8 Z M122.5,93.9 L118.7,85.6 C128.9,80.9 139.5,77.1 150.3,74.2 L152.7,83 C142.4,85.8 132.2,89.4 122.5,93.9 Z M261.7,85.3 C251.5,82.1 241,79.7 230.4,78.2 L231.7,69.1 C242.8,70.7 253.8,73.2 264.4,76.5 L261.7,85.3 Z M175.3,78.3 L174,69.2 C185,67.6 196.3,66.9 207.5,67.2 L207.3,76.4 C196.7,76.1 185.9,76.8 175.3,78.3 Z" id="Shape" fill="#000000"></path>
        <g transform="translate(64.000000, 9.000000)" class="shape">
            <circle id="Oval" cx="139.2" cy="41.9" r="41.3"></circle>
            <path d="M49.1,410.9 C40.9,422.2 43.5,438 54.8,446.2 C59.3,449.4 64.4,451 69.6,451 C77.4,451 85.2,447.4 90.1,440.5 L134.1,379.6 L102.9,336.5 L49.1,410.9 Z" id="Shape"></path>
            <path d="M241.5,410.9 L146.7,279.6 L157.3,212.6 L192.4,259.9 C196.4,265.5 202.7,268.4 209.1,268.4 C213.3,268.4 217.6,267.1 221.2,264.5 C230.4,257.8 232.5,244.9 225.8,235.6 L166.4,154.8 C166.5,153.8 166.6,152.7 166.7,151.7 C168.6,125.8 150.4,102.3 124.3,98.2 C107.8,95.6 93.5,103.1 81,112.2 L21.4,155.5 C17,158.7 14,163.6 13.1,169 L0.9,246.1 C-0.9,257.4 6.8,268 18.1,269.7 C19.2,269.9 20.3,270 21.4,270 C31.4,270 40.2,262.7 41.8,252.6 L52.7,184 L81.6,163 L69.7,238.5 C67.6,251.5 70.6,260.6 76.6,268.9 L200.6,440.7 C205.5,447.5 213.3,451.2 221.1,451.2 C226.2,451.2 231.4,449.6 235.9,446.4 C247.1,438 249.7,422.3 241.5,410.9 Z" id="Shape"></path>
        </g>
        <path d="M384.2,225 C322.2,225 271.8,174.6 271.8,112.6 C271.8,50.6 322.2,0.2 384.2,0.2 C446.2,0.2 496.6,50.6 496.6,112.6 C496.6,174.6 446.1,225 384.2,225 Z M384.2,15.8 C330.8,15.8 287.4,59.2 287.4,112.6 C287.4,166 330.8,209.4 384.2,209.4 C437.6,209.4 481,166 481,112.6 C481,59.2 437.5,15.8 384.2,15.8 Z" id="Shape" class="shape"></path>
    </g>
</svg>