<?xml version="1.0" encoding="UTF-8" standalone="no"?>
<!-- Created with Inkscape (http://www.inkscape.org/) -->

<svg
   xmlns:dc="http://purl.org/dc/elements/1.1/"
   xmlns:cc="http://creativecommons.org/ns#"
   xmlns:rdf="http://www.w3.org/1999/02/22-rdf-syntax-ns#"
   xmlns:svg="http://www.w3.org/2000/svg"
   xmlns="http://www.w3.org/2000/svg"
   xmlns:sodipodi="http://sodipodi.sourceforge.net/DTD/sodipodi-0.dtd"
   xmlns:inkscape="http://www.inkscape.org/namespaces/inkscape"
   width="82.804001mm"
   height="82.739609mm"
   viewBox="0 0 293.4 293.17184"
   id="svg4407"
   version="1.1"
   inkscape:version="0.91 r13725"
   sodipodi:docname="phone.svg">
  <defs
     id="defs4409" />
  <sodipodi:namedview
     id="base"
     pagecolor="#ffffff"
     bordercolor="#666666"
     borderopacity="1.0"
     inkscape:pageopacity="0.0"
     inkscape:pageshadow="2"
     inkscape:zoom="0.35"
     inkscape:cx="818.8429"
     inkscape:cy="69.443061"
     inkscape:document-units="px"
     inkscape:current-layer="layer1"
     showgrid="false"
     fit-margin-top="0"
     fit-margin-left="0"
     fit-margin-right="0"
     fit-margin-bottom="0"
     inkscape:window-width="1535"
     inkscape:window-height="876"
     inkscape:window-x="1665"
     inkscape:window-y="24"
     inkscape:window-maximized="1" />
  <metadata
     id="metadata4412">
    <rdf:RDF>
      <cc:Work
         rdf:about="">
        <dc:format>image/svg+xml</dc:format>
        <dc:type
           rdf:resource="http://purl.org/dc/dcmitype/StillImage" />
        <dc:title></dc:title>
      </cc:Work>
    </rdf:RDF>
  </metadata>
  <g
     inkscape:label="Layer 1"
     inkscape:groupmode="layer"
     id="layer1"
     transform="translate(443.8429,-308.63343)">
    <g
       transform="translate(-1413.3429,-678.86643)"
       id="g3770">
      <path
         inkscape:connector-curvature="0"
         d="m 1144.8,1186.6 c 5.2,-5.2 10.2,-10.3 15.3,-15.4 13.2,-13.1 30.9,-13 44.1,0.1 12.9,12.9 25.7,25.7 38.6,38.6 12.7,12.8 12.5,30.6 0.1,43.7 -11.3,11.8 -24.1,20.7 -40,24.9 -14.8,3.9 -29.4,2 -43.9,-1.4 -26.8,-6.3 -51,-18.3 -73.1,-34.4 -37.8,-27.6 -69.9,-60.8 -95.1,-100.4 -10.7,-16.9 -18,-35.2 -20.4,-55.2 -0.5,-4.2 -0.8,-8.4 -0.9,-12.5 0,-4.7 3.3,-8.1 7.7,-8.3 4.7,-0.2 8.6,2.8 8.7,7.7 0.6,31.6 15,57.5 33.7,81.4 23,29.4 49,55.9 80,77.1 21.1,14.4 43.7,25.1 68.9,30.2 19,3.8 36.7,1.5 52.2,-10.8 4.4,-3.4 8.4,-7.5 12.1,-11.6 4.6,-5.2 4.2,-12.8 -0.8,-17.7 -13.5,-13.6 -27,-27.1 -40.6,-40.5 -5.4,-5.3 -13.2,-5.2 -18.8,0.2 -6.6,6.4 -13,13 -19.6,19.5 -4.4,4.4 -7.1,4.7 -12.5,1.9 -23.2,-12.3 -44.5,-27.2 -62,-47 -12.9,-14.5 -22.9,-30.8 -32.1,-47.8 -2,-3.7 -1.3,-7 1.8,-10.2 6.3,-6.4 12.7,-12.7 19,-19 7.4,-7.4 7.3,-14.4 -0.1,-21.8 -12.7,-12.7 -25.4,-25.4 -38.1,-38.1 -6.4,-6.4 -14.3,-6.4 -20.5,0.2 -5.8,6.2 -12,12 -16,19.8 -2,3.9 -6.9,4.9 -10.7,3 -3.9,-2 -5.7,-6.8 -3.5,-10.8 2.4,-4.4 5.1,-8.6 8.2,-12.5 3.3,-4.1 7,-7.8 10.7,-11.5 12.1,-12.3 30.5,-12.4 42.8,-0.2 13.2,13.2 26.4,26.4 39.6,39.6 12.3,12.4 12.5,30.3 0.3,42.8 -4.8,4.9 -9.7,9.8 -14.6,14.6 -1.3,1.3 -1.4,2.2 -0.5,3.9 18.3,34.1 44.5,60.1 78.7,78 0.4,-0.4 0.6,-0.4 1.3,-0.1 z"
         id="path3772" />
      <path
         inkscape:connector-curvature="0"
         d="m 1262.9,1131.5 c 0,3 0,5.1 0,7.2 -0.1,5.1 -3.4,8.7 -8,8.8 -4.8,0.1 -8,-3.3 -8.5,-8.7 -1,-10.2 -1.5,-20.5 -3.7,-30.4 -11.4,-52 -55.7,-93.8 -108.2,-102.4 -7.7,-1.3 -15.5,-1.5 -23.3,-2.1 -3.7,-0.3 -6.6,-1.8 -7.9,-5.3 -1.2,-3.2 -0.9,-6.5 1.9,-8.6 1.8,-1.4 4.4,-2.4 6.6,-2.5 72.5,-0.1 136,53.3 148.6,124.8 1,6.7 1.7,13.4 2.5,19.2 z"
         id="path3774" />
      <path
         inkscape:connector-curvature="0"
         d="m 1209.4,1128.3 c 0,1.9 0,3.2 0,4.5 -0.1,4.9 -3.3,8.4 -7.9,8.5 -4.7,0.1 -8.4,-3.3 -8.4,-8.3 -0.1,-9.3 -1.7,-18.3 -5,-27 -11.1,-28.9 -38.4,-48 -69.5,-48.8 -5.7,-0.1 -9,-2.7 -9.5,-7.2 -0.5,-5.4 3.1,-9.2 8.9,-9.1 19.7,0.1 37.6,5.9 53.4,17.7 23.6,17.4 36,41.1 38,69.7 z"
         id="path3776" />
    </g>
  </g>
</svg>
