<?xml version="1.0" encoding="utf-8"?>
<!-- Generator: Adobe Illustrator 21.0.0, SVG Export Plug-In . SVG Version: 6.00 Build 0)  -->
<svg version="1.1" id="Calque_1" xmlns="http://www.w3.org/2000/svg" xmlns:xlink="http://www.w3.org/1999/xlink" x="0px" y="0px"
	 viewBox="0 0 200.7 329.3" style="enable-background:new 0 0 200.7 329.3;" xml:space="preserve">
<style type="text/css">
	.st0{fill:#020203;}
</style>
<g>
	<path class="st0" d="M134.8,106.6h-12.2V83.2l1.1-0.5c7.8-3.4,12.9-11,12.9-19.5c0-11.7-9.5-21.2-21.2-21.2
		c-11.7,0-21.2,9.5-21.2,21.2c0,8.5,5.1,16.1,12.9,19.5l1.1,0.5v23.4H26.2c-13.5,0-24.4,11-24.4,24.4v173.2
		c0,13.5,11,24.4,24.4,24.4h108.7c13.5,0,24.4-11,24.4-24.4V131.1C159.3,117.6,148.3,106.6,134.8,106.6z M115.5,56.5
		c3.7,0,6.8,3,6.8,6.8c0,3.7-3,6.8-6.8,6.8c-3.7,0-6.8-3-6.8-6.8C108.7,59.5,111.7,56.5,115.5,56.5z M144.8,306.1h-0.2
		c-0.9,4.6-4.9,8.2-9.8,8.2H26.2c-5.5,0-10-4.5-10-10V131.1c0-5.5,4.5-10,10-10h108.7c5.5,0,10,4.5,10,10V306.1z"/>
	<path class="st0" d="M42.8,248h75.3c4,0,7.2-3.2,7.2-7.2s-3.2-7.2-7.2-7.2H42.8c-4,0-7.2,3.2-7.2,7.2S38.9,248,42.8,248z"/>
	<path class="st0" d="M118.1,261.7c-1.9,0-3.8,0.7-5.1,2l0,0c-1.3,1.3-2.1,3.2-2.1,5.1c0,1.9,0.8,3.8,2.1,5.1
		c1.3,1.4,3.2,2.1,5.1,2.1c1.9,0,3.8-0.8,5.1-2.1c1.4-1.4,2.1-3.2,2.1-5.1c0-1.9-0.8-3.7-2.1-5.1C121.9,262.4,120,261.7,118.1,261.7
		z"/>
	<path class="st0" d="M42.8,208.1h75.3c4,0,7.2-3.2,7.2-7.2v-53.2c0-4-3.2-7.2-7.2-7.2H42.8c-4,0-7.2,3.2-7.2,7.2v53.2
		C35.6,204.9,38.9,208.1,42.8,208.1z M50,154.9h60.9v38.8H50V154.9z"/>
	<path class="st0" d="M70.3,70.5c4,0,7.2-3.2,7.2-7.2c0-10,4.1-19.8,11.1-26.8c2.8-2.8,2.8-7.4,0-10.2c-1.4-1.4-3.2-2.1-5.1-2.1
		c0,0,0,0,0,0c-1.9,0-3.7,0.8-5.1,2.1c-9.7,9.8-15.3,23.3-15.3,37C63.1,67.2,66.3,70.5,70.3,70.5z"/>
	<path class="st0" d="M174.2,4.6c-1.4-1.4-3.2-2.1-5.1-2.1c0,0,0,0,0,0c-1.9,0-3.7,0.7-5.1,2.1c-1.4,1.4-2.1,3.2-2.1,5.1
		c0,1.9,0.7,3.7,2.1,5.1c12.8,12.8,20.1,30.5,20.1,48.5c0,4,3.2,7.2,7.2,7.2c4,0,7.2-3.2,7.2-7.2C198.5,41.5,189.6,20.1,174.2,4.6z"
		/>
	<path class="st0" d="M90.6,261.6H42.8c-4,0-7.2,3.2-7.2,7.2s3.2,7.2,7.2,7.2h47.8c4,0,7.2-3.2,7.2-7.2S94.6,261.6,90.6,261.6z"/>
	<path class="st0" d="M39.6,70.5c4,0,7.2-3.2,7.2-7.2c0-18,7.3-35.7,20.1-48.5c2.8-2.8,2.8-7.4,0-10.2c-1.4-1.4-3.2-2.1-5.1-2.1
		c0,0,0,0,0,0c-1.9,0-3.7,0.8-5.1,2.1C41.3,20,32.4,41.5,32.4,63.3C32.4,67.2,35.7,70.5,39.6,70.5z"/>
	<path class="st0" d="M142.3,26.2c-1.4,1.4-2.1,3.2-2.1,5.1c0,1.9,0.7,3.7,2.1,5.1c7.1,7.1,11.1,16.9,11.1,26.8c0,4,3.2,7.2,7.2,7.2
		c4,0,7.2-3.2,7.2-7.2c0-13.8-5.6-27.3-15.3-37C149.7,23.4,145.1,23.4,142.3,26.2z"/>
</g>
</svg>
