<?xml version="1.0" encoding="utf-8"?>
<!-- Generator: Adobe Illustrator 21.0.0, SVG Export Plug-In . SVG Version: 6.00 Build 0)  -->
<svg version="1.1" id="Calque_1" xmlns="http://www.w3.org/2000/svg" xmlns:xlink="http://www.w3.org/1999/xlink" x="0px" y="0px"
	 viewBox="0 0 330.1 331.5" style="enable-background:new 0 0 330.1 331.5;" xml:space="preserve">
<style type="text/css">
	.st0{fill:#020203;}
</style>
<g>
	<path class="st0" d="M181.2,173.5l1-0.2c-0.1-1.2-0.2-2.5-0.2-3.7c-0.2-20.8-0.4-45.3-0.6-70c0-2,0.1-4,0.2-6c0.1-2,0.2-4,0.2-6
		c0-1.5-0.4-3-1-4c-2-3.4-4.6-5.6-7.6-6.3c-2.8-0.7-5.8-0.1-8.8,1.6c-3.5,2.1-5.2,5.1-5.1,9c0.2,11.9,0.4,24.6,0.5,40.1
		c0.1,8.2,0.1,16.6,0.1,24.1l0,9.5c0,0.6,0,1.1-0.1,1.7c-0.3,3.5-0.6,3.7-4.1,3.7l-23.5,0.2c-15.6,0.1-31.3,0.3-46.9,0.4
		c-4.8,0-9.6,0-14.4,0.1c-5.6,0-11.1,0-16.7,0.1c-1.1,0-2.2,0.2-3.1,0.7c-5.8,2.9-8.1,8.2-6.3,14.3c1.2,4,5.5,7.3,9.9,7.6
		c1.3,0.1,2.7,0.1,3.9,0.1c0.8,0,1.6,0,2.3,0l0.2,0c5.7-0.1,11.4-0.1,17.2-0.2c10-0.1,20-0.2,30-0.3c6.7-0.1,13.5,0,20.1,0l8.9,0
		v-0.1l3.1,0c1.8,0,3.5,0,5.3,0c8.5-0.2,17.6-0.3,26.8-0.6c2,0,3.9-0.9,6.1-2.7c2.4-2,3.6-4.7,3.7-8c0.1-1.6-0.1-3.2-0.2-4.8
		L181.2,173.5z"/>
	<path class="st0" d="M164.5,1.6C74.2,1.6,0.8,75,0.8,165.2c0,90.2,73.4,163.6,163.6,163.6c90.2,0,163.6-73.4,163.6-163.6
		C328.1,75,254.7,1.6,164.5,1.6z M312.7,167.6h-14.4v13.6h13.6c-4,37-21.7,70.9-49.9,95.6c-2.2-2.3-4.5-4.5-6.8-6.6l-2.4-2.3
		c-0.2-0.2-0.4-0.4-0.7-0.6l-1.1-0.9l-3.8,3.6l10.7,10.3c-23.5,19.1-51.7,30.5-81.8,32.8v-12.3h-13.7v12.8
		c-36.6-0.5-71.4-14.4-98.4-39.2c2.9-2.9,5.8-5.8,8.6-8.7c0.4-0.4,0.8-0.9,1.2-1.4c0.5-0.6,1-1.2,1.6-1.7c0.5-0.5,0.8-1,0.8-1.5
		c0-0.8-0.6-1.3-1-1.6l-0.1-0.1c-0.1-0.1-0.1-0.1-0.2-0.2c-0.3-0.3-0.7-0.9-1.5-0.9c-0.5,0-1,0.2-1.5,0.7c-1.7,1.8-3.5,3.5-5.3,5.2
		c-0.7,0.7-1.5,1.4-2.2,2.1l-4.4,4.4c-23.4-23.2-38.6-53.8-42.8-86.3h11v-13.7H16.3c-0.1-1.9-0.1-3.7-0.1-5.4
		c0-33.6,11-65.3,31.8-91.7l13.6,13.4l0.6-0.1c0.1,0,0.2,0,0.2-0.1c0.2,0,0.5-0.1,0.7-0.4c0.4-0.4,0.7-0.7,1-1
		c0.6-0.6,1.1-1.1,1.1-1.8c0-0.7-0.5-1.2-1.3-1.9c-0.3-0.2-0.6-0.5-0.9-0.9l-1.5-1.5c-3.4-3.3-6.7-6.5-10.1-9.8
		C78.6,37.3,118.1,18.3,160,17c0,3.7,0,7.3,0,11c0,0.4,0,1.2,0.5,1.7c0.3,0.3,0.8,0.5,1.4,0.5c0,0,0,0,0,0c2.5,0,5,0,7.6,0l4,0v-13
		c38.4,2.4,73.9,19.3,100.1,47.9l-0.8,0.9c-2,2.1-4.1,4.2-6.1,6.2l-0.7,0.7c-1.3,1.3-2.6,2.7-3.9,3.9c-0.3,0.3-0.9,0.9-0.9,1.7
		c0,0.7,0.5,1.3,0.9,1.6c0.1,0.1,0.2,0.2,0.3,0.3c0.4,0.4,0.9,0.9,1.7,0.9c0,0,0,0,0,0c0.6,0,1.1-0.3,1.6-0.8
		c2.8-2.9,5.7-5.8,8.6-8.7l2.7-2.8c22.9,26.8,35.5,60.9,35.5,96.1C312.7,166,312.7,166.8,312.7,167.6z"/>
</g>
</svg>
