<svg width="335px" height="335px" viewBox="138 597 335 335" version="1.1" xmlns="http://www.w3.org/2000/svg" xmlns:xlink="http://www.w3.org/1999/xlink">
    <!-- Generator: Sketch 41.2 (35397) - http://www.bohemiancoding.com/sketch -->
    <desc>Created with Sketch.</desc>
    <defs></defs>
    <g id="Group" stroke="none" stroke-width="1" fill="none" fill-rule="evenodd" transform="translate(138.000000, 597.000000)">
        <path d="M334.9,167.6 C334.9,259.8 260.2,334.6 167.7,334.6 C75.6,334.5 0.8,259.9 0.9,167.5 C0.9,75.3 75.7,0.5 168.1,0.6 C260.3,0.7 334.9,75.3 334.9,167.6 Z M167.1,16.2 C125.2,17 88.5,32.1 58.8,62.9 C30.8,92 16.7,127.1 16.7,167.4 C16.7,210 32.2,246.6 62.8,276.2 C91.9,304.4 127.3,318.7 167.8,318.7 C210.6,318.6 247.2,303 276.9,272.1 C304.9,243 319,207.8 319,167.5 C319,124.9 303.4,88.4 272.9,58.8 C243.8,30.6 208.5,16.9 167.1,16.2 Z" id="Shape" class="shape"></path>
        <path d="M80.2,260.3 C80.4,257.5 80.5,254.6 80.9,251.8 C81.8,246.4 83.6,241.3 86.6,236.7 C90.6,230.4 95.8,225.5 102.3,222 C105.4,220.4 108.7,219.1 112.2,218.3 C116.7,217.3 121.3,217.1 125.9,217.1 L210.8,217.1 C213.9,217.1 217.1,217.4 220.2,218 C229.5,220 237.3,224.6 243.5,231.9 C246.8,235.8 249.4,240.1 250.8,245 C251.6,247.7 252.3,250.5 252.6,253.3 C253,256.8 253,260.4 253.1,263.9 C253.1,264.4 252.8,265 252.5,265.3 C247.7,269.5 242.7,273.5 237.3,277 C232.1,280.3 226.9,283.5 221.3,286 C217.6,287.6 213.9,289.2 210.2,290.6 C206.5,292 202.8,293.1 199,294.2 C196.6,294.9 194.2,295.3 191.8,295.8 C188.4,296.4 185,297 181.6,297.6 C179.8,297.9 177.9,298 176.1,298.1 C173.4,298.3 170.6,298.5 167.9,298.5 C163.5,298.5 159.2,298.3 154.8,298.1 C152.3,298 149.8,297.6 147.3,297.2 C144.3,296.7 141.4,296.1 138.5,295.5 C136.2,295 133.9,294.5 131.7,293.9 C129,293.2 126.4,292.4 123.8,291.5 C120.6,290.4 117.5,289.1 114.4,287.8 C108,285 101.9,281.7 96,277.9 C90.8,274.5 85.9,270.8 81.2,266.9 C80.6,266.4 80.4,265.9 80.4,265.1 L80.4,260.2 C80.3,260.3 80.3,260.3 80.2,260.3 Z" id="Shape" class="shape"></path>
        <path d="M166.7,195.8 C163.7,195.5 160.8,195.5 157.8,195 C153.4,194.3 149.2,193 145.1,191.2 C137.2,187.7 130.3,182.6 124.5,176.1 C120.3,171.3 116.8,166 114.3,160.1 C112.7,156.5 111.5,152.9 110.7,149 C110,145.6 109.3,142.2 109.3,138.6 C109.3,135.2 109.1,131.7 109.5,128.3 C110,124.1 111.1,120.1 112.5,116.1 C115.8,107.2 121.2,99.7 128.4,93.6 C132.4,90.2 136.7,87.4 141.5,85.3 C144.8,83.9 148.3,82.7 151.8,81.8 C154.7,81 157.7,80.7 160.7,80.3 C163.4,80 166.1,79.8 168.7,79.9 C172.3,80.1 175.8,80.7 179.3,81.2 C184,81.9 188.5,83.6 192.7,85.7 C200.2,89.3 206.7,94.3 211.9,100.8 C215.6,105.4 218.6,110.5 220.6,116.1 C221.9,119.7 223,123.3 223.4,127 C223.7,129.9 224.2,132.9 224.1,135.8 C224,139.4 223.4,142.9 222.9,146.4 C222.1,152.1 220.1,157.4 217.6,162.4 C215.4,166.8 212.7,170.8 209.6,174.6 C205.3,179.7 200.4,184 194.7,187.4 C191.2,189.5 187.6,191.3 183.7,192.5 C180.2,193.6 176.7,194.7 173,194.9 C171.1,195.4 168.9,195.6 166.7,195.8 Z" id="Shape" class="shape"></path>
    </g>
</svg>