<svg width="267px" height="267px" viewBox="1521 1043 267 267" version="1.1" xmlns="http://www.w3.org/2000/svg" xmlns:xlink="http://www.w3.org/1999/xlink">
    <!-- Generator: Sketch 41.2 (35397) - http://www.bohemiancoding.com/sketch -->
    <desc>Created with Sketch.</desc>
    <defs></defs>
    <g id="Group" stroke="none" stroke-width="1" fill="none" fill-rule="evenodd" transform="translate(1521.000000, 1043.000000)">
        <circle id="Oval" class="shape" cx="133.8" cy="133.2" r="133"></circle>
        <path d="M133.8,47.7 L195,67.5 L195,151.3 C195,163.1 191.6,174.4 185.5,184.1 C185.8,183.1 185.9,182 185.9,180.8 C185.9,162.2 176.1,145.9 161.4,136.7 C166.6,130.5 169.7,122.4 169.7,113.7 C169.7,93.9 153.6,77.7 133.7,77.7 C113.8,77.7 97.7,93.8 97.7,113.7 C97.7,122.4 100.8,130.4 106,136.7 C91.3,145.9 81.5,162.3 81.5,180.8 C81.5,181.9 81.6,183 81.9,184.1 C75.8,174.5 72.4,163.2 72.4,151.3 L72.4,67.5 L133.8,47.7 L133.8,47.7 Z M88.7,192.6 C90.6,193.7 92.9,194.3 95.2,194.3 L172.4,194.3 C174.8,194.3 177,193.7 178.9,192.6 C175.3,196.5 171.2,199.9 166.7,202.9 C166.4,203.1 166.2,203.3 165.9,203.4 L133.8,222.7 L101.7,203.4 C101.4,203.2 101.2,203 100.9,202.8 C96.3,200 92.3,196.5 88.7,192.6 L88.7,192.6 Z M133.8,33.5 L59.1,57.7 L59.1,151.3 C59.1,177.7 72.9,201 93.6,214.2 L93.5,214.2 L133.8,238.5 L174.1,214.2 L174,214.2 C194.7,200.9 208.5,177.7 208.5,151.3 L208.5,57.7 L133.8,33.5 L133.8,33.5 Z M133.8,136.2 C121.4,136.2 111.3,126.1 111.3,113.7 C111.3,101.3 121.4,91.2 133.8,91.2 C146.2,91.2 156.3,101.3 156.3,113.7 C156.3,126.1 146.3,136.2 133.8,136.2 L133.8,136.2 Z M95.2,180.8 C95.2,159.5 112.5,142.2 133.8,142.2 C155.1,142.2 172.4,159.5 172.4,180.8 L95.2,180.8 L95.2,180.8 Z" id="Shape" fill="#FFFFFF"></path>
    </g>
</svg>