<?xml version="1.0" encoding="utf-8"?>
<!-- Generator: Adobe Illustrator 21.0.0, SVG Export Plug-In . SVG Version: 6.00 Build 0)  -->
<svg version="1.1" id="Calque_1" xmlns="http://www.w3.org/2000/svg" xmlns:xlink="http://www.w3.org/1999/xlink" x="0px" y="0px"
	 viewBox="0 0 244 265.3" style="enable-background:new 0 0 244 265.3;" xml:space="preserve">
<style type="text/css">
	.st0{fill:#020203;}
</style>
<g>
	<path class="st0" d="M79.5,44.4h151.9c6.3,0,11.2-4.9,11.2-11.2s-4.9-11.2-11.2-11.2H79.5c-6.3,0-11.2,4.9-11.2,11.2
		S73.2,44.4,79.5,44.4z"/>
	<path class="st0" d="M231.4,92.3H79.5c-6.3,0-11.2,4.9-11.2,11.2c0,6.3,4.9,11.2,11.2,11.2h151.9c6.3,0,11.2-4.9,11.2-11.2
		C242.5,97.2,237.6,92.3,231.4,92.3z"/>
	<path class="st0" d="M231.4,162.8H79.5c-6.3,0-11.2,4.9-11.2,11.2s4.9,11.2,11.2,11.2h151.9c6.3,0,11.2-4.9,11.2-11.2
		S237.6,162.8,231.4,162.8z"/>
	<path class="st0" d="M231.4,233H79.5c-6.3,0-11.2,4.9-11.2,11.2c0,6.3,4.9,11.2,11.2,11.2h151.9c6.3,0,11.2-4.9,11.2-11.2
		C242.5,237.9,237.6,233,231.4,233z"/>
	<path class="st0" d="M52,8.5l-8-6.5c-0.9-0.6-2.1-0.6-2.7,0.3L19.6,29.2L11,21.5c-0.9-0.6-2.1-0.6-2.7,0l-6.8,7.7
		C1,30,1,31.2,1.6,31.8l18.3,16.5c0.9,0.6,2.1,0.6,2.7-0.3l6.5-8l0,0l23.6-29.2C53.2,10.6,52.9,9.4,52,8.5z"/>
	<path class="st0" d="M36.1,244.2l9.7-9.7c0.9-0.9,0.9-2.7,0-3.8l-5.6-5.6c-0.9-0.9-2.7-0.9-3.8,0l-9.7,9.7l-9.7-9.7
		c-0.9-0.9-2.7-0.9-3.8,0l-5.6,5.6c-0.9,0.9-0.9,2.7,0,3.8l9.7,9.7l-9.7,9.7c-0.9,0.9-0.9,2.7,0,3.8l5.6,5.6c0.9,0.9,2.7,0.9,3.8,0
		l9.7-9.7l9.7,9.7c0.9,0.9,2.7,0.9,3.8,0l5.6-5.6c0.9-0.9,0.9-2.7,0-3.8L36.1,244.2z"/>
	<path class="st0" d="M36.1,174l9.7-9.7c0.9-0.9,0.9-2.7,0-3.8l-5.6-5.6c-0.9-0.9-2.7-0.9-3.8,0l-9.7,9.7l-9.7-9.7
		c-0.9-0.9-2.7-0.9-3.8,0l-5.6,5.6c-0.9,0.9-0.9,2.7,0,3.8l9.7,9.7l-9.7,9.7c-0.9,0.9-0.9,2.7,0,3.8l5.6,5.6c0.9,0.9,2.7,0.9,3.8,0
		l9.7-9.7l9.7,9.7c0.9,0.9,2.7,0.9,3.8,0l5.6-5.6c0.9-0.9,0.9-2.7,0-3.8L36.1,174z"/>
	<path class="st0" d="M36.1,100.8l9.7-9.7c0.9-0.9,0.9-2.7,0-3.8l-5.6-5.6c-0.9-0.9-2.7-0.9-3.8,0l-9.7,9.7l-9.7-9.7
		c-0.9-0.9-2.7-0.9-3.8,0l-5.6,5.6c-0.9,0.9-0.9,2.7,0,3.8l9.7,9.7l-9.7,9.7c-0.9,0.9-0.9,2.7,0,3.8l5.6,5.6c0.9,0.9,2.7,0.9,3.8,0
		l9.7-9.7l9.7,9.7c0.9,0.9,2.7,0.9,3.8,0l5.6-5.6c0.9-0.9,0.9-2.7,0-3.8L36.1,100.8z"/>
</g>
</svg>
