<?xml version="1.0" encoding="utf-8"?>
<!-- Generator: Adobe Illustrator 21.0.0, SVG Export Plug-In . SVG Version: 6.00 Build 0)  -->
<svg version="1.1" id="Calque_1" xmlns="http://www.w3.org/2000/svg" xmlns:xlink="http://www.w3.org/1999/xlink" x="0px" y="0px"
	 viewBox="0 0 320 319.3" style="enable-background:new 0 0 320 319.3;" xml:space="preserve">
<g>
	<path d="M129.8,5.4c20.4,0,40.7,0,61.1,0c0,81.8,0,163.5,0,245.4c-20.3,0-40.6,0-61.1,0C129.8,169,129.8,87.3,129.8,5.4z"/>
	<path d="M221.9,66.8c20.4,0,40.7,0,61.1,0c0,61.3,0,122.5,0,183.9c-20.3,0-40.6,0-61.1,0C221.9,189.5,221.9,128.3,221.9,66.8z"/>
	<path d="M6.9,312.2c0-10.2,0-20.2,0-30.4c102.3,0,204.5,0,306.9,0c0,10.1,0,20.2,0,30.4C211.5,312.2,109.3,312.2,6.9,312.2z"/>
	<path d="M98.7,250.8c-20.5,0-40.7,0-61.1,0c0-40.8,0-81.6,0-122.5c20.3,0,40.6,0,61.1,0C98.7,169,98.7,209.8,98.7,250.8z"/>
</g>
</svg>
