<?xml version="1.0" encoding="UTF-8"?>
<svg width="187px" height="195px" viewBox="0 0 187 195" version="1.1" xmlns="http://www.w3.org/2000/svg" xmlns:xlink="http://www.w3.org/1999/xlink">
    <!-- Generator: Sketch 40.3 (33839) - http://www.bohemiancoding.com/sketch -->
    <title>Shape</title>
    <desc>Created with Sketch.</desc>
    <defs></defs>
    <g id="Page-1" stroke="none" stroke-width="1" fill-rule="evenodd">
        <g id="ICON_VECTOR2-(1)" transform="translate(-3607.000000, -2349.000000)" fill="#000000">
            <path d="M3772.8,2514.9 C3745,2544.4 3691.7,2555.5 3648.9,2525.4 C3604.6,2494.3 3594.6,2432.9 3626.7,2389.1 C3660.7,2342.7 3727.8,2335.7 3770.2,2374.9 C3777.9,2367.1 3785.7,2359.4 3793.7,2351.4 L3793.7,2417.2 L3728.4,2417.2 C3736,2409.7 3743.5,2402.1 3751.1,2394.6 C3730.3,2374.7 3692.3,2368.4 3662.9,2390.7 C3632,2414.1 3625.8,2457.8 3649.1,2488.2 C3661.9,2504.9 3678.9,2514.3 3699.9,2515.8 C3720.9,2517.4 3738.8,2510.2 3753.9,2495.9 C3760.2,2502.2 3766.5,2508.5 3772.8,2514.9 Z" id="Shape"></path>
        </g>
    </g>
</svg>