<?xml version="1.0" encoding="utf-8"?>
<!-- Generator: Adobe Illustrator 21.0.0, SVG Export Plug-In . SVG Version: 6.00 Build 0)  -->
<svg version="1.1" id="Calque_1" xmlns="http://www.w3.org/2000/svg" xmlns:xlink="http://www.w3.org/1999/xlink" x="0px" y="0px"
	 viewBox="0 0 316 317.3" style="enable-background:new 0 0 316 317.3;" xml:space="preserve">
<g>
	<path d="M247.3,24.7c0-4,0-7.7,0-11.5c0.1-5.6,3.7-9.5,8.7-9.4c4.9,0.1,8.5,3.9,8.6,9.3c0.1,3.8,0,7.7,0,11.8c1.3,0,2.4,0,3.4,0
		c11.8,0,23.6,0,35.4,0c6.7,0,9.9,3.3,9.9,10c0,90.4,0,180.8,0,271.1c0,6.9-3.3,10.2-10.1,10.2c-76.2,0-152.4,0-228.6,0
		c-3.1,0-5.7-1-8.1-3c-20.4-17.7-40.9-35.4-61.4-53c-3-2.6-4.4-5.6-4.3-9.6c0.1-71.7,0-143.3,0-215C0.9,28,4,24.9,11.7,24.9
		c11.5,0,23.1,0,34.6,0c1,0,2.1,0,3.4,0c0-4.2-0.1-8.1,0-12.1C50,6.6,55,2.7,60.7,4.1c3.8,1,6.2,4.1,6.4,8.3c0.1,2,0,4,0,6
		c0,2,0,4,0,6.2C127.2,24.7,187,24.7,247.3,24.7z M296.2,96.3c-92.8,0-185.2,0-277.6,0c0,49.3,0,98.4,0,147.7c1.3,0,2.3,0,3.4,0
		c16.8,0,33.6,0,50.4,0c6.5,0,9.9,3.4,9.9,9.8c0,14.1,0,28.2,0,42.3c0,0.9,0.1,1.8,0.1,2.9c1.3,0,2.4,0,3.4,0c69,0,138,0,207.1,0
		c3.4,0,3.4,0,3.4-3.3c0-65.3,0-130.7,0-196C296.2,98.6,296.2,97.6,296.2,96.3z M18.4,78.5c92.7,0,185.1,0,277.4,0
		c0-12.2,0-24.1,0-36c-10.5,0-20.8,0-31.3,0c0,1.3,0,2.4,0,3.6c0,3.2,0.1,6.5-0.2,9.7c-0.4,4.3-4,7.5-8.3,7.6
		c-4.2,0.1-8.2-3-8.6-7.2c-0.4-3.4-0.2-6.8-0.3-10.2c0-1.2,0-2.3,0-3.4c-60.3,0-120,0-180.1,0c0,4.2,0.1,8.2,0,12.2
		c-0.1,4.1-2.5,7.1-6.1,8.2c-5.7,1.7-11-2.3-11.2-8.7c-0.1-3.9,0-7.8,0-11.8c-10.6,0-20.9,0-31.3,0C18.4,54.5,18.4,66.5,18.4,78.5z
		 M33.2,261.4c10.7,9.3,20.9,18.1,31.4,27.1c0-9.4,0-18.2,0-27.1C54.2,261.4,44,261.4,33.2,261.4z"/>
	<path d="M108.2,256.5c1.7,0,3.5-0.2,5.2,0c4.3,0.5,7.4,4.1,7.5,8.4c0.1,4.2-3,8.2-7.3,8.6c-3.6,0.3-7.3,0.3-11,0
		c-4.3-0.4-7.4-4.4-7.3-8.6c0.1-4.3,3.3-7.9,7.6-8.4C104.7,256.4,106.4,256.5,108.2,256.5z"/>
	<path d="M206.2,273.9c-1.9-0.1-3.7-0.1-5.5-0.3c-4.1-0.6-7.2-4.3-7.2-8.4c0-4.3,3.1-8.1,7.4-8.5c3.5-0.3,7.2-0.3,10.7,0
		c4.3,0.4,7.4,4.2,7.4,8.5c0,4.2-3,7.8-7.1,8.5C210,273.8,208.1,273.8,206.2,273.9z"/>
	<path d="M255.4,256.3c1.8,0.1,3.7,0,5.5,0.3c4.2,0.6,7.1,4.1,7.2,8.4c0,4.3-2.8,8.1-7,8.5c-3.8,0.4-7.7,0.4-11.5,0
		c-4.2-0.4-7-4.2-6.9-8.5c0.1-4.2,3-7.8,7.2-8.3c1.8-0.2,3.7,0,5.5,0C255.4,256.5,255.4,256.4,255.4,256.3z"/>
	<path d="M157.3,256.5c1.6,0,3.2-0.1,4.7,0c4.6,0.4,7.9,4,7.9,8.5c0,4.6-3.1,8.2-7.8,8.6c-3.3,0.3-6.6,0.3-9.9,0
		c-4.6-0.4-7.7-4.2-7.7-8.7c0.1-4.5,3.4-8,8-8.4C154.1,256.3,155.7,256.5,157.3,256.5C157.3,256.5,157.3,256.5,157.3,256.5z"/>
	<path d="M108.4,211.4c1.3,0,2.6,0,3.9,0c4.8,0.2,8.3,3.5,8.6,8.2c0.3,4.5-3.1,8.6-7.7,9c-3.3,0.3-6.7,0.3-9.9,0
		c-4.7-0.4-8.1-4.4-7.9-8.9c0.2-4.7,3.9-8.2,8.8-8.3C105.6,211.4,107,211.4,108.4,211.4z"/>
	<path d="M108.2,183.7c-1.5,0-3,0.1-4.5,0c-4.6-0.2-8.3-3.9-8.3-8.5c-0.1-4.5,3.4-8.5,8-8.8c3.1-0.2,6.3-0.2,9.4,0
		c4.6,0.3,8.1,4.2,8.1,8.7c-0.1,4.7-3.7,8.4-8.5,8.5C111,183.8,109.6,183.7,108.2,183.7z"/>
	<path d="M206.5,211.4c1.3,0,2.6,0,3.9,0c4.8,0.2,8.5,3.8,8.6,8.5c0.1,4.5-3.3,8.4-8,8.8c-3.1,0.2-6.3,0.2-9.4,0
		c-4.8-0.3-8.3-4.4-8.1-9c0.2-4.7,3.9-8.1,8.8-8.3C203.7,211.4,205.1,211.4,206.5,211.4z"/>
	<path d="M206.2,183.7c-1.4,0-2.8,0-4.2,0c-4.7-0.2-8.3-3.7-8.5-8.3c-0.2-4.5,3.3-8.6,7.8-8.9c3.3-0.2,6.7-0.2,9.9,0
		c4.5,0.3,7.9,4.4,7.7,8.8c-0.1,4.6-3.7,8.3-8.4,8.4C209.2,183.8,207.7,183.7,206.2,183.7z"/>
	<path d="M157.2,183.7c-1.4,0-2.8,0-4.2,0c-4.8-0.2-8.4-3.8-8.5-8.5c0-4.8,3.5-8.5,8.2-8.8c3-0.1,5.9-0.1,8.9,0
		c4.8,0.2,8.3,4,8.2,8.8c-0.1,4.7-3.7,8.3-8.5,8.5C160,183.8,158.6,183.7,157.2,183.7z"/>
	<path d="M255.3,183.7c-1.3,0-2.6,0-3.9,0c-5-0.1-8.7-3.7-8.7-8.6c0-4.9,3.6-8.6,8.6-8.7c2.8-0.1,5.6-0.1,8.4,0
		c4.9,0.2,8.5,4,8.4,8.9c-0.1,4.7-3.7,8.3-8.6,8.4C258.1,183.8,256.7,183.7,255.3,183.7z"/>
	<path d="M108.1,138.7c-1.7,0-3.3,0.1-5,0c-4.3-0.4-7.5-3.9-7.7-8.2c-0.2-4.1,2.7-8.2,6.8-8.7c4-0.4,8-0.4,12,0
		c4.1,0.5,7,4.7,6.7,8.7c-0.2,4.2-3.4,7.7-7.6,8.1C111.6,138.8,109.9,138.7,108.1,138.7C108.1,138.7,108.1,138.7,108.1,138.7z"/>
	<path d="M255.6,211.4c1.3,0,2.6,0,3.9,0c4.8,0.2,8.4,3.6,8.5,8.2c0.2,4.8-3.1,8.7-7.9,9c-3.1,0.2-6.3,0.2-9.4,0
		c-4.9-0.4-8.1-4.2-8-9c0.1-4.7,3.8-8.1,8.7-8.3C252.8,211.4,254.2,211.4,255.6,211.4z"/>
	<path d="M157,228.9c-2-0.2-4-0.1-6-0.5c-4.4-1-6.9-4.9-6.4-9.4c0.4-4.1,3.9-7.3,8.1-7.5c2.9-0.1,5.8-0.1,8.6,0
		c4.8,0.1,8.4,3.6,8.5,8.2c0.2,4.9-3.2,8.7-8.2,9.1c-1.6,0.1-3.1,0-4.7,0C157,228.8,157,228.9,157,228.9z"/>
	<path d="M58.9,228.9c-2.1-0.2-4.2-0.1-6.2-0.6c-4.2-1-6.7-4.9-6.3-9.3c0.4-4.1,3.8-7.4,8-7.6c2.9-0.1,5.8-0.1,8.6,0
		c4.9,0.1,8.5,3.7,8.6,8.3c0.1,4.8-3.2,8.5-8.1,8.9c-1.6,0.1-3.1,0-4.7,0C58.9,228.8,58.9,228.9,58.9,228.9z"/>
	<path d="M206.1,138.7c-1.7,0-3.3,0.1-5,0c-4.2-0.4-7.3-3.8-7.6-8c-0.3-4.1,2.6-8.3,6.7-8.8c3.9-0.5,8-0.5,12,0
		c4.1,0.5,7,4.5,6.9,8.6c-0.2,4.3-3.4,7.8-7.7,8.2C209.6,138.8,207.9,138.7,206.1,138.7C206.1,138.7,206.1,138.7,206.1,138.7z"/>
	<path d="M157,138.7c-1.4,0-2.8,0.1-4.2,0c-4.7-0.3-8.1-3.7-8.3-8.1c-0.2-4.7,2.9-8.6,7.6-9c3.4-0.3,6.8-0.3,10.2,0
		c4.7,0.5,7.8,4.3,7.5,9.1c-0.2,4.4-3.6,7.7-8.1,8C160.2,138.8,158.6,138.7,157,138.7C157,138.7,157,138.7,157,138.7z"/>
	<path d="M255.2,138.7c-1.4,0-2.8,0.1-4.2,0c-4.7-0.3-8.1-3.7-8.3-8.1c-0.2-4.7,2.9-8.6,7.6-9c3.3-0.3,6.6-0.3,9.9,0
		c4.8,0.4,7.9,4.2,7.8,8.9c-0.1,4.6-3.6,8.1-8.4,8.3C258.2,138.8,256.7,138.7,255.2,138.7z"/>
	<path d="M58.9,183.7c-1.3,0-2.6,0-3.9,0c-5-0.1-8.6-3.8-8.6-8.6c0-4.8,3.6-8.5,8.6-8.7c2.7-0.1,5.4-0.1,8.1,0
		c5,0.1,8.6,3.8,8.6,8.7c0,4.9-3.6,8.5-8.6,8.6C61.7,183.8,60.3,183.7,58.9,183.7z"/>
	<path d="M58.8,138.7c-1.4,0-2.8,0.1-4.2,0c-4.7-0.3-8.1-3.7-8.2-8.2c-0.1-4.6,2.9-8.4,7.5-8.9c3.5-0.3,7-0.3,10.5,0
		c4.6,0.5,7.5,4.4,7.3,9c-0.2,4.4-3.6,7.8-8.1,8.1C62,138.8,60.4,138.7,58.8,138.7C58.8,138.7,58.8,138.7,58.8,138.7z"/>
</g>
</svg>
