<?xml version="1.0" encoding="utf-8"?>
<!-- Generator: Adobe Illustrator 21.0.0, SVG Export Plug-In . SVG Version: 6.00 Build 0)  -->
<svg version="1.1" id="Calque_1" xmlns="http://www.w3.org/2000/svg" xmlns:xlink="http://www.w3.org/1999/xlink" x="0px" y="0px"
	 viewBox="0 0 287.3 288" style="enable-background:new 0 0 287.3 288;" xml:space="preserve">
<g>
	<path d="M278.9,136.7c-0.1,0-0.2,0-0.2,0h-42.8c-3.6-45.1-39.4-80.8-84.5-84.5V9.5c0-4.1-3.3-7.5-7.4-7.6l-0.2,0
		c-4.1,0.1-7.4,3.5-7.4,7.6v42.8C91.4,55.9,55.7,91.6,52,136.7H9.3c0,0-0.1,0-0.1,0c-4.1,0-7.4,3.3-7.5,7.4
		c-0.1,4.1,3.3,7.5,7.4,7.6c0.1,0,0.2,0,0.2,0H52c3.6,45.1,39.4,80.8,84.5,84.5V279c-0.1,4.1,3.3,7.5,7.4,7.6c0,0,0.1,0,0.1,0
		c4.1,0,7.4-3.3,7.5-7.4c0-0.1,0-0.2,0-0.2v-42.8c45.1-3.6,80.8-39.4,84.5-84.5h42.8c0,0,0.1,0,0.1,0c4.1,0,7.4-3.3,7.5-7.4
		C286.4,140.2,283,136.8,278.9,136.7z M221.4,144.4c-0.1,42.6-34.8,77.2-77.5,77.2c-42.5,0-77.2-34.6-77.3-77.1c0-0.1,0-0.3,0-0.5
		c0.1-42.6,34.8-77.2,77.4-77.2v-2.5l0.1,2.5c42.5,0,77.2,34.7,77.3,77.1C221.4,144.1,221.4,144.3,221.4,144.4z"/>
	<path d="M184.3,172.6l-28.5-28.5l27.1-27.1c3.1-3.1,3.1-8.2,0-11.3c-3.1-3.1-8.2-3.1-11.3,0l-27.1,27.1l-27.5-27.5
		c-3.1-3.1-8.2-3.1-11.3,0c-3.1,3.1-3.1,8.2,0,11.3l27.5,27.5l-28.9,28.9c-3.1,3.1-3.1,8.2,0,11.3c1.6,1.6,3.6,2.3,5.6,2.3
		c2,0,4.1-0.8,5.7-2.3l28.9-28.9l28.5,28.5c1.6,1.6,3.6,2.3,5.6,2.3s4.1-0.8,5.6-2.3C187.4,180.8,187.4,175.7,184.3,172.6z"/>
</g>
</svg>
