<?xml version="1.0" encoding="utf-8"?>
<!-- Generator: Adobe Illustrator 21.0.0, SVG Export Plug-In . SVG Version: 6.00 Build 0)  -->
<svg version="1.1" id="Calque_1" xmlns="http://www.w3.org/2000/svg" xmlns:xlink="http://www.w3.org/1999/xlink" x="0px" y="0px"
	 viewBox="0 0 283.2 356.6" style="enable-background:new 0 0 283.2 356.6;" xml:space="preserve">
<path d="M141.4,356c-2.2,0-4.4-0.7-6.6-2c-7.9-4.8-15.9-9.6-23.7-14.2c-13.3-7.9-27-16.1-40.4-24.6c-39.2-24.7-62.8-59-68.2-99.1
	c-0.8-6.2-0.9-12.3-0.9-18.6c0-22,0-42.2,0-62.1c0-26.6,0-52.7-0.1-81.9c0-6.2,3-10.2,8.8-12.1c20.2-6.5,41.9-13.1,62.9-19.5
	c21.2-6.5,43.1-13.1,63.4-19.7c3-1,6.6-1,9.6,0c20.3,6.5,42.1,13.2,63.2,19.6c21.1,6.5,43,13.1,63.4,19.7c5.7,1.8,8.7,6,8.7,11.9
	c-0.1,21.4-0.1,37.4-0.1,56l0,17.6c0,7.7,0,15.4,0.1,23.1c0.1,16.9,0.2,34.4-0.2,51.6c-1,41.6-21.8,78.7-60.2,107.3
	c-7.1,5.3-14.6,9.8-21.9,14.1c-2.3,1.4-4.6,2.7-6.9,4.1c-7.7,4.7-15.5,9.4-23.1,13.9c-7,4.2-14.1,8.5-21.1,12.7
	C145.9,355.3,143.7,356,141.4,356z M17,55.6c0.1,28.4,0.1,53.9,0.1,79.9c0,20,0,40.2,0,62.1c0,5.7,0.1,11.3,0.8,16.5
	c4.8,35.4,26,65.9,61.2,88.1c13.2,8.3,26.8,16.5,40.1,24.4c7.3,4.4,14.9,8.9,22.3,13.4c6.6-4,13.2-8,19.8-12
	c7.5-4.5,15.3-9.2,23-13.9c2.3-1.4,4.7-2.8,7-4.2c7.3-4.3,14.2-8.4,20.6-13.2c34.4-25.7,53.1-58.6,54-95.2c0.4-17,0.3-34.4,0.2-51.2
	c0-5.1-0.1-10.3-0.1-15.4h0l0-25.4c0-17.9,0-33.5,0.1-53.8c-19.6-6.3-40.7-12.7-61-18.9c-21.1-6.4-43-13.1-63.3-19.6
	c-0.1,0-0.2,0-0.2,0C120.9,23.6,99,30.3,77.7,36.8C57.5,42.9,36.6,49.3,17,55.6z M141.6,17L141.6,17L141.6,17z M212.9,248.8H70.7
	l0.1-7.8c0.2-22.1,9-40.8,25.4-54c8.3-6.7,17-11.4,25.9-14.1c-15.1-7.4-24.5-23.1-25.2-38c-0.6-12.3,3.3-23.2,11.3-31.6
	c9.6-10.2,23.5-14.8,33-14.8c0.1,0,0.1,0,0.2,0c26.2,0,43.6,21.9,44.6,42.3c0.6,11.8-4,23.8-12.6,32.9c-3.8,4-8.3,7.2-13.1,9.5
	c4,1.2,8.1,2.8,12.1,4.8c24.8,12,38.2,33.1,40,62.8L212.9,248.8z M86.8,233.3h109.3c-3.1-19.5-13.1-33.1-30.4-41.5
	c-21.1-10.2-41.2-7.8-59.8,7.2C95,207.8,88.6,219.3,86.8,233.3z M141.4,103.9c0,0-0.1,0-0.1,0c-5,0-14.9,2.7-21.8,10
	c-5.1,5.3-7.4,12.1-7.1,20.2c0.6,11.6,10.9,27.7,29,27.7c0.1,0,0.1,0,0.2,0h0.1c0,0,0.1,0,0.1,0c7.7,0,14.9-3.2,20.4-8.9
	c5.6-5.9,8.8-13.9,8.4-21.4C170,119.9,159.5,103.9,141.4,103.9z"/>
</svg>
