<?xml version="1.0" encoding="UTF-8"?>
<svg width="212px" height="212px" viewBox="0 0 212 212" version="1.1" xmlns="http://www.w3.org/2000/svg" xmlns:xlink="http://www.w3.org/1999/xlink">
    <!-- Generator: Sketch 40.3 (33839) - http://www.bohemiancoding.com/sketch -->
    <title>Shape</title>
    <desc>Created with Sketch.</desc>
    <defs></defs>
    <g id="Page-1" stroke="none" stroke-width="1" fill-rule="evenodd">
        <g id="ICON_VECTOR2-(1)" transform="translate(-2588.000000, -2349.000000)" fill="#000000">
            <path d="M2736.8,2481.6 L2799.8,2544.6 C2794.4,2550 2789,2555.3 2783.7,2560.6 L2720.8,2497.7 C2698.7,2513.7 2674.7,2518.6 2648.6,2511.4 C2629,2506 2613.6,2494.6 2602.3,2477.7 C2579.5,2443.4 2585.1,2398.3 2615.6,2370.8 C2645.8,2343.5 2691.1,2342.4 2723,2368.2 C2755.4,2394.3 2764.6,2444.4 2736.8,2481.6 L2736.8,2481.6 Z M2611.4,2431.8 C2611.2,2464.4 2637.9,2491.4 2670.6,2491.6 C2703.2,2491.8 2730,2465.1 2730.2,2432.3 C2730.4,2399.4 2703.9,2372.7 2670.9,2372.5 C2638.3,2372.2 2611.5,2398.8 2611.4,2431.8 L2611.4,2431.8 Z" id="Shape"></path>
        </g>
    </g>
</svg>