<?xml version="1.0" encoding="UTF-8"?>
<svg width="210px" height="210px" viewBox="0 0 210 210" version="1.1" xmlns="http://www.w3.org/2000/svg" xmlns:xlink="http://www.w3.org/1999/xlink">
    <!-- Generator: Sketch 40.3 (33839) - http://www.bohemiancoding.com/sketch -->
    <title>Group</title>
    <desc>Created with Sketch.</desc>
    <defs></defs>
    <g id="Page-1" stroke="none" stroke-width="1" fill="none" fill-rule="evenodd">
        <g id="ICON_VECTOR" transform="translate(-1568.000000, -1891.000000)">
            <g id="Group" transform="translate(1572.000000, 1895.000000)">
                <path d="M126.9,201.5 L39.6,201.5 C39.2,201.1 39.4,200.6 39.2,200.2 C38.9,199.4 38.7,198.5 38.6,197.6 C38.5,197 38.4,196.4 38.3,195.9 C38.1,195.1 38.1,194.3 37.9,193.5 C37.7,192.6 37.7,191.7 37.7,190.8 C37.6,188.8 37.4,186.7 37.8,184.6 C38,183.5 37.8,182.3 38.1,181.1 C38.2,180.4 38.4,179.8 38.5,179.1 C38.6,178.7 38.6,178.2 38.7,177.7 C39.1,176.6 39.3,175.5 39.6,174.5 C40,173.3 40.3,172.1 40.8,170.9 C41.3,169.6 41.9,168.4 42.5,167.2 C43.2,165.9 43.9,164.5 44.7,163.3 C45.3,162.4 45.9,161.5 46.6,160.6 C47.3,159.6 48.1,158.5 48.9,157.6 C50,156.4 51.3,155.3 52.4,154 C53.2,153.1 54.1,152.5 55,151.7 C56.3,150.7 57.7,149.8 59,148.9 C60.5,147.9 62,147.2 63.6,146.4 C65.8,145.3 68,144.5 70.3,143.8 C71.8,143.3 73.4,143.1 74.9,142.6 C76,142.2 77.2,142.4 78.3,142.1 C79.2,141.9 80.2,141.9 81.1,141.9 C82.8,141.8 84.5,141.7 86.2,142 C87.3,142.2 88.6,142.3 89.7,142.3 C90.4,142.3 91,142.5 91.6,142.8 L91.6,147.2 C90.9,147.2 90.3,147.2 89.6,147 C88.9,146.8 88.2,146.9 87.5,146.8 C86.5,146.7 85.4,146.6 84.3,146.5 C83.2,146.4 82.1,146.3 81,146.7 C80.1,147 79.2,146.8 78.3,146.9 C77.1,147.1 75.8,147.2 74.6,147.5 C73.7,147.7 72.9,147.9 72,148.1 C71,148.4 69.9,148.7 68.9,149.1 C68.5,149.2 67.9,149.3 68,149.8 C68.2,150.6 68.3,151.4 68.6,152 C69,152.9 69.3,153.9 69.8,154.8 C70.8,156.5 71.9,158 73.1,159.5 C73.5,159.9 74,160.1 74.4,160.5 C75.2,161.5 76.4,162 77.5,162.7 C78.3,163.2 79.1,163.5 80,163.9 C80.4,164 80.8,164 81.1,164.2 C81.9,164.7 82.8,164.8 83.6,164.8 C85.9,165 88.2,164.8 90.5,165.1 C90.9,165.1 91.2,165.1 91.5,165.4 L91.5,169.5 C91.6,171.7 91.2,173.9 91.8,176 C92,176.9 92.2,177.8 92.7,178.6 C93.5,179.9 94.5,180.9 95.7,181.8 C97.1,182.9 98.6,183.3 100.2,183.5 C101.3,183.6 102.4,183.6 103.6,183.3 C104.6,183 105.6,182.9 106.3,182.2 C106.4,182.1 106.5,182.1 106.6,182 C107.3,181.5 108,181 108.5,180.4 C110,178.8 110.4,176.8 110.7,174.8 C111.1,174.7 110.9,174.4 110.9,174.1 L110.9,165.8 C110.9,165.3 111,165.1 111.6,165.1 L116.6,165.1 C116.8,165.1 117.1,165.2 117.2,164.9 C117.3,164.6 117.2,164.4 117,164.2 C116.8,164 116.6,163.8 116.5,163.6 C116,162.6 115.2,161.7 114.4,160.9 C113.6,159.9 112.7,159 111.7,158.2 C111.1,157.7 110.9,157.2 111,156.4 C111.1,155 111,153.6 111,152.1 C111,151.9 110.9,151.7 111.1,151.6 C111.3,151.5 111.4,151.6 111.5,151.7 C111.9,152.3 112.6,152.5 113.1,153 C115.3,155.2 117.6,157.3 119.5,159.9 C120.1,160.7 120.6,161.5 121.1,162.2 C121.7,163 122.1,163.8 122.7,164.7 C123.2,165.4 123.6,166.1 123.9,166.8 C124.3,167.7 124.7,168.7 125.1,169.6 C125.5,170.5 125.9,171.4 126.2,172.3 C126.6,173.6 127.2,174.9 127.4,176.3 C127.6,177.4 128,178.5 128.2,179.7 C128.3,180.3 128.3,181 128.4,181.6 C128.7,182.8 128.8,183.9 128.9,185.1 C129,187 128.9,189 128.9,190.9 L128.9,191.5 C128.5,192.3 128.7,193.3 128.5,194.2 C128.3,195.3 128.2,196.4 128,197.5 C127.9,197.9 127.7,198.2 127.7,198.7 C127.6,199.7 127.3,200.7 126.9,201.5 L126.9,201.5 Z" id="Shape" fill="#FFFFFF"></path>
                <path d="M160.3,125.2 L148.3,125.2 L111.7,125.2 C110.7,125.2 110.8,125.1 110.8,126.1 L110.8,174.4 L110.8,174.9 C110.4,176.9 110.1,179 108.6,180.5 C108,181.1 107.3,181.6 106.7,182.1 C106.6,182.2 106.5,182.2 106.4,182.3 C105.6,183.1 104.6,183.2 103.7,183.4 C102.6,183.7 101.4,183.7 100.3,183.6 C98.7,183.5 97.1,183 95.8,181.9 C94.6,181 93.6,179.9 92.8,178.7 C92.3,177.9 92.1,177 91.9,176.1 C91.4,173.9 91.7,171.7 91.6,169.6 C91.5,168.2 91.6,166.9 91.6,165.5 L91.6,159.7 L91.6,147.4 L91.6,143 L91.6,128.2 L91.6,125.7 C91.6,125.2 91.4,125.1 91,125.1 L76.7,125.1 L42.4,125.1 C40.4,125.1 38.6,124.5 37,123.3 C35.6,122.3 34.8,120.8 33.8,119.4 C33.5,119 33.5,118.4 33.4,117.9 C33.1,116.5 32.9,115.1 33.3,113.7 C33.6,112.6 33.8,111.6 34.4,110.6 C35.4,109.1 36.5,107.5 38.3,106.8 C39,106.5 39.8,106.3 40.5,106.2 C41,106.1 41.4,105.8 41.9,105.9 L42.4,105.9 L91,105.9 C91.6,105.9 91.7,105.7 91.7,105.2 L91.7,83.6 L91.7,69.4 L91.7,58.3 C91.7,56.9 91.8,55.5 92.2,54.1 C92.5,53.1 92.9,52.2 93.5,51.3 C93.8,50.9 94.1,50.4 94.5,50.1 C95,49.8 95.4,49.4 95.9,49.1 C97.6,47.9 99.5,47.3 101.6,47.2 C102.2,47.5 102.8,47.5 103.4,47.7 C104.2,48 105.1,48 105.8,48.4 C107.8,49.6 109.5,51 110.2,53.2 C110.5,54.1 110.8,55.2 110.8,56.2 L110.8,92 L110.8,105.3 C110.8,105.8 110.9,106 111.5,106 L159.5,106 C161.4,106 163.2,106.4 164.8,107.3 C165.9,107.9 166.7,108.9 167.4,109.9 C167.8,110.5 168.3,111.1 168.6,111.7 C168.8,112.1 168.8,112.5 168.9,112.9 C169.3,114.4 169.5,116 169.1,117.6 C169,118.1 168.9,118.6 168.8,119.1 C168.7,119.6 168.5,120.1 168.2,120.5 C167.7,121.2 167.2,121.9 166.6,122.6 C165.8,123.5 164.8,124.2 163.6,124.6 C162.6,124.7 161.5,125.1 160.3,125.2 L160.3,125.2 Z" id="Shape" fill="#1EDD85"></path>
                <g transform="translate(23.000000, 18.000000)" id="Shape" fill="#E2E3E3">
                    <path d="M128,183.5 C127.8,182.8 127.8,182 127.5,181.3 C127.3,180.9 127.4,180.4 127.3,179.9 C127.2,179.3 127,178.7 126.9,178 C126.8,177.4 126.8,176.7 126.5,176 C126.3,175.6 126.3,175.1 126.2,174.7 C126.2,174 125.8,173.3 125.9,172.6 C125.9,172.2 125.7,171.7 125.6,171.3 C125.3,170.2 125.2,169 124.9,167.9 C124.6,166.9 124.5,165.8 124.6,164.7 C124.7,163.5 124.3,162.3 124.3,161.1 C124.3,160.1 124,159 123.8,158 C123.6,157 123.4,156 123.1,155.1 C122.9,154.3 122.8,153.4 122.5,152.5 C122,151.2 121.7,149.9 121.3,148.7 C120.7,147 120.1,145.3 119.4,143.6 C118.9,142.3 118.2,141.1 117.6,139.9 C116.7,138 115.6,136.3 114.5,134.5 C113.6,133.1 112.7,131.8 111.7,130.5 C110.9,129.6 110.2,128.7 109.5,127.7 C108.5,126.4 107.3,125.4 106.2,124.2 C106.1,124 105.8,123.9 105.9,123.7 C106,123.4 106.3,123.5 106.5,123.5 L132.1,123.5 C132.9,123.5 133.7,123.8 134.4,124.1 C136.2,124.7 137.7,125.7 139,127.1 C140.2,128.4 141.2,129.8 141.6,131.6 C141.9,132.8 142.1,133.9 142.4,135.1 C142.6,136.1 142.8,137.1 143.1,138 C143.3,138.6 143.3,139.2 143.4,139.8 C143.6,140.5 143.7,141.1 143.9,141.8 C144,142.3 144.1,142.8 144.2,143.3 C144.2,144.4 144.7,145.5 144.8,146.6 C144.9,147.9 145.3,149.2 145.6,150.5 C145.8,151.8 146.1,153.2 146.4,154.5 C146.6,155.5 146.8,156.5 147.1,157.5 C147.3,158.2 147.4,158.9 147.5,159.6 C147.5,160.2 147.6,160.8 147.9,161.4 C148.1,161.9 148.1,162.4 148.2,162.9 C148.3,164 148.6,165 148.8,166 C149,167.1 149.1,168.2 149.5,169.3 C149.7,169.9 149.8,170.6 149.9,171.2 C149.9,171.9 150.2,172.5 150.3,173.2 C150.4,173.8 150.6,174.3 150.7,174.9 C150.7,175.6 151,176.3 151.1,177 C151.2,177.6 151.4,178.1 151.5,178.7 C151.6,179.8 151.8,180.9 152.2,181.9 C152.4,182.4 152.2,182.9 152.3,183.4 C143.9,183.5 136,183.5 128,183.5 L128,183.5 Z"></path>
                    <path d="M68.7,125 C68.1,124.7 67.5,124.5 66.8,124.5 C65.6,124.5 64.4,124.4 63.3,124.2 C61.6,123.9 59.9,124 58.2,124.1 C57.3,124.1 56.3,124.1 55.4,124.3 C54.3,124.6 53.1,124.4 52,124.8 C50.5,125.3 48.9,125.5 47.4,126 C45.1,126.7 42.9,127.5 40.7,128.6 C39.1,129.4 37.6,130.2 36.1,131.1 C34.7,132 33.3,132.9 32.1,133.9 C31.2,134.6 30.3,135.3 29.5,136.2 C28.4,137.4 27.1,138.5 26,139.8 C25.2,140.7 24.4,141.8 23.7,142.8 C23.1,143.7 22.4,144.6 21.8,145.5 C21,146.7 20.3,148.1 19.6,149.4 C19,150.6 18.4,151.8 17.9,153.1 C17.5,154.3 17.1,155.5 16.7,156.7 C16.4,157.8 16.2,158.9 15.8,159.9 C15.6,160.3 15.6,160.8 15.6,161.3 C15.5,162 15.3,162.6 15.2,163.3 C15,164.5 15.2,165.7 14.9,166.8 C14.5,168.9 14.7,170.9 14.8,173 C14.8,173.9 14.8,174.9 15,175.7 C15.2,176.5 15.2,177.3 15.4,178.1 C15.6,178.6 15.7,179.2 15.7,179.8 C15.8,180.7 16,181.6 16.3,182.4 C16.5,182.8 16.3,183.4 16.7,183.7 L1.9,183.7 C1.9,182.8 1.7,182 1.4,181.1 C1.2,180.6 1.2,180 1.2,179.5 C1.2,178.3 1,177.2 0.8,176.1 C0.6,174.7 0.8,173.3 0.5,172 C0.3,171 0.2,170 0.3,169 C0.5,167.7 0.4,166.4 0.5,165.1 C0.7,163.7 0.8,162.3 1,161 C1.2,159.9 1.3,158.8 1.7,157.8 C1.9,157.3 1.9,156.8 2,156.3 C2.1,155.4 2.5,154.5 2.7,153.6 C2.9,152.6 3.3,151.8 3.6,150.9 C3.9,149.9 4.3,149 4.6,148 C5.5,145.7 6.5,143.5 7.7,141.4 C8.3,140.3 9.1,139.3 9.6,138.2 C10.2,137 11.2,135.9 11.9,134.7 C12.1,134.3 12.5,133.9 12.8,133.5 C13.4,132.8 14,132 14.6,131.3 C16.5,129 18.7,126.9 20.9,124.9 C21.9,124 23,123.1 24.1,122.3 C24.9,121.8 25.5,121.2 26.3,120.7 C27.1,120.2 27.8,119.7 28.6,119.2 C30.4,118 32.4,117 34.3,116.1 C36,115.3 37.7,114.5 39.5,113.9 C40.3,113.6 41.1,113.3 41.9,113 C42.5,112.7 43.3,112.6 43.9,112.4 C45.2,112 46.5,111.8 47.8,111.4 C48.4,111.2 49.2,111.1 49.9,111.1 C50.7,111.1 51.5,110.9 52.3,110.6 L52.6,110.6 C54.2,110.7 55.7,110.2 57.3,110.3 C59.4,110.4 61.4,110.4 63.5,110.3 C65.2,110.3 66.8,110.8 68.5,110.6 C68.7,115.2 68.7,120.1 68.7,125 L68.7,125 Z"></path>
                    <path d="M103.9,183.5 C104.3,182.6 104.6,181.7 104.7,180.7 C104.7,180.3 104.9,179.9 105,179.5 C105.2,178.4 105.3,177.3 105.5,176.2 C105.7,175.3 105.5,174.4 105.9,173.5 C106,173.3 105.9,173.1 105.9,172.9 L105.9,167.1 C105.9,165.9 105.7,164.8 105.4,163.6 C105.3,163 105.2,162.3 105.2,161.7 C105,160.5 104.6,159.4 104.4,158.3 C104.2,156.9 103.7,155.6 103.2,154.3 C102.9,153.4 102.5,152.5 102.1,151.6 C101.7,150.7 101.2,149.8 100.9,148.8 C100.6,148.1 100.2,147.3 99.7,146.7 C99.2,145.9 98.7,145 98.1,144.2 C97.5,143.4 97,142.6 96.5,141.9 C94.6,139.4 92.3,137.3 90.1,135 C89.6,134.5 88.9,134.2 88.5,133.7 C88.4,133.6 88.3,133.5 88.1,133.6 C87.9,133.7 88,133.9 88,134.1 L88,138.4 C88,139.2 88.2,139.7 88.7,140.2 C89.6,141 90.6,141.9 91.4,142.9 C92.1,143.8 92.9,144.6 93.5,145.6 C93.6,145.8 93.8,146 94,146.2 C94.2,146.4 94.3,146.6 94.2,146.9 C94.1,147.2 93.8,147.1 93.6,147.1 L88.6,147.1 C88.1,147.1 87.9,147.3 87.9,147.8 L87.9,156.1 C87.9,156.3 88,156.6 87.7,156.8 L87.7,156.3 L87.7,108 C87.7,107 87.6,107.1 88.6,107.1 L125.2,107.1 L137.2,107.1 C137.2,107.2 137.1,107.3 137.1,107.3 C136.2,107.3 136.2,107.9 136.1,108.6 C135.9,109.4 135.6,110.2 135.1,110.9 C134.7,111.4 134.4,112 134,112.5 C133.2,113.3 132.3,113.9 131.3,114.4 C130.5,114.8 129.7,114.9 128.9,114.9 L96.3,114.9 C95,114.9 93.8,114.8 92.7,114 C91.8,113.3 90.9,112.8 89.9,112.5 C89.3,112.3 88.8,111.9 88.2,111.6 C88,111.7 88.1,111.9 88.1,112.1 L88.1,116.1 C88.1,116.5 88.2,116.8 88.7,117 C90.1,117.7 91.5,118.6 92.8,119.4 C94.2,120.2 95.5,121.3 96.9,122.2 C97.4,122.5 97.8,122.9 98.3,123.3 C100.7,125.3 102.9,127.5 105,129.8 C106.2,131.1 107.2,132.4 108.2,133.8 C109.5,135.6 110.7,137.4 111.8,139.3 C112.2,140 112.8,140.8 113.1,141.5 C113.5,142.4 114.1,143.2 114.4,144.1 C114.6,144.8 115,145.4 115.3,146.1 C115.8,147.2 116.1,148.4 116.6,149.5 C117.1,150.6 117.4,151.8 117.8,153 C118.1,153.8 118.3,154.7 118.4,155.6 C118.5,156.1 118.7,156.6 118.8,157.1 C118.9,157.3 118.9,157.5 118.9,157.7 C118.9,158.5 119.1,159.2 119.4,159.9 L119.4,160 C119.3,160.8 119.7,161.6 119.7,162.4 C119.7,163.8 119.8,165.2 120,166.5 C120.3,168.4 120.2,170.4 120.1,172.3 C120,173.4 120.1,174.6 119.8,175.7 C119.7,176.4 119.7,177.2 119.6,177.8 C119.3,179 119.3,180.2 118.9,181.4 C118.7,182 118.5,182.7 118.6,183.5 C113.8,183.5 108.8,183.5 103.9,183.5 L103.9,183.5 Z"></path>
                    <path d="M78.5,29.2 C76.4,29.3 74.5,30 72.8,31.1 C72.3,31.4 71.9,31.8 71.4,32.1 C71,32.4 70.7,32.9 70.4,33.3 C69.8,34.1 69.4,35.1 69.1,36.1 C68.7,37.5 68.7,38.9 68.6,40.3 C68.2,40.2 68,40.5 67.7,40.6 C66.6,41.1 65.4,41.5 64.3,41.8 C63.3,42.1 62.3,42.1 61.3,42.4 C59.9,42.8 58.5,42.7 57.2,42.5 C56.1,42.4 54.9,42.1 53.8,41.9 C52.4,41.5 51,41 49.7,40.4 C48.6,39.9 47.6,39.2 46.5,38.5 C45.7,38 45.2,37.3 44.4,36.8 C43.6,36.2 43,35.2 42.3,34.4 C41.4,33.4 40.8,32.2 40.1,31 C39.7,30.3 39.4,29.6 39.2,28.9 C38.9,28.1 38.8,27.2 38.5,26.4 C38.3,26 38.2,25.4 38.2,24.9 C38.2,23.5 37.6,22.1 37.9,20.7 C38.2,19.6 38.1,18.6 38.3,17.5 C38.5,16.6 38.8,15.8 38.9,14.9 C39,14.2 39.4,13.5 39.7,12.9 C40.3,11.4 41.1,10 42.1,8.8 C43,7.7 43.7,6.4 45,5.7 C45.6,5.3 46.1,4.7 46.7,4.3 C48.1,3.3 49.5,2.6 51.1,1.9 C52.4,1.3 53.8,1.2 55.1,0.7 C55.8,0.5 56.6,0.3 57.5,0.4 C58.5,0.5 59.5,0.4 60.5,0.4 C61.4,0.4 62.3,0.6 63.2,0.9 C63.9,1.1 64.6,1.2 65.3,1.4 C66.7,1.8 68,2.5 69.2,3.1 C70.1,3.6 70.9,4.3 71.8,4.8 C72.8,5.5 73.5,6.3 74.3,7.2 C75.4,8.4 76.4,9.7 77.2,11.1 C78.1,12.7 78.7,14.4 79.2,16.1 C79.4,16.7 79.5,17.4 79.6,18 C79.9,19.8 79.8,21.5 79.8,23.2 C79.8,24.1 79.5,25 79.4,25.9 C79.3,26.7 79,27.4 78.8,28.2 C78.7,28.6 78.4,28.8 78.5,29.2 L78.5,29.2 Z"></path>
                    <path d="M68.7,51.4 L68.7,65.6 L68.7,87.2 C68.7,87.7 68.6,87.9 68,87.9 L19.4,87.9 L18.9,87.9 C19,87.5 19.4,87.7 19.6,87.7 L40.6,87.7 C41.4,87.7 41.4,87.7 41.5,86.9 C41.6,85.2 41.2,83.5 41.2,81.7 C41.2,80.8 41.2,79.8 41,78.9 C40.7,77.6 41,76.3 40.7,75.1 C40.4,73.9 40.7,72.7 40.4,71.6 C40,70.1 40.3,68.6 40.2,67.1 C40.1,65.9 40.4,64.7 40.7,63.5 C41.1,61.7 41.7,60.1 42.6,58.5 C43,57.8 43.6,57.1 44.1,56.4 C44.8,55.4 45.6,54.6 46.5,53.8 C47.4,52.9 48.5,52.2 49.6,51.5 C51.1,50.6 52.7,50.2 54.3,49.5 C54.7,49.3 55.3,49.2 55.8,49.2 C57.2,49.2 58.6,48.6 60,48.9 C60.9,49.2 61.9,49.1 62.8,49.3 C63.9,49.5 64.9,49.9 65.9,50.2 C66.7,50.4 67.5,50.9 68.3,51.3 C68.3,51.4 68.5,51.4 68.7,51.4 L68.7,51.4 Z"></path>
                    <path d="M68.7,129.4 L68.7,141.7 L68.7,147.5 C68.4,147.3 68,147.3 67.7,147.2 C65.4,146.9 63.1,147.1 60.8,146.9 C60,146.8 59,146.7 58.3,146.3 C58,146.1 57.6,146.2 57.2,146 C56.3,145.7 55.5,145.3 54.7,144.8 C53.6,144.1 52.4,143.6 51.6,142.6 C51.2,142.2 50.7,142 50.3,141.6 C49,140.1 47.9,138.6 47,136.9 C46.5,136 46.2,135 45.8,134.1 C45.5,133.4 45.4,132.6 45.2,131.9 C45.1,131.4 45.8,131.3 46.1,131.2 C47.1,130.8 48.2,130.5 49.2,130.2 C50,130 50.9,129.8 51.8,129.6 C53,129.4 54.3,129.2 55.5,129 C56.4,128.8 57.4,129 58.2,128.8 C59.3,128.5 60.4,128.6 61.5,128.6 C62.6,128.7 63.6,128.7 64.7,128.9 C65.4,129 66.2,128.9 66.8,129.1 C67.4,129.4 68,129.4 68.7,129.4 L68.7,129.4 Z"></path>
                </g>
            </g>
        </g>
    </g>
</svg>