<?xml version="1.0" encoding="UTF-8"?>
<svg width="210px" height="210px" viewBox="0 0 210 210" version="1.1" xmlns="http://www.w3.org/2000/svg" xmlns:xlink="http://www.w3.org/1999/xlink">
    <!-- Generator: Sketch 40.3 (33839) - http://www.bohemiancoding.com/sketch -->
    <title>Group 5</title>
    <desc>Created with Sketch.</desc>
    <defs></defs>
    <g id="Page-1" stroke="none" stroke-width="1" fill="none" fill-rule="evenodd">
        <g id="ICON_VECTOR" transform="translate(-2046.000000, -1891.000000)">
            <g id="Group-5" transform="translate(2050.000000, 1895.000000)">
                <path d="M128.8,197.6 L43.7,197.6 C43.3,197.2 43.5,196.7 43.3,196.3 C43,195.5 42.7,194.6 42.7,193.8 C42.7,193.3 42.6,192.7 42.4,192.2 C42.1,191.4 42.2,190.7 42,189.9 C41.8,189.1 41.8,188.1 41.8,187.3 C41.7,185.3 41.5,183.2 41.9,181.2 C42.1,180.2 42,179.1 42.2,178 C42.3,177.3 42.5,176.7 42.6,176 C42.7,175.5 42.6,175 42.8,174.6 C43.2,173.6 43.4,172.6 43.7,171.6 C44.1,170.4 44.4,169.3 44.9,168.1 C45.4,166.9 46,165.7 46.5,164.5 C47.1,163.3 47.7,162 48.5,160.9 C49.1,159.9 49.8,159 50.5,158.1 C51.3,157 52.1,155.9 53,155 C54.8,153.1 56.7,151.2 58.8,149.5 C59.5,149 60.2,148.5 60.9,148 C61.8,147.4 62.8,146.8 63.7,146.2 C64.7,145.6 65.8,145.1 66.8,144.5 C67.7,144 68.6,143.6 69.6,143.3 C70.5,143 71.5,142.6 72.4,142.3 C73.4,141.9 74.4,141.7 75.4,141.4 C76.3,141.1 77.3,141 78.2,140.7 C79.3,140.4 80.4,140.4 81.5,140.2 C82.4,140 83.4,140.1 84.3,140 C86.6,139.7 88.9,140.2 91.2,140.2 L91.3,140.2 C92.4,140.6 93.5,140.5 94.6,140.7 C94.6,140.8 94.6,140.9 94.5,141 C94,141.8 93.6,142.7 93.1,143.5 C92.8,144 92.7,144.6 92.2,145 C91.9,145 91.5,145.1 91.2,145 C90.1,144.5 89,144.8 87.9,144.6 C86,144.2 84,144.8 82.1,144.8 L81.9,144.8 C81.1,145.2 80.1,145 79.2,145.2 C78.3,145.4 77.3,145.7 76.4,145.8 C75.6,145.9 74.9,146.2 74.1,146.5 C73.3,146.7 72.6,147 71.9,147.3 C71.7,147.4 71.4,147.6 71.6,147.9 C72,148.8 72.1,149.8 72.5,150.8 C72.9,151.9 73.5,152.9 74,153.8 C74.5,154.6 75.1,155.3 75.7,156.1 C76.6,157.3 77.8,158.1 78.9,159 C79.4,159.4 80,159.7 80.6,160 C81.5,160.5 82.4,161.2 83.5,161.2 C83.3,161.6 83.2,162 83,162.4 C82.2,163.9 81.4,165.5 80.5,166.9 C80.4,167 80.4,167.2 80.5,167.3 C80.6,167.4 80.7,167.3 80.8,167.3 C81,167.2 81.2,167.2 81.3,167.2 C82.2,167 83.1,166.8 84,166.6 C85.3,166.3 86.5,166 87.8,165.7 C88.8,165.5 89.4,165.1 90,164.3 C90.5,163.6 91,162.9 91.7,162.4 L118.5,162.4 L119,162.4 C119.4,162.4 119.5,162.3 119.3,161.9 C119.1,161.5 118.7,161.2 118.5,160.8 C117.8,159.6 116.9,158.6 116,157.6 C114,155.5 112,153.5 109.6,151.9 C108.1,150.9 106.6,149.9 105.1,149.1 C104.7,148.9 104.1,148.8 103.8,148.3 C103.8,148.1 103.8,148 103.9,147.9 C104.9,146.9 105.7,145.8 106.6,144.8 C107.1,144.8 107.5,145.2 107.9,145.5 C109.6,146.5 111.3,147.6 112.9,148.7 C114.3,149.7 115.5,150.9 116.8,151.9 C118.2,153 119.2,154.6 120.5,155.8 L120.6,155.9 C121.4,157.1 122.4,158.2 123.2,159.4 C123.9,160.5 124.6,161.5 125.2,162.6 C126.3,164.5 127.1,166.6 128,168.6 C128.4,169.5 128.4,170.5 129,171.4 L129,171.6 C129.1,172.2 129.3,172.7 129.4,173.2 C129.6,174 129.9,174.8 130,175.6 C130.1,176.3 130.2,177 130.3,177.7 C130.5,178.9 130.7,180.1 130.7,181.3 L130.7,185.8 C130.8,187.4 130.5,188.9 130.4,190.5 L130.4,190.7 C130,191.3 130.1,192.1 130,192.7 C129.9,193.3 129.8,193.9 129.6,194.5 C129.5,194.9 129.5,195.3 129.4,195.6 C129.1,196.4 128.8,197 128.8,197.6 L128.8,197.6 Z" id="Shape" fill="#FEFEFE"></path>
                <path d="M94.4,140.4 C93.3,140.2 92.2,140.3 91.1,139.9 L91,139.9 C88.7,139.8 86.4,139.4 84.1,139.7 C83.2,139.8 82.2,139.8 81.3,139.9 C80.2,140.1 79.1,140.1 78,140.4 C77.1,140.7 76.1,140.8 75.2,141.1 C74.2,141.4 73.1,141.6 72.2,142 C71.3,142.3 70.3,142.7 69.4,143 C68.4,143.4 67.5,143.8 66.6,144.2 C65.6,144.7 64.5,145.2 63.5,145.9 C62.6,146.5 61.6,147.1 60.7,147.7 C60,148.2 59.3,148.7 58.6,149.2 C56.5,150.9 54.7,152.8 52.8,154.7 C51.9,155.7 51.1,156.8 50.3,157.8 C49.6,158.7 49,159.7 48.3,160.6 C47.5,161.7 46.9,163 46.3,164.2 C45.7,165.4 45.1,166.5 44.7,167.8 C44.3,168.9 43.9,170.1 43.5,171.3 C43.2,172.3 43,173.4 42.6,174.3 C42.4,174.7 42.5,175.3 42.4,175.7 C42.3,176.4 42.1,177 42,177.7 C41.8,178.8 42,179.9 41.7,180.9 C41.3,182.9 41.5,185 41.6,187 C41.6,187.9 41.6,188.8 41.8,189.6 C42,190.4 41.9,191.1 42.2,191.9 C42.4,192.4 42.5,193 42.5,193.5 C42.5,194.4 42.8,195.2 43.1,196 C43.3,196.4 43.1,197 43.5,197.3 L29.1,197.3 C29.1,196.4 28.9,195.5 28.6,194.6 C28.5,194.2 28.3,193.6 28.4,193.2 C28.4,192.1 28.2,191 28,189.9 C27.8,188.5 28,187.1 27.7,185.8 C27.5,184.9 27.4,184 27.5,183.2 C27.7,181.9 27.6,180.5 27.7,179.2 C27.9,177.9 28,176.5 28.2,175.2 C28.4,174.2 28.5,173.1 28.8,172 C29,171.5 29.2,170.9 29.1,170.3 C29,169.9 29.3,169.6 29.4,169.2 C29.8,168.3 30,167.2 30.3,166.3 C30.6,165.1 31.2,164.1 31.5,162.9 C31.7,162.1 32.2,161.4 32.5,160.6 C33.1,159 33.9,157.5 34.8,156 C35.4,154.9 36.1,154 36.7,152.9 C37.3,151.7 38.3,150.7 38.9,149.5 C39.1,149.1 39.5,148.7 39.8,148.3 C40.4,147.6 41,146.9 41.6,146.2 C43.3,144.1 45.3,142.3 47.2,140.4 C48.3,139.3 49.5,138.3 50.8,137.4 C51.5,136.9 52.2,136.3 53,135.8 C53.7,135.3 54.5,134.8 55.2,134.4 C57.1,133.2 59.2,132.2 61.2,131.1 C62.7,130.4 64.3,129.8 65.8,129.2 C66.6,128.9 67.3,128.7 68.1,128.4 C68.8,128.1 69.5,128 70.2,127.8 C71.1,127.6 72,127.3 72.9,127.1 C73.4,127 74,126.9 74.5,126.7 C75.3,126.5 76.1,126.6 76.8,126.3 C77.3,126.1 77.9,126.1 78.4,126 C80.5,125.9 82.5,125.6 84.6,125.7 C86.1,125.8 87.6,125.7 89.1,125.7 C90.6,125.7 92.1,126 93.6,126.2 C94.4,126.3 95.1,126.4 95.8,126.6 C96.7,126.8 97.7,126.8 98.7,127.2 C99.3,127.4 99.9,127.6 100.6,127.6 C100.4,128 100.2,128.5 99.9,128.9 C99.4,129.9 98.8,131 98.3,132 C97.8,132.9 97.3,133.8 96.8,134.7 C96.1,136 95.5,137.3 94.7,138.6 C95,139.3 94.9,140 94.4,140.4 L94.4,140.4 Z" id="Shape" fill="#E2E3E3"></path>
                <path d="M152,197.6 C151.8,196.8 151.7,196.1 151.6,195.3 C151.5,194.8 151.3,194.3 151.3,193.7 C151.2,193 151.1,192.3 150.9,191.6 C150.7,191.1 150.8,190.5 150.6,189.9 C150.3,188.8 150.2,187.6 149.9,186.5 C149.8,185.9 149.6,185.3 149.6,184.7 C149.6,184 149.3,183.3 149.2,182.7 C149.1,182 148.8,181.3 148.8,180.5 C148.8,179.9 148.9,179.2 148.8,178.6 C148.5,177.5 148.7,176.4 148.4,175.3 C148.2,174.6 148.1,173.9 148,173.2 C147.9,172.2 147.8,171.2 147.4,170.2 C147.2,169.8 147.3,169.2 147.1,168.8 C146.6,167.1 146.2,165.5 145.6,163.9 C145,162.4 144.5,160.9 143.9,159.4 C143.1,157.5 142.2,155.7 141.2,153.9 C140.1,151.9 138.9,150 137.6,148.2 C136.8,147.2 136.1,146.2 135.3,145.1 C133.9,143.3 132.4,141.7 130.8,140.1 C130.6,140 130.4,139.8 130.5,139.5 C130.6,139.3 130.9,139.4 131.1,139.4 L156,139.4 C156.8,139.4 157.5,139.7 158.3,140 C160,140.5 161.4,141.5 162.6,142.7 C163.8,144 164.9,145.4 165.3,147.2 C165.6,148.3 165.9,149.5 166.1,150.6 C166.3,151.5 166.4,152.5 166.8,153.4 C167,153.9 166.9,154.5 167.1,155.1 C167.3,156.2 167.6,157.3 167.8,158.4 C167.9,159 167.9,159.6 168.1,160.2 C168.3,160.8 168.3,161.5 168.5,162.1 C168.7,162.7 168.5,163.3 168.8,163.9 C169.1,164.6 169,165.3 169.3,166 C169.5,166.5 169.4,167 169.6,167.6 C170,168.8 170.1,170 170.3,171.2 C170.5,172.2 170.7,173.3 170.9,174.4 C171.1,175.4 171.2,176.4 171.6,177.3 C171.8,177.8 171.8,178.3 171.8,178.8 C171.9,179.9 172.3,180.9 172.4,182 C172.5,183 172.7,184 173.1,184.9 C173.3,185.4 173.3,185.9 173.3,186.4 C173.4,187.5 173.7,188.5 173.9,189.6 C174.1,190.6 174.3,191.5 174.5,192.5 C174.7,193.1 174.9,193.8 174.8,194.5 C174.8,195 175,195.4 175.1,195.9 C175.3,196.4 175.2,197 175.3,197.5 C167.5,197.6 159.7,197.6 152,197.6 L152,197.6 Z" id="Shape" fill="#E2E3E3"></path>
                <path d="M128.8,197.6 C128.8,197 129,196.4 129.2,195.8 C129.3,195.4 129.4,195 129.4,194.7 C129.5,194.1 129.7,193.5 129.8,192.9 C129.9,192.2 129.8,191.5 130.2,190.9 L130.2,190.7 C130.3,189.1 130.5,187.6 130.5,186 C130.4,184.5 130.5,183 130.5,181.5 C130.5,180.3 130.2,179.1 130.1,177.9 C130,177.2 129.8,176.5 129.8,175.8 C129.7,175 129.5,174.2 129.2,173.4 C129,172.9 128.9,172.3 128.8,171.8 L128.8,171.6 C128.3,170.8 128.2,169.7 127.8,168.8 C126.9,166.8 126.1,164.7 125,162.8 C124.4,161.7 123.6,160.7 123,159.6 C122.2,158.3 121.2,157.3 120.4,156.1 C120.4,156 120.3,156 120.3,156 C119,154.8 118,153.2 116.6,152.1 C115.3,151.1 114.1,149.8 112.7,148.9 C111.1,147.8 109.5,146.7 107.7,145.7 C107.3,145.5 106.9,145.1 106.4,145 C106.9,144.4 107.4,143.9 107.9,143.3 C109.1,141.9 110.2,140.6 111.4,139.2 C112.2,138.2 113,137.2 113.8,136.3 C114.5,135.6 114.9,134.7 115.8,134.2 C116.2,134.9 116.9,135.1 117.5,135.5 C118.2,136 119,136.4 119.7,137 C120.5,137.7 121.4,138.2 122.2,138.8 C122.7,139.2 123.2,139.6 123.7,140 C125.4,141.5 127.3,143 128.7,144.8 C129.8,146.1 131,147.3 132,148.7 C132.5,149.5 133.2,150.2 133.6,150.9 C134.2,151.8 134.9,152.7 135.4,153.6 C136.1,154.8 136.8,155.9 137.4,157.1 C137.8,157.9 138.3,158.7 138.6,159.5 C138.9,160.3 139.3,161 139.6,161.7 C140,162.8 140.6,163.9 140.9,165.1 C141,165.6 141.4,166.1 141.5,166.6 C141.6,167.4 142,168 142.2,168.8 C142.4,169.6 142.5,170.4 142.9,171.1 C143.1,171.5 143.2,172 143.2,172.5 C143.3,173.7 143.7,174.9 143.8,176.1 C143.9,176.8 143.8,177.5 144,178.2 C144.3,179.3 144,180.3 144.3,181.3 C144.7,183.2 144.5,185.2 144.5,187.1 C144.5,188.1 144.5,189.1 144.3,190.1 C144.1,190.9 144.3,191.7 144.1,192.5 C143.8,193.6 143.8,194.8 143.4,196 C143.2,196.6 143,197.2 143.1,197.8 C138.3,197.6 133.5,197.6 128.8,197.6 L128.8,197.6 Z" id="Shape" fill="#E2E3E3"></path>
                <path d="M90.3,60.1 C85.4,60.8 82,60.1 82,60.3 C81.3,60.2 80.6,60 79.9,59.9 C78.9,59.7 78.1,59.3 77.1,59.1 C76.7,59 76.5,58.7 76.2,58.5 C74.4,57.7 72.8,56.5 71.3,55.3 C70.4,54.5 69.7,53.6 68.9,52.8 C67.7,51.4 66.8,49.7 66.1,47.9 C65.6,46.9 65.5,45.8 65,44.8 C64.8,44.4 64.7,43.8 64.7,43.4 C64.7,42 64.1,40.7 64.4,39.3 C64.7,38.3 64.6,37.2 64.8,36.2 C65,35.3 65.3,34.5 65.4,33.6 C65.5,32.9 65.9,32.3 66.2,31.6 C66.8,30.2 67.5,28.8 68.5,27.6 C69.4,26.6 70.1,25.3 71.4,24.6 C72,24.3 72.5,23.6 73.1,23.2 C74.4,22.3 75.8,21.4 77.4,20.9 C77.8,20.8 78.1,20.5 78.5,20.4 C79.6,20.2 80.8,19.9 81.9,19.6 C83.7,19.2 85.6,19.3 87.4,19.5 C89.1,19.7 90.7,20.2 92.4,20.8 C94.1,21.5 95.6,22.3 97,23.3 C98.4,24.2 99.6,25.4 100.6,26.7 C101.4,27.7 102.2,28.8 102.9,30 C103.7,31.5 104.3,33.1 104.8,34.7 C105,35.4 105,36.2 105.2,36.9 C105.5,38.4 105.3,40 105.4,41.5 C105.4,42.4 105.1,43.3 105,44.3 C104.9,45 104.7,45.6 104.5,46.3 C104.1,47.7 103.4,48.9 102.8,50.2 C102.4,51.1 101.7,51.8 101.2,52.6 C100.5,53.6 99.6,54.4 98.7,55.3 C97.8,56.2 96.8,56.8 95.8,57.5 C94.9,58.1 94,58.4 93,58.9 C92.3,59.3 91.5,59.4 90.8,59.7 C90.4,59.9 90.3,59.9 90.3,60.1 L90.3,60.1 Z" id="Shape" fill="#E2E3E3"></path>
                <path d="M85.3,66.6 C85.9,66.9 85.9,67.5 86.2,68 C87,69.5 87.8,71 88.6,72.5 C89.4,74 90.2,75.4 91,76.9 C91.8,78.4 92.7,79.9 93.4,81.5 C94.2,83.1 95.1,84.6 95.9,86.3 C96.3,87.2 96.9,88.1 97.4,89 C97.9,89.9 98.4,90.7 98.8,91.6 C99.4,92.6 99.9,93.7 100.4,94.8 C101.5,96.8 102.5,98.8 103.6,100.8 C104,101.5 104.2,102.3 104.8,102.9 C105.1,103.2 104.9,103.5 104.4,103.5 C103.2,103.5 102,103.4 100.8,103.6 C99.2,103.8 97.5,103.7 95.9,103.9 C94.6,104.1 93.3,103.9 92.1,104.1 C90.9,104.3 89.7,104.2 88.5,104.3 C86.5,104.5 84.5,104.6 82.5,104.8 C80.8,105 79.1,105.1 77.4,105.3 C75.9,105.5 74.5,105.6 73,105.8 C71.7,105.9 70.3,106.2 69,106.3 C68.6,106.3 68.3,106.6 67.9,106.5 C68.2,106.1 68.2,105.7 68,105.2 C67.8,104.8 67.9,104.3 67.9,103.8 C68,102.2 67.6,100.5 67.6,98.9 C67.6,98 67.6,97 67.4,96.1 C67.1,94.9 67.4,93.6 67.1,92.4 C66.8,91.3 67.1,90.1 66.9,89 C66.5,87.1 66.8,85.2 66.7,83.3 C66.7,82.4 67,81.5 67.1,80.7 C67.4,79 68.1,77.6 68.9,76.1 C69.3,75.4 69.8,74.6 70.3,73.9 C71,73 71.8,72.2 72.6,71.4 C73.5,70.5 74.6,69.9 75.6,69.2 C77,68.3 78.6,68 80,67.3 C80.4,67.1 81,67 81.5,67 C82.8,66.9 84.1,66.5 85.3,66.6 L85.3,66.6 Z" id="Shape" fill="#E2E3E3"></path>
                <path d="M118.5,130.6 C118.7,130.1 119.1,129.7 119.5,129.3 C120.7,127.9 121.9,126.5 123.1,125 C124.2,123.7 125.3,122.5 126.3,121.2 C126.6,120.9 126.8,120.7 127.2,120.8 C129.2,120.8 131.2,120.6 133.1,120.5 C135,120.4 137,120.2 138.9,120 C140.4,119.9 141.9,119.7 143.4,119.5 C144.7,119.4 145.9,119.2 147.2,119 C148.8,118.8 150.3,118.6 151.9,118.2 C153.6,117.8 155.3,117.6 157,117 C157.2,116.9 157.4,117 157.6,117 C157.8,117.4 158.1,117.6 158.4,117.9 C159.1,118.7 159.5,119.6 159.9,120.6 C160.3,121.8 160.2,123.1 160.1,124.3 C160,125.4 159.5,126.5 158.9,127.4 C158.5,127.9 158.2,128.5 157.7,128.9 C156.8,129.6 155.8,130.3 154.7,130.6 C153.4,130.9 152,131.1 150.6,131.1 L120.8,131.1 C120.2,131.1 119.6,131.1 119.2,130.7 C118.8,130.6 118.7,130.6 118.5,130.6 L118.5,130.6 Z" id="Shape" fill="#E2E3E3"></path>
                <path d="M68.9,117.7 C70.3,117.7 71.6,118 73,118.2 C73.7,118.3 74.5,118.4 75.2,118.4 C76.4,118.5 77.5,118.7 78.7,118.8 C80.8,119 82.8,119.2 84.9,119.4 C85.7,119.5 86.6,119.5 87.4,119.6 C90.1,119.9 92.8,120 95.5,120.2 C96.8,120.3 98.1,120.3 99.4,120.4 C101.1,120.6 102.8,120.6 104.5,120.6 C105,120.6 104.9,120.9 104.8,121.1 C104.2,122 103.7,123.1 103.2,124.1 C103.2,124.1 103.1,124.1 103.1,124.2 C102.9,123.9 102.6,123.8 102.3,123.7 C101.3,123.4 100.4,123.2 99.4,123 C99,122.9 98.6,122.9 98.1,122.8 C97.5,122.7 96.9,122.5 96.3,122.4 C95.3,122.2 94.2,122.4 93.3,122 C93.3,122 93.3,122 93.2,122 C92.2,122.2 91.3,121.7 90.4,121.7 L81.7,121.7 C80.7,121.7 79.6,121.8 78.6,122.2 L78.4,122.2 C77.4,122 76.4,122.5 75.4,122.5 C74.9,122.5 74.4,122.8 73.9,122.9 C73.4,123 72.8,123.1 72.3,123.2 C71.7,123.3 71.1,123.4 70.5,123.7 C69.8,124 69.4,123.7 69.3,122.9 C69.3,121.7 69,120.6 69,119.4 C69.1,118.7 68.9,118.2 68.9,117.7 L68.9,117.7 Z" id="Shape" fill="#E2E3E3"></path>
                <path d="M91.6,162.3 C92,161.6 92.7,161 93.2,160.3 C94.3,158.9 95.5,157.5 96.7,156.1 C97.5,155.2 98.3,154.3 99.1,153.3 C100.3,151.9 101.5,150.5 102.7,149.1 C103,148.7 103.3,148.3 103.7,148.1 C104,148.6 104.5,148.7 105,148.9 C106.6,149.7 108.1,150.7 109.5,151.7 C111.9,153.4 113.9,155.3 115.9,157.4 C116.8,158.4 117.7,159.5 118.4,160.6 C118.6,161 119,161.3 119.2,161.7 C119.4,162.1 119.3,162.2 118.9,162.2 L118.4,162.2 C109.4,162.3 100.5,162.3 91.6,162.3 L91.6,162.3 Z" id="Shape" fill="#E2E3E3"></path>
                <path d="M92.1,144.7 C92,145.5 91.4,146.2 91,146.9 C90.3,148.5 89.4,150 88.5,151.5 C87.1,153.9 85.9,156.4 84.5,158.9 C84.1,159.6 83.7,160.3 83.4,161.1 L83.2,161.1 C82.1,161 81.2,160.4 80.3,159.9 C79.7,159.6 79.1,159.3 78.6,158.9 C77.5,158 76.3,157.2 75.4,156 C74.9,155.2 74.2,154.5 73.7,153.7 C73.1,152.7 72.6,151.7 72.2,150.7 C71.8,149.7 71.7,148.7 71.3,147.8 C71.2,147.4 71.4,147.2 71.6,147.2 C72.3,146.9 73.1,146.7 73.8,146.4 C74.5,146.2 75.3,145.8 76.1,145.7 C77.1,145.6 78,145.3 78.9,145.1 C79.8,144.9 80.7,145.1 81.6,144.7 L81.8,144.7 C83.8,144.7 85.7,144.1 87.6,144.5 C88.7,144.7 89.8,144.4 90.9,144.9 C91.4,144.8 91.7,144.7 92.1,144.7 L92.1,144.7 Z" id="Shape" fill="#E2E3E3"></path>
                <g id="Group" transform="translate(35.000000, 68.000000)" fill="#000000">
                    <path d="M5.4,80.4 C5.6,80.2 5.6,80.1 5.7,80 C7.6,78.5 9.4,77 11.3,75.4 C14.5,72.8 17.6,70.2 20.8,67.6 C22.9,65.9 25,64.2 27,62.5 C30,60 33,57.6 36,55.1 C38.1,53.4 40.1,51.7 42.2,50 C45.1,47.6 48.1,45.2 51,42.8 C51.1,42.7 51.5,42.7 51.6,42.7 C53.4,43.9 55.2,45.1 57.1,46.3 C59.3,47.8 61.5,49.2 63.7,50.6 C65.4,51.7 67.2,51.5 68.9,50.4 C72.3,48.2 75.6,45.9 79,43.7 C79.5,43.3 80,43 80.6,42.6 C80.8,42.5 81.1,42.5 81.2,42.6 C83,44 84.7,45.4 86.4,46.8 C88.7,48.7 91.1,50.6 93.4,52.5 C95,53.8 96.5,55.1 98.1,56.4 C101.3,59 104.5,61.6 107.7,64.2 C110.9,66.8 114,69.4 117.2,72 C119.3,73.7 121.4,75.4 123.5,77.1 C124.5,77.9 125.5,78.7 126.5,79.5 C126.6,79.6 126.7,79.8 126.8,79.9 C126.7,79.9 126.5,80 126.4,80 L126.1,80 L6.4,80 C6,80.4 5.8,80.4 5.4,80.4 L5.4,80.4 Z" id="Shape"></path>
                    <path d="M126.5,0.6 C125.3,1.4 124.1,2.2 123,3 C120.9,4.4 118.7,5.8 116.6,7.2 C113.3,9.4 109.9,11.6 106.6,13.8 C103.4,16 100.1,18.1 96.9,20.3 C93.5,22.6 90.1,24.8 86.7,27.1 C82.7,29.8 78.6,32.5 74.6,35.1 C72,36.8 69.3,38.6 66.7,40.3 C66.3,40.5 66,40.5 65.7,40.3 C63.6,38.9 61.5,37.5 59.5,36.1 C56.9,34.4 54.3,32.7 51.6,30.9 C49.5,29.5 47.4,28.1 45.4,26.8 C42.8,25.1 40.1,23.3 37.5,21.6 C35.5,20.3 33.6,18.9 31.6,17.6 C28.8,15.7 26,13.9 23.2,12.1 C20.1,10.1 17,8 13.9,6 C11.4,4.3 8.9,2.7 6.5,1 C6.4,0.9 6.2,0.8 6,0.6 C46.1,0.6 86.2,0.6 126.5,0.6 L126.5,0.6 Z" id="Shape"></path>
                    <path d="M0.3,8.7 C14.5,18.1 28.6,27.4 42.8,36.9 C28.6,48.5 14.5,60.1 0.3,71.8 L0.3,8.7 L0.3,8.7 Z" id="Shape"></path>
                    <path d="M132,8.7 L132,71.7 C130.9,70.8 129.9,70 128.9,69.2 C126.6,67.3 124.2,65.4 121.9,63.5 C120.4,62.2 118.8,60.9 117.3,59.7 C114.6,57.5 111.9,55.3 109.2,53.1 C107.3,51.5 105.4,49.9 103.4,48.3 C101.1,46.4 98.8,44.5 96.4,42.6 C94.9,41.4 93.5,40.2 92,38.9 C91.4,38.4 90.7,37.9 90.1,37.4 C89.6,37 89.6,36.9 90.1,36.5 C92.3,35 94.5,33.6 96.7,32.2 C100,30 103.4,27.8 106.7,25.6 C109.5,23.8 112.2,21.9 115,20.1 C118.1,18.1 121.1,16 124.2,14 C126.7,12.2 129.3,10.5 132,8.7 L132,8.7 Z" id="Shape"></path>
                </g>
            </g>
        </g>
    </g>
</svg>