<?xml version="1.0" encoding="UTF-8"?>
<svg width="211px" height="210px" viewBox="0 0 211 210" version="1.1" xmlns="http://www.w3.org/2000/svg" xmlns:xlink="http://www.w3.org/1999/xlink">
    <!-- Generator: Sketch 40.3 (33839) - http://www.bohemiancoding.com/sketch -->
    <title>Group 6</title>
    <desc>Created with Sketch.</desc>
    <defs></defs>
    <g id="Page-1" stroke="none" stroke-width="1" fill="none" fill-rule="evenodd">
        <g id="ICON_VECTOR" transform="translate(-2284.000000, -1891.000000)">
            <g id="Group-6" transform="translate(2288.000000, 1895.000000)">
                <g id="snake" transform="translate(31.000000, 20.000000)" fill="#E2E3E3">
                    <path d="M100,177.6 C100.1,176.7 100.4,175.7 100.6,174.8 C100.7,174.3 100.9,173.8 101,173.3 C101.1,172.4 101.2,171.5 101.5,170.7 L101.5,170.5 C101.6,168.8 101.9,167.2 101.8,165.5 C101.7,164.2 101.8,162.9 101.8,161.6 C101.8,160.4 101.5,159.2 101.4,158 C101.3,157.3 101.1,156.6 101.1,155.9 C101,155 100.9,154.2 100.5,153.4 C100.3,153 100.3,152.6 100.2,152.3 C100.1,151.6 99.6,151 99.6,150.2 C99.6,149.9 99.4,149.5 99.3,149.2 C98.9,148.5 98.7,147.8 98.4,147.1 C97.8,145.7 97.1,144.2 96.4,142.9 C95.8,141.8 95.1,140.8 94.4,139.8 C93.6,138.6 92.6,137.5 91.9,136.3 C91.9,136.2 91.8,136.2 91.8,136.2 C90.6,135.1 89.7,133.6 88.5,132.6 C87.2,131.6 86.1,130.3 84.8,129.4 C83.4,128.5 82.1,127.5 80.7,126.6 C79.5,125.9 78.3,125.3 77.1,124.6 C75.9,123.9 74.6,123.4 73.4,123 C71.9,122.5 70.4,121.9 68.9,121.6 C68.2,121.5 67.5,121.3 66.7,121.1 C65.6,120.9 64.5,120.7 63.3,120.6 C62.6,120.5 61.9,120.5 61.2,120.4 C59.7,120.1 58.2,120 56.8,120.2 C55.6,120.3 54.4,120.2 53.3,120.5 C52.2,120.7 51,120.6 49.9,121 C49,121.3 48.1,121.4 47.1,121.7 C46.1,122 45.2,122.2 44.2,122.5 C43.2,122.8 42.3,123.2 41.3,123.5 C39.5,124.2 37.9,125.1 36.2,126 C35.1,126.6 34.1,127.3 33.1,128 C31.8,128.9 30.6,129.9 29.4,130.9 C27.6,132.4 26,134.1 24.4,135.8 C23.2,137 22.3,138.5 21.3,139.8 C20,141.7 18.9,143.7 18,145.7 C17.3,147.2 16.8,148.8 16.2,150.3 C15.7,151.5 15.5,152.7 15.1,153.9 C14.8,154.8 14.7,155.8 14.5,156.8 C14.2,158.4 14.2,159.9 14,161.5 C13.7,163.4 13.8,165.2 13.9,167 C14,168 13.9,169.1 14.1,170.1 C14.3,171.2 14.5,172.3 14.7,173.4 C14.9,174.3 15,175.2 15.3,176.1 C15.5,176.6 15.4,177.2 15.8,177.7 L1.5,177.7 C1.6,176.9 1.3,176.1 1.1,175.3 C0.9,174.8 0.9,174.1 0.9,173.6 C0.9,172.6 0.7,171.6 0.5,170.6 C0.3,169.4 0.5,168.1 0.3,167 C-2.64656352e-13,165.6 -2.64656352e-13,164.1 0.2,162.7 C0.3,161.6 0.3,160.5 0.4,159.4 C0.6,158.1 0.7,156.8 0.9,155.5 C1,154.5 1.2,153.4 1.6,152.4 C1.8,152 1.8,151.4 1.9,151 C2,150.2 2.4,149.5 2.5,148.7 C2.6,148 2.9,147.3 3.1,146.6 C3.4,145.8 3.8,145 4,144.1 C4.2,143.2 4.6,142.4 5,141.6 C5.4,140.7 5.8,139.7 6.3,138.9 C7,137.5 7.7,136.1 8.5,134.8 C9.4,133.4 10.2,132 11.2,130.7 C12.2,129.4 13.3,128.1 14.3,126.7 C14.6,126.3 15,126 15.3,125.6 C15.8,125 16.4,124.6 16.8,123.9 C17,123.5 17.5,123.2 17.9,122.9 C18.4,122.5 18.9,122 19.3,121.5 C20.5,120.3 21.8,119.2 23.2,118.2 C24.8,117 26.3,115.9 28.1,114.9 C29.2,114.3 30.2,113.6 31.4,113 C32.7,112.3 34,111.7 35.3,111.1 C36.3,110.7 37.3,110.2 38.3,109.9 C39.3,109.6 40.1,109.1 41.1,109 C41.7,108.9 42.3,108.6 42.9,108.4 C43.4,108.3 43.9,108.1 44.4,108 C45,108 45.5,107.8 46,107.6 C46.1,107.6 46.2,107.5 46.2,107.5 C47,107.6 47.7,107.3 48.5,107.2 C49.1,107.1 49.8,107.2 50.4,106.8 L50.6,106.8 C51.7,106.9 52.7,106.5 53.8,106.5 L62.4,106.5 C63.5,106.5 64.6,106.8 65.6,106.8 C66.5,106.9 67.5,107.1 68.5,107.3 C69.8,107.6 71.1,107.9 72.4,108.2 C73.9,108.6 75.5,109 77,109.6 C78.2,110 79.5,110.5 80.7,111 C82.1,111.6 83.5,112.3 84.9,113 C86.6,113.9 88.2,114.9 89.8,115.9 C91.1,116.8 92.4,117.8 93.7,118.6 C94.2,118.9 94.7,119.4 95.2,119.8 C97,121.5 98.9,123 100.5,124.8 C101.5,126 102.7,127.2 103.6,128.5 C104.8,130.2 106,131.9 107.1,133.6 C108.3,135.7 109.7,137.7 110.6,140 C111.3,141.6 112,143.1 112.6,144.8 C113,145.9 113.2,147.1 113.7,148.1 C113.9,148.5 113.9,149 114,149.4 C114.1,149.9 114.3,150.4 114.5,150.8 C114.7,151.2 114.6,151.7 114.7,152.2 C114.8,152.8 114.9,153.4 115.1,154 C115.3,154.7 115.1,155.5 115.5,156.1 L115.5,156.3 C115.4,157.4 115.6,158.4 115.8,159.4 C116.1,161.9 116.1,164.5 116,167 C116,168.1 115.9,169.2 115.7,170.2 C115.6,170.9 115.7,171.7 115.5,172.3 C115.2,173.4 115.2,174.5 114.8,175.6 C114.6,176.2 114.7,176.8 114.5,177.5 C109.4,177.6 104.7,177.6 100,177.6 L100,177.6 Z" id="Shape"></path>
                    <path d="M123.1,177.6 C122.9,176.9 122.9,176.2 122.6,175.5 C122.4,175.1 122.5,174.6 122.4,174.2 C122.3,173.6 122.1,173 122,172.4 C121.9,171.8 121.9,171.1 121.6,170.5 C121.4,170.1 121.4,169.6 121.3,169.1 C121.2,168 120.9,167 120.7,165.9 C120.5,164.8 120.4,163.7 120,162.7 C119.6,161.4 119.9,160.1 119.7,158.8 C119.5,157.7 119.6,156.6 119.3,155.5 C119.1,154.9 119,154.2 119,153.5 C118.9,152.8 118.8,152 118.6,151.3 C118.4,150.4 118.1,149.5 118,148.6 C117.9,148 117.7,147.4 117.5,146.8 C117.2,146.1 117.1,145.4 116.8,144.7 C116.5,143.9 116.2,143.1 115.9,142.3 C115.6,141.2 115.1,140.1 114.6,139.1 C114,137.9 113.5,136.7 112.8,135.5 C111.8,133.7 110.9,131.9 109.8,130.3 C108.8,128.9 107.9,127.6 106.9,126.2 C105.3,124.1 103.6,122.1 101.7,120.3 C101.6,120.2 101.4,120.1 101.5,119.8 C101.6,119.6 101.8,119.6 102,119.6 L127,119.6 C127.7,119.6 128.4,119.9 129.1,120.1 C130.8,120.7 132.4,121.7 133.6,123.1 C134.6,124.2 135.5,125.4 135.9,126.8 C136.1,127.6 136.4,128.4 136.5,129.3 C136.7,130.3 136.8,131.3 137.2,132.3 C137.4,132.7 137.4,133.2 137.4,133.7 C137.5,134.8 137.8,135.8 138,136.9 C138.2,137.9 138.4,139 138.6,140 C138.7,140.5 138.8,141.2 139,141.7 C139.2,142.3 139.1,143 139.4,143.7 C139.6,144.1 139.6,144.6 139.7,144.9 C139.8,145.6 140.1,146.2 140,147 C139.9,147.4 140.2,147.8 140.3,148.2 C140.7,149.3 140.7,150.4 141,151.5 C141.3,152.5 141.4,153.6 141.6,154.7 C141.7,155.6 142,156.6 142.2,157.5 C142.4,158.1 142.3,158.8 142.5,159.4 C142.7,160 142.7,160.7 142.9,161.3 C143.1,161.9 143,162.5 143.2,163.2 C143.4,163.8 143.4,164.5 143.7,165.1 C143.8,165.2 143.8,165.4 143.8,165.6 C143.8,166.3 144.1,167 144.2,167.7 C144.3,168.1 144.4,168.6 144.5,169.1 C144.6,170.3 145,171.5 145.2,172.7 C145.3,173.3 145.5,174 145.5,174.7 C145.5,175.2 145.7,175.6 145.8,176.1 C146,176.7 145.9,177.2 146,177.8 C138.4,177.6 130.7,177.6 123.1,177.6 L123.1,177.6 Z" id="Shape"></path>
                    <path d="M108.1,111.5 L91.8,111.5 C91.1,111.5 90.4,111.3 89.8,110.9 C88.6,110.1 87.3,109.5 86,108.7 C85.1,108.2 84.2,107.8 83.3,107.4 C81.7,106.7 80.1,105.9 78.4,105.4 C77.3,105.1 76.2,104.5 75.1,104.3 C74.3,104.1 73.6,103.9 72.8,103.7 C71.8,103.5 70.9,103.3 69.9,103.1 C69.4,103 68.8,102.8 68.3,102.8 C67.3,102.7 66.3,102.6 65.4,102.3 L65.2,102.3 C63.4,102 61.6,102.1 59.8,102 C58.8,101.9 57.8,101.6 56.8,101.8 C55.1,102.1 53.5,101.8 51.9,102 C50.7,102.1 49.5,102.3 48.3,102.5 C47.3,102.7 46.3,102.6 45.4,103 C44.2,103.4 43,103.4 41.8,103.9 C41.3,104.2 40.9,103.9 41,103.3 C41.1,101.7 40.7,100.2 40.7,98.6 C40.7,97.6 40.7,96.5 40.5,95.5 C40.3,94.5 40.5,93.5 40.3,92.5 C40.1,91.2 40.2,90 40,88.8 C39.8,87.9 40,87 39.8,86.1 C39.5,84.9 39.8,83.6 39.5,82.5 C39.3,81.4 39.5,80.3 39.3,79.3 C39.1,78.3 39.3,77.3 39,76.4 C38.7,75.3 39,74.2 38.8,73.1 C38.6,71.9 38.8,70.6 38.5,69.4 C38.1,67.4 38.3,65.5 38.3,63.5 C38.3,62.5 38.6,61.5 38.9,60.5 C39.3,59.2 39.8,57.9 40.5,56.7 C40.9,55.9 41.5,55.2 42,54.5 C42.6,53.6 43.5,52.8 44.3,52 C45.2,51.1 46.3,50.4 47.4,49.8 C48.9,48.9 50.5,48.4 52,47.9 C52.5,47.7 53.2,47.5 53.8,47.6 C54.9,47.7 56,47.1 57,47.4 C58,47.6 59.1,47.6 60.1,47.8 C61.8,48.2 63.4,48.7 64.9,49.5 C66.3,50.3 67.6,51.1 68.7,52.3 C70.1,53.8 71.5,55.3 72.4,57.2 C72.8,57.9 73,58.7 73.5,59.4 C73.7,59.7 73.7,60.2 73.8,60.6 C74,61.7 74.2,62.8 74.4,64 C74.5,65.1 74.4,66.1 74.6,67.1 C74.8,68.2 74.6,69.3 74.9,70.4 C75.1,71.2 75,71.9 75.1,72.7 C75.3,74.2 75.3,75.7 75.4,77.1 C75.5,78 75.4,79 75.6,79.9 C75.9,81 75.6,82.1 75.9,83.1 C76.2,84.2 75.9,85.4 76.1,86.5 C76.3,87.7 76.2,88.9 76.4,90 C76.6,90.9 76.4,91.7 76.6,92.6 C76.8,93.4 76.8,94.1 76.8,94.9 C76.8,95.2 77.1,95.4 77.4,95.4 L78,95.4 L123.9,95.4 C125.2,95.4 126.4,95.8 127.4,96.5 C128.5,97.3 129.4,98.2 130.2,99.4 C131.2,101 131.3,102.8 131.1,104.6 C131,105.8 130.4,106.9 129.7,108 C128.8,109.4 127.5,110.1 126.1,110.8 C125.6,111 125.1,111.1 124.6,111.2 C118.7,111.8 112.8,111.3 108.1,111.5 L108.1,111.5 Z" id="Shape"></path>
                    <path d="M56.3,0.5 L58.1,0.5 C58.9,0.5 59.6,0.8 60.3,0.9 C61,1.1 61.7,1.2 62.4,1.4 C63.7,1.8 65,2.4 66.2,3 C67.1,3.5 67.8,4.1 68.7,4.7 C69.8,5.5 70.7,6.5 71.6,7.4 C72.4,8.2 73.1,9.3 73.7,10.3 C74.3,11.2 74.7,12.3 75.1,13.3 C75.5,14.2 75.8,15.2 76,16.2 C76.6,18.5 76.5,20.8 76.4,23.1 C76.4,23.8 76.2,24.5 76,25.2 C75.8,25.9 75.7,26.6 75.5,27.3 C75.1,28.7 74.4,29.9 73.8,31.1 C73.3,32 72.7,32.8 72.1,33.6 C71.4,34.6 70.4,35.4 69.6,36.3 C68.9,37 68,37.6 67.1,38.2 C66.2,38.8 65.2,39.3 64.2,39.7 C63.3,40.1 62.4,40.5 61.4,40.7 C60.5,40.9 59.5,41 58.7,41.2 C57.3,41.6 55.8,41.4 54.4,41.3 C53.8,41.3 53.1,41.2 52.4,40.9 C52,40.7 51.4,40.8 50.9,40.6 C49.8,40.2 48.8,40 47.7,39.5 C47.1,39.2 46.4,38.8 45.8,38.5 C45,38.1 44.3,37.5 43.6,37 C42.2,35.9 41,34.6 39.9,33.2 C39.1,32.2 38.5,31.1 37.9,30 C37.4,29 36.9,28 36.7,26.9 C36.5,26.1 36.4,25.2 36,24.5 L36,24.3 C36.1,22.9 35.5,21.5 35.8,20.1 C36.1,18.5 36.2,16.8 36.7,15.2 C37,14.1 37.5,13.1 37.9,12 C38.1,11.4 38.5,10.7 38.9,10.1 C39.9,8.6 40.9,7.1 42.3,6 C43.4,5.1 44.4,4.2 45.6,3.5 C46.4,3.1 47.1,2.6 48,2.2 C49,1.8 49.9,1.4 50.9,1.2 C51.7,1.1 52.6,0.8 53.4,0.6 C54,0.4 54.8,0.5 55.5,0.5 C55.8,0.5 56.1,0.5 56.3,0.5 L56.3,0.5 Z" id="Shape"></path>
                    <path d="M76.5,142.5 L63.4,142.5 C63.1,142.5 62.8,142.6 62.5,142.3 C62.4,142.2 62.2,142.2 62,142.3 C61.2,142.6 60.5,142.6 59.7,142.3 C59.6,142.2 59.4,142.3 59.3,142.3 C58,142.3 56.7,142 55.5,141.6 C54.2,141.2 53,140.6 51.8,140 C51,139.6 50.3,139.1 49.6,138.5 C49.1,138 48.5,137.7 48,137.2 C46.8,135.8 45.6,134.3 44.7,132.6 C44.1,131.5 43.8,130.2 43.2,129.1 C43,128.7 43.2,128.2 42.9,127.8 C42.8,127.7 43,127.5 43.1,127.4 C43.6,127.1 44.1,126.8 44.7,126.7 C45.4,126.6 45.9,126.2 46.6,126.1 C47.5,125.9 48.4,125.7 49.2,125.4 C49.9,125.2 50.6,125.4 51.3,125 L51.4,125 C52.2,125.1 53,124.8 53.8,124.7 C55.6,124.4 57.5,124.4 59.3,124.5 C60.3,124.6 61.4,124.5 62.4,124.9 L62.6,124.9 C63.5,124.7 64.3,125.1 65.2,125.2 C66,125.3 66.8,125.7 67.6,125.8 C68.5,126 69.3,126.3 70.2,126.6 C71.6,127.1 72.9,127.6 74.3,128.2 C75.2,128.6 76.2,129.1 77,129.6 C78.2,130.3 79.3,131 80.4,131.8 C81.3,132.5 82.2,133.3 83.1,133.9 C83.4,134.1 83.6,134.4 83.9,134.6 C84.9,135.6 85.9,136.5 86.8,137.5 C87.8,138.6 88.8,139.7 89.6,141 C89.7,141.2 89.9,141.3 90,141.4 C90.2,141.6 90.4,141.8 90.3,142.1 C90.2,142.4 89.9,142.3 89.7,142.3 C85.4,142.5 80.9,142.5 76.5,142.5 L76.5,142.5 Z" id="Shape"></path>
                </g>
                <path d="M75,110.5 L122.7,110.6 L122.7,110.6 C140.7,110.6 155.4,97.8 155.4,82.1 C155.4,66.4 140.7,53.6 122.7,53.6 L98.2,53.6 L98.2,29.2 L64.4,59.9 L98.2,90.6 L98.2,65.4 L122.7,65.4 C133.5,65.4 142.2,72.9 142.2,82.1 C142.2,91.3 133.4,98.8 122.7,98.8 L74.9,98.7 L74.8,98.7 C57.9,99.8 44.6,112.3 44.6,127.1 C44.6,142.8 59.3,155.6 77.3,155.6 L101.4,155.6 L101.4,180 L135.2,149.3 L101.4,118.6 L101.4,143.8 L77.3,143.8 C66.5,143.8 57.8,136.3 57.8,127.1 C57.7,118.6 65.1,111.5 75,110.5 L75,110.5 Z" id="Shape" fill="#1EDD85"></path>
            </g>
        </g>
    </g>
</svg>