<?xml version="1.0" encoding="UTF-8"?>
<svg width="210px" height="210px" viewBox="0 0 210 210" version="1.1" xmlns="http://www.w3.org/2000/svg" xmlns:xlink="http://www.w3.org/1999/xlink">
    <!-- Generator: Sketch 40.3 (33839) - http://www.bohemiancoding.com/sketch -->
    <title>Group 4</title>
    <desc>Created with Sketch.</desc>
    <defs></defs>
    <g id="Page-1" stroke="none" stroke-width="1" fill="none" fill-rule="evenodd">
        <g id="ICON_VECTOR" transform="translate(-1809.000000, -1891.000000)">
            <g id="Group-4" transform="translate(1813.000000, 1895.000000)">
                <g id="Group" transform="translate(27.000000, 19.000000)">
                    <path d="M102,178.6 L16.9,178.6 C16.5,178.2 16.7,177.7 16.5,177.3 C16.2,176.5 15.9,175.6 15.9,174.8 C15.9,174.3 15.8,173.7 15.6,173.2 C15.3,172.4 15.4,171.7 15.2,170.9 C15,170.1 15,169.1 15,168.3 C14.9,166.3 14.7,164.2 15.1,162.2 C15.3,161.2 15.2,160.1 15.4,159 C15.5,158.3 15.7,157.7 15.8,157 C15.9,156.5 15.8,156 16,155.6 C16.4,154.6 16.6,153.6 16.9,152.6 C17.3,151.4 17.6,150.3 18.1,149.1 C18.6,147.9 19.2,146.7 19.7,145.5 C20.3,144.3 20.9,143 21.7,141.9 C22.3,140.9 23,140 23.7,139.1 C24.5,138 25.3,136.9 26.2,136 C28,134.1 29.9,132.2 32,130.5 C32.7,130 33.4,129.5 34.1,129 C35,128.4 36,127.8 36.9,127.2 C37.9,126.6 39,126.1 40,125.5 C40.9,125 41.8,124.6 42.8,124.3 C43.7,124 44.7,123.6 45.6,123.3 C46.6,122.9 47.6,122.7 48.6,122.4 C49.5,122.1 50.5,122 51.4,121.7 C52.5,121.4 53.6,121.4 54.7,121.2 C55.6,121 56.6,121.1 57.5,121 C59.8,120.7 62.1,121.2 64.4,121.2 L64.5,121.2 C65.6,121.6 66.7,121.5 67.8,121.7 C67.8,121.8 67.8,121.9 67.7,122 C67.2,122.8 66.8,123.7 66.3,124.5 C66,125 65.9,125.6 65.4,126 C65.1,126 64.7,126.1 64.4,126 C63.3,125.5 62.2,125.8 61.1,125.6 C59.2,125.2 57.2,125.8 55.3,125.8 L55.1,125.8 C54.3,126.2 53.3,126 52.4,126.2 C51.5,126.4 50.5,126.7 49.6,126.8 C48.8,126.9 48.1,127.2 47.3,127.5 C46.5,127.7 45.8,128 45.1,128.3 C44.9,128.4 44.6,128.6 44.8,128.9 C45.2,129.8 45.3,130.8 45.7,131.8 C46.1,132.9 46.7,133.9 47.2,134.8 C47.7,135.6 48.3,136.3 48.9,137.1 C49.8,138.3 51,139.1 52.1,140 C52.6,140.4 53.2,140.7 53.8,141 C54.7,141.5 55.6,142.2 56.7,142.2 C56.5,142.6 56.4,143 56.2,143.4 C55.4,144.9 54.6,146.5 53.7,147.9 C53.6,148 53.6,148.2 53.7,148.3 C53.8,148.4 53.9,148.3 54,148.3 C54.2,148.2 54.4,148.2 54.5,148.2 C55.4,148 56.3,147.8 57.2,147.6 C58.5,147.3 59.7,147 61,146.7 C62,146.5 62.6,146.1 63.2,145.3 C63.7,144.6 64.2,143.9 64.9,143.4 L91.7,143.4 L92.2,143.4 C92.6,143.4 92.7,143.3 92.5,142.9 C92.3,142.5 91.9,142.2 91.7,141.8 C91,140.6 90.1,139.6 89.2,138.6 C87.2,136.5 85.2,134.5 82.8,132.9 C81.3,131.9 79.8,130.9 78.3,130.1 C77.9,129.9 77.3,129.8 77,129.3 C77,129.1 77,129 77.1,128.9 C78.1,127.9 78.9,126.8 79.8,125.8 C80.3,125.8 80.7,126.2 81.1,126.5 C82.8,127.5 84.5,128.6 86.1,129.7 C87.5,130.7 88.7,131.9 90,132.9 C91.4,134 92.4,135.6 93.7,136.8 L93.8,136.9 C94.6,138.1 95.6,139.2 96.4,140.4 C97.1,141.5 97.8,142.5 98.4,143.6 C99.5,145.5 100.3,147.6 101.2,149.6 C101.6,150.5 101.6,151.5 102.2,152.4 L102.2,152.6 C102.3,153.2 102.5,153.7 102.6,154.2 C102.8,155 103.1,155.8 103.2,156.6 C103.3,157.3 103.4,158 103.5,158.7 C103.7,159.9 103.9,161.1 103.9,162.3 L103.9,166.8 C104,168.4 103.7,169.9 103.6,171.5 L103.6,171.7 C103.2,172.3 103.3,173.1 103.2,173.7 C103.1,174.3 103,174.9 102.8,175.5 C102.7,175.9 102.7,176.3 102.6,176.6 C102.2,177.4 102,178 102,178.6 L102,178.6 Z" id="Shape" fill="#FEFEFE"></path>
                    <path d="M67.5,121.4 C66.4,121.2 65.3,121.3 64.2,120.9 L64.1,120.9 C61.8,120.8 59.5,120.4 57.2,120.7 C56.3,120.8 55.3,120.8 54.4,120.9 C53.3,121.1 52.2,121.1 51.1,121.4 C50.2,121.7 49.2,121.8 48.3,122.1 C47.3,122.4 46.2,122.6 45.3,123 C44.4,123.3 43.4,123.7 42.5,124 C41.5,124.4 40.6,124.8 39.7,125.2 C38.7,125.7 37.6,126.2 36.6,126.9 C35.7,127.5 34.7,128.1 33.8,128.7 C33.1,129.2 32.4,129.7 31.7,130.2 C29.6,131.9 27.8,133.8 25.9,135.7 C25,136.7 24.2,137.8 23.4,138.8 C22.7,139.7 22.1,140.7 21.4,141.6 C20.6,142.7 20,144 19.4,145.2 C18.8,146.4 18.2,147.5 17.8,148.8 C17.4,149.9 17,151.1 16.6,152.3 C16.3,153.3 16.1,154.4 15.7,155.3 C15.5,155.7 15.6,156.3 15.5,156.7 C15.4,157.4 15.2,158 15.1,158.7 C14.9,159.8 15.1,160.9 14.8,161.9 C14.4,163.9 14.6,166 14.7,168 C14.7,168.9 14.7,169.8 14.9,170.6 C15.1,171.4 15,172.1 15.3,172.9 C15.5,173.4 15.6,174 15.6,174.5 C15.6,175.4 15.9,176.2 16.2,177 C16.4,177.4 16.2,178 16.6,178.3 L2.2,178.3 C2.2,177.4 2,176.5 1.7,175.6 C1.6,175.2 1.4,174.6 1.5,174.2 C1.5,173.1 1.3,172 1.1,170.9 C0.9,169.5 1.1,168.1 0.8,166.8 C0.6,165.9 0.5,165 0.6,164.2 C0.8,162.9 0.7,161.5 0.8,160.2 C1,158.9 1.1,157.5 1.3,156.2 C1.5,155.2 1.6,154.1 1.9,153 C2.1,152.5 2.3,151.9 2.2,151.3 C2.1,150.9 2.4,150.6 2.5,150.2 C2.9,149.3 3.1,148.2 3.4,147.3 C3.7,146.1 4.3,145.1 4.6,143.9 C4.8,143.1 5.3,142.4 5.6,141.6 C6.2,140 7,138.5 7.9,137 C8.5,135.9 9.2,135 9.8,133.9 C10.4,132.7 11.4,131.7 12,130.5 C12.2,130.1 12.6,129.7 12.9,129.3 C13.5,128.6 14.1,127.9 14.7,127.2 C16.4,125.1 18.4,123.3 20.3,121.4 C21.4,120.3 22.6,119.3 23.9,118.4 C24.6,117.9 25.3,117.3 26.1,116.8 C26.8,116.3 27.6,115.8 28.3,115.4 C30.2,114.2 32.3,113.2 34.3,112.1 C35.8,111.4 37.4,110.8 38.9,110.2 C39.7,109.9 40.4,109.7 41.2,109.4 C41.9,109.1 42.6,109 43.3,108.8 C44.2,108.6 45.1,108.3 46,108.1 C46.5,108 47.1,107.9 47.6,107.7 C48.4,107.5 49.2,107.6 49.9,107.3 C50.4,107.1 51,107.1 51.5,107 C53.6,106.9 55.6,106.6 57.7,106.7 C59.2,106.8 60.7,106.7 62.2,106.7 C63.7,106.7 65.2,107 66.7,107.2 C67.5,107.3 68.2,107.4 68.9,107.6 C69.8,107.8 70.8,107.8 71.8,108.2 C72.4,108.4 73,108.6 73.7,108.6 C73.5,109 73.3,109.5 73,109.9 C72.5,110.9 71.9,112 71.4,113 C70.9,113.9 70.4,114.8 69.9,115.7 C69.2,117 68.6,118.3 67.8,119.6 C68.1,120.3 68,121 67.5,121.4 L67.5,121.4 Z" id="Shape" fill="#E2E3E3"></path>
                    <path d="M125.1,178.6 C124.9,177.8 124.8,177.1 124.7,176.3 C124.6,175.8 124.4,175.3 124.4,174.7 C124.3,174 124.2,173.3 124,172.6 C123.8,172.1 123.9,171.5 123.7,170.9 C123.4,169.8 123.3,168.6 123,167.5 C122.9,166.9 122.7,166.3 122.7,165.7 C122.7,165 122.4,164.3 122.3,163.7 C122.2,163 121.9,162.3 121.9,161.5 C121.9,160.9 122,160.2 121.9,159.6 C121.6,158.5 121.8,157.4 121.5,156.3 C121.3,155.6 121.2,154.9 121.1,154.2 C121,153.2 120.9,152.2 120.5,151.2 C120.3,150.8 120.4,150.2 120.2,149.8 C119.7,148.1 119.3,146.5 118.7,144.9 C118.1,143.4 117.6,141.9 117,140.4 C116.2,138.5 115.3,136.7 114.3,134.9 C113.2,132.9 112,131 110.7,129.2 C109.9,128.2 109.2,127.2 108.4,126.1 C107,124.3 105.5,122.7 103.9,121.1 C103.7,121 103.5,120.8 103.6,120.5 C103.7,120.3 104,120.4 104.2,120.4 L129.1,120.4 C129.9,120.4 130.6,120.7 131.4,121 C133.1,121.5 134.5,122.5 135.7,123.7 C136.9,125 138,126.4 138.4,128.2 C138.7,129.3 139,130.5 139.2,131.6 C139.4,132.5 139.5,133.5 139.9,134.4 C140.1,134.9 140,135.5 140.2,136.1 C140.4,137.2 140.7,138.3 140.9,139.4 C141,140 141,140.6 141.2,141.2 C141.4,141.8 141.4,142.5 141.6,143.1 C141.8,143.7 141.6,144.3 141.9,144.9 C142.2,145.6 142.1,146.3 142.4,147 C142.6,147.5 142.5,148 142.7,148.6 C143.1,149.8 143.2,151 143.4,152.2 C143.6,153.2 143.8,154.3 144,155.4 C144.2,156.4 144.3,157.4 144.7,158.3 C144.9,158.8 144.9,159.3 144.9,159.8 C145,160.9 145.4,161.9 145.5,163 C145.6,164 145.8,165 146.2,165.9 C146.4,166.4 146.4,166.9 146.4,167.4 C146.5,168.5 146.8,169.5 147,170.6 C147.2,171.6 147.4,172.5 147.6,173.5 C147.8,174.1 148,174.8 147.9,175.5 C147.9,176 148.1,176.4 148.2,176.9 C148.4,177.4 148.3,178 148.4,178.5 C140.6,178.6 132.9,178.6 125.1,178.6 L125.1,178.6 Z" id="Shape" fill="#E2E3E3"></path>
                    <path d="M102,178.6 C102,178 102.2,177.4 102.4,176.8 C102.5,176.4 102.6,176 102.6,175.7 C102.7,175.1 102.9,174.5 103,173.9 C103.1,173.2 103,172.5 103.4,171.9 L103.4,171.7 C103.5,170.1 103.7,168.6 103.7,167 C103.6,165.5 103.7,164 103.7,162.5 C103.7,161.3 103.4,160.1 103.3,158.9 C103.2,158.2 103,157.5 103,156.8 C102.9,156 102.7,155.2 102.4,154.4 C102.2,153.9 102.1,153.3 102,152.8 L102,152.6 C101.5,151.8 101.4,150.7 101,149.8 C100.1,147.8 99.3,145.7 98.2,143.8 C97.6,142.7 96.8,141.7 96.2,140.6 C95.4,139.3 94.4,138.3 93.6,137.1 C93.6,137 93.5,137 93.5,137 C92.2,135.8 91.2,134.2 89.8,133.1 C88.5,132.1 87.3,130.8 85.9,129.9 C84.3,128.8 82.7,127.7 80.9,126.7 C80.5,126.5 80.1,126.1 79.6,126 C80.1,125.4 80.6,124.9 81.1,124.3 C82.3,122.9 83.4,121.6 84.6,120.2 C85.4,119.2 86.2,118.2 87,117.3 C87.7,116.6 88.1,115.7 89,115.2 C89.4,115.9 90.1,116.1 90.7,116.5 C91.4,117 92.2,117.4 92.9,118 C93.7,118.7 94.6,119.2 95.4,119.8 C95.9,120.2 96.4,120.6 96.9,121 C98.6,122.5 100.5,124 101.9,125.8 C103,127.1 104.2,128.3 105.2,129.7 C105.7,130.5 106.4,131.2 106.8,131.9 C107.4,132.8 108.1,133.7 108.6,134.6 C109.3,135.8 110,136.9 110.6,138.1 C111,138.9 111.5,139.7 111.8,140.5 C112.1,141.3 112.5,142 112.8,142.7 C113.2,143.8 113.8,144.9 114.1,146.1 C114.2,146.6 114.6,147.1 114.7,147.6 C114.8,148.4 115.2,149 115.4,149.8 C115.6,150.6 115.7,151.4 116.1,152.1 C116.3,152.5 116.4,153 116.4,153.5 C116.5,154.7 116.9,155.9 117,157.1 C117.1,157.8 117,158.5 117.2,159.2 C117.5,160.3 117.2,161.3 117.5,162.3 C117.9,164.2 117.7,166.2 117.7,168.1 C117.7,169.1 117.7,170.1 117.5,171.1 C117.3,171.9 117.5,172.7 117.3,173.5 C117,174.6 117,175.8 116.6,177 C116.4,177.6 116.2,178.2 116.3,178.8 C111.4,178.6 106.7,178.6 102,178.6 L102,178.6 Z" id="Shape" fill="#E2E3E3"></path>
                    <path d="M88.9,114.9 C88.1,115.5 87.6,116.3 86.9,117 C86,117.9 85.3,118.9 84.5,119.9 C83.4,121.3 82.2,122.6 81,124 C80.5,124.6 80,125.1 79.5,125.7 C78.6,126.7 77.8,127.8 76.8,128.8 C76.7,128.9 76.6,129 76.7,129.2 C76.3,129.4 76,129.9 75.7,130.2 C74.5,131.6 73.4,133 72.1,134.4 C71.3,135.3 70.5,136.2 69.7,137.2 C68.5,138.6 67.3,140 66.2,141.4 C65.7,142.1 65,142.7 64.6,143.4 C63.9,144 63.4,144.7 62.9,145.3 C62.3,146.1 61.6,146.5 60.7,146.7 C59.4,147 58.2,147.3 56.9,147.6 C56,147.8 55.1,148 54.2,148.2 C54,148.2 53.8,148.2 53.7,148.3 C53.6,148.4 53.5,148.5 53.4,148.3 C53.3,148.2 53.3,148 53.4,147.9 C54.3,146.4 55.1,144.9 55.9,143.4 C56.1,143 56.3,142.6 56.4,142.2 L56.6,142.2 C56.9,141.4 57.3,140.7 57.7,140 C59.1,137.6 60.3,135.1 61.7,132.6 C62.5,131.1 63.4,129.6 64.2,128 C64.5,127.3 65.1,126.7 65.3,125.8 C65.8,125.4 65.9,124.8 66.2,124.3 C66.7,123.5 67.1,122.6 67.6,121.8 C67.6,121.7 67.6,121.6 67.7,121.5 C68.2,121.1 68.4,120.4 68.7,119.9 C69.4,118.6 70.1,117.3 70.8,116 C71.3,115.1 71.8,114.2 72.3,113.3 C72.9,112.3 73.4,111.2 73.9,110.2 C74.1,109.8 74.3,109.3 74.6,108.9 C75.3,107.7 76,106.4 76.6,105.1 C76.6,105.1 76.7,105.1 76.7,105 C77.2,104 77.7,103 78.3,102 C78.4,101.8 78.5,101.5 78,101.5 C76.3,101.5 74.6,101.5 72.9,101.3 C71.6,101.2 70.3,101.2 69,101.1 C66.3,100.9 63.6,100.8 60.9,100.5 C60.1,100.4 59.2,100.4 58.4,100.3 C56.3,100.1 54.3,99.9 52.2,99.7 C51,99.6 49.9,99.4 48.7,99.3 C48,99.2 47.2,99.2 46.5,99.1 C45.1,98.9 43.8,98.6 42.4,98.6 C42.2,98.5 42.1,98.4 41.9,98.4 C41,98.5 40,98.2 39.1,98.1 C38.4,98 37.6,98 36.9,97.7 C36.6,97.6 36.4,97.8 36.3,98 C35,99.3 33.8,100.7 32.5,102 C29.8,104.8 27.2,107.7 24.3,110.4 C23.6,111.1 22.8,111.6 21.7,111.4 C21.1,111.3 20.5,111.4 19.9,111.4 C19.5,111.4 19.3,111.2 19.1,110.8 C18.5,109.5 19.2,108.4 19.6,107.2 C19.9,106.1 20.2,105 20.7,104 C21.1,103.1 21.3,102.2 21.6,101.4 C21.9,100.5 22.2,99.7 22.5,98.8 C22.7,98 23.1,97.2 23.3,96.4 C23.3,96.3 23.4,96.2 23.4,96.1 C23.5,94.6 23.9,93.2 23.6,91.7 C23.4,90.2 23.2,88.6 22.5,87.1 C22.1,86.3 21.9,85.3 21.6,84.4 C21.3,83.4 20.8,82.3 20.5,81.3 C20.2,80.1 19.6,78.9 19.3,77.7 C19.2,77.3 19.1,76.8 18.9,76.4 C18.6,75.8 19,75.1 19.2,74.5 C19.3,74.3 19.5,74.2 19.8,74.2 L22.5,74.2 C23.2,74.2 23.6,74.7 24.1,75.2 C26,76.8 27.6,78.6 29.4,80.4 C30.9,82 32.4,83.6 33.9,85.3 C34.7,86.1 35.4,87 36.2,87.8 C36.4,88 36.6,88.1 36.9,88 C37.5,87.8 38.2,87.8 38.8,87.7 C39.6,87.6 40.4,87.4 41.2,87.4 C41.6,87.5 42,87.2 42.3,87.2 C43.6,87.1 45,86.9 46.3,86.7 C47.8,86.5 49.2,86.4 50.7,86.2 C52.4,86 54.1,85.9 55.8,85.7 C57.8,85.5 59.8,85.4 61.8,85.2 C63,85.1 64.2,85.1 65.4,85 C66.7,84.8 67.9,84.9 69.2,84.8 C70.8,84.6 72.5,84.7 74.1,84.5 C75.3,84.4 76.5,84.4 77.7,84.4 C78.2,84.4 78.4,84.1 78.1,83.8 C77.6,83.2 77.3,82.4 76.9,81.7 C75.8,79.7 74.7,77.7 73.7,75.7 C73.1,74.7 72.6,73.6 72.1,72.5 C71.6,71.6 71.2,70.8 70.7,69.9 C70.2,69 69.7,68.1 69.2,67.2 C68.4,65.6 67.5,64 66.7,62.4 C65.9,60.9 65,59.4 64.2,57.8 C63.4,56.3 62.6,54.8 61.8,53.4 C61,51.9 60.2,50.4 59.4,48.9 C59.1,48.4 59,47.8 58.5,47.5 C58.5,46.7 57.9,46.2 57.6,45.6 C56.9,44.1 56,42.8 55.3,41.2 L55.1,41.2 C55.1,41 55,40.8 54.9,40.7 C54.3,39.8 53.8,38.8 53.3,37.9 L53.3,37.6 C53.4,37.5 53.5,37.5 53.6,37.6 C54.2,37.8 54.9,37.9 55.5,38.1 C56.3,38.3 57.1,38.5 58,38.7 C58.9,38.9 59.9,39.1 60.8,39.4 C61.5,39.6 62.1,39.7 62.5,40.2 C62.8,40.5 62.9,41 63.3,41.2 C63.8,42 64.4,42.6 65,43.3 C66.3,44.9 67.7,46.4 69,48 C70.9,50.2 72.7,52.4 74.6,54.6 C75.7,55.9 76.7,57.1 77.8,58.4 C79.3,60.1 80.8,62 82.3,63.8 C83.6,65.4 85,66.9 86.4,68.5 C87.7,70 88.9,71.5 90.2,73 C91.5,74.5 92.7,76 94,77.5 C95.5,79.3 97,81.1 98.5,82.9 C98.7,83.2 99,83.4 99.2,83.7 C99.4,84.1 99.8,84.3 100.3,84.3 C102.3,84.2 104.3,84.5 106.3,84.6 C108.2,84.7 110.1,84.9 112,85.1 C113.5,85.3 115.1,85.4 116.6,85.6 C118.4,85.8 120.3,86 122.1,86.4 C123.7,86.7 125.3,86.9 126.9,87.3 C128.1,87.6 129.4,87.8 130.6,88.1 C131.9,88.4 133.3,88.8 134.2,89.9 C135.3,91.2 135.4,92.8 135.1,94.4 C134.9,95.8 133.9,96.9 132.6,97.5 C132.2,97.7 131.8,97.8 131.4,97.9 C131.1,97.9 130.9,98.1 130.6,98.2 L130,98.2 C128.3,98.8 126.6,99 124.9,99.4 C123.4,99.7 121.8,99.9 120.2,100.2 C119,100.4 117.7,100.6 116.4,100.7 C114.9,100.9 113.4,101 111.9,101.2 C110,101.4 108,101.6 106.1,101.7 C104.1,101.8 102.2,102.1 100.2,102 C99.8,102 99.6,102.1 99.3,102.4 C98.2,103.7 97.1,105 96.1,106.2 C94.9,107.6 93.7,109.1 92.5,110.5 C92.2,110.9 91.8,111.3 91.5,111.8 C90.7,112.4 90.1,113.3 89.5,114 C89.4,114.2 88.9,114.4 88.9,114.9 L88.9,114.9 Z" id="Shape" fill="#010101"></path>
                    <path d="M63.4,41.1 C62.9,40.9 62.8,40.5 62.6,40.1 C62.1,39.5 61.5,39.4 60.9,39.3 C60,39.1 59,38.9 58.1,38.6 C57.3,38.4 56.5,38.2 55.6,38 C55,37.9 54.3,37.7 53.7,37.5 C53.6,37.5 53.5,37.4 53.4,37.5 C53.4,37.6 53.3,37.7 53.4,37.8 C53.9,38.8 54.4,39.7 55,40.6 C55.1,40.8 55.2,40.9 55.2,41.1 C54.5,41 53.8,40.8 53.1,40.7 C52.1,40.5 51.3,40.1 50.3,39.9 C49.9,39.8 49.7,39.5 49.4,39.3 C47.6,38.5 46,37.3 44.5,36.1 C43.6,35.3 42.9,34.4 42.1,33.6 C40.9,32.2 40,30.5 39.3,28.7 C38.8,27.7 38.7,26.6 38.2,25.6 C38,25.2 37.9,24.6 37.9,24.2 C37.9,22.8 37.3,21.5 37.6,20.1 C37.9,19.1 37.8,18 38,17 C38.2,16.1 38.5,15.3 38.6,14.4 C38.7,13.7 39.1,13.1 39.4,12.4 C40,11 40.7,9.6 41.7,8.4 C42.6,7.4 43.3,6.1 44.6,5.4 C45.2,5.1 45.7,4.4 46.3,4 C47.6,3.1 49,2.2 50.6,1.7 C51,1.6 51.3,1.3 51.7,1.2 C52.8,1 54,0.7 55.1,0.4 C56.9,-8.52651283e-14 58.8,0.1 60.6,0.3 C62.3,0.5 63.9,1 65.6,1.6 C67.3,2.3 68.8,3.1 70.2,4.1 C71.6,5 72.8,6.2 73.8,7.5 C74.6,8.5 75.4,9.6 76.1,10.8 C76.9,12.3 77.5,13.9 78,15.5 C78.2,16.2 78.2,17 78.4,17.7 C78.7,19.2 78.5,20.8 78.6,22.3 C78.6,23.2 78.3,24.1 78.2,25.1 C78.1,25.8 77.9,26.4 77.7,27.1 C77.3,28.5 76.6,29.7 76,31 C75.6,31.9 74.9,32.6 74.4,33.4 C73.7,34.4 72.8,35.2 71.9,36.1 C71,37 70,37.6 69,38.3 C68.1,38.9 67.2,39.2 66.2,39.7 C65.5,40.1 64.7,40.2 64,40.5 C63.6,40.9 63.4,40.9 63.4,41.1 L63.4,41.1 Z" id="Shape" fill="#E2E3E3"></path>
                    <path d="M58.4,47.6 C59,47.9 59,48.5 59.3,49 C60.1,50.5 60.9,52 61.7,53.5 C62.5,55 63.3,56.4 64.1,57.9 C64.9,59.4 65.8,60.9 66.6,62.5 C67.4,64.1 68.3,65.6 69.1,67.3 C69.5,68.2 70.1,69.1 70.6,70 C71.1,70.9 71.6,71.7 72,72.6 C72.6,73.6 73.1,74.7 73.6,75.8 C74.7,77.8 75.7,79.8 76.8,81.8 C77.2,82.5 77.4,83.3 78,83.9 C78.3,84.2 78.1,84.5 77.6,84.5 C76.4,84.5 75.2,84.4 74,84.6 C72.4,84.8 70.7,84.7 69.1,84.9 C67.8,85.1 66.5,84.9 65.3,85.1 C64.1,85.3 62.9,85.2 61.7,85.3 C59.7,85.5 57.7,85.6 55.7,85.8 C54,86 52.3,86.1 50.6,86.3 C49.1,86.5 47.7,86.6 46.2,86.8 C44.9,86.9 43.5,87.2 42.2,87.3 C41.8,87.3 41.5,87.6 41.1,87.5 C41.4,87.1 41.4,86.7 41.2,86.2 C41,85.8 41.1,85.3 41.1,84.8 C41.2,83.2 40.8,81.5 40.8,79.9 C40.8,79 40.8,78 40.6,77.1 C40.3,75.9 40.6,74.6 40.3,73.4 C40,72.3 40.3,71.1 40.1,70 C39.7,68.1 40,66.2 39.9,64.3 C39.9,63.4 40.2,62.5 40.3,61.7 C40.6,60 41.3,58.6 42.1,57.1 C42.5,56.4 43,55.6 43.5,54.9 C44.2,54 45,53.2 45.8,52.4 C46.7,51.5 47.8,50.9 48.8,50.2 C50.2,49.3 51.8,49 53.2,48.3 C53.6,48.1 54.2,48 54.7,48 C56,47.9 57.2,47.5 58.4,47.6 L58.4,47.6 Z" id="Shape" fill="#E2E3E3"></path>
                    <path d="M91.6,111.6 C91.8,111.1 92.2,110.7 92.6,110.3 C93.8,108.9 95,107.5 96.2,106 C97.3,104.7 98.4,103.5 99.4,102.2 C99.7,101.9 99.9,101.7 100.3,101.8 C102.3,101.8 104.3,101.6 106.2,101.5 C108.1,101.4 110.1,101.2 112,101 C113.5,100.9 115,100.7 116.5,100.5 C117.8,100.4 119,100.2 120.3,100 C121.9,99.8 123.4,99.6 125,99.2 C126.7,98.8 128.4,98.6 130.1,98 C130.3,97.9 130.5,98 130.7,98 C130.9,98.4 131.2,98.6 131.5,98.9 C132.2,99.7 132.6,100.6 133,101.6 C133.4,102.8 133.3,104.1 133.2,105.3 C133.1,106.4 132.6,107.5 132,108.4 C131.6,108.9 131.3,109.5 130.8,109.9 C129.9,110.6 128.9,111.3 127.8,111.6 C126.5,111.9 125.1,112.1 123.7,112.1 L93.9,112.1 C93.3,112.1 92.7,112.1 92.3,111.7 C92,111.6 91.8,111.6 91.6,111.6 L91.6,111.6 Z" id="Shape" fill="#E2E3E3"></path>
                    <path d="M42,98.7 C43.4,98.7 44.7,99 46.1,99.2 C46.8,99.3 47.6,99.4 48.3,99.4 C49.5,99.5 50.6,99.7 51.8,99.8 C53.9,100 55.9,100.2 58,100.4 C58.8,100.5 59.7,100.5 60.5,100.6 C63.2,100.9 65.9,101 68.6,101.2 C69.9,101.3 71.2,101.3 72.5,101.4 C74.2,101.6 75.9,101.6 77.6,101.6 C78.1,101.6 78,101.9 77.9,102.1 C77.3,103 76.8,104.1 76.3,105.1 C76.3,105.1 76.2,105.1 76.2,105.2 C76,104.9 75.7,104.8 75.4,104.7 C74.4,104.4 73.5,104.2 72.5,104 C72.1,103.9 71.7,103.9 71.2,103.8 C70.6,103.7 70,103.5 69.4,103.4 C68.4,103.2 67.3,103.4 66.4,103 C66.4,103 66.4,103 66.3,103 C65.3,103.2 64.4,102.7 63.5,102.7 L54.8,102.7 C53.8,102.7 52.7,102.8 51.7,103.2 L51.5,103.2 C50.5,103 49.5,103.5 48.5,103.5 C48,103.5 47.5,103.8 47,103.9 C46.5,104 45.9,104.1 45.4,104.2 C44.8,104.3 44.2,104.4 43.6,104.7 C42.9,105 42.5,104.7 42.4,103.9 C42.4,102.7 42.1,101.6 42.1,100.4 C42.2,99.7 42,99.2 42,98.7 L42,98.7 Z" id="Shape" fill="#E2E3E3"></path>
                    <path d="M64.7,143.3 C65.1,142.6 65.8,142 66.3,141.3 C67.4,139.9 68.6,138.5 69.8,137.1 C70.6,136.2 71.4,135.3 72.2,134.3 C73.4,132.9 74.6,131.5 75.8,130.1 C76.1,129.7 76.4,129.3 76.8,129.1 C77.1,129.6 77.6,129.7 78.1,129.9 C79.7,130.7 81.2,131.7 82.6,132.7 C85,134.4 87,136.3 89,138.4 C89.9,139.4 90.8,140.5 91.5,141.6 C91.7,142 92.1,142.3 92.3,142.7 C92.5,143.1 92.4,143.2 92,143.2 L91.5,143.2 C82.5,143.3 73.6,143.3 64.7,143.3 L64.7,143.3 Z" id="Shape" fill="#E2E3E3"></path>
                    <path d="M65.2,125.7 C65.1,126.5 64.5,127.2 64.1,127.9 C63.4,129.5 62.5,131 61.6,132.5 C60.2,134.9 59,137.4 57.6,139.9 C57.2,140.6 56.8,141.3 56.5,142.1 L56.3,142.1 C55.2,142 54.3,141.4 53.4,140.9 C52.8,140.6 52.2,140.3 51.7,139.9 C50.6,139 49.4,138.2 48.5,137 C48,136.2 47.3,135.5 46.8,134.7 C46.2,133.7 45.7,132.7 45.3,131.7 C44.9,130.7 44.8,129.7 44.4,128.8 C44.3,128.4 44.5,128.2 44.7,128.2 C45.4,127.9 46.2,127.7 46.9,127.4 C47.6,127.2 48.4,126.8 49.2,126.7 C50.2,126.6 51.1,126.3 52,126.1 C52.9,125.9 53.8,126.1 54.7,125.7 L54.9,125.7 C56.9,125.7 58.8,125.1 60.7,125.5 C61.8,125.7 62.9,125.4 64,125.9 C64.5,125.8 64.9,125.7 65.2,125.7 L65.2,125.7 Z" id="Shape" fill="#E2E3E3"></path>
                </g>
            </g>
        </g>
    </g>
</svg>