<?xml version="1.0" encoding="UTF-8"?>
<svg width="210px" height="210px" viewBox="0 0 210 210" version="1.1" xmlns="http://www.w3.org/2000/svg" xmlns:xlink="http://www.w3.org/1999/xlink">
    <!-- Generator: Sketch 40.3 (33839) - http://www.bohemiancoding.com/sketch -->
    <title>Group 7</title>
    <desc>Created with Sketch.</desc>
    <defs></defs>
    <g id="Page-1" stroke="none" stroke-width="1" fill="none" fill-rule="evenodd">
        <g id="ICON_VECTOR" transform="translate(-2532.000000, -1891.000000)">
            <g id="Group-7" transform="translate(2536.000000, 1895.000000)">
                <g id="Group" transform="translate(30.000000, 20.000000)" fill="#E2E3E3">
                    <path d="M100.2,177.6 C100.3,176.7 100.6,175.7 100.8,174.8 C100.9,174.3 101.1,173.8 101.2,173.3 C101.3,172.4 101.4,171.5 101.7,170.7 L101.7,170.5 C101.8,168.8 102.1,167.2 102,165.5 C101.9,164.2 102,162.9 102,161.6 C102,160.4 101.7,159.2 101.6,158 C101.5,157.3 101.3,156.6 101.3,155.9 C101.2,155 101.1,154.2 100.7,153.4 C100.5,153 100.5,152.6 100.4,152.3 C100.3,151.6 99.8,151 99.8,150.2 C99.8,149.9 99.6,149.5 99.5,149.2 C99.1,148.5 98.9,147.8 98.6,147.1 C98,145.7 97.3,144.2 96.6,142.9 C96,141.8 95.3,140.8 94.6,139.8 C93.8,138.6 92.8,137.5 92.1,136.3 C92.1,136.2 92,136.2 92,136.2 C90.8,135.1 89.9,133.6 88.7,132.6 C87.4,131.6 86.3,130.3 85,129.4 C83.6,128.5 82.3,127.5 80.9,126.6 C79.7,125.9 78.5,125.3 77.3,124.6 C76.1,123.9 74.8,123.4 73.6,123 C72.1,122.5 70.6,121.9 69.1,121.6 C68.4,121.5 67.7,121.3 66.9,121.1 C65.8,120.9 64.7,120.7 63.5,120.6 C62.8,120.5 62.1,120.5 61.4,120.4 C59.9,120.1 58.4,120 57,120.2 C55.8,120.3 54.6,120.2 53.5,120.5 C52.4,120.7 51.2,120.6 50.1,121 C49.2,121.3 48.3,121.4 47.3,121.7 C46.3,122 45.4,122.2 44.4,122.5 C43.4,122.8 42.5,123.2 41.5,123.5 C39.7,124.2 38.1,125.1 36.4,126 C35.3,126.6 34.3,127.3 33.3,128 C32,128.9 30.8,129.9 29.6,130.9 C27.8,132.4 26.2,134.1 24.6,135.8 C23.4,137 22.5,138.5 21.5,139.8 C20.2,141.7 19.1,143.7 18.2,145.7 C17.5,147.2 17,148.8 16.4,150.3 C15.9,151.5 15.7,152.7 15.3,153.9 C15,154.8 14.9,155.8 14.7,156.8 C14.4,158.4 14.4,159.9 14.2,161.5 C13.9,163.4 14,165.2 14.1,167 C14.2,168 14.1,169.1 14.3,170.1 C14.5,171.2 14.7,172.3 14.9,173.4 C15.1,174.3 15.2,175.2 15.5,176.1 C15.7,176.6 15.6,177.2 16,177.7 L1.7,177.7 C1.8,176.9 1.5,176.1 1.3,175.3 C1.1,174.8 1.1,174.1 1.1,173.6 C1.1,172.6 0.9,171.6 0.7,170.6 C0.5,169.4 0.7,168.1 0.5,167 C0.2,165.6 0.2,164.1 0.4,162.7 C0.5,161.6 0.5,160.5 0.6,159.4 C0.8,158.1 0.9,156.8 1.1,155.5 C1.2,154.5 1.4,153.4 1.8,152.4 C2,152 2,151.4 2.1,151 C2.2,150.2 2.6,149.5 2.7,148.7 C2.8,148 3.1,147.3 3.3,146.6 C3.6,145.8 4,145 4.2,144.1 C4.4,143.2 4.8,142.4 5.2,141.6 C5.6,140.7 6,139.7 6.5,138.9 C7.2,137.5 7.9,136.1 8.7,134.8 C9.6,133.4 10.4,132 11.4,130.7 C12.4,129.4 13.5,128.1 14.5,126.7 C14.8,126.3 15.2,126 15.5,125.6 C16,125 16.6,124.6 17,123.9 C17.2,123.5 17.7,123.2 18.1,122.9 C18.6,122.5 19.1,122 19.5,121.5 C20.7,120.3 22,119.2 23.4,118.2 C25,117 26.5,115.9 28.3,114.9 C29.4,114.3 30.4,113.6 31.6,113 C32.9,112.3 34.2,111.7 35.5,111.1 C36.5,110.7 37.5,110.2 38.5,109.9 C39.5,109.6 40.3,109.1 41.3,109 C41.9,108.9 42.5,108.6 43.1,108.4 C43.6,108.3 44.1,108.1 44.6,108 C45.2,108 45.7,107.8 46.2,107.6 C46.3,107.6 46.4,107.5 46.4,107.5 C47.2,107.6 47.9,107.3 48.7,107.2 C49.3,107.1 50,107.2 50.6,106.8 L50.8,106.8 C51.9,106.9 52.9,106.5 54,106.5 L62.6,106.5 C63.7,106.5 64.8,106.8 65.8,106.8 C66.7,106.9 67.7,107.1 68.7,107.3 C70,107.6 71.3,107.9 72.6,108.2 C74.1,108.6 75.7,109 77.2,109.6 C78.4,110 79.7,110.5 80.9,111 C82.3,111.6 83.7,112.3 85.1,113 C86.8,113.9 88.4,114.9 90,115.9 C91.3,116.8 92.6,117.8 93.9,118.6 C94.4,118.9 94.9,119.4 95.4,119.8 C97.2,121.5 99.1,123 100.7,124.8 C101.7,126 102.9,127.2 103.8,128.5 C105,130.2 106.2,131.9 107.3,133.6 C108.5,135.7 109.9,137.7 110.8,140 C111.5,141.6 112.2,143.1 112.8,144.8 C113.2,145.9 113.4,147.1 113.9,148.1 C114.1,148.5 114.1,149 114.2,149.4 C114.3,149.9 114.5,150.4 114.7,150.8 C114.9,151.2 114.8,151.7 114.9,152.2 C115,152.8 115.1,153.4 115.3,154 C115.5,154.7 115.3,155.5 115.7,156.1 L115.7,156.3 C115.6,157.4 115.8,158.4 116,159.4 C116.3,161.9 116.3,164.5 116.2,167 C116.2,168.1 116.1,169.2 115.9,170.2 C115.8,170.9 115.9,171.7 115.7,172.3 C115.4,173.4 115.4,174.5 115,175.6 C114.8,176.2 114.9,176.8 114.7,177.5 C109.5,177.6 104.9,177.6 100.2,177.6 L100.2,177.6 Z" id="Shape"></path>
                    <path d="M123.2,177.6 C123,176.9 123,176.2 122.7,175.5 C122.5,175.1 122.6,174.6 122.5,174.2 C122.4,173.6 122.2,173 122.1,172.4 C122,171.8 122,171.1 121.7,170.5 C121.5,170.1 121.5,169.6 121.4,169.1 C121.3,168 121,167 120.8,165.9 C120.6,164.8 120.5,163.7 120.1,162.7 C119.7,161.4 120,160.1 119.8,158.8 C119.6,157.7 119.7,156.6 119.4,155.5 C119.2,154.9 119.1,154.2 119.1,153.5 C119,152.8 118.9,152 118.7,151.3 C118.5,150.4 118.2,149.5 118.1,148.6 C118,148 117.8,147.4 117.6,146.8 C117.3,146.1 117.2,145.4 116.9,144.7 C116.6,143.9 116.3,143.1 116,142.3 C115.7,141.2 115.2,140.1 114.7,139.1 C114.1,137.9 113.6,136.7 112.9,135.5 C111.9,133.7 111,131.9 109.9,130.3 C108.9,128.9 108,127.6 107,126.2 C105.4,124.1 103.7,122.1 101.8,120.3 C101.7,120.2 101.5,120.1 101.6,119.8 C101.7,119.6 101.9,119.6 102.1,119.6 L127.1,119.6 C127.8,119.6 128.5,119.9 129.2,120.1 C130.9,120.7 132.5,121.7 133.7,123.1 C134.7,124.2 135.6,125.4 136,126.8 C136.2,127.6 136.5,128.4 136.6,129.3 C136.8,130.3 136.9,131.3 137.3,132.3 C137.5,132.7 137.5,133.2 137.5,133.7 C137.6,134.8 137.9,135.8 138.1,136.9 C138.3,137.9 138.5,139 138.7,140 C138.8,140.5 138.9,141.2 139.1,141.7 C139.3,142.3 139.2,143 139.5,143.7 C139.7,144.1 139.7,144.6 139.8,144.9 C139.9,145.6 140.2,146.2 140.1,147 C140,147.4 140.3,147.8 140.4,148.2 C140.8,149.3 140.8,150.4 141.1,151.5 C141.4,152.5 141.5,153.6 141.7,154.7 C141.8,155.6 142.1,156.6 142.3,157.5 C142.5,158.1 142.4,158.8 142.6,159.4 C142.8,160 142.8,160.7 143,161.3 C143.2,161.9 143.1,162.5 143.3,163.2 C143.5,163.8 143.5,164.5 143.8,165.1 C143.9,165.2 143.9,165.4 143.9,165.6 C143.9,166.3 144.2,167 144.3,167.7 C144.4,168.1 144.5,168.6 144.6,169.1 C144.7,170.3 145.1,171.5 145.3,172.7 C145.4,173.3 145.6,174 145.6,174.7 C145.6,175.2 145.8,175.6 145.9,176.1 C146.1,176.7 146,177.2 146.1,177.8 C138.6,177.6 130.9,177.6 123.2,177.6 L123.2,177.6 Z" id="Shape"></path>
                    <path d="M108.3,111.5 L92,111.5 C91.3,111.5 90.6,111.3 90,110.9 C88.8,110.1 87.5,109.5 86.2,108.7 C85.3,108.2 84.4,107.8 83.5,107.4 C81.9,106.7 80.3,105.9 78.6,105.4 C77.5,105.1 76.4,104.5 75.3,104.3 C74.5,104.1 73.8,103.9 73,103.7 C72,103.5 71.1,103.3 70.1,103.1 C69.6,103 69,102.8 68.5,102.8 C67.5,102.7 66.5,102.6 65.6,102.3 L65.4,102.3 C63.6,102 61.8,102.1 60,102 C59,101.9 58,101.6 57,101.8 C55.3,102.1 53.7,101.8 52.1,102 C50.9,102.1 49.7,102.3 48.5,102.5 C47.5,102.7 46.5,102.6 45.6,103 C44.4,103.4 43.2,103.4 42,103.9 C41.5,104.2 41.1,103.9 41.2,103.3 C41.3,101.7 40.9,100.2 40.9,98.6 C40.9,97.6 40.9,96.5 40.7,95.5 C40.5,94.5 40.7,93.5 40.5,92.5 C40.3,91.2 40.4,90 40.2,88.8 C40,87.9 40.2,87 40,86.1 C39.7,84.9 40,83.6 39.7,82.5 C39.5,81.4 39.7,80.3 39.5,79.3 C39.3,78.3 39.5,77.3 39.2,76.4 C38.9,75.3 39.2,74.2 39,73.1 C38.8,71.9 39,70.6 38.7,69.4 C38.3,67.4 38.5,65.5 38.5,63.5 C38.5,62.5 38.8,61.5 39.1,60.5 C39.5,59.2 40,57.9 40.7,56.7 C41.1,55.9 41.7,55.2 42.2,54.5 C42.8,53.6 43.7,52.8 44.5,52 C45.4,51.1 46.5,50.4 47.6,49.8 C49.1,48.9 50.7,48.4 52.2,47.9 C52.7,47.7 53.4,47.5 54,47.6 C55.1,47.7 56.2,47.1 57.2,47.4 C58.2,47.6 59.3,47.6 60.3,47.8 C62,48.2 63.6,48.7 65.1,49.5 C66.5,50.3 67.8,51.1 68.9,52.3 C70.3,53.8 71.7,55.3 72.6,57.2 C73,57.9 73.2,58.7 73.7,59.4 C73.9,59.7 73.9,60.2 74,60.6 C74.2,61.7 74.4,62.8 74.6,64 C74.7,65.1 74.6,66.1 74.8,67.1 C75,68.2 74.8,69.3 75.1,70.4 C75.3,71.2 75.2,71.9 75.3,72.7 C75.5,74.2 75.5,75.7 75.6,77.1 C75.7,78 75.6,79 75.8,79.9 C76.1,81 75.8,82.1 76.1,83.1 C76.4,84.2 76.1,85.4 76.3,86.5 C76.5,87.7 76.4,88.9 76.6,90 C76.8,90.9 76.6,91.7 76.8,92.6 C77,93.4 77,94.1 77,94.9 C77,95.2 77.3,95.4 77.6,95.4 L78.2,95.4 L124.1,95.4 C125.4,95.4 126.6,95.8 127.6,96.5 C128.7,97.3 129.6,98.2 130.4,99.4 C131.4,101 131.5,102.8 131.3,104.6 C131.2,105.8 130.6,106.9 129.9,108 C129,109.4 127.7,110.1 126.3,110.8 C125.8,111 125.3,111.1 124.8,111.2 C118.8,111.8 113,111.3 108.3,111.5 L108.3,111.5 Z" id="Shape"></path>
                    <path d="M56.5,0.5 L58.3,0.5 C59.1,0.5 59.8,0.8 60.5,0.9 C61.2,1.1 61.9,1.2 62.6,1.4 C63.9,1.8 65.2,2.4 66.4,3 C67.3,3.5 68,4.1 68.9,4.7 C70,5.5 70.9,6.5 71.8,7.4 C72.6,8.2 73.3,9.3 73.9,10.3 C74.5,11.2 74.9,12.3 75.3,13.3 C75.7,14.2 76,15.2 76.2,16.2 C76.8,18.5 76.7,20.8 76.6,23.1 C76.6,23.8 76.4,24.5 76.2,25.2 C76,25.9 75.9,26.6 75.7,27.3 C75.3,28.7 74.6,29.9 74,31.1 C73.5,32 72.9,32.8 72.3,33.6 C71.6,34.6 70.6,35.4 69.8,36.3 C69.1,37 68.2,37.6 67.3,38.2 C66.4,38.8 65.4,39.3 64.4,39.7 C63.5,40.1 62.6,40.5 61.6,40.7 C60.7,40.9 59.7,41 58.9,41.2 C57.5,41.6 56,41.4 54.6,41.3 C54,41.3 53.3,41.2 52.6,40.9 C52.2,40.7 51.6,40.8 51.1,40.6 C50,40.2 49,40 47.9,39.5 C47.3,39.2 46.6,38.8 46,38.5 C45.2,38.1 44.5,37.5 43.8,37 C42.4,35.9 41.2,34.6 40.1,33.2 C39.3,32.2 38.7,31.1 38.1,30 C37.6,29 37.1,28 36.9,26.9 C36.7,26.1 36.6,25.2 36.2,24.5 L36.2,24.3 C36.3,22.9 35.7,21.5 36,20.1 C36.3,18.5 36.4,16.8 36.9,15.2 C37.2,14.1 37.7,13.1 38.1,12 C38.3,11.4 38.7,10.7 39.1,10.1 C40.1,8.6 41.1,7.1 42.5,6 C43.6,5.1 44.6,4.2 45.8,3.5 C46.6,3.1 47.3,2.6 48.2,2.2 C49.2,1.8 50.1,1.4 51.1,1.2 C51.9,1.1 52.8,0.8 53.6,0.6 C54.2,0.4 55,0.5 55.7,0.5 C56,0.5 56.2,0.5 56.5,0.5 L56.5,0.5 Z" id="Shape"></path>
                    <path d="M76.7,142.5 L63.6,142.5 C63.3,142.5 63,142.6 62.7,142.3 C62.6,142.2 62.4,142.2 62.2,142.3 C61.4,142.6 60.7,142.6 59.9,142.3 C59.8,142.2 59.6,142.3 59.5,142.3 C58.2,142.3 56.9,142 55.7,141.6 C54.4,141.2 53.2,140.6 52,140 C51.2,139.6 50.5,139.1 49.8,138.5 C49.3,138 48.7,137.7 48.2,137.2 C47,135.8 45.8,134.3 44.9,132.6 C44.3,131.5 44,130.2 43.4,129.1 C43.2,128.7 43.4,128.2 43.1,127.8 C43,127.7 43.2,127.5 43.3,127.4 C43.8,127.1 44.3,126.8 44.9,126.7 C45.6,126.6 46.1,126.2 46.8,126.1 C47.7,125.9 48.6,125.7 49.4,125.4 C50.1,125.2 50.8,125.4 51.5,125 L51.6,125 C52.4,125.1 53.2,124.8 54,124.7 C55.8,124.4 57.7,124.4 59.5,124.5 C60.5,124.6 61.6,124.5 62.6,124.9 L62.8,124.9 C63.7,124.7 64.5,125.1 65.4,125.2 C66.2,125.3 67,125.7 67.8,125.8 C68.7,126 69.5,126.3 70.4,126.6 C71.8,127.1 73.1,127.6 74.5,128.2 C75.4,128.6 76.4,129.1 77.2,129.6 C78.4,130.3 79.5,131 80.6,131.8 C81.5,132.5 82.4,133.3 83.3,133.9 C83.6,134.1 83.8,134.4 84.1,134.6 C85.1,135.6 86.1,136.5 87,137.5 C88,138.6 89,139.7 89.8,141 C89.9,141.2 90.1,141.3 90.2,141.4 C90.4,141.6 90.6,141.8 90.5,142.1 C90.4,142.4 90.1,142.3 89.9,142.3 C85.6,142.5 81.1,142.5 76.7,142.5 L76.7,142.5 Z" id="Shape"></path>
                </g>
                <g id="Group" transform="translate(23.000000, 26.000000)">
                    <circle id="Oval" fill="#1F97F3" cx="77.2" cy="77" r="76.8"></circle>
                    <path d="M105.8,64.2 L103.1,64.2 L103.1,50.2 C103.1,35 91.1,22.6 76.3,22.6 C61.5,22.6 49.6,35 49.6,50.2 L49.6,64.2 L48.6,64.2 C43.5,64.2 40.7,68.5 40.7,73.7 L40.7,115.3 C40.7,120.5 43.5,124.8 48.6,124.8 L105.8,124.8 C110.9,124.8 113.6,120.6 113.6,115.3 L113.6,73.7 C113.6,68.5 110.9,64.2 105.8,64.2 L105.8,64.2 Z M76.3,32.8 C85.6,32.8 93.2,40.6 93.2,50.2 L93.2,64.2 L59.4,64.2 L59.4,50.2 C59.5,40.7 67,32.8 76.3,32.8 L76.3,32.8 Z" id="Shape" fill="#FFFFFF"></path>
                </g>
            </g>
        </g>
    </g>
</svg>