<?xml version="1.0" encoding="utf-8"?>
<!-- Generator: Adobe Illustrator 21.0.0, SVG Export Plug-In . SVG Version: 6.00 Build 0)  -->
<svg version="1.1" id="Calque_1" xmlns="http://www.w3.org/2000/svg" xmlns:xlink="http://www.w3.org/1999/xlink" x="0px" y="0px"
	 viewBox="0 0 246 314.7" style="enable-background:new 0 0 246 314.7;" xml:space="preserve">
<g>
	<path d="M33.4,38.3c0-3.2,0-6.1,0-8.9c0-5.7,2.6-8.4,8.4-8.4c15.6,0,31.3,0,46.9,0c1.1,0,2.3,0,3.8,0c0-3.9,0-7.5,0-11.1
		c0-6,2.8-8.7,8.7-8.7c14.7,0,29.4,0,44.1,0c5.8,0,8.6,2.7,8.6,8.6c0,3.6,0,7.2,0,11.3c1.4,0,2.5,0,3.6,0c15.5,0,31.1,0,46.6,0
		c6.4,0,8.9,2.6,8.9,9.1c0,2.6,0,5.3,0,8.2c3.9,0,7.5,0,11.1,0c7.5,0,9.8,2.2,9.8,9.6c0,35.1,0,70.2,0,105.3c0,50.1,0,100.1,0,150.2
		c0,7.7-2.5,10.2-10.3,10.2c-67.2,0-134.5,0-201.7,0c-7.1,0-9.4-2.3-9.4-9.4c0-85.5,0-171.1,0-256.6c0-6.9,2.4-9.3,9.3-9.3
		C25.5,38.3,29.3,38.3,33.4,38.3z M26.6,52.6c0,82.3,0,164.4,0,246.5c64.3,0,128.4,0,192.5,0c0-82.3,0-164.4,0-246.5
		c-2.1,0-4,0-5.8,0c-0.1,0.4-0.2,0.5-0.2,0.7c0,4,0,8,0,12c0,6.7-2.7,9.4-9.4,9.4c-53.9,0-107.7,0-161.6,0c-6.6,0-9.1-2.6-9.1-9.2
		c0-4.3,0-8.5,0-12.9C30.7,52.6,28.7,52.6,26.6,52.6z M198.7,35.3c-50.5,0-100.7,0-150.9,0c0,8.3,0,16.5,0,24.6
		c50.4,0,100.6,0,150.9,0C198.7,51.7,198.7,43.6,198.7,35.3z M106.8,20.8c11,0,21.8,0,32.7,0c0-1.8,0-3.5,0-5.1c-11,0-21.9,0-32.7,0
		C106.8,17.5,106.8,19,106.8,20.8z"/>
	<path d="M108.3,203.5c6.8-8.3,13.4-16.3,20-24.3c10.9-13.3,21.7-26.6,32.6-39.8c5.4-6.5,13.9-7.3,19.8-2.2c5.7,4.9,6,13.3,0.8,19.7
		c-20.6,25-41.1,50.1-61.7,75.1c-5.5,6.7-15.2,7.3-21.1,0.9c-11.4-12.2-22.7-24.5-33.9-36.8c-5-5.5-4.6-14.1,0.6-18.9
		c5.4-5,13.8-4.8,19.1,0.7C92.4,186.3,100.2,194.8,108.3,203.5z"/>
</g>
</svg>
