<?xml version="1.0" encoding="utf-8"?>
<!-- Generator: Adobe Illustrator 21.0.0, SVG Export Plug-In . SVG Version: 6.00 Build 0)  -->
<svg version="1.1" id="Calque_1" xmlns="http://www.w3.org/2000/svg" xmlns:xlink="http://www.w3.org/1999/xlink" x="0px" y="0px"
	 viewBox="0 0 329.3 319.3" style="enable-background:new 0 0 329.3 319.3;" xml:space="preserve">
<g>
	<path d="M18.3,162.4c-1-0.5-1.7-0.9-2.4-1.2c-10.4-5.1-15.6-15.3-13.3-26.3c2.1-10.4,11.3-17.9,22.6-18.3c4-0.2,8.1-0.2,12.1,0
		c2.6,0.1,3.9-0.9,4.7-3.3c2.3-7.2,4.6-14.3,7.1-21.4c6.1-17,18.2-27.5,35.6-31.9c1.8-0.5,3.8-0.6,5.7-0.6c7.1-0.1,14.3-0.1,21.4,0
		c1.7,0,2.5-0.5,3.1-2.1c6.4-16.3,13-32.6,19.5-48.8c1.8-4.5,3.1-5.4,8.1-5.4c14.9,0,29.7,0,44.6,0c4.1,0,5.7,1,7.2,4.9
		c6.6,16.4,13.2,32.8,19.7,49.3c0.7,1.7,1.5,2.2,3.3,2.2c8.7,0,17.3-0.1,25.9,0.4c3.8,0.3,7.8,1.5,11.3,3.2
		c12.8,6.2,21.7,16.1,26.3,29.6c2.3,6.8,4.5,13.5,6.7,20.3c1.1,3.4,1.4,3.5,5.1,3.6c5.5,0.1,11.2-0.1,16.6,0.8
		c10.2,1.9,16.9,9.6,18.1,20c1.2,9.6-3.9,18.9-12.8,23.3c-1.1,0.5-2.1,1-3.4,1.7c0.7,0.7,1.3,1.4,1.9,2c9.7,9.5,14.5,21,14.5,34.6
		c0,14.8-0.1,29.5,0,44.3c0,6.5-2.5,11.6-7.7,15.2c-3,2-4,4.5-3.9,8c0.2,11.1,0.1,22.2,0.1,33.4c0,0.8,0,1.6,0,2.4
		c-0.5,8.1-4.7,12.3-12.9,12.4c-11,0.1-22.1,0.1-33.1,0c-7.3-0.1-11.9-4.6-12-11.9c-0.2-7.9-0.1-15.9-0.1-23.8c0-0.9,0-1.7,0-2.5
		c-62,4.7-123.8,4.7-185.9,0c0,0.7,0,1.6,0,2.4c0,7.6,0,15.2-0.1,22.9c-0.1,8.5-4.5,13-12.9,13c-10.7,0-21.4,0-32.2,0
		c-8.5,0-12.9-4.3-13-12.9c-0.1-11.6-0.1-23.2,0.1-34.8c0.1-3.8-0.9-6.4-4.1-8.6c-5.3-3.6-7.6-9-7.6-15.4c0-14.1,0.2-28.1,0-42.2
		c-0.1-14.3,4.5-26.6,14.8-36.7C17.3,163.7,17.7,163.1,18.3,162.4z M164.5,50.6c3.9,0,7.9,0,12,0c0,3,0,5.7,0,8.4
		c8.5,0,16.8,0,25.4,0c-0.3-1-0.6-1.7-0.9-2.4c-4.8-12.1-9.7-24.1-14.5-36.2c-2.2-5.5-2.2-5.5-8.1-5.5c-4.6,0-9.1,0-13.8,0
		c0,4.2,0,8.1,0,11.9c-3.9,0-7.9,0-12.1,0c0-4.2,0-8,0-11.9c-2.1,0-3.9,0.1-5.7,0c-1.6-0.2-2.3,0.5-2.9,2
		c-5.3,13.4-10.7,26.8-16,40.2c-0.3,0.6-0.4,1.3-0.7,2c12.5,0,24.8,0,37.3,0C164.5,56.1,164.5,53.4,164.5,50.6z M165.1,163.2
		c-38,0-75.9,0-113.9,0c-2.9,0-5.9,0.1-8.8,0.7c-16.8,3.2-28,15.9-28.6,33c-0.5,15-0.3,30-0.3,45c0,4.4,2.2,7.6,6.4,9.5
		c14.7,6.6,30.1,10.2,46,12.4c17.2,2.3,34.5,3.2,51.8,3.6c45.7,1.2,91.5,1.5,137.1-2.7c19.2-1.7,37.8-5.4,55.3-13.8
		c4.2-2,5.9-4.9,5.9-9.3c-0.1-13.8-0.1-27.6-0.1-41.5c0-5.8-0.8-11.4-3.3-16.7c-6.7-13.7-17.9-20.3-32.9-20.3
		C241.5,163.1,203.3,163.2,165.1,163.2z M41.9,151.2c82,0,163.8,0,245.8,0c-0.3-1.1-0.4-2.1-0.7-3.1c-5.6-16.9-11.3-33.9-17-50.8
		c-5.9-17.5-19.2-27.3-37.6-27.4c-45-0.1-89.9-0.1-134.9,0c-18.7,0.1-32,9.8-38,27.5c-5.7,16.8-11.2,33.7-16.8,50.5
		C42.3,149,42.2,150,41.9,151.2z M304,302.7c0-11.8,0-23.3,0-35c-0.8,0.1-1.6,0.2-2.2,0.3c-9.5,2-19.1,3.9-28.6,5.9
		c-3.1,0.7-3.6,1.3-3.6,4.5c0,7.5,0,15.1,0,22.6c0,0.5,0.1,1.1,0.2,1.6C281.1,302.7,292.4,302.7,304,302.7z M25.7,267.2
		c0,12.1,0,23.7,0,35.4c11.6,0,23,0,34.4,0c0-8.7,0-17.1,0-25.6c0-1.7-1.1-2.5-2.7-2.8c-4.9-0.9-9.8-1.8-14.7-2.9
		C37.1,270.1,31.5,268.6,25.7,267.2z M292.8,128.4c1.5,4.5,2.9,8.8,4.4,13.2c0.9,2.8,1.7,5.6,2.9,8.3c0.3,0.8,1.6,1.6,2.6,1.7
		c6.1,1,12.2-3.9,13.2-10.3c0.9-6.1-3.6-12.2-9.7-12.8C301.7,128.1,297.3,128.4,292.8,128.4z M36.9,128.4c-4.5,0-8.6-0.2-12.7,0.1
		c-6.4,0.5-11,6.2-10.4,12.5c0.6,6.4,6.5,11.4,12.8,10.7c1.1-0.1,2.7-1.1,3-2C32.2,142.6,34.5,135.6,36.9,128.4z"/>
	<path d="M304.2,209.9c0,12.9-10.5,23.3-23.4,23.3c-12.7,0-23-10.5-23.1-23.3c0-13,10.3-23.3,23.2-23.3
		C294,186.5,304.3,196.9,304.2,209.9z M281,221.4c6.5,0,11.7-5.2,11.6-11.6c-0.1-6.4-5.1-11.5-11.5-11.5c-6.4,0-11.5,5-11.6,11.4
		C269.4,216.1,274.5,221.3,281,221.4z"/>
	<path d="M71.8,210.4c-0.4,13-11.3,23.2-24.1,22.8c-12.8-0.5-22.7-11.3-22.3-24.5c0.4-12.6,11.3-22.6,24.2-22.1
		C62.2,187,72.2,197.8,71.8,210.4z M48.7,221.4c6.4,0,11.4-5.1,11.5-11.5c0-6.5-5.1-11.6-11.6-11.6c-6.4,0-11.4,5-11.4,11.5
		C37.1,216.3,42.1,221.4,48.7,221.4z"/>
	<path d="M118.1,234.6c1.7-4.4,3.3-8.6,4.8-12.7c3.6-9.6,7.3-19.1,10.9-28.7c0.5-1.3,1.1-1.9,2.5-1.8c2.9,0.1,5.9-0.1,8.8,0.1
		c0.8,0,2,0.7,2.2,1.4c5.2,13.5,10.4,27.1,15.5,40.6c0.1,0.2,0.1,0.5,0.1,1c-3.7,0-7.3,0-10.9,0c-0.4,0-0.9-0.5-1.2-0.8
		c-0.2-0.2-0.2-0.6-0.3-0.9c-2-5.6-2-5.6-7.9-5.6c-2.7,0-5.4,0.1-8.1,0c-1.4-0.1-2.1,0.4-2.6,1.8c-1.9,5.6-2,5.6-8,5.6
		C122.2,234.6,120.3,234.6,118.1,234.6z M145.6,218.4c-1.6-4.6-3.1-8.9-4.6-13.1c-0.2,0-0.3,0-0.5,0c-1.5,4.3-3,8.6-4.6,13.1
		C139.3,218.4,142.3,218.4,145.6,218.4z"/>
	<path d="M195.3,220.7c-3.1,4.3-6,8.4-9,12.4c-0.6,0.8-1.9,1.4-2.8,1.4c-3.8,0.2-7.6,0.1-11.8,0.1c0.7-1,1.1-1.7,1.6-2.4
		c4.5-6.2,9.1-12.5,13.7-18.6c1.1-1.5,1.3-2.5,0.1-4.1c-4-5.8-7.9-11.7-12.1-18.1c3.1,0,5.8,0.3,8.4-0.1c4.2-0.5,6.9,0.7,8.2,4.9
		c0.7,2.1,2,3.9,3.2,6.1c2.1-3.3,4-6.4,6.1-9.3c0.6-0.8,1.8-1.5,2.8-1.5c3.9-0.2,7.7-0.1,12.2-0.1c-4.9,6.9-9.5,13.4-14.2,20.1
		c5.2,7.5,10.5,15,16,23c-4.7,0-9,0-13.3-0.1c-0.5,0-1.1-0.8-1.4-1.4C200.5,229.2,198,225.1,195.3,220.7z"/>
	<path d="M111.1,191.6c0,3.2,0,6.1,0,9.3c-3,0-5.9,0-8.9,0c0,11.3,0,22.3,0,33.5c-3.8,0-7.5,0-11.4,0c0-11,0-22,0-33.4
		c-3.2,0-6.1,0-9.1,0c0-3.3,0-6.3,0-9.5C91.5,191.6,101.2,191.6,111.1,191.6z"/>
	<path d="M241.1,234.6c-3.7,0-7.3,0-11,0c0-14.3,0-28.5,0-42.9c3.6,0,7.2,0,11,0C241.1,205.9,241.1,220.1,241.1,234.6z"/>
	<path d="M164.6,50.7c-3.9,0-7.7,0-11.8,0c0-4,0-7.8,0-12c3.9,0,7.9,0,11.8,0C164.6,42.7,164.6,46.7,164.6,50.7z"/>
	<path d="M164.5,38.8c0-4,0-8,0-12c3.9,0,7.7,0,11.8,0c0,4,0,7.8,0,12C172.3,38.8,168.4,38.8,164.5,38.8z"/>
</g>
</svg>
