<?xml version="1.0" encoding="utf-8"?>
<!-- Generator: Adobe Illustrator 21.0.0, SVG Export Plug-In . SVG Version: 6.00 Build 0)  -->
<svg version="1.1" id="Calque_1" xmlns="http://www.w3.org/2000/svg" xmlns:xlink="http://www.w3.org/1999/xlink" x="0px" y="0px"
	 viewBox="0 0 287.3 288" style="enable-background:new 0 0 287.3 288;" xml:space="preserve">
<style type="text/css">
	.st0{fill:#428FCD;}
	.st1{fill:#FFFFFF;}
</style>
<g>
	<circle class="st0" cx="143.2" cy="144.2" r="133"/>
	<path class="st1" d="M256.2,146.3c-0.2-0.1-4.1-2.3-9.7-5.6c-0.3-0.2-0.5-0.4-0.8-0.5c-0.2-0.1-0.5-0.3-0.7-0.4
		c-2.4-1.4-5-2.9-7.7-4.5c-0.2-0.1-0.4-0.2-0.6-0.4c-0.2-0.1-0.3-0.2-0.5-0.3c-1.1-0.6-2.3-1.3-3.4-2c-0.3-0.2-0.6-0.4-0.9-0.6
		c-0.3-0.2-0.6-0.3-0.9-0.5c-6.6-3.8-13.5-7.8-19.4-11.2c-0.3-0.2-0.5-0.3-0.8-0.5c-0.2-0.1-0.5-0.3-0.7-0.4c-3.4-2-6.5-3.7-8.9-5.1
		c-0.3-0.2-0.6-0.4-0.8-0.5c-0.2-0.1-0.4-0.2-0.7-0.3c-2.7-1.6-4.4-2.5-4.5-2.6c0,0.6,0,0.9,0,1.3c0,8.5,0,17,0,25.5
		c0,0.2,0,0.4,0,0.5H86.3c-3.7-11.4-14.4-19.7-27.1-19.7c-15.7,0-28.5,12.8-28.5,28.5s12.8,28.5,28.5,28.5
		c12.6,0,23.3-8.2,27.1-19.6H195c0,0.1,0,0.2,0,0.4c0,8.6,0,17.1,0,25.7c0,0.4,0,0.7,0,1.1c0.5-0.2,1-0.4,1.3-0.6
		c0.7-0.4,1.4-0.9,2.1-1.3c0.4-0.3,0.8-0.6,1.2-0.8c0.7-0.4,1.4-0.7,2-1.1c0.4-0.2,0.8-0.4,1.1-0.6c0.7-0.4,1.4-0.9,2.1-1.3
		c0.4-0.2,0.8-0.5,1.2-0.7c0.7-0.4,1.3-0.8,2-1.1c0.4-0.2,0.8-0.4,1.2-0.6c0.7-0.4,1.3-0.8,2-1.3c0.5-0.3,0.9-0.5,1.4-0.8
		c0.7-0.4,1.5-0.7,2.2-1.1c0.8-0.4,1.5-0.9,2.3-1.3c0.2-0.1,0.4-0.3,0.6-0.4c0.9-0.5,1.8-1,2.7-1.6c0.3-0.2,0.7-0.3,1-0.5
		c0.5-0.3,0.9-0.6,1.4-0.9c0.8-0.5,1.7-1,2.5-1.4c0.6-0.3,1.1-0.6,1.7-0.9c0.7-0.4,1.5-0.9,2.2-1.3c0.4-0.2,0.8-0.4,1.1-0.6
		c0.3-0.2,0.6-0.4,1-0.6c1.2-0.7,2.3-1.3,3.4-2c0.4-0.2,0.8-0.4,1.2-0.6c0.7-0.4,1.5-0.9,2.2-1.3c0.4-0.2,0.7-0.4,1.1-0.6
		c0.3-0.2,0.5-0.3,0.8-0.5c0.6-0.3,1.1-0.6,1.7-1c0.3-0.1,0.5-0.2,0.8-0.4c0.2-0.1,0.4-0.3,0.6-0.4c1.5-0.8,2.8-1.6,4.1-2.4
		c0.3-0.1,0.6-0.3,0.9-0.5c0.5-0.3,0.9-0.6,1.4-0.8c1.4-0.8,2.7-1.6,3.7-2.1c0.2-0.1,0.3-0.2,0.5-0.3c0.8-0.5,1.6-0.9,2.4-1.4
		c0.3-0.2,0.6-0.4,1-0.7c0-0.1,0-0.4,0-0.5C256.8,146.7,256.5,146.5,256.2,146.3z"/>
</g>
</svg>
