<?xml version="1.0" encoding="UTF-8" standalone="no"?>
<!-- Created with Inkscape (http://www.inkscape.org/) -->

<svg
   xmlns:dc="http://purl.org/dc/elements/1.1/"
   xmlns:cc="http://creativecommons.org/ns#"
   xmlns:rdf="http://www.w3.org/1999/02/22-rdf-syntax-ns#"
   xmlns:svg="http://www.w3.org/2000/svg"
   xmlns="http://www.w3.org/2000/svg"
   xmlns:sodipodi="http://sodipodi.sourceforge.net/DTD/sodipodi-0.dtd"
   xmlns:inkscape="http://www.inkscape.org/namespaces/inkscape"
   width="79.047462mm"
   height="100.06189mm"
   viewBox="0 0 280.08943 354.55"
   id="svg3877"
   version="1.1"
   inkscape:version="0.91 r13725"
   sodipodi:docname="drawing.svg">
  <defs
     id="defs3879" />
  <sodipodi:namedview
     id="base"
     pagecolor="#ffffff"
     bordercolor="#666666"
     borderopacity="1.0"
     inkscape:pageopacity="0.0"
     inkscape:pageshadow="2"
     inkscape:zoom="0.35"
     inkscape:cx="123.61615"
     inkscape:cy="131.56072"
     inkscape:document-units="px"
     inkscape:current-layer="layer1"
     showgrid="false"
     inkscape:window-width="1535"
     inkscape:window-height="876"
     inkscape:window-x="1665"
     inkscape:window-y="24"
     inkscape:window-maximized="1"
     fit-margin-top="0"
     fit-margin-left="0"
     fit-margin-right="0"
     fit-margin-bottom="0" />
  <metadata
     id="metadata3882">
    <rdf:RDF>
      <cc:Work
         rdf:about="">
        <dc:format>image/svg+xml</dc:format>
        <dc:type
           rdf:resource="http://purl.org/dc/dcmitype/StillImage" />
        <dc:title></dc:title>
      </cc:Work>
    </rdf:RDF>
  </metadata>
  <g
     inkscape:label="Layer 1"
     inkscape:groupmode="layer"
     id="layer1"
     style="display:inline"
     transform="translate(-251.38385,-309.37292)">
    <path
       inkscape:connector-curvature="0"
       d="m 391.28385,663.92292 c -2.2,0 -4.4,-0.7 -6.6,-2 -7.9,-4.8 -15.9,-9.6 -23.7,-14.2 -13.3,-7.9 -27,-16.1 -40.4,-24.6 -39.2,-24.7 -62.8,-59 -68.2,-99.1 -0.8,-6.2 -0.9,-12.3 -0.9,-18.6 0,-22 0,-42.2 0,-62.1 0,-26.6 0,-52.7 -0.1,-81.9 0,-6.2 3,-10.2 8.8,-12.1 20.2,-6.5 41.9,-13.1 62.9,-19.5 21.2,-6.5 43.1,-13.1 63.4,-19.7 3,-1 6.6,-1 9.6,0 20.3,6.5 42.1,13.2 63.2,19.6 21.1,6.5 43,13.1 63.4,19.7 5.7,1.8 8.7,6 8.7,11.9 -0.1,21.4 -0.1,37.4 -0.1,56 l 0,17.6 c 0,7.7 0,15.4 0.1,23.1 0.1,16.9 0.2,34.4 -0.2,51.6 -1,41.6 -21.8,78.7 -60.2,107.3 -7.1,5.3 -14.6,9.8 -21.9,14.1 -2.3,1.4 -4.6,2.7 -6.9,4.1 -7.7,4.7 -15.5,9.4 -23.1,13.9 -7,4.2 -14.1,8.5 -21.1,12.7 -2.2,1.6 -4.4,2.2 -6.7,2.2 z m -124.4,-300.4 c 0.1,28.4 0.1,53.9 0.1,79.9 0,20 0,40.2 0,62.1 0,5.7 0.1,11.3 0.8,16.5 4.8,35.4 26,65.9 61.2,88.1 13.2,8.3 26.8,16.5 40.1,24.4 7.3,4.4 14.9,8.9 22.3,13.4 6.6,-4 13.2,-8 19.8,-12 7.5,-4.5 15.3,-9.2 23,-13.9 2.3,-1.4 4.7,-2.8 7,-4.2 7.3,-4.3 14.2,-8.4 20.6,-13.2 34.4,-25.7 53.1,-58.6 54,-95.2 0.4,-17 0.3,-34.4 0.2,-51.2 0,-5.1 -0.1,-10.3 -0.1,-15.4 l 0,0 0,-25.4 c 0,-17.9 0,-33.5 0.1,-53.8 -19.6,-6.3 -40.7,-12.7 -61,-18.9 -21.1,-6.4 -43,-13.1 -63.3,-19.6 -0.1,0 -0.2,0 -0.2,0 -20.4,6.6 -42.3,13.3 -63.6,19.7 -20.5,6.1 -41.4,12.5 -61,18.7 z m 124.6,-38.5 0,0 0,0 z m 71.3,231.7 -142.2,0 0.1,-7.8 c 0.2,-22.1 9,-40.8 25.4,-54 8.3,-6.7 17,-11.4 25.9,-14.1 -15.1,-7.4 -24.5,-23.1 -25.2,-38 -0.6,-12.3 3.3,-23.2 11.3,-31.6 9.6,-10.2 23.5,-14.8 33,-14.8 0.1,0 0.1,0 0.2,0 26.2,0 43.6,21.9 44.6,42.3 0.6,11.8 -4,23.8 -12.6,32.9 -3.8,4 -8.3,7.2 -13.1,9.5 4,1.2 8.1,2.8 12.1,4.8 24.8,12 38.2,33.1 40,62.8 l 0.5,8 z m -126.1,-15.5 109.3,0 c -3.1,-19.5 -13.1,-33.1 -30.4,-41.5 -21.1,-10.2 -41.2,-7.8 -59.8,7.2 -10.9,8.9 -17.3,20.4 -19.1,34.3 z m 54.6,-129.4 c 0,0 -0.1,0 -0.1,0 -5,0 -14.9,2.7 -21.8,10 -5.1,5.3 -7.4,12.1 -7.1,20.2 0.6,11.6 10.9,27.7 29,27.7 0.1,0 0.1,0 0.2,0 l 0.1,0 c 0,0 0.1,0 0.1,0 7.7,0 14.9,-3.2 20.4,-8.9 5.6,-5.9 8.8,-13.9 8.4,-21.4 -0.7,-11.6 -11.1,-27.6 -29.2,-27.6 z"
       id="path3748" />
  </g>
</svg>
