<?xml version="1.0" encoding="UTF-8"?>
<svg width="280px" height="284px" viewBox="0 0 280 284" version="1.1" xmlns="http://www.w3.org/2000/svg" xmlns:xlink="http://www.w3.org/1999/xlink">
    <!-- Generator: Sketch 40.3 (33839) - http://www.bohemiancoding.com/sketch -->
    <title>Group 2</title>
    <desc>Created with Sketch.</desc>
    <defs></defs>
    <g id="Page-1" stroke="none" stroke-width="1" fill-rule="evenodd">
        <g id="ICON_VECTOR" transform="translate(-945.000000, -1853.000000)" fill="#000000">
            <g id="Group-2" transform="translate(945.000000, 1852.000000)">
                <path d="M22.0245066,262.539409 L22.0245066,70.9605911 L117.139556,70.9605911 C117.139556,70.9605911 132.652714,55.0924466 138.857977,48.9 L131.295313,48.9 L19.7944901,48.9 C18.921875,48.9 18.1462171,48.9 17.3705592,48.996757 L0.5,48.996757 L0.5,61.9621921 L0.5,81.6038588 L0.5,251.896141 L0.5,271.537808 L0.5,284.503243 L12.1348684,284.503243 C12.6196546,284.6 13.1044408,284.6 13.4922697,284.6 L223.210773,284.6 C223.695559,284.6 224.180345,284.6 224.568174,284.503243 L236.009128,284.503243 L236.009128,267.280501 C236.203043,265.538875 236.3,263.603736 236.3,261.571839 L236.3,163.750534 L236.3,146.237521 C227.379934,155.139163 222.62903,160.267282 213.708964,169.168924 L213.999836,262.539409 L22.0245066,262.539409 Z" id="Shape"></path>
                <path d="M280,51.9 C279.5,47.8 279.5,43.4 278.3,39.4 C272.6,21.6 259.1,7.7 240.8,2.7 C237.2,1.8 232.2,0.8 228.4,1 C225.3,1.1 221.7,2.5 218.9,5.3 C195.9,28.7 163,62.5 139.6,87 L199.2,87 L199.2,139.9 C219.6,118.7 246.9,90.3 275.3,61.6 C278.1,58.8 279.1,55.5 280,51.9 L280,51.9 Z" id="Shape"></path>
                <path d="M139.6,87 C122.9,104.4 110.9,117.2 110.6,118.1 C109.2,122.2 107,130.7 104.5,140.5 C102.3,149.3 99.9,159.2 97.8,168 C94.6,181.3 92.1,192 92.1,192 C92.1,192 150.9,179.3 164.9,174.5 C166.3,174.1 179.5,160.5 199.2,140 L199.2,87 L139.6,87 L139.6,87 Z M155.1,163.5 C151.5,164.7 145.4,166.1 138.6,167.5 C129.1,169.5 118.1,171.5 110.5,173.4 C112.3,167.9 114.7,155.8 117,145.1 C118.5,138.4 119.9,132.2 121.2,128.6 C125.1,127.4 128.8,127.2 131.7,128.5 C142.4,132.5 149.8,140.1 154.2,150.5 C155.4,153.1 156.8,163.3 155.1,163.5 L155.1,163.5 Z" id="Shape"></path>
            </g>
        </g>
    </g>
</svg>