<?xml version="1.0" encoding="utf-8"?>
<!-- Generator: Adobe Illustrator 21.0.0, SVG Export Plug-In . SVG Version: 6.00 Build 0)  -->
<svg version="1.1" id="Calque_1" xmlns="http://www.w3.org/2000/svg" xmlns:xlink="http://www.w3.org/1999/xlink" x="0px" y="0px"
	 viewBox="0 0 374 315.3" style="enable-background:new 0 0 374 315.3;" xml:space="preserve">
<g>
	<path d="M291.3,266c-34.8,3.9-69.3,4.5-103.9,4.5c-34.4,0-68.9-0.6-103.6-4.5c0,3.9,0,7.6,0,11.2c0,7.2,0.1,14.4,0,21.6
		c-0.1,8-5.5,14.2-12.6,14.3c-13.3,0.2-26.5,0.2-39.8,0C24.2,313,19,306.6,19,298c-0.1-15.4-0.1-30.9,0-46.3c0-2.7-0.7-4.3-2.8-5.8
		C9.3,240.8,5.8,234,6,224.5c0.3-16.2,0.1-32.4,0.1-48.6c0-22,4-32.8,18.2-48.8c-0.8-0.5-1.6-0.9-2.3-1.3
		c-11.6-5.6-17.8-18.5-15.4-31.9c2.3-13,12.7-22.5,25.1-22.9c4.8-0.1,9.7-0.2,14.5,0c2.3,0.1,3.4-0.7,4.1-3.2
		c2.5-8.9,5.2-17.8,8.1-26.6c7-21.3,20.7-34.4,40.7-39.7c1.4-0.4,3-0.5,4.4-0.5c56,0,112-0.2,168,0.1c11.7,0.1,21.6,6.5,30.3,14.9
		c7.7,7.5,12.6,17,15.7,27.7c2.4,8.2,5,16.3,7.4,24.5c0.6,2.2,1.6,2.9,3.6,2.9c5.8-0.1,11.6-0.4,17.3,0.3
		c12.1,1.4,21.3,11.4,22.9,23.7c1.7,13.6-4.3,25.4-15.9,30.9c-0.6,0.3-1.2,0.6-2.1,1.1c0.6,0.7,1,1.3,1.5,1.7
		c11,11.3,16.7,25.3,16.8,41.8c0.1,18.7,0,37.5,0.1,56.2c0,8.5-3.9,14.4-9.9,18.8c-2.4,1.8-3.1,3.7-3.1,6.8
		c0.1,14.8,0.1,29.6,0.1,44.4c0,10.7-5.2,16.3-15,16.3c-12,0-24,0-36,0c-8.6,0-13.9-5.9-14-15.4c0-9.2,0-18.5,0-27.7
		C291.3,268.8,291.3,267.5,291.3,266z M187.6,128c-42.7,0-85.5,0-128.2,0C35.9,128,19,146.5,19,172.3c0,16.8,0.3,33.7-0.2,50.5
		c-0.2,6.7,2.2,10.9,7.3,13.1c8,3.5,16,7.3,24.3,9.5c27.1,7.3,54.9,9,82.6,9.9c45,1.5,90.1,1.7,135.1-1.4c20-1.4,40-3.3,59.4-9.2
		c8.1-2.5,15.9-6.4,23.7-10.2c3.5-1.7,5.2-5.1,5.1-9.8c-0.2-17.3,0-34.7-0.1-52c0-3.6-0.3-7.4-1-10.9c-4.1-20.2-19.5-33.7-38.7-33.7
		C273.5,127.9,230.5,128,187.6,128z M324.8,113.6c-0.2-1.1-0.3-1.9-0.5-2.6c-6.6-21.6-13-43.2-19.7-64.7C298.3,26.1,282.5,14,263,14
		c-50.1,0-100.3,0-150.4,0c-20.2,0-35.9,12.2-42.4,33.3c-6.5,20.9-12.7,42-19.1,63c-0.3,1-0.5,2.1-0.7,3.4
		C141.9,113.6,233.2,113.6,324.8,113.6z M343,298.7c0-14.9,0-29.3,0-43.1c-12.3,2.7-24.5,5.4-36.7,8.3c-0.8,0.2-1.8,2-1.8,3.1
		c-0.2,8.2-0.1,16.4-0.1,24.6c0,2.3,0,4.7,0,7.1C317.5,298.7,330.1,298.7,343,298.7z M70.8,298.7c0-11.1,0-21.7-0.1-32.3
		c0-0.9-1.2-2.3-2-2.5c-4.7-1.1-9.5-1.7-14.2-2.9c-7.5-1.8-14.9-4-22.3-6c0,14.5,0,28.9,0,43.6C45.1,298.7,57.8,298.7,70.8,298.7z
		 M45,85.3c-4.7,0-8.7-0.1-12.7,0c-7.9,0.1-14,7.3-13.2,15.5c0.9,8.5,8.1,14.5,15.8,12.9c0.7-0.1,1.7-1,1.9-1.7
		C39.5,103.3,42.2,94.6,45,85.3z M330.2,85.3c2.8,9.3,5.4,18,8.2,26.7c0.2,0.7,1,1.4,1.6,1.6c7.1,2,14.7-3.8,16-12.2
		c1.2-7.8-4.4-15.6-11.8-16.1C339.8,85.1,335.3,85.3,330.2,85.3z"/>
	<path d="M187.7,184.9c-22.9,0-45.8,0-68.7,0c-1.2,0-2.3,0.1-3.5-0.1c-3.2-0.4-5.5-3.1-5.6-6.6c-0.2-3.7,1.9-6.7,5.3-7.3
		c1.3-0.2,2.8-0.2,4.1-0.2c45.5,0,91,0,136.5,0c1.3,0,2.5-0.1,3.8,0.1c3.6,0.5,5.9,3.4,5.8,7.2c-0.1,3.8-2.5,6.6-6.1,6.8
		c-1,0.1-2.1,0-3.1,0C233.3,184.9,210.5,184.9,187.7,184.9z"/>
	<path d="M188,199.2c19,0,38,0,57,0c5.5,0,9.1,4.7,6.8,9.5c-0.9,2-3.4,3.3-5.4,4.6c-0.9,0.6-2.3,0.2-3.4,0.2c-37,0-73.9,0-110.9,0
		c-0.8,0-1.6,0-2.4,0c-4.1-0.2-7-3.3-6.9-7.3c0.1-4.1,2.9-7,7.2-7C149.3,199.2,168.6,199.2,188,199.2z"/>
	<path d="M32,184.7c0.1-15.7,11.7-28.2,26.1-28.2c14.3,0.1,25.8,12.9,25.7,28.7c-0.1,15.6-12,28.4-26.2,28.3
		C43.4,213.4,31.9,200.5,32,184.7z M70.8,185c0-7.9-5.7-14.2-12.9-14.2c-7.2,0-12.9,6.3-12.8,14.2c0,7.9,5.7,14.2,12.9,14.2
		C65.1,199.2,70.8,192.9,70.8,185z"/>
	<path d="M317.2,156.6c14.4,0,25.9,12.6,25.9,28.4c0,15.7-11.7,28.5-25.9,28.5c-14.2,0-25.9-12.9-25.9-28.5
		C291.3,169.2,302.8,156.6,317.2,156.6z M330.1,185.1c0.1-8-5.5-14.3-12.8-14.3c-7.2-0.1-13,6.1-13,14.1c0,8,5.6,14.3,12.8,14.4
		C324.3,199.3,330.1,193,330.1,185.1z"/>
</g>
</svg>
