<?xml version="1.0" encoding="utf-8"?>
<!-- Generator: Adobe Illustrator 21.0.0, SVG Export Plug-In . SVG Version: 6.00 Build 0)  -->
<svg version="1.1" id="Calque_1" xmlns="http://www.w3.org/2000/svg" xmlns:xlink="http://www.w3.org/1999/xlink" x="0px" y="0px"
	 viewBox="0 0 392.7 262.7" style="enable-background:new 0 0 392.7 262.7;" xml:space="preserve">
<style type="text/css">
	.st0{fill:#020203;}
</style>
<g>
	<g>
		<path class="st0" d="M379.7,27.7c-6.2-3.9-14.4-3.8-22.4,0.1l-67.1,36.3l-7.2,3.5V36.1c0-18.4-14.9-33.3-33.3-33.3H36.8
			C18.4,2.7,3.5,17.6,3.5,36.1v190.4c0,18.4,14.9,33.3,33.3,33.3h212.8c18.4,0,33.3-14.9,33.3-33.3v-31.6l0.3,0.2l10.6,5.2
			l63.4,34.5c8,3.9,16.1,4,22.4,0.1c6.2-3.9,9.8-11.2,9.8-20.1V47.8C389.5,38.9,385.9,31.6,379.7,27.7z M268.2,226.4
			c0,1.9-0.3,3.8-0.8,5.5c-2.4,7.5-9.4,13-17.7,13H36.8c-10.3,0-18.6-8.3-18.6-18.6V36.1c0-10.3,8.3-18.6,18.6-18.6h212.8
			c10.3,0,18.6,8.3,18.6,18.6v55.3l0.1-0.1v79.9l-0.1-0.1v0V226.4z M371.9,222.3c-1.8,1.1-4.8,0.8-8.1-0.8L300.4,187l-10.6-5.2
			l-6.9-3.4v0V84.1l13.8-6.8L363.8,41c3.3-1.6,6.3-1.9,8.1-0.8c1.8,1.2,2.9,3.9,2.9,7.6v166.8c0,1.8-0.3,3.5-0.7,4.8
			C373.5,220.7,372.8,221.7,371.9,222.3z"/>
		<path class="st0" d="M249.6,261.3H36.8C17.6,261.3,2,245.6,2,226.4V36.1C2,16.9,17.6,1.2,36.8,1.2h212.8
			c19.2,0,34.8,15.7,34.8,34.8v29.1l5-2.5l67-36.3c8.5-4.2,17.2-4.2,23.9,0v0c6.7,4.2,10.5,12,10.5,21.4v166.9
			c0,9.4-3.8,17.2-10.5,21.4c-6.7,4.2-15.4,4.2-23.8,0l-63.5-34.5l-8.7-4.3v29.2C284.5,245.6,268.8,261.3,249.6,261.3z M36.8,4.2
			C19.3,4.2,5,18.5,5,36.1v190.4c0,17.5,14.3,31.8,31.8,31.8h212.8c17.5,0,31.8-14.3,31.8-31.8v-34l13.1,6.4l63.5,34.5
			c7.5,3.7,15.1,3.7,20.9,0.1c5.8-3.6,9.1-10.5,9.1-18.9V47.8c0-8.4-3.3-15.2-9.1-18.8v0c-5.8-3.6-13.4-3.5-20.9,0.2l-67,36.3
			l-9.4,4.6v-34c0-17.5-14.3-31.8-31.8-31.8H36.8z M249.6,246.5H36.8c-11.1,0-20.1-9-20.1-20.1V36.1c0-11.1,9-20.1,20.1-20.1h212.8
			c11.1,0,20.1,9,20.1,20.1V89l0.1-0.1v84.7l-0.1-0.1v52.9c0,2-0.3,4.1-0.9,6C266.2,240.8,258.5,246.5,249.6,246.5z M36.8,19
			c-9.4,0-17.1,7.7-17.1,17.1v190.4c0,9.4,7.7,17.1,17.1,17.1h212.8c7.5,0,14.1-4.8,16.3-12c0.5-1.6,0.8-3.4,0.8-5.1v-57.7l0.1,0
			V93.7l-0.1,0.1V36.1c0-9.4-7.7-17.1-17.1-17.1H36.8z M369.2,224.4c-1.8,0-3.8-0.5-6-1.6l-63.5-34.5l-18.2-9V83.2L296,76l67-36.3
			c3.9-1.9,7.3-2.2,9.6-0.7c2.3,1.5,3.5,4.6,3.5,8.8v166.8c0,2-0.3,3.8-0.8,5.3c-0.6,1.6-1.5,2.8-2.7,3.6h0
			C371.7,224.1,370.5,224.4,369.2,224.4z M284.4,177.4l16.6,8.2l63.5,34.5c2.7,1.3,5.2,1.6,6.6,0.8c0.6-0.4,1.1-1.1,1.5-2.1
			c0.4-1.1,0.6-2.6,0.6-4.2V47.9c0-3.1-0.8-5.5-2.2-6.3c-1.3-0.8-3.8-0.5-6.6,0.8l-67,36.3l-13,6.4V177.4z"/>
	</g>
	<g>
		<path class="st0" d="M194.3,123.6l-81.6-47.2c-4.7-2.8-10.3,0.6-10.3,6.1v93.9c0,5.6,5.6,8.9,10.3,6.1l81.6-46.9
			C198.2,133.1,198.2,126.4,194.3,123.6z"/>
		<path class="st0" d="M109.1,185c-1.4,0-2.8-0.4-4-1.1c-2.7-1.5-4.2-4.4-4.2-7.6V82.5c0-3.2,1.6-6.1,4.2-7.6
			c2.6-1.5,5.7-1.4,8.3,0.1l81.7,47.3c2.3,1.6,3.6,4.5,3.6,7.6c-0.1,2.9-1.4,5.5-3.6,6.9l-81.6,47C112.1,184.6,110.6,185,109.1,185z
			 M109.1,76.9c-0.9,0-1.7,0.2-2.5,0.7c-1.7,1-2.7,2.8-2.7,5v93.9c0,2.1,1,4,2.7,5c1.7,0.9,3.6,0.9,5.3-0.1l81.6-46.9
			c1.3-0.8,2.1-2.5,2.2-4.4c0-2-0.8-4-2.2-5L112,77.7C111,77.1,110.1,76.9,109.1,76.9z"/>
	</g>
</g>
</svg>
