<?xml version="1.0" encoding="utf-8"?>
<!-- Generator: Adobe Illustrator 21.0.0, SVG Export Plug-In . SVG Version: 6.00 Build 0)  -->
<svg version="1.1" id="Calque_1" xmlns="http://www.w3.org/2000/svg" xmlns:xlink="http://www.w3.org/1999/xlink" x="0px" y="0px"
	 viewBox="0 0 346.7 346.7" style="enable-background:new 0 0 346.7 346.7;" xml:space="preserve">
<path d="M342.7,330.4c-10.6-10.6-21.1-21.1-31.7-31.7l-51.4-51.4l0.3-0.4c52.9-62.1,49-150.4-9.2-205.3
	C223.3,15.7,187.5,1.5,150,1.5c-0.1,0-0.2,0-0.3,0C112.8,1.5,77.6,15.2,50.4,40c-28.8,26.2-45.8,61.9-48,100.6
	C0.1,179.3,13,216.7,38.5,246.1c24.6,28.3,60.6,46.4,98.6,49.6c40.2,3.4,79.8-9.7,111.3-37l0.4-0.4l0.3,0.4c0.2,0.3,0.4,0.6,0.7,0.9
	c0.4,0.7,0.9,1.3,1.5,1.9c22.1,22.1,44.2,44.3,66.3,66.4l11.3,11.3c3.8,3.8,5.7,5.5,7.4,5.4c1.7-0.1,3.5-2,6.9-6.2
	C346.1,334.9,346,333.7,342.7,330.4z M249.6,232.6c-23.8,29.8-60.2,46.9-100,46.9c-0.1,0-0.2,0-0.4,0c-39.8-0.1-76.1-17.2-99.5-46.9
	l-0.6-0.8h201.2L249.6,232.6z M73.3,215v-91.8h26.2V215H73.3z M136.4,215.1v-44.8h26.1v44.8H136.4z M199.9,215.1V82.7h26.2v132.4
	H199.9z M247.8,215.2c-1.5,0-3.1,0-4.7,0h-0.5l0-42.1c0-29.1,0-58.1,0-87.2c0-13.2-7-20.1-20.2-20.1l-5.1,0c-5.2,0-10.5,0-15.7,0
	c-11.8,0-19.1,7.4-19.1,19.2c0,13.5,0,27.1,0,40.6c0,28.2,0,56.4-0.1,84.6c0,1-0.4,2-0.8,3c-0.2,0.4-0.4,0.9-0.5,1.3l-0.5,1.6
	l-0.4-1.6c-0.1-0.4-0.3-0.8-0.4-1.2c-0.3-0.9-0.7-1.9-0.7-2.9c-0.1-8.6-0.1-17.3,0-25.8c0-4,0-8,0-12.1c0-11.5-7.4-19-18.9-19
	c-8,0-15.4,0-22.4,0c-11.3,0-18.6,7.3-18.7,18.5c0,8.8,0,17.7,0,26.5c0,4.2,0,8.4,0,12.7c0,0.2,0,0.4,0,0.6c0,0.6,0.1,1.2-0.1,1.8
	c-0.2,0.7-1,1.4-1.7,1.4c-0.7,0-1.5-0.9-1.6-1.6c-0.2-0.7-0.1-1.4-0.1-2c0-0.2,0-0.5,0-0.7v-29.2c0-18.5,0-37,0-55.5
	c0-12.6-7-19.6-19.7-19.6l-3,0c-6,0-12.3,0-18.4,0c-11.7,0.1-18.9,7.4-18.9,19c0,19.8,0,39.7,0,59.5l0,29.9h-0.5c-1.4,0-2.8,0-4.2,0
	c-4.3,0-8.4,0-12.6-0.1c-1,0-2.1-1.2-2.5-2c-12.9-22.9-18.4-48.2-16.3-74.9c2-25.6,10.8-48.5,26.1-68C73.7,34,110.8,16.7,155.7,18.5
	c34.7,1.4,64.6,15.1,88.8,41c26,27.8,37.8,61.5,34.9,100.3c-1.3,17.9-6.6,35.5-15.6,52.4c-1.3,2.4-2.8,3.3-5.4,3.2
	C255,215.2,251.5,215.2,247.8,215.2z"/>
</svg>
