<?xml version="1.0" encoding="UTF-8" standalone="no"?>
<!-- Created with Inkscape (http://www.inkscape.org/) -->

<svg
   xmlns:dc="http://purl.org/dc/elements/1.1/"
   xmlns:cc="http://creativecommons.org/ns#"
   xmlns:rdf="http://www.w3.org/1999/02/22-rdf-syntax-ns#"
   xmlns:svg="http://www.w3.org/2000/svg"
   xmlns="http://www.w3.org/2000/svg"
   xmlns:sodipodi="http://sodipodi.sourceforge.net/DTD/sodipodi-0.dtd"
   xmlns:inkscape="http://www.inkscape.org/namespaces/inkscape"
   width="97.102005mm"
   height="97.152908mm"
   viewBox="0 0 344.06222 344.24259"
   id="svg3986"
   version="1.1"
   inkscape:version="0.91 r13725"
   sodipodi:docname="viedusite.svg">
  <defs
     id="defs3988" />
  <sodipodi:namedview
     id="base"
     pagecolor="#ffffff"
     bordercolor="#666666"
     borderopacity="1.0"
     inkscape:pageopacity="0.0"
     inkscape:pageshadow="2"
     inkscape:zoom="0.35"
     inkscape:cx="827.03111"
     inkscape:cy="-610.73584"
     inkscape:document-units="px"
     inkscape:current-layer="layer1"
     showgrid="false"
     fit-margin-top="0"
     fit-margin-left="0"
     fit-margin-right="0"
     fit-margin-bottom="0"
     inkscape:window-width="1535"
     inkscape:window-height="876"
     inkscape:window-x="1665"
     inkscape:window-y="24"
     inkscape:window-maximized="1" />
  <metadata
     id="metadata3991">
    <rdf:RDF>
      <cc:Work
         rdf:about="">
        <dc:format>image/svg+xml</dc:format>
        <dc:type
           rdf:resource="http://purl.org/dc/dcmitype/StillImage" />
        <dc:title></dc:title>
      </cc:Work>
    </rdf:RDF>
  </metadata>
  <g
     inkscape:label="Layer 1"
     inkscape:groupmode="layer"
     id="layer1"
     transform="translate(452.03111,422.61624)">
    <path
       inkscape:connector-curvature="0"
       d="m -193.46,-176.24092 c 17.1,17.1 34.1,34.1 51.1,51 10.6,10.6 21.1,21.1 31.7,31.700003 3.5,3.5 3.5,5.1 0.5,8.8 -6.8,8.3 -7.5,8.4 -15,0.8 -25.9,-25.900003 -51.8,-51.800003 -77.6,-77.700003 -0.9,-0.9 -1.5,-2 -2.2,-2.9 -67.3,58 -160.4,45.1 -210.6,-12.7 -52.9,-60.8 -47.7,-152.3 12,-206.7 55.6,-50.7 143.1,-53 201,1.7 58.2,55.1 62,143.9 9.1,206 z m -205.3,-32.8 c 0,-1.9 0,-3.2 0,-4.6 0,-28.1 0,-56.2 0,-84.4 0,-11.9 7.5,-19.5 19.4,-19.5 7.1,0 14.3,0 21.4,0 12.9,0 20.2,7.3 20.2,20.1 0,28.2 0,56.5 0,84.7 0,0.9 -0.1,1.8 0.1,2.7 0.1,0.5 0.7,1.2 1.1,1.2 0.4,0 1.1,-0.6 1.2,-1.1 0.2,-0.7 0.1,-1.5 0.1,-2.3 0,-13.1 0,-26.1 0,-39.2 0,-11.5 7.6,-19 19.2,-19 7.5,0 15,0 22.4,0 11.8,0 19.4,7.7 19.4,19.5 0,12.6 0,25.2 0.1,37.8 0,1.3 0.7,2.7 1,4 0.4,-1.4 1.3,-2.8 1.3,-4.1 0.1,-41.7 0,-83.5 0.1,-125.2 0,-12.2 7.5,-19.7 19.6,-19.7 6.9,0 13.8,0 20.8,0 13.4,0 20.7,7.3 20.7,20.6 0,41.5 0,83 0,124.5 0,1.3 0,2.6 0,4.2 5.4,0 10.4,-0.1 15.4,0.1 2.5,0.1 3.8,-0.8 4.9,-2.9 8.7,-16.3 14.1,-33.6 15.5,-52.2 2.8,-38.3 -8.5,-71.9 -34.8,-99.9 -23.8,-25.4 -53.4,-39.5 -88.5,-40.8 -45.2,-1.8 -81.9,15.8 -109.7,51.2 -15.5,19.8 -24,42.6 -26,67.7 -2.1,26.5 3.2,51.4 16.3,74.6 0.4,0.8 1.4,1.7 2.1,1.7 5.4,0.3 10.9,0.3 16.7,0.3 z m 194.1,17.8 c -66.5,0 -132.7,0 -199.1,0 48.9,62 149.2,62.7 199.1,0 z m -23.6,-17.6 c 0,-44 0,-87.7 0,-131.4 -8.5,0 -16.8,0 -25.2,0 0,43.9 0,87.6 0,131.4 8.6,0 16.8,0 25.2,0 z m -151.7,-90.9 c 0,30.4 0,60.6 0,90.8 8.5,0 16.9,0 25.2,0 0,-30.4 0,-60.5 0,-90.8 -8.5,0 -16.7,0 -25.2,0 z m 88.2,90.8 c 0,-14.8 0,-29.3 0,-43.8 -8.5,0 -16.8,0 -25.1,0 0,14.8 0,29.3 0,43.8 8.5,0 16.7,0 25.1,0 z"
       id="path3762" />
  </g>
</svg>
