<?xml version="1.0" encoding="utf-8"?>
<!-- Generator: Adobe Illustrator 21.0.0, SVG Export Plug-In . SVG Version: 6.00 Build 0)  -->
<svg version="1.1" id="Calque_1" xmlns="http://www.w3.org/2000/svg" xmlns:xlink="http://www.w3.org/1999/xlink" x="0px" y="0px"
	 viewBox="0 0 374 372" style="enable-background:new 0 0 374 372;" xml:space="preserve">
<g>
	<path d="M149,96.8c0-32.3,0-64,0-95.9c25.3,0,50.4,0,75.9,0c0,31.8,0,63.6,0,95.9c1.5,0,2.7,0,3.9,0c36.7,0,73.4,0.3,110.1-0.1
		c19-0.2,33.3,15.7,33.2,33.2c-0.4,69.1-0.2,138.2-0.2,207.3c0,18.6-14.1,32.7-32.6,32.7c-101.3,0-202.6,0-303.9,0
		c-18.6,0-32.6-14.1-32.6-32.7c0-69,0.3-138-0.2-207c-0.1-18,15.3-33.8,33.7-33.5c36.2,0.5,72.4,0.1,108.6,0.1
		C146.1,96.8,147.3,96.8,149,96.8z M148.7,112.3c-1-0.1-1.5-0.1-2.1-0.1c-37.6,0-75.3,0-112.9,0c-10,0-15.6,5.8-15.6,15.8
		c0,70.2,0,140.5,0,210.7c0,10,5.6,15.7,15.6,15.8c102.4,0,204.8,0,307.3,0c9.8,0,15.5-5.8,15.5-15.6c0-70.4,0-140.9,0-211.3
		c0-9.9-5.3-15.3-15.2-15.4c-37.6-0.1-75.3,0-112.9-0.1c-2,0-2.7,0.6-2.7,2.6c0.1,4.6-0.1,9.2,0.1,13.8c0.1,2.5-0.8,3.1-3.2,3.1
		c-23.7-0.1-47.4-0.1-71,0c-2.3,0-3.1-0.6-3-2.9C148.8,123.4,148.7,117.9,148.7,112.3z M164.6,16.2c0,33.3,0,66.3,0,99.4
		c15.1,0,29.9,0,44.8,0c0-33.2,0-66.3,0-99.4C194.5,16.2,179.6,16.2,164.6,16.2z"/>
	<path d="M200.5,328.1c-55.4,0-110.7,0-166.3,0c-0.4-30,10.5-54.8,34.5-72.8c27.2-20.4,56.7-23,86.9-6.9
		C185.2,264.2,201.8,295.4,200.5,328.1z M50.5,312.6c44.8,0,89.2,0,133.6,0c-4-32-30.8-60.7-70.2-58.8c-18.4,0.9-34.1,8.1-46.6,21.9
		C58,286.1,52.5,298.5,50.5,312.6z"/>
	<path d="M117.6,153.8c19.9-0.1,38.2,18.2,38.3,38.2c0.1,20.1-18.3,38.7-38.5,38.7c-20,0-38.3-18.3-38.3-38.1
		C79,171.9,96.9,153.9,117.6,153.8z M94.4,192.2c0,13.8,9.2,23,22.9,23.1c13.7,0.1,23.2-9.4,23.2-23.2c0-13.7-9.3-22.9-23-23
		C103.5,169.1,94.4,178.3,94.4,192.2z"/>
	<path d="M231.3,188.2c0-5,0-9.9,0-15c28.1,0,56.1,0,84.3,0c0,4.9,0,9.9,0,15C287.5,188.2,259.5,188.2,231.3,188.2z"/>
	<path d="M231.4,216.1c28.1,0,56.1,0,84.2,0c0,5,0,9.9,0,15c-28,0-56,0-84.2,0C231.4,226.3,231.4,221.4,231.4,216.1z"/>
</g>
</svg>
