
<svg width="218px" height="320px" viewBox="247 283 218 320" version="1.1" xmlns="http://www.w3.org/2000/svg" xmlns:xlink="http://www.w3.org/1999/xlink">
    <!-- Generator: Sketch 39.1 (31720) - http://www.bohemiancoding.com/sketch -->
    <desc>Created with Sketch.</desc>
    <defs></defs>
    <g id="Group" stroke="none" stroke-width="1" fill="none" fill-rule="evenodd" transform="translate(247.000000, 283.000000)">
        <path d="M167.4,236.3 C167.6,190.5 130.1,153 84.9,152.8 C61.3,152.7 41.1,161.1 24.5,177.9 C8.7,193.9 0.7,213.6 0.6,236 C0.5,258.9 8.7,278.9 25,295.1 C41.1,311.2 60.8,319.6 83.7,319.7 C129.6,320 167.5,282.6 167.4,236.3 L167.4,236.3 Z M60.1,149.3 C62.4,148.8 64.7,148.3 67,148 C70.4,147.5 73.7,146.7 77.1,146.6 C84.3,146.3 91.5,146.1 98.6,147.5 C101.5,148.1 104.5,148.5 107.4,149.3 C110.9,150.3 114.4,151.5 117.8,152.9 C121.7,154.6 125.4,156.6 129.2,158.4 C130.3,158.9 131.5,159.8 132.6,159.8 C148,159.9 163.3,159.8 178.7,159.9 C181.1,159.9 183.2,159.2 185.2,157.8 C189.7,154.8 191.4,148.2 188.7,143.3 C186.4,139 182.7,137 178,137 L113.4,137 L111.7,137 C111.5,135.2 111.2,133.6 111.1,131.9 C110.7,127 110.4,122.1 110,117.3 C109.9,115.4 109.7,113.5 109.5,111.6 C109.1,106.7 108.8,101.8 108.4,97 C108.2,95 108,93.1 107.9,91.1 C107.7,88 106.7,85.1 105.3,82.4 C100.5,73.5 93.1,68.7 82.9,68.3 C79.1,68.1 75.4,68.7 72,70.2 C67.8,72 64.3,74.7 61.4,78.3 C57.4,83.5 55.7,89.4 55.8,95.8 C55.9,98.6 56.4,101.4 56.6,104.2 C57,109.1 57.3,114 57.7,118.8 C57.9,120.8 58,122.7 58.2,124.7 C58.6,130.1 59,135.4 59.4,140.8 C59.7,143.5 59.9,146.2 60.1,149.3 L60.1,149.3 Z M147.2,172 C149.1,174.2 151,176.1 152.7,178.3 C154.8,180.9 156.9,183.7 158.8,186.4 C161.9,190.8 164.5,195.6 166.6,200.6 C168.1,204.1 169.3,207.7 170.4,211.3 C171.2,213.8 171.7,216.4 172.1,219.1 C172.7,223 173.1,226.9 173.7,230.8 C174,233.3 174.4,235.7 174.9,238.2 C175.3,240.4 175.9,242.6 176.3,244.8 C176.7,247 177.1,249.2 177.5,251.4 C178.2,254.8 178.9,258.1 179.6,261.5 C179.8,262.6 180,263.7 180.3,264.8 C180.8,267.1 181.3,269.3 181.7,271.6 C182.1,273.7 182.5,275.9 182.9,278 C183.4,280.4 183.9,282.9 184.4,285.3 C184.9,287.7 185.5,290.1 186.9,292.2 C190.4,297.4 195.2,299.9 201.5,299.7 C205.3,299.6 208.5,298.2 211.3,295.9 C215.1,292.7 216.9,288.6 217.1,283.8 C217.2,281.5 216.6,279.1 216.1,276.8 C215.5,273.3 214.7,269.9 214,266.4 C213.8,265.3 213.6,264.3 213.4,263.2 C212.9,260.9 212.4,258.7 212,256.4 C211.6,254.3 211.2,252.1 210.8,250 C210.3,247.6 209.8,245.2 209.3,242.7 C208.9,240.7 208.5,238.7 208.1,236.7 C207.6,234.5 207.1,232.4 206.7,230.2 C206.3,228 205.9,225.7 205.5,223.5 C204.9,220.4 204.1,217.4 203.5,214.3 C203,212.1 202.7,209.8 202.3,207.6 C201.6,204.1 200.9,200.7 200.2,197.2 C200,196.2 199.8,195.1 199.6,194.1 C199.1,191.9 198.6,189.7 198.1,187.5 C197.7,185.8 197.5,183.9 196.9,182.3 C194.6,176.4 188.8,171.8 181.9,171.8 C170.7,171.9 159.6,171.8 148.4,171.8 C148.1,171.9 147.7,172 147.2,172 L147.2,172 Z M53,30 C52.6,46.1 66.3,59.4 82.1,59.3 C98.8,59.2 111.4,46 111.4,30.1 C111.4,14 98.8,0.9 82.1,0.8 C66.4,0.6 52.6,13.8 53,30 L53,30 Z" id="Shape1"></path>
        <path d="M167.4,236.3 C167.5,282.7 129.6,320.1 83.7,319.8 C60.8,319.7 41.1,311.3 25,295.2 C8.8,278.9 0.6,259 0.6,236.1 C0.7,213.7 8.7,194 24.5,178 C41,161.2 61.2,152.8 84.9,152.9 C130.2,153 167.6,190.5 167.4,236.3 L167.4,236.3 Z M147.8,236.3 C148.1,201.3 119.1,172.6 84.9,172.5 C66.7,172.4 51.2,178.9 38.5,191.8 C26.5,204 20.3,219 20.3,236 C20.3,271.3 48.3,299.9 83.7,300.2 C118.7,300.4 148,271.6 147.8,236.3 L147.8,236.3 Z"  class="shape" id="Shape2"></path>
        <path d="M60.1,149.3 C59.9,146.3 59.6,143.6 59.4,140.8 C59,135.4 58.6,130.1 58.2,124.7 C58.1,122.7 57.9,120.8 57.7,118.8 C57.3,113.9 57,109 56.6,104.2 C56.4,101.4 55.8,98.6 55.8,95.8 C55.6,89.3 57.4,83.5 61.4,78.3 C64.2,74.6 67.8,72 72,70.2 C75.4,68.7 79.1,68.2 82.9,68.3 C93.1,68.7 100.4,73.5 105.3,82.4 C106.8,85.1 107.7,88 107.9,91.1 C108,93.1 108.2,95 108.4,97 C108.8,101.9 109.1,106.8 109.5,111.6 C109.6,113.5 109.8,115.4 110,117.3 C110.4,122.2 110.7,127.1 111.1,131.9 C111.2,133.5 111.5,135.1 111.7,137 L113.4,137 L178,137 C182.8,137 186.4,139.1 188.7,143.3 C191.3,148.2 189.6,154.8 185.2,157.8 C183.2,159.2 181.1,159.9 178.7,159.9 C163.3,159.9 148,159.9 132.6,159.8 C131.5,159.8 130.3,159 129.2,158.4 C125.4,156.6 121.7,154.5 117.8,152.9 C114.4,151.5 111,150.3 107.4,149.3 C104.5,148.5 101.5,148.1 98.6,147.5 C91.5,146 84.3,146.3 77.1,146.6 C73.7,146.7 70.3,147.5 67,148 C64.7,148.3 62.5,148.8 60.1,149.3 L60.1,149.3 Z"  class="shape" id="Shape2"></path>
        <path d="M147.2,172 C147.7,172 148.1,171.9 148.5,171.9 L182,171.9 C188.9,171.9 194.7,176.5 197,182.4 C197.6,184 197.8,185.9 198.2,187.6 C198.7,189.8 199.2,192 199.7,194.2 C199.9,195.2 200.1,196.3 200.3,197.3 C201,200.8 201.7,204.2 202.4,207.7 C202.8,209.9 203.1,212.2 203.6,214.4 C204.2,217.5 205,220.5 205.6,223.6 C206.1,225.8 206.4,228.1 206.8,230.3 C207.2,232.5 207.8,234.6 208.2,236.8 C208.6,238.8 209,240.8 209.4,242.8 C209.9,245.2 210.4,247.6 210.9,250.1 C211.3,252.2 211.7,254.4 212.1,256.5 C212.5,258.8 213.1,261 213.5,263.3 C213.7,264.4 213.9,265.4 214.1,266.5 C214.8,270 215.5,273.4 216.2,276.9 C216.6,279.2 217.3,281.6 217.2,283.9 C217,288.7 215.2,292.9 211.4,296 C208.6,298.4 205.4,299.7 201.6,299.8 C195.3,300 190.5,297.5 187,292.3 C185.6,290.2 185,287.8 184.5,285.4 C184,283 183.5,280.6 183,278.1 C182.6,276 182.2,273.8 181.8,271.7 C181.4,269.4 180.8,267.2 180.4,264.9 C180.2,263.8 180,262.7 179.7,261.6 C179,258.2 178.3,254.9 177.6,251.5 C177.2,249.3 176.8,247.1 176.4,244.9 C176,242.7 175.4,240.5 175,238.3 C174.5,235.9 174.2,233.4 173.8,230.9 C173.3,227 172.8,223.1 172.2,219.2 C171.8,216.6 171.3,214 170.5,211.4 C169.4,207.8 168.1,204.2 166.7,200.7 C164.6,195.7 162,190.9 158.9,186.5 C157,183.7 154.9,181 152.8,178.4 C151,176.2 149.1,174.2 147.2,172 L147.2,172 Z"  class="shape" id="Shape2"></path>
        <path d="M53,30 C52.6,13.7 66.4,0.6 82.1,0.7 C98.8,0.8 111.4,13.9 111.4,30 C111.4,45.9 98.8,59.1 82.1,59.2 C66.3,59.4 52.6,46.1 53,30 L53,30 Z"  class="shape" id="Shape2"></path>
        <path d="M147.8,236.3 C148,271.7 118.8,300.4 83.7,300.1 C48.3,299.8 20.3,271.2 20.3,235.9 C20.3,218.8 26.5,203.9 38.5,191.7 C51.2,178.8 66.7,172.3 84.9,172.4 C119.1,172.6 148.1,201.3 147.8,236.3 L147.8,236.3 Z M131.3,204.4 C131.2,204 131.2,203.7 131.1,203.5 C129.8,201.9 128.6,200.2 127.2,198.6 C123.4,194.2 119,190.4 113.9,187.4 C108.5,184.2 102.8,181.6 96.6,180.4 C93.2,179.8 89.9,179.2 86.5,178.9 C81.5,178.6 76.5,179.1 71.6,180.4 C69.2,181 66.9,181.7 64.5,182.5 C63,183 62.7,183.8 63.4,185.3 C63.5,185.5 63.6,185.6 63.6,185.8 C64.5,189.6 66.4,192.9 69,195.7 C73.9,201 79.9,204.3 87.2,204.4 C101.5,204.6 115.9,204.5 130.2,204.5 C130.6,204.5 130.9,204.4 131.3,204.4 L131.3,204.4 Z" id="Shape1"></path>
        <path d="M131.3,204.4 C130.8,204.4 130.5,204.5 130.2,204.5 C115.9,204.5 101.5,204.6 87.2,204.4 C79.9,204.3 73.9,201 69,195.7 C66.4,192.9 64.5,189.6 63.6,185.8 C63.6,185.6 63.4,185.5 63.4,185.3 C62.8,183.8 63,183 64.5,182.5 C66.8,181.7 69.2,181.1 71.6,180.4 C76.5,179.1 81.5,178.6 86.5,178.9 C89.9,179.1 93.3,179.8 96.6,180.4 C102.8,181.5 108.5,184.1 113.9,187.4 C118.9,190.4 123.3,194.2 127.2,198.6 C128.6,200.2 129.8,201.8 131.1,203.5 C131.2,203.7 131.2,204 131.3,204.4 L131.3,204.4 Z"  class="shape" id="Shape2"></path>
    </g>
</svg>